<svg xmlns="http://www.w3.org/2000/svg" xmlns:xlink="http://www.w3.org/1999/xlink" width="750" zoomAndPan="magnify" viewBox="0 0 750 1124.99995" height="1124.99995" preserveAspectRatio="xMidYMid meet" version="1.0"><defs><clipPath id="id1"><path d="M 193.601562 653.550781 L 640.769531 653.550781 L 640.769531 763.320312 L 193.601562 763.320312 Z M 193.601562 653.550781 " clip-rule="nonzero"/></clipPath><clipPath id="id2"><path d="M 75.320312 583.347656 L 227 583.347656 L 227 763.320312 L 75.320312 763.320312 Z M 75.320312 583.347656 " clip-rule="nonzero"/></clipPath></defs><path fill="rgb(76.858521%, 76.078796%, 71.759033%)" d="M 630.804688 617.671875 C 630.859375 617.800781 630.933594 617.960938 631.035156 618.1875 C 631.144531 618.429688 631.25 618.671875 631.363281 618.914062 C 631.367188 618.902344 631.355469 618.882812 631.363281 618.871094 C 631.113281 618.332031 630.9375 617.949219 630.832031 617.714844 C 630.820312 617.699219 630.8125 617.6875 630.804688 617.671875 " fill-opacity="1" fill-rule="nonzero"/><path fill="rgb(59.999084%, 58.039856%, 53.329468%)" d="M 196.332031 756.546875 C 196.078125 756.367188 195.824219 756.1875 195.574219 756 C 195.824219 756.1875 196.078125 756.367188 196.332031 756.546875 " fill-opacity="1" fill-rule="nonzero"/><path fill="rgb(59.999084%, 58.039856%, 53.329468%)" d="M 194.179688 754.878906 C 193.957031 754.695312 193.734375 754.511719 193.519531 754.320312 C 193.734375 754.511719 193.957031 754.695312 194.179688 754.878906 " fill-opacity="1" fill-rule="nonzero"/><path fill="rgb(59.999084%, 58.039856%, 53.329468%)" d="M 195.246094 755.738281 C 195.007812 755.554688 194.769531 755.371094 194.535156 755.179688 C 194.769531 755.371094 195.007812 755.554688 195.246094 755.738281 " fill-opacity="1" fill-rule="nonzero"/><path fill="rgb(59.999084%, 58.039856%, 53.329468%)" d="M 191.105469 751.984375 C 190.957031 751.824219 190.800781 751.667969 190.65625 751.507812 C 190.800781 751.667969 190.957031 751.824219 191.105469 751.984375 " fill-opacity="1" fill-rule="nonzero"/><path fill="rgb(59.999084%, 58.039856%, 53.329468%)" d="M 193.132812 753.96875 C 192.933594 753.789062 192.730469 753.609375 192.535156 753.421875 C 192.730469 753.609375 192.933594 753.789062 193.132812 753.96875 " fill-opacity="1" fill-rule="nonzero"/><path fill="rgb(59.999084%, 58.039856%, 53.329468%)" d="M 189.972656 750.730469 C 189.902344 750.648438 189.832031 750.570312 189.761719 750.488281 C 189.832031 750.570312 189.902344 750.648438 189.972656 750.730469 " fill-opacity="1" fill-rule="nonzero"/><path fill="rgb(59.999084%, 58.039856%, 53.329468%)" d="M 200.984375 759.382812 C 200.648438 759.210938 200.316406 759.035156 199.988281 758.859375 C 200.316406 759.035156 200.648438 759.210938 200.984375 759.382812 " fill-opacity="1" fill-rule="nonzero"/><path fill="rgb(59.999084%, 58.039856%, 53.329468%)" d="M 202.1875 759.96875 C 201.839844 759.804688 201.492188 759.640625 201.148438 759.46875 C 201.492188 759.640625 201.839844 759.804688 202.1875 759.96875 " fill-opacity="1" fill-rule="nonzero"/><path fill="rgb(59.999084%, 58.039856%, 53.329468%)" d="M 198.609375 758.054688 C 198.316406 757.875 198.023438 757.699219 197.738281 757.511719 C 198.023438 757.699219 198.316406 757.875 198.609375 758.054688 " fill-opacity="1" fill-rule="nonzero"/><path fill="rgb(59.999084%, 58.039856%, 53.329468%)" d="M 199.800781 758.75 C 199.484375 758.570312 199.164062 758.394531 198.851562 758.207031 C 199.164062 758.394531 199.484375 758.570312 199.800781 758.75 " fill-opacity="1" fill-rule="nonzero"/><path fill="rgb(59.999084%, 58.039856%, 53.329468%)" d="M 197.46875 757.332031 C 197.191406 757.152344 196.917969 756.96875 196.644531 756.777344 C 196.917969 756.96875 197.191406 757.152344 197.46875 757.332031 " fill-opacity="1" fill-rule="nonzero"/><path fill="rgb(59.999084%, 58.039856%, 53.329468%)" d="M 203.453125 760.523438 C 203.074219 760.367188 202.699219 760.203125 202.328125 760.03125 C 202.699219 760.203125 203.074219 760.367188 203.453125 760.523438 " fill-opacity="1" fill-rule="nonzero"/><path fill="rgb(59.999084%, 58.039856%, 53.329468%)" d="M 204.691406 761.019531 C 204.300781 760.871094 203.910156 760.714844 203.523438 760.554688 C 203.910156 760.714844 204.300781 760.871094 204.691406 761.019531 " fill-opacity="1" fill-rule="nonzero"/><path fill="rgb(59.999084%, 58.039856%, 53.329468%)" d="M 192.117188 753.011719 C 191.9375 752.835938 191.753906 752.664062 191.578125 752.484375 C 191.753906 752.664062 191.9375 752.835938 192.117188 753.011719 " fill-opacity="1" fill-rule="nonzero"/><g clip-path="url(#id1)"><path fill="rgb(59.999084%, 58.039856%, 53.329468%)" d="M 581.257812 661.886719 C 542.730469 669.792969 219.988281 741.003906 221.574219 740.0625 C 221.652344 740.019531 221.753906 739.964844 221.851562 739.914062 L 219.441406 740.542969 C 217.113281 741.179688 214.753906 741.527344 212.410156 741.605469 C 205.75 741.828125 199.222656 739.851562 193.8125 736.011719 C 199.304688 751.515625 211.890625 759.015625 226.832031 762.09375 C 219.378906 764.097656 211.667969 763.628906 204.738281 761.035156 C 211.710938 763.644531 219.46875 764.101562 226.964844 762.0625 L 640.730469 654.050781 C 629.027344 652.761719 609.007812 656.195312 581.257812 661.886719 " fill-opacity="1" fill-rule="nonzero"/></g><path fill="rgb(59.999084%, 58.039856%, 53.329468%)" d="M 650.363281 587.949219 L 611.078125 550.421875 Z M 650.363281 587.949219 " fill-opacity="1" fill-rule="nonzero"/><path fill="rgb(50.19989%, 48.629761%, 45.098877%)" d="M 669.855469 595.804688 C 670.25 599.394531 670.019531 603.097656 669.085938 606.773438 C 666.347656 617.570312 658.296875 625.765625 647.550781 628.691406 L 221.851562 739.914062 C 221.753906 739.964844 221.652344 740.019531 221.574219 740.0625 C 219.988281 741.003906 542.730469 669.792969 581.257812 661.886719 C 609.007812 656.195312 629.027344 652.761719 640.730469 654.050781 L 646.636719 652.507812 C 661.648438 648.421875 674.996094 613.207031 669.855469 595.804688 " fill-opacity="1" fill-rule="nonzero"/><g clip-path="url(#id2)"><path fill="rgb(47.059631%, 45.489502%, 42.349243%)" d="M 226.832031 762.09375 C 211.890625 759.015625 199.304688 751.515625 193.8125 736.011719 C 191.441406 734.328125 189.28125 732.292969 187.425781 729.921875 L 81.8125 599.511719 C 78.171875 594.863281 76.023438 589.382812 75.46875 583.71875 C 75.542969 598.128906 82.207031 617.644531 88.679688 625.910156 L 188.902344 749.433594 C 189.183594 749.792969 189.46875 750.144531 189.761719 750.488281 C 189.832031 750.570312 189.902344 750.648438 189.972656 750.730469 C 190.199219 750.992188 190.421875 751.253906 190.65625 751.507812 C 190.800781 751.667969 190.957031 751.824219 191.105469 751.984375 C 191.261719 752.152344 191.417969 752.320312 191.578125 752.484375 C 191.753906 752.664062 191.9375 752.835938 192.117188 753.011719 C 192.257812 753.148438 192.394531 753.289062 192.535156 753.421875 C 192.730469 753.609375 192.933594 753.789062 193.132812 753.96875 C 193.261719 754.085938 193.390625 754.207031 193.519531 754.320312 C 193.734375 754.511719 193.957031 754.695312 194.179688 754.878906 C 194.296875 754.976562 194.414062 755.082031 194.535156 755.179688 C 194.769531 755.371094 195.007812 755.554688 195.246094 755.738281 C 195.355469 755.824219 195.464844 755.914062 195.574219 756 C 195.824219 756.1875 196.078125 756.367188 196.332031 756.546875 C 196.433594 756.625 196.539062 756.703125 196.644531 756.777344 C 196.917969 756.96875 197.191406 757.152344 197.46875 757.332031 C 197.558594 757.390625 197.648438 757.453125 197.738281 757.511719 C 198.023438 757.699219 198.316406 757.875 198.609375 758.054688 C 198.691406 758.105469 198.769531 758.15625 198.851562 758.207031 C 199.164062 758.394531 199.484375 758.570312 199.800781 758.75 C 199.863281 758.785156 199.925781 758.824219 199.988281 758.859375 C 200.316406 759.035156 200.648438 759.210938 200.984375 759.382812 C 201.039062 759.410156 201.09375 759.4375 201.148438 759.46875 C 201.492188 759.640625 201.839844 759.804688 202.1875 759.96875 C 202.234375 759.988281 202.28125 760.011719 202.328125 760.03125 C 202.699219 760.203125 203.074219 760.367188 203.453125 760.523438 C 203.476562 760.535156 203.5 760.546875 203.523438 760.554688 C 203.910156 760.714844 204.300781 760.871094 204.691406 761.019531 C 204.707031 761.023438 204.722656 761.03125 204.738281 761.035156 C 211.667969 763.628906 219.378906 764.097656 226.832031 762.09375 " fill-opacity="1" fill-rule="nonzero"/></g><path fill="rgb(85.879517%, 85.099792%, 81.17981%)" d="M 266.6875 620.886719 C 266.964844 621.21875 267.253906 621.546875 267.542969 621.875 C 267.253906 621.546875 266.964844 621.21875 266.6875 620.886719 " fill-opacity="1" fill-rule="nonzero"/><path fill="rgb(85.879517%, 85.099792%, 81.17981%)" d="M 261.582031 613.523438 C 260.546875 611.65625 259.640625 609.710938 258.882812 607.691406 C 260.6875 612.492188 263.308594 616.875 266.597656 620.78125 C 264.691406 618.519531 263.011719 616.097656 261.582031 613.523438 " fill-opacity="1" fill-rule="nonzero"/><path fill="rgb(85.879517%, 85.099792%, 81.17981%)" d="M 258.15625 605.605469 C 258.371094 606.269531 258.597656 606.925781 258.839844 607.574219 C 258.597656 606.925781 258.371094 606.269531 258.15625 605.605469 " fill-opacity="1" fill-rule="nonzero"/><path fill="rgb(85.879517%, 85.099792%, 81.17981%)" d="M 276.761719 629.976562 C 277.15625 630.25 277.554688 630.523438 277.957031 630.789062 C 277.554688 630.523438 277.15625 630.25 276.761719 629.976562 " fill-opacity="1" fill-rule="nonzero"/><path fill="rgb(85.879517%, 85.099792%, 81.17981%)" d="M 273.253906 627.328125 C 273.503906 627.535156 273.757812 627.738281 274.011719 627.941406 C 273.757812 627.738281 273.503906 627.535156 273.253906 627.328125 " fill-opacity="1" fill-rule="nonzero"/><path fill="rgb(85.879517%, 85.099792%, 81.17981%)" d="M 272.0625 626.324219 C 272.339844 626.566406 272.621094 626.804688 272.902344 627.042969 C 272.621094 626.804688 272.339844 626.566406 272.0625 626.324219 " fill-opacity="1" fill-rule="nonzero"/><path fill="rgb(85.879517%, 85.099792%, 81.17981%)" d="M 274.414062 628.253906 C 274.664062 628.449219 274.914062 628.640625 275.171875 628.828125 C 274.914062 628.640625 274.664062 628.449219 274.414062 628.253906 " fill-opacity="1" fill-rule="nonzero"/><path fill="rgb(85.879517%, 85.099792%, 81.17981%)" d="M 267.667969 622.007812 C 267.957031 622.335938 268.257812 622.65625 268.558594 622.976562 C 268.257812 622.65625 267.957031 622.335938 267.667969 622.007812 " fill-opacity="1" fill-rule="nonzero"/><path fill="rgb(85.879517%, 85.099792%, 81.17981%)" d="M 275.578125 629.132812 C 275.847656 629.332031 276.121094 629.523438 276.394531 629.71875 C 276.121094 629.523438 275.847656 629.332031 275.578125 629.132812 " fill-opacity="1" fill-rule="nonzero"/><path fill="rgb(85.879517%, 85.099792%, 81.17981%)" d="M 257.066406 601.46875 C 257.355469 602.835938 257.710938 604.175781 258.121094 605.484375 C 257.707031 604.175781 257.355469 602.835938 257.066406 601.46875 " fill-opacity="1" fill-rule="nonzero"/><path fill="rgb(85.879517%, 85.099792%, 81.17981%)" d="M 257.347656 628.148438 L 258.210938 653.984375 Z M 257.347656 628.148438 " fill-opacity="1" fill-rule="nonzero"/><path fill="rgb(85.879517%, 85.099792%, 81.17981%)" d="M 294.003906 678.257812 C 305.597656 676.609375 317.101562 673.980469 328.339844 670.765625 C 314.652344 673.742188 302.90625 676.304688 294.003906 678.257812 " fill-opacity="1" fill-rule="nonzero"/><path fill="rgb(85.879517%, 85.099792%, 81.17981%)" d="M 271.824219 626.117188 C 270.71875 625.144531 269.664062 624.132812 268.65625 623.078125 C 269.664062 624.132812 270.71875 625.144531 271.824219 626.117188 " fill-opacity="1" fill-rule="nonzero"/><path fill="rgb(85.879517%, 85.099792%, 81.17981%)" d="M 255.613281 576.214844 C 255.613281 576.171875 255.613281 576.121094 255.613281 576.074219 L 255.609375 576.070312 L 255.8125 582.160156 L 255.613281 576.214844 " fill-opacity="1" fill-rule="nonzero"/><path fill="rgb(85.879517%, 85.099792%, 81.17981%)" d="M 638.9375 610.1875 C 639.640625 611.695312 639.785156 612.027344 639.382812 611.191406 C 639.070312 610.566406 638.777344 609.933594 638.496094 609.296875 C 638.480469 609.261719 638.46875 609.234375 638.449219 609.199219 C 638.492188 609.007812 638.242188 608.542969 637.917969 608.042969 C 637.757812 607.695312 637.753906 607.683594 637.890625 608.003906 C 637.515625 607.417969 637.058594 606.8125 636.917969 606.59375 C 636.546875 606.011719 635.441406 604.566406 635.511719 604.578125 C 634.867188 603.863281 634.207031 603.164062 633.527344 602.484375 C 625.90625 594.925781 617.519531 588.160156 609.550781 580.960938 L 609.835938 589.46875 C 609.917969 591.929688 609.625 594.328125 609.003906 596.605469 C 609.089844 596.972656 609.117188 597.363281 609.070312 597.757812 C 608.597656 601.9375 607.164062 604.679688 603.929688 607.386719 C 601.0625 609.785156 597.964844 611.582031 594.5625 613.109375 C 587.792969 616.140625 580.488281 617.613281 573.273438 619.175781 C 554.835938 623.179688 536.863281 628.808594 518.933594 634.617188 C 503 639.777344 487.066406 644.988281 470.769531 648.890625 C 456.925781 652.210938 377.554688 671.472656 339.820312 680.667969 C 337.15625 682.851562 333.550781 684 330.40625 685.257812 C 325.480469 687.238281 320.496094 689.09375 315.5 690.882812 C 313.660156 691.542969 311.871094 692.257812 310.101562 693.003906 C 307.179688 695.132812 304.203125 697.488281 301.039062 699.117188 C 299.476562 699.921875 297.871094 699.882812 296.308594 699.449219 C 294.117188 700.28125 291.863281 700.925781 289.480469 701.320312 C 288.335938 701.507812 287.605469 699.769531 288.445312 699.035156 C 289.285156 698.292969 290.136719 697.578125 290.992188 696.875 C 288.777344 695.464844 286.839844 693.730469 285.152344 691.710938 C 282.160156 692.019531 279.164062 692.21875 276.164062 692.265625 C 276.105469 692.429688 276.046875 692.589844 275.984375 692.75 C 275.414062 694.277344 274.863281 696.195312 274.082031 697.925781 C 273.476562 699.265625 272.730469 700.496094 271.714844 701.339844 C 271.03125 701.914062 265.589844 706.71875 258.546875 709.167969 C 254.097656 710.714844 249.078125 711.472656 245.230469 711.941406 C 244.71875 712.070312 244.207031 712.199219 243.703125 712.332031 C 243.371094 712.414062 243.09375 712.351562 242.878906 712.214844 C 241.25 712.398438 240.015625 712.539062 239.390625 712.699219 L 239.386719 712.699219 C 234.152344 714.054688 228.464844 714.136719 223.289062 712.453125 C 214.539062 709.609375 208.492188 702.09375 208.699219 692.8125 C 208.710938 692.417969 209.328125 692.265625 209.417969 692.6875 C 211.214844 700.914062 219.128906 707.269531 227.203125 708.609375 C 234.710938 709.855469 245.765625 707.484375 249.933594 700.488281 C 251.996094 697.023438 253.207031 692.835938 253.976562 688.902344 C 253.980469 688.875 253.988281 688.847656 253.992188 688.820312 C 250.667969 687.699219 247.429688 686.355469 244.253906 684.84375 C 241.078125 687.027344 236.96875 688.238281 233.535156 689.101562 C 228.003906 690.488281 220.910156 691.417969 215.507812 689.226562 C 214.734375 688.914062 214.871094 687.832031 215.445312 687.429688 C 216.824219 686.46875 218.304688 685.726562 219.816406 685.03125 C 218.375 680.78125 219.691406 675.859375 221.65625 671.875 C 208.132812 663.4375 194.734375 654.742188 181.929688 645.253906 C 169.792969 636.257812 158.371094 626.488281 146.941406 616.636719 L 146.4375 616.320312 C 143.484375 614.503906 137.476562 610.21875 137.027344 596.757812 L 136.523438 583.128906 C 134.675781 583.671875 132.824219 584.195312 130.964844 584.660156 C 126.703125 585.726562 122.378906 586.4375 118.171875 587.734375 C 114.417969 588.894531 110.761719 590.113281 106.96875 591.167969 C 106.710938 591.46875 106.386719 591.757812 106.121094 592.035156 C 106.101562 592.054688 105.855469 592.347656 105.660156 592.566406 C 105.507812 592.792969 105.324219 593.054688 105.304688 593.089844 C 105.152344 593.378906 104.542969 594.863281 104.535156 594.773438 C 103.6875 597.503906 103.570312 600.042969 103.5625 602.832031 L 199.09375 720.789062 C 202.988281 725.765625 209.449219 727.914062 215.546875 726.246094 L 640.875 615.125 C 640.417969 613.730469 639.859375 610.929688 638.9375 610.1875 " fill-opacity="1" fill-rule="nonzero"/><path fill="rgb(85.879517%, 85.099792%, 81.17981%)" d="M 256.648438 599.210938 C 256.75 599.863281 256.871094 600.511719 257 601.152344 C 256.871094 600.511719 256.75 599.863281 256.648438 599.210938 " fill-opacity="1" fill-rule="nonzero"/><path fill="rgb(85.879517%, 85.099792%, 81.17981%)" d="M 256.335938 596.828125 C 256.40625 597.515625 256.496094 598.195312 256.597656 598.871094 C 256.496094 598.195312 256.40625 597.515625 256.335938 596.828125 " fill-opacity="1" fill-rule="nonzero"/><path fill="rgb(76.858521%, 76.078796%, 71.759033%)" d="M 608.449219 547.90625 L 609.550781 580.960938 C 617.519531 588.160156 625.90625 594.925781 633.527344 602.484375 C 634.207031 603.164062 634.867188 603.863281 635.511719 604.578125 C 635.441406 604.566406 636.546875 606.011719 636.917969 606.59375 C 637.058594 606.8125 637.515625 607.417969 637.890625 608.003906 C 637.753906 607.683594 637.757812 607.695312 637.917969 608.042969 C 638.242188 608.542969 638.492188 609.007812 638.449219 609.199219 C 638.46875 609.234375 638.480469 609.261719 638.496094 609.296875 C 638.777344 609.933594 639.070312 610.566406 639.382812 611.191406 C 639.785156 612.027344 639.640625 611.695312 638.9375 610.1875 C 639.859375 610.929688 640.417969 613.730469 640.875 615.125 L 643.652344 614.398438 C 649.179688 612.890625 653.316406 608.679688 654.726562 603.128906 C 656.132812 597.578125 654.503906 591.90625 650.363281 587.949219 L 611.078125 550.421875 L 608.449219 547.90625 " fill-opacity="1" fill-rule="nonzero"/><path fill="rgb(76.858521%, 76.078796%, 71.759033%)" d="M 105.304688 593.089844 C 105.324219 593.054688 105.507812 592.792969 105.660156 592.566406 C 105.855469 592.347656 106.101562 592.054688 106.121094 592.035156 C 106.386719 591.757812 106.710938 591.46875 106.96875 591.167969 C 110.761719 590.113281 114.417969 588.894531 118.171875 587.734375 C 122.378906 586.4375 126.703125 585.726562 130.964844 584.660156 C 132.824219 584.195312 134.675781 583.671875 136.523438 583.128906 L 135.570312 557.316406 L 102.09375 565.5 C 96.824219 566.789062 92.785156 570.46875 91.011719 575.59375 C 89.234375 580.71875 90.132812 586.109375 93.476562 590.378906 L 103.5625 602.832031 C 103.570312 600.042969 103.6875 597.503906 104.535156 594.773438 C 104.542969 594.863281 105.152344 593.378906 105.304688 593.089844 " fill-opacity="1" fill-rule="nonzero"/><path fill="rgb(98.039246%, 96.859741%, 83.139038%)" d="M 187.425781 729.921875 C 189.28125 732.292969 191.441406 734.328125 193.8125 736.011719 C 199.222656 739.851562 205.75 741.828125 212.410156 741.605469 C 214.753906 741.527344 217.113281 741.179688 219.441406 740.542969 L 221.851562 739.914062 L 647.550781 628.691406 C 658.296875 625.765625 666.347656 617.570312 669.085938 606.773438 C 670.019531 603.097656 670.25 599.394531 669.855469 595.804688 C 669.085938 588.847656 665.910156 582.3125 660.597656 577.238281 L 607.742188 526.742188 L 607.855469 530.105469 L 608.449219 547.90625 L 611.078125 550.421875 L 650.363281 587.949219 C 654.503906 591.90625 656.132812 597.578125 654.726562 603.128906 C 653.316406 608.679688 649.179688 612.890625 643.652344 614.398438 L 640.875 615.125 L 215.546875 726.246094 C 209.449219 727.914062 202.988281 725.765625 199.09375 720.789062 L 103.5625 602.832031 L 93.476562 590.378906 C 90.132812 586.109375 89.234375 580.71875 91.011719 575.59375 C 92.785156 570.46875 96.824219 566.789062 102.09375 565.5 L 135.570312 557.316406 L 135.015625 542.199219 L 98.574219 551.109375 C 88.476562 553.578125 80.414062 560.917969 77.007812 570.742188 C 75.539062 574.988281 75.042969 579.410156 75.46875 583.71875 C 76.023438 589.382812 78.171875 594.863281 81.8125 599.511719 L 187.425781 729.921875 " fill-opacity="1" fill-rule="nonzero"/><path fill="rgb(76.858521%, 76.078796%, 71.759033%)" d="M 254.535156 683.066406 C 253.125 682.714844 251.75 682.261719 250.464844 681.667969 C 249.636719 681.402344 248.804688 681.054688 247.96875 680.597656 C 247.664062 680.433594 247.40625 680.21875 247.179688 679.972656 C 246.808594 680.226562 246.351562 680.457031 245.78125 680.675781 C 238.441406 683.457031 230.984375 686.109375 223.472656 688.382812 C 222.667969 688.625 221.476562 688.328125 221.085938 687.503906 C 221.027344 687.382812 220.972656 687.253906 220.914062 687.128906 C 220.8125 687.078125 220.71875 687.007812 220.660156 686.902344 C 220.308594 686.296875 220.03125 685.671875 219.816406 685.03125 C 218.304688 685.726562 216.824219 686.46875 215.445312 687.429688 C 214.871094 687.832031 214.734375 688.914062 215.507812 689.226562 C 220.910156 691.417969 228.003906 690.488281 233.535156 689.101562 C 236.96875 688.238281 241.078125 687.027344 244.253906 684.84375 C 247.429688 686.355469 250.667969 687.699219 253.992188 688.820312 C 254.347656 686.984375 254.574219 685.019531 254.535156 683.066406 " fill-opacity="1" fill-rule="nonzero"/><path fill="rgb(76.858521%, 76.078796%, 71.759033%)" d="M 276.164062 692.265625 C 279.164062 692.21875 282.160156 692.019531 285.152344 691.710938 C 285.039062 691.570312 284.917969 691.4375 284.804688 691.296875 C 284.132812 690.457031 284.117188 689.492188 284.824219 688.671875 C 287.25 685.851562 289.441406 682.796875 291.71875 679.851562 C 292.089844 679.375 292.730469 678.972656 293.371094 678.898438 C 293.289062 678.746094 293.203125 678.601562 293.125 678.449219 C 286.550781 679.886719 281.617188 680.976562 278.710938 681.625 C 278.703125 681.726562 278.699219 681.824219 278.6875 681.921875 C 278.34375 685.492188 277.394531 688.910156 276.164062 692.265625 " fill-opacity="1" fill-rule="nonzero"/><path fill="rgb(76.858521%, 76.078796%, 71.759033%)" d="M 290.992188 696.875 C 290.136719 697.578125 289.285156 698.292969 288.445312 699.035156 C 287.605469 699.769531 288.335938 701.507812 289.480469 701.320312 C 291.863281 700.925781 294.117188 700.28125 296.308594 699.449219 C 294.839844 699.039062 293.410156 698.28125 292.09375 697.535156 C 291.71875 697.324219 291.351562 697.101562 290.992188 696.875 " fill-opacity="1" fill-rule="nonzero"/><path fill="rgb(76.858521%, 76.078796%, 71.759033%)" d="M 221.65625 671.875 C 221.785156 671.613281 221.917969 671.351562 222.050781 671.097656 C 223.085938 669.152344 224.40625 667.566406 225.976562 666.371094 L 146.941406 616.636719 C 158.371094 626.488281 169.792969 636.257812 181.929688 645.253906 C 194.734375 654.742188 208.132812 663.4375 221.65625 671.875 " fill-opacity="1" fill-rule="nonzero"/><path fill="rgb(76.858521%, 76.078796%, 71.759033%)" d="M 314.414062 681.796875 C 322.152344 679.382812 329.234375 675.296875 336.898438 672.695312 C 337.148438 672.609375 337.296875 672.996094 337.070312 673.117188 C 332.464844 675.53125 328.65625 679.082031 324.722656 682.414062 C 322.847656 684.003906 320.765625 685.347656 318.550781 686.402344 C 316.214844 688.414062 313.878906 690.324219 311.292969 692.144531 C 310.894531 692.425781 310.496094 692.710938 310.101562 693.003906 C 311.871094 692.257812 313.660156 691.542969 315.5 690.882812 C 320.496094 689.09375 325.480469 687.238281 330.40625 685.257812 C 333.550781 684 337.15625 682.851562 339.820312 680.667969 C 377.554688 671.472656 456.925781 652.210938 470.769531 648.890625 C 487.066406 644.988281 503 639.777344 518.933594 634.617188 C 536.863281 628.808594 554.835938 623.179688 573.273438 619.175781 C 580.488281 617.613281 587.792969 616.140625 594.5625 613.109375 C 597.964844 611.582031 601.0625 609.785156 603.929688 607.386719 C 607.164062 604.679688 608.597656 601.9375 609.070312 597.757812 C 609.117188 597.363281 609.089844 596.972656 609.003906 596.605469 C 606.6875 605.105469 599.816406 611.898438 590.828125 613.835938 C 590.828125 613.835938 418.007812 651.242188 328.339844 670.765625 C 317.101562 673.980469 305.597656 676.609375 294.003906 678.257812 C 293.859375 678.289062 293.703125 678.320312 293.558594 678.351562 C 299.09375 683.332031 307.566406 683.933594 314.414062 681.796875 " fill-opacity="1" fill-rule="nonzero"/><path fill="rgb(76.858521%, 76.078796%, 71.759033%)" d="M 243.703125 712.332031 C 244.207031 712.199219 244.71875 712.070312 245.230469 711.941406 C 244.382812 712.042969 243.59375 712.132812 242.878906 712.214844 C 243.09375 712.351562 243.371094 712.414062 243.703125 712.332031 " fill-opacity="1" fill-rule="nonzero"/><path fill="rgb(95.289612%, 93.728638%, 67.83905%)" d="M 167.074219 486.546875 C 169.773438 488.882812 173.476562 489.882812 176.828125 490.851562 C 184.316406 493.015625 191.753906 495.351562 199.25 497.492188 C 214.546875 501.859375 230.007812 505.132812 245.617188 508.136719 C 272.804688 513.375 300.636719 515.964844 328.308594 514.152344 C 356.652344 512.296875 383.554688 504.699219 410.820312 497.273438 C 438.707031 489.679688 466.972656 483.667969 495.546875 479.324219 C 509.558594 477.195312 524.054688 476.378906 537.730469 472.484375 C 547.894531 469.59375 558.007812 464.519531 563.367188 455.195312 C 559.21875 452.082031 554.859375 449 550.328125 445.988281 L 501.601562 415.445312 C 486.421875 404.835938 466.269531 408.339844 459.632812 409.769531 L 196.945312 467.164062 C 184.730469 470.1875 173.902344 473.375 164.800781 476.648438 C 162.679688 479.929688 164.308594 484.152344 167.074219 486.546875 " fill-opacity="1" fill-rule="nonzero"/><path fill="rgb(96.078491%, 94.509888%, 79.219055%)" d="M 138.167969 491.226562 C 140.429688 489.757812 143.25 489.15625 146.023438 489.773438 C 147.113281 490.015625 148.195312 490.441406 149.230469 491.082031 L 241.113281 547.589844 C 249.75 552.902344 255.144531 562.1875 255.484375 572.320312 L 255.609375 576.070312 L 255.613281 576.074219 C 255.296875 564.484375 263.277344 554.296875 274.625 551.851562 L 577.988281 486.433594 C 588.730469 484.121094 599.082031 489.328125 604.074219 498.167969 C 604.171875 498.117188 604.277344 498.070312 604.378906 498.019531 C 599.003906 486.375 583.726562 470.449219 563.367188 455.195312 C 558.007812 464.519531 547.894531 469.59375 537.730469 472.484375 C 524.054688 476.378906 509.558594 477.195312 495.546875 479.324219 C 466.972656 483.667969 438.707031 489.679688 410.820312 497.273438 C 383.554688 504.699219 356.652344 512.296875 328.308594 514.152344 C 300.636719 515.964844 272.804688 513.375 245.617188 508.136719 C 230.007812 505.132812 214.546875 501.859375 199.25 497.492188 C 191.753906 495.351562 184.316406 493.015625 176.828125 490.851562 C 173.476562 489.882812 169.773438 488.882812 167.074219 486.546875 C 164.308594 484.152344 162.679688 479.929688 164.800781 476.648438 C 145.503906 483.585938 133.996094 490.90625 133.667969 497.859375 C 133.761719 497.398438 133.875 496.945312 134.027344 496.507812 C 134.789062 494.28125 136.285156 492.453125 138.167969 491.226562 " fill-opacity="1" fill-rule="nonzero"/><path fill="rgb(90.979004%, 75.689697%, 31.369019%)" d="M 599.277344 551.261719 C 592.222656 560.246094 582.03125 566.257812 571.558594 570.449219 C 558.949219 575.496094 545.4375 579.027344 532.265625 582.257812 C 518.15625 585.71875 503.894531 588.496094 489.675781 591.433594 C 475.359375 594.386719 461.109375 597.585938 447.039062 601.554688 C 432.546875 605.644531 418.21875 610.300781 403.871094 614.871094 C 389.414062 619.46875 374.957031 624.070312 360.5 628.671875 C 346.765625 633.042969 332.882812 637.761719 318.457031 639.167969 C 304.539062 640.523438 289.859375 638.605469 277.957031 630.789062 C 277.554688 630.523438 277.15625 630.25 276.761719 629.976562 C 276.636719 629.890625 276.515625 629.804688 276.394531 629.71875 C 276.121094 629.523438 275.847656 629.332031 275.578125 629.132812 C 275.441406 629.03125 275.304688 628.929688 275.171875 628.828125 C 274.914062 628.640625 274.664062 628.449219 274.414062 628.253906 C 274.28125 628.152344 274.144531 628.046875 274.011719 627.941406 C 273.757812 627.738281 273.503906 627.535156 273.253906 627.328125 C 273.136719 627.234375 273.019531 627.136719 272.902344 627.042969 C 272.621094 626.804688 272.339844 626.566406 272.0625 626.324219 C 271.984375 626.253906 271.902344 626.1875 271.824219 626.117188 C 270.71875 625.144531 269.664062 624.132812 268.65625 623.078125 C 268.625 623.042969 268.589844 623.011719 268.558594 622.976562 C 268.257812 622.65625 267.957031 622.335938 267.667969 622.007812 C 267.625 621.964844 267.585938 621.917969 267.542969 621.875 C 267.253906 621.546875 266.964844 621.21875 266.6875 620.886719 C 266.65625 620.851562 266.625 620.816406 266.597656 620.78125 C 263.308594 616.875 260.6875 612.492188 258.882812 607.691406 C 258.871094 607.65625 258.851562 607.613281 258.839844 607.574219 C 258.597656 606.925781 258.371094 606.269531 258.15625 605.605469 C 258.144531 605.566406 258.132812 605.527344 258.121094 605.484375 C 257.710938 604.175781 257.355469 602.835938 257.066406 601.46875 C 257.042969 601.363281 257.023438 601.257812 257 601.152344 C 256.871094 600.511719 256.75 599.863281 256.648438 599.210938 C 256.628906 599.097656 256.617188 598.984375 256.597656 598.871094 C 256.496094 598.195312 256.40625 597.515625 256.335938 596.828125 C 256.328125 596.753906 256.3125 596.6875 256.296875 596.621094 L 257.347656 628.148438 L 258.210938 653.984375 L 258.304688 656.789062 C 260.910156 656.199219 263.542969 655.792969 266.078125 656.960938 C 268.859375 658.242188 271.257812 660.613281 273.15625 662.964844 C 277.402344 668.21875 279.289062 674.933594 278.710938 681.625 C 281.617188 680.976562 286.550781 679.886719 293.125 678.449219 C 293.027344 678.261719 293.261719 678.089844 293.414062 678.230469 C 293.460938 678.273438 293.511719 678.3125 293.558594 678.351562 C 293.703125 678.320312 293.859375 678.289062 294.003906 678.257812 C 302.90625 676.304688 314.652344 673.742188 328.339844 670.765625 C 418.007812 651.242188 590.828125 613.835938 590.828125 613.835938 C 599.816406 611.898438 606.6875 605.105469 609.003906 596.605469 C 609.625 594.328125 609.917969 591.929688 609.835938 589.46875 L 609.550781 580.960938 L 608.449219 547.90625 L 607.855469 530.105469 C 606.59375 537.710938 604.179688 545.019531 599.277344 551.261719 " fill-opacity="1" fill-rule="nonzero"/><path fill="rgb(90.979004%, 75.689697%, 31.369019%)" d="M 247.390625 679.816406 C 247.320312 679.871094 247.253906 679.921875 247.179688 679.972656 C 247.40625 680.21875 247.664062 680.433594 247.96875 680.597656 C 248.804688 681.054688 249.636719 681.402344 250.464844 681.667969 C 251.75 682.261719 253.125 682.714844 254.535156 683.066406 C 254.519531 682.222656 254.449219 681.382812 254.320312 680.558594 C 252.433594 681.414062 250.050781 681.277344 247.390625 679.816406 " fill-opacity="1" fill-rule="nonzero"/><path fill="rgb(95.689392%, 84.309387%, 48.239136%)" d="M 135.570312 557.316406 L 136.523438 583.128906 L 137.027344 596.757812 C 137.476562 610.21875 143.484375 614.503906 146.4375 616.320312 L 146.941406 616.636719 L 225.976562 666.371094 C 228 664.828125 230.445312 663.941406 233.25 663.789062 C 233.664062 663.621094 234.078125 663.445312 234.496094 663.285156 C 241.511719 660.585938 248.894531 658.933594 256.21875 657.269531 C 256.910156 657.117188 257.605469 656.945312 258.304688 656.789062 L 258.210938 653.984375 L 257.347656 628.148438 L 256.296875 596.621094 L 256.246094 595.160156 C 255.378906 600.402344 254.394531 605.628906 253.105469 610.78125 C 251.617188 616.730469 249.097656 623.792969 242.5 625.511719 C 236 627.203125 228.925781 624.671875 222.667969 623 C 215.925781 621.207031 209.574219 617.867188 203.792969 613.980469 C 197.804688 609.953125 192.203125 605.273438 186.476562 600.890625 C 180.222656 596.101562 173.882812 591.421875 167.589844 586.679688 C 165.191406 584.871094 162.671875 583.113281 160.59375 580.921875 C 158.265625 578.46875 156.816406 575.410156 155.625 572.28125 C 152.953125 565.265625 150.339844 558.226562 147.765625 551.175781 C 141.878906 535.035156 134.167969 518.175781 136.355469 500.582031 C 136.582031 498.761719 134.054688 497.992188 133.46875 499.683594 C 133.464844 499.871094 133.460938 500.054688 133.46875 500.242188 L 135.015625 542.199219 L 135.570312 557.316406 " fill-opacity="1" fill-rule="nonzero"/><path fill="rgb(95.689392%, 84.309387%, 48.239136%)" d="M 248.816406 674.835938 C 248.703125 677.152344 248.839844 678.683594 247.390625 679.816406 C 250.050781 681.277344 252.433594 681.414062 254.320312 680.558594 C 254.074219 678.964844 253.597656 677.425781 252.804688 676.027344 C 251.917969 674.457031 250.734375 673.09375 249.359375 671.925781 C 249.058594 672.851562 248.867188 673.824219 248.816406 674.835938 " fill-opacity="1" fill-rule="nonzero"/><path fill="rgb(94.509888%, 79.60968%, 31.759644%)" d="M 604.785156 516.96875 C 603.085938 514.582031 601.097656 512.460938 598.550781 510.921875 C 590.945312 506.316406 580.894531 508.097656 572.640625 509.664062 C 561.988281 511.683594 551.484375 514.320312 540.867188 516.453125 C 540.113281 516.605469 539.359375 516.75 538.609375 516.886719 C 538.453125 517.105469 538.210938 517.277344 537.867188 517.3125 C 536.476562 517.457031 535.082031 517.570312 533.6875 517.667969 C 531.042969 518.007812 528.421875 518.199219 525.8125 518.171875 C 523.796875 518.304688 521.78125 518.460938 519.769531 518.683594 C 519.570312 518.730469 519.367188 518.773438 519.167969 518.8125 C 515.40625 519.59375 511.648438 520.398438 507.863281 521.039062 C 506.378906 521.292969 504.886719 521.46875 503.390625 521.628906 C 502.453125 521.855469 501.519531 522.082031 500.582031 522.320312 C 488.75 525.320312 477.25 529.421875 465.550781 532.867188 C 454.742188 536.054688 443.738281 538.765625 432.550781 540.203125 C 421.074219 541.675781 409.34375 541.617188 398.113281 544.65625 C 387.390625 547.554688 377.183594 551.9375 366.289062 554.257812 C 355.609375 556.535156 344.742188 557.710938 333.898438 558.898438 C 323.402344 560.050781 312.859375 561.21875 302.585938 563.730469 C 292.996094 566.070312 282.492188 569.460938 274.925781 576.101562 C 267.277344 582.8125 265.0625 594.09375 263.15625 603.636719 C 262.5 606.929688 261.992188 610.226562 261.582031 613.523438 C 263.011719 616.097656 264.691406 618.519531 266.597656 620.78125 C 266.625 620.816406 266.65625 620.851562 266.6875 620.886719 C 266.964844 621.21875 267.253906 621.546875 267.542969 621.875 C 267.585938 621.917969 267.625 621.964844 267.667969 622.007812 C 267.957031 622.335938 268.257812 622.65625 268.558594 622.976562 C 268.589844 623.011719 268.625 623.042969 268.65625 623.078125 C 269.664062 624.132812 270.71875 625.144531 271.824219 626.117188 C 271.902344 626.1875 271.984375 626.253906 272.0625 626.324219 C 272.339844 626.566406 272.621094 626.804688 272.902344 627.042969 C 273.019531 627.136719 273.136719 627.234375 273.253906 627.328125 C 273.503906 627.535156 273.757812 627.738281 274.011719 627.941406 C 274.144531 628.046875 274.28125 628.152344 274.414062 628.253906 C 274.664062 628.449219 274.914062 628.640625 275.171875 628.828125 C 275.304688 628.929688 275.441406 629.03125 275.578125 629.132812 C 275.847656 629.332031 276.121094 629.523438 276.394531 629.71875 C 276.515625 629.804688 276.636719 629.890625 276.761719 629.976562 C 277.15625 630.25 277.554688 630.523438 277.957031 630.789062 C 289.859375 638.605469 304.539062 640.523438 318.457031 639.167969 C 332.882812 637.761719 346.765625 633.042969 360.5 628.671875 C 374.957031 624.070312 389.414062 619.46875 403.871094 614.871094 C 418.21875 610.300781 432.546875 605.644531 447.039062 601.554688 C 461.109375 597.585938 475.359375 594.386719 489.675781 591.433594 C 503.894531 588.496094 518.15625 585.71875 532.265625 582.257812 C 545.4375 579.027344 558.949219 575.496094 571.558594 570.449219 C 582.03125 566.257812 592.222656 560.246094 599.277344 551.261719 C 604.179688 545.019531 606.59375 537.710938 607.855469 530.105469 L 607.742188 526.742188 L 607.710938 525.695312 C 607.433594 524.851562 607.152344 524.007812 606.867188 523.167969 C 606.167969 521.113281 605.5 519.039062 604.785156 516.96875 " fill-opacity="1" fill-rule="nonzero"/><path fill="rgb(98.81897%, 82.348633%, 38.42926%)" d="M 577.988281 486.433594 L 274.625 551.851562 C 263.277344 554.296875 255.296875 564.484375 255.613281 576.074219 C 255.613281 576.121094 255.613281 576.171875 255.613281 576.214844 L 255.8125 582.160156 L 256.121094 591.382812 L 256.246094 595.160156 L 256.296875 596.621094 C 256.3125 596.6875 256.328125 596.753906 256.335938 596.828125 C 256.40625 597.515625 256.496094 598.195312 256.597656 598.871094 C 256.617188 598.984375 256.628906 599.097656 256.648438 599.210938 C 256.75 599.863281 256.871094 600.511719 257 601.152344 C 257.023438 601.257812 257.042969 601.363281 257.066406 601.46875 C 257.355469 602.835938 257.707031 604.175781 258.121094 605.484375 C 258.132812 605.527344 258.144531 605.566406 258.15625 605.605469 C 258.371094 606.269531 258.597656 606.925781 258.839844 607.574219 C 258.851562 607.613281 258.871094 607.65625 258.882812 607.691406 C 259.640625 609.710938 260.546875 611.65625 261.582031 613.523438 C 261.992188 610.226562 262.5 606.929688 263.15625 603.636719 C 265.0625 594.09375 267.277344 582.8125 274.925781 576.101562 C 282.492188 569.460938 292.996094 566.070312 302.585938 563.730469 C 312.859375 561.21875 323.402344 560.050781 333.898438 558.898438 C 344.742188 557.710938 355.609375 556.535156 366.289062 554.257812 C 377.183594 551.9375 387.390625 547.554688 398.113281 544.65625 C 409.34375 541.617188 421.074219 541.675781 432.550781 540.203125 C 443.738281 538.765625 454.742188 536.054688 465.550781 532.867188 C 477.25 529.421875 488.75 525.320312 500.582031 522.320312 C 501.519531 522.082031 502.453125 521.855469 503.390625 521.628906 C 504.886719 521.46875 506.378906 521.292969 507.863281 521.039062 C 511.648438 520.398438 515.40625 519.59375 519.167969 518.8125 C 519.367188 518.773438 519.570312 518.730469 519.769531 518.683594 C 521.78125 518.460938 523.796875 518.304688 525.8125 518.171875 C 528.421875 518.199219 531.042969 518.007812 533.6875 517.667969 C 535.082031 517.570312 536.476562 517.457031 537.867188 517.3125 C 538.210938 517.277344 538.453125 517.105469 538.609375 516.886719 C 539.359375 516.75 540.113281 516.605469 540.867188 516.453125 C 551.484375 514.320312 561.988281 511.683594 572.640625 509.664062 C 580.894531 508.097656 590.945312 506.316406 598.550781 510.921875 C 601.097656 512.460938 603.085938 514.582031 604.785156 516.96875 C 605.5 519.039062 606.167969 521.113281 606.867188 523.167969 C 607.152344 524.007812 607.433594 524.851562 607.710938 525.695312 L 607.15625 509.195312 C 607.027344 505.15625 605.90625 501.417969 604.074219 498.167969 C 599.082031 489.328125 588.730469 484.121094 577.988281 486.433594 " fill-opacity="1" fill-rule="nonzero"/><path fill="rgb(98.81897%, 89.019775%, 50.979614%)" d="M 145.925781 490.011719 C 145.949219 489.929688 145.984375 489.851562 146.023438 489.773438 C 143.25 489.15625 140.429688 489.757812 138.167969 491.226562 C 138.957031 491.070312 139.746094 490.941406 140.542969 490.863281 C 142.320312 490.4375 144.117188 490.160156 145.925781 490.011719 " fill-opacity="1" fill-rule="nonzero"/><path fill="rgb(98.81897%, 89.019775%, 50.979614%)" d="M 136.355469 500.582031 C 134.167969 518.175781 141.878906 535.035156 147.765625 551.175781 C 150.339844 558.226562 152.953125 565.265625 155.625 572.28125 C 156.816406 575.410156 158.265625 578.46875 160.59375 580.921875 C 162.671875 583.113281 165.191406 584.871094 167.589844 586.679688 C 173.882812 591.421875 180.222656 596.101562 186.476562 600.890625 C 192.203125 605.273438 197.804688 609.953125 203.792969 613.980469 C 209.574219 617.867188 215.925781 621.207031 222.667969 623 C 228.925781 624.671875 236 627.203125 242.5 625.511719 C 249.097656 623.792969 251.617188 616.730469 253.105469 610.78125 C 254.394531 605.628906 255.378906 600.402344 256.246094 595.160156 L 256.121094 591.382812 C 255.527344 591.542969 254.820312 591.230469 254.8125 590.453125 C 254.699219 577.964844 250.457031 565.511719 240.53125 557.417969 C 232.957031 551.238281 223.320312 548.03125 214.277344 544.742188 C 204.054688 541.023438 195.175781 535.90625 186.445312 529.433594 C 177.589844 522.871094 169.308594 515.566406 160.441406 509.015625 C 156.171875 505.863281 151.589844 502.976562 146.75 500.785156 C 143.070312 499.117188 139.269531 497.1875 135.289062 496.429688 C 135.101562 496.460938 134.914062 496.492188 134.730469 496.527344 C 134.484375 496.574219 134.25 496.5625 134.027344 496.507812 C 133.875 496.945312 133.761719 497.398438 133.667969 497.859375 C 133.550781 498.449219 133.480469 499.054688 133.46875 499.683594 C 134.054688 497.992188 136.582031 498.761719 136.355469 500.582031 " fill-opacity="1" fill-rule="nonzero"/><path fill="rgb(95.289612%, 93.728638%, 67.83905%)" d="M 255.609375 576.070312 L 255.484375 572.320312 C 255.144531 562.1875 249.75 552.902344 241.113281 547.589844 L 149.230469 491.082031 C 148.195312 490.441406 147.113281 490.015625 146.023438 489.773438 C 145.984375 489.851562 145.949219 489.929688 145.925781 490.011719 C 144.117188 490.160156 142.320312 490.4375 140.542969 490.863281 C 139.746094 490.941406 138.957031 491.070312 138.167969 491.226562 C 136.285156 492.453125 134.789062 494.28125 134.027344 496.507812 C 134.25 496.5625 134.484375 496.574219 134.730469 496.527344 C 134.914062 496.492188 135.101562 496.460938 135.289062 496.429688 C 139.269531 497.1875 143.070312 499.117188 146.75 500.785156 C 151.589844 502.976562 156.171875 505.863281 160.441406 509.015625 C 169.308594 515.566406 177.589844 522.871094 186.445312 529.433594 C 195.175781 535.90625 204.054688 541.023438 214.277344 544.742188 C 223.320312 548.03125 232.957031 551.238281 240.53125 557.417969 C 250.457031 565.511719 254.699219 577.964844 254.8125 590.453125 C 254.820312 591.230469 255.527344 591.542969 256.121094 591.382812 L 255.8125 582.160156 L 255.609375 576.070312 " fill-opacity="1" fill-rule="nonzero"/><path fill="rgb(98.81897%, 82.348633%, 38.42926%)" d="M 256.429688 675.867188 C 258.757812 680.597656 258.9375 685.625 258.089844 690.761719 C 257.277344 695.683594 255.921875 700.9375 252.8125 704.9375 C 249.621094 709.042969 244.3125 711.421875 239.390625 712.699219 L 239.386719 712.699219 L 239.390625 712.699219 C 240.015625 712.539062 241.25 712.398438 242.878906 712.214844 C 243.59375 712.132812 244.382812 712.042969 245.230469 711.941406 C 249.078125 711.472656 254.097656 710.714844 258.546875 709.167969 C 265.589844 706.71875 271.03125 701.914062 271.714844 701.339844 C 272.730469 700.496094 273.476562 699.265625 274.082031 697.925781 C 274.792969 694.496094 275.28125 691.03125 275.066406 687.578125 C 274.703125 681.746094 271.765625 676.152344 268.664062 671.324219 C 267.308594 669.214844 265.839844 667.054688 263.78125 665.570312 C 261.40625 663.863281 258.757812 663.921875 255.96875 663.71875 C 248.933594 663.203125 241.542969 662.785156 234.496094 663.285156 C 234.078125 663.445312 233.664062 663.621094 233.25 663.789062 C 233.476562 663.773438 233.703125 663.761719 233.933594 663.757812 C 242.570312 663.65625 252.46875 667.804688 256.429688 675.867188 " fill-opacity="1" fill-rule="nonzero"/><path fill="rgb(98.81897%, 89.019775%, 50.979614%)" d="M 255.96875 663.71875 C 258.757812 663.921875 261.40625 663.863281 263.78125 665.570312 C 265.839844 667.054688 267.308594 669.214844 268.664062 671.324219 C 271.765625 676.152344 274.703125 681.746094 275.066406 687.578125 C 275.28125 691.03125 274.792969 694.496094 274.082031 697.925781 C 274.863281 696.195312 275.414062 694.277344 275.984375 692.75 C 276.046875 692.589844 276.105469 692.429688 276.164062 692.265625 C 277.394531 688.910156 278.34375 685.492188 278.6875 681.921875 C 278.699219 681.824219 278.703125 681.726562 278.710938 681.625 C 279.289062 674.933594 277.402344 668.21875 273.15625 662.964844 C 271.257812 660.613281 268.859375 658.242188 266.078125 656.960938 C 263.542969 655.792969 260.910156 656.199219 258.304688 656.789062 C 257.605469 656.945312 256.910156 657.117188 256.21875 657.269531 C 248.894531 658.933594 241.511719 660.585938 234.496094 663.285156 C 241.542969 662.785156 248.933594 663.203125 255.96875 663.71875 " fill-opacity="1" fill-rule="nonzero"/><path fill="rgb(94.509888%, 79.60968%, 31.759644%)" d="M 318.550781 686.402344 C 316.621094 687.316406 314.589844 688.019531 312.484375 688.449219 C 308.265625 689.3125 304.179688 688.539062 300.414062 686.496094 C 297.226562 684.769531 295.070312 682.023438 293.371094 678.898438 C 292.730469 678.972656 292.089844 679.375 291.71875 679.851562 C 289.441406 682.796875 287.25 685.851562 284.824219 688.671875 C 284.117188 689.492188 284.132812 690.457031 284.804688 691.296875 C 284.917969 691.4375 285.039062 691.570312 285.152344 691.710938 C 286.839844 693.730469 288.777344 695.464844 290.992188 696.875 C 291.351562 697.101562 291.71875 697.324219 292.09375 697.535156 C 293.410156 698.28125 294.839844 699.039062 296.308594 699.449219 C 297.871094 699.882812 299.476562 699.921875 301.039062 699.117188 C 304.203125 697.488281 307.179688 695.132812 310.101562 693.003906 C 310.496094 692.710938 310.894531 692.425781 311.292969 692.144531 C 313.878906 690.324219 316.214844 688.414062 318.550781 686.402344 " fill-opacity="1" fill-rule="nonzero"/><path fill="rgb(95.289612%, 93.728638%, 67.83905%)" d="M 293.371094 678.898438 C 295.070312 682.023438 297.226562 684.769531 300.414062 686.496094 C 304.179688 688.539062 308.265625 689.3125 312.484375 688.449219 C 314.589844 688.019531 316.621094 687.316406 318.550781 686.402344 C 320.765625 685.347656 322.847656 684.003906 324.722656 682.414062 C 328.65625 679.082031 332.464844 675.53125 337.070312 673.117188 C 337.296875 672.996094 337.148438 672.609375 336.898438 672.695312 C 329.234375 675.296875 322.152344 679.382812 314.414062 681.796875 C 307.566406 683.933594 299.09375 683.332031 293.558594 678.351562 C 293.511719 678.3125 293.460938 678.273438 293.414062 678.230469 C 293.261719 678.089844 293.027344 678.261719 293.125 678.449219 C 293.203125 678.601562 293.289062 678.746094 293.371094 678.898438 " fill-opacity="1" fill-rule="nonzero"/><path fill="rgb(86.669922%, 71.759033%, 31.369019%)" d="M 223.472656 688.382812 C 230.984375 686.109375 238.441406 683.457031 245.78125 680.675781 C 246.351562 680.457031 246.808594 680.226562 247.179688 679.972656 C 247.253906 679.921875 247.320312 679.871094 247.390625 679.816406 C 248.839844 678.683594 248.703125 677.152344 248.816406 674.835938 C 248.867188 673.824219 249.058594 672.851562 249.359375 671.925781 C 245.109375 668.320312 238.96875 666.609375 233.636719 666.777344 C 224.371094 667.0625 220.804688 678.738281 221.972656 686.496094 C 222.058594 687.078125 221.359375 687.355469 220.914062 687.128906 C 220.972656 687.253906 221.027344 687.382812 221.085938 687.503906 C 221.476562 688.328125 222.667969 688.625 223.472656 688.382812 " fill-opacity="1" fill-rule="nonzero"/><path fill="rgb(95.289612%, 93.728638%, 67.83905%)" d="M 222.050781 671.097656 C 221.917969 671.351562 221.785156 671.613281 221.65625 671.875 C 219.691406 675.859375 218.375 680.78125 219.816406 685.03125 C 220.03125 685.671875 220.308594 686.296875 220.660156 686.902344 C 220.71875 687.007812 220.8125 687.078125 220.914062 687.128906 C 221.359375 687.355469 222.058594 687.078125 221.972656 686.496094 C 220.804688 678.738281 224.371094 667.0625 233.636719 666.777344 C 238.96875 666.609375 245.109375 668.320312 249.359375 671.925781 C 250.734375 673.09375 251.917969 674.457031 252.804688 676.027344 C 253.597656 677.425781 254.074219 678.964844 254.320312 680.558594 C 254.449219 681.382812 254.519531 682.222656 254.535156 683.066406 C 254.574219 685.019531 254.347656 686.984375 253.992188 688.820312 C 253.988281 688.847656 253.980469 688.875 253.976562 688.902344 C 253.207031 692.835938 251.996094 697.023438 249.933594 700.488281 C 245.765625 707.484375 234.710938 709.855469 227.203125 708.609375 C 219.128906 707.269531 211.214844 700.914062 209.417969 692.6875 C 209.328125 692.265625 208.710938 692.417969 208.699219 692.8125 C 208.492188 702.09375 214.539062 709.609375 223.289062 712.453125 C 228.464844 714.136719 234.152344 714.054688 239.386719 712.699219 L 239.390625 712.699219 C 244.3125 711.421875 249.621094 709.042969 252.8125 704.9375 C 255.921875 700.9375 257.277344 695.683594 258.089844 690.761719 C 258.9375 685.625 258.757812 680.597656 256.429688 675.867188 C 252.46875 667.804688 242.570312 663.65625 233.933594 663.757812 C 233.703125 663.761719 233.476562 663.773438 233.25 663.789062 C 230.445312 663.941406 228 664.828125 225.976562 666.371094 C 224.40625 667.566406 223.085938 669.152344 222.050781 671.097656 " fill-opacity="1" fill-rule="nonzero"/></svg>