<svg xmlns="http://www.w3.org/2000/svg" xmlns:xlink="http://www.w3.org/1999/xlink" width="1080" zoomAndPan="magnify" viewBox="0 0 810 809.999993" height="1080" preserveAspectRatio="xMidYMid meet" version="1.0"><path fill="rgb(89.019775%, 9.799194%, 34.118652%)" d="M 584.550781 284.90625 L 584.550781 612.148438 C 584.550781 663.066406 504.691406 704.339844 406.179688 704.339844 C 307.664062 704.339844 227.804688 663.0625 227.804688 612.148438 L 227.804688 284.90625 C 227.804688 284.90625 244.488281 243.6875 265.578125 241.277344 C 286.664062 238.867188 302.296875 226.003906 325.226562 217.769531 C 339.972656 212.472656 383.738281 211.03125 414.402344 214.753906 C 446.757812 218.683594 458.386719 217.769531 476.460938 224.398438 C 494.539062 231.03125 531.292969 238.867188 543.945312 252.128906 C 556.597656 265.386719 581.167969 262.824219 584.550781 284.90625 Z M 584.550781 284.90625 " fill-opacity="1" fill-rule="nonzero"/><path fill="rgb(77.249146%, 9.01947%, 18.03894%)" d="M 361.140625 323.734375 C 360.273438 322.707031 359.375 321.574219 358.089844 321.1875 C 356.902344 320.828125 355.628906 321.179688 354.425781 321.484375 C 348.789062 322.921875 342.898438 323.375 337.109375 322.820312 C 332.832031 322.410156 328.449219 321.378906 325.078125 318.714844 C 321.703125 316.050781 319.597656 311.4375 320.898438 307.339844 C 321.59375 305.144531 323.144531 303.339844 324.65625 301.601562 C 329.582031 295.9375 334.917969 290.074219 340.925781 285.574219 C 328.261719 281.226562 315.570312 275.1875 312.839844 268.738281 C 309.632812 261.164062 310.128906 251.5625 316.316406 246.136719 C 321.546875 241.550781 329.199219 240.730469 336.042969 241.972656 C 342.910156 243.214844 349.628906 246.496094 353.8125 252.082031 L 354.027344 252.699219 C 354.777344 251.386719 355.679688 250.15625 356.78125 249.078125 C 359.277344 246.632812 362.472656 245.128906 365.863281 244.496094 L 362.851562 243.617188 C 360.925781 240.53125 360.65625 236.609375 361.519531 233.074219 C 362.386719 229.542969 364.296875 226.347656 366.488281 223.445312 C 367.875 221.613281 369.5 219.792969 371.691406 219.113281 C 373.003906 218.703125 374.40625 218.746094 375.773438 218.863281 C 381.054688 219.324219 386.464844 221.054688 390.109375 224.90625 C 392.902344 227.859375 393.613281 239.484375 392.496094 246.765625 C 395.316406 239.988281 401.039062 234.40625 407.984375 231.988281 C 416.613281 228.988281 426.789062 230.984375 433.648438 237.019531 C 435.574219 238.71875 437.421875 240.796875 439.945312 241.277344 C 441.589844 241.59375 443.277344 241.167969 444.917969 240.808594 C 455.269531 238.53125 466.960938 239.164062 475.277344 245.738281 C 483.597656 252.308594 486.523438 266.015625 479.265625 273.742188 C 478.230469 274.847656 476.976562 275.882812 476.597656 277.351562 C 476.226562 278.769531 476.753906 280.101562 477.59375 281.339844 C 482.097656 274.894531 489.898438 270.644531 497.738281 271.21875 C 505.625 271.796875 513.066406 277.660156 514.714844 285.398438 C 515.289062 288.109375 515.183594 290.9375 514.628906 293.652344 C 513.65625 298.421875 511.15625 303.019531 507.132812 305.761719 C 503.113281 308.503906 490.722656 309.882812 486.605469 307.292969 C 484.851562 315.410156 478.492188 322.492188 470.46875 324.617188 C 463.097656 326.570312 455.328125 324.457031 447.996094 322.355469 C 438.15625 319.535156 428.320312 316.714844 418.480469 313.894531 C 420.875 318.351562 419.828125 324.113281 416.808594 328.171875 C 413.789062 332.230469 409.113281 334.777344 404.289062 336.292969 C 389.144531 341.046875 371.375 335.878906 361.140625 323.734375 Z M 410.035156 455.34375 C 395.585938 446.179688 376.449219 450.46875 367.289062 464.921875 C 358.132812 479.375 359.707031 512.195312 374.152344 521.359375 C 388.601562 530.523438 410.449219 512.5625 419.609375 498.109375 C 428.769531 483.652344 424.484375 464.507812 410.035156 455.34375 Z M 470.589844 392.644531 C 461.429688 407.101562 463.003906 439.917969 477.453125 449.082031 C 491.898438 458.246094 513.75 440.285156 522.90625 425.832031 C 532.066406 411.378906 527.78125 392.230469 513.335938 383.066406 C 498.886719 373.902344 479.75 378.191406 470.589844 392.644531 Z M 314.335938 557.558594 C 293.808594 559.105469 278.210938 574.199219 279.5 591.265625 C 280.785156 608.332031 305.480469 633.417969 326.007812 631.867188 C 346.53125 630.316406 355.117188 602.71875 353.832031 585.652344 C 352.546875 568.585938 334.863281 556.007812 314.335938 557.558594 Z M 534.898438 489.78125 C 522.109375 478.414062 487.835938 476.542969 474.988281 491.011719 C 466.1875 500.921875 469.722656 515.925781 476.933594 528.050781 C 472.160156 526.667969 466.949219 526.066406 461.53125 526.476562 C 441.003906 528.027344 425.40625 543.121094 426.695312 560.183594 C 427.984375 577.25 452.675781 602.335938 473.203125 600.789062 C 493.726562 599.238281 502.3125 571.640625 501.027344 554.574219 C 500.863281 552.382812 500.421875 550.273438 499.742188 548.25 C 511.476562 551.390625 525.292969 547.25 534.785156 536.558594 C 547.636719 522.09375 547.6875 501.148438 534.898438 489.78125 Z M 299.898438 526.367188 C 324.53125 524.507812 334.78125 490.640625 333.199219 469.6875 C 332.777344 464.109375 330.929688 458.9375 328.027344 454.359375 C 343.496094 451.898438 351.484375 426.84375 351.484375 410.582031 C 351.484375 393.46875 337.617188 379.59375 320.507812 379.59375 C 303.402344 379.59375 289.535156 393.46875 289.535156 410.582031 C 289.535156 418.128906 293.207031 427.570312 298.78125 435.769531 C 294.609375 435.027344 290.230469 434.773438 285.730469 435.113281 C 261.097656 436.972656 242.410156 455.46875 243.988281 476.421875 C 245.570312 497.375 275.261719 528.226562 299.898438 526.367188 Z M 299.898438 526.367188 " fill-opacity="1" fill-rule="nonzero"/><path fill="rgb(84.309387%, 86.268616%, 91.369629%)" d="M 316.164062 279.183594 L 316.339844 279.988281 L 272.472656 289.652344 L 253.605469 203.96875 C 249.996094 187.558594 245.429688 171.378906 239.929688 155.503906 L 225.363281 113.445312 C 222.820312 101.886719 229.675781 90.46875 240.824219 87.121094 C 242.648438 86.121094 244.632812 85.351562 246.761719 84.878906 C 258.878906 82.210938 270.859375 89.871094 273.527344 101.992188 L 288.0625 143.941406 C 293.570312 159.832031 298.144531 176.035156 301.761719 192.464844 L 314.113281 248.574219 C 310.070312 254.140625 310.070312 262.199219 312.839844 268.746094 C 313.925781 271.304688 316.589844 273.792969 320.183594 276.140625 L 320.636719 278.199219 Z M 316.164062 279.183594 " fill-opacity="1" fill-rule="nonzero"/><path fill="rgb(99.609375%, 100%, 100%)" d="M 514.285156 345.28125 C 513.90625 344.1875 514.488281 342.996094 515.582031 342.617188 C 532.925781 336.65625 554.78125 327.597656 569.976562 310.339844 C 588.523438 289.28125 592.25 269.929688 581.710938 249.445312 C 581.183594 248.417969 581.585938 247.152344 582.617188 246.621094 C 583.648438 246.097656 584.910156 246.5 585.4375 247.527344 C 596.714844 269.445312 592.6875 290.898438 573.121094 313.113281 C 557.273438 331.109375 534.777344 340.453125 516.945312 346.582031 C 516.722656 346.660156 516.488281 346.699219 516.265625 346.699219 C 515.394531 346.699219 514.582031 346.152344 514.285156 345.28125 Z M 597.667969 335.949219 C 597.503906 354.203125 588.332031 370.886719 575.511719 383.433594 C 561.257812 397.378906 542.671875 405.601562 523.703125 410.957031 C 512.28125 414.179688 500.617188 416.4375 488.929688 418.464844 C 484.953125 419.15625 486.636719 425.21875 490.601562 424.53125 C 530.628906 417.578125 575.609375 405.5 596.019531 366.578125 C 600.984375 357.101562 603.859375 346.671875 603.957031 335.949219 C 603.992188 331.90625 597.703125 331.898438 597.667969 335.949219 Z M 579.992188 366.199219 C 579.992188 366.199219 588.65625 312.382812 570.609375 329.207031 C 552.5625 346.035156 509.976562 358.769531 509.976562 358.769531 C 520.082031 389.992188 507.125 403.578125 507.125 403.578125 C 546.859375 395.835938 579.992188 366.199219 579.992188 366.199219 Z M 575.167969 618.921875 C 580.5 598.476562 575.167969 417.082031 575.167969 417.082031 C 575.167969 417.082031 560.78125 430.867188 515.097656 436.429688 C 515.097656 436.429688 539.621094 585.136719 521.847656 626.925781 C 504.074219 668.714844 488.789062 664.382812 489.765625 671.882812 C 490.738281 679.382812 515.625 677.605469 535.175781 663.378906 C 554.730469 649.152344 569.835938 639.371094 575.167969 618.921875 Z M 458.75 184.785156 C 424.558594 178.578125 389.675781 177.871094 355.257812 182.613281 C 353.5625 182.84375 352.671875 184.996094 353.0625 186.480469 C 353.542969 188.296875 355.253906 188.910156 356.929688 188.679688 C 390.144531 184.101562 424.09375 184.863281 457.078125 190.851562 C 461.035156 191.570312 462.730469 185.511719 458.75 184.785156 Z M 587.535156 612.085938 C 587.421875 626.914062 581.558594 641.71875 571.355469 652.457031 C 560.742188 663.628906 547.644531 671.976562 533.964844 678.890625 C 526.066406 682.882812 517.949219 686.417969 509.777344 689.800781 C 506.089844 691.324219 507.707031 697.410156 511.449219 695.863281 C 526.730469 689.539062 541.972656 682.792969 555.757812 673.554688 C 562.492188 669.039062 568.890625 663.949219 574.582031 658.164062 C 580.503906 652.148438 584.894531 645.726562 588.15625 637.949219 C 591.648438 629.636719 593.75 621.136719 593.820312 612.085938 C 593.851562 608.039062 587.566406 608.03125 587.535156 612.085938 Z M 431.003906 704.679688 C 398.523438 706.34375 365.902344 704.929688 333.707031 700.320312 C 332.011719 700.078125 330.347656 700.738281 329.839844 702.519531 C 329.414062 703.988281 330.355469 706.148438 332.035156 706.386719 C 364.808594 711.078125 397.9375 712.664062 431.003906 710.972656 C 435.03125 710.761719 435.054688 704.472656 431.003906 704.679688 Z M 431.003906 704.679688 " fill-opacity="1" fill-rule="nonzero"/><path fill="rgb(0%, 0%, 0%)" d="M 432.480469 366.273438 C 432.4375 365.695312 432.875 365.195312 433.449219 365.152344 C 480.5 361.738281 522.816406 349.628906 552.609375 331.054688 C 553.097656 330.75 553.746094 330.894531 554.054688 331.390625 C 554.359375 331.878906 554.210938 332.527344 553.71875 332.832031 C 523.640625 351.582031 480.984375 363.804688 433.601562 367.242188 C 433.574219 367.246094 433.550781 367.246094 433.523438 367.246094 C 432.984375 367.246094 432.523438 366.824219 432.480469 366.273438 Z M 261.628906 334.65625 C 295.148438 354.515625 344.078125 366.703125 395.882812 368.09375 C 395.890625 368.09375 395.902344 368.09375 395.914062 368.09375 C 396.476562 368.09375 396.941406 367.640625 396.960938 367.070312 C 396.976562 366.492188 396.519531 366.011719 395.941406 365.996094 C 344.480469 364.617188 295.917969 352.539062 262.699219 332.851562 C 262.199219 332.554688 261.558594 332.722656 261.265625 333.21875 C 260.964844 333.714844 261.128906 334.359375 261.628906 334.65625 Z M 595.183594 378.445312 C 595.207031 378.535156 595.238281 378.621094 595.238281 378.722656 L 595.238281 618.503906 C 595.238281 666.511719 528.59375 706.578125 440.851562 715.066406 C 427.164062 716.851562 412.941406 718.289062 398.339844 719.554688 C 289.535156 728.984375 207.101562 681.703125 207.101562 628.035156 C 207.101562 628.035156 212 490.328125 216.703125 389.917969 C 208.132812 378.9375 203.980469 366.753906 205.070312 353.800781 C 205.324219 350.789062 205.65625 347.808594 206.199219 344.863281 C 206.890625 335.304688 210.542969 325.941406 217.117188 316.984375 L 217.117188 273.566406 C 217.117188 253.121094 229.839844 233.746094 253.878906 217.421875 C 252.691406 209.835938 251.480469 201.777344 250.566406 195.613281 C 247.320312 182.199219 243.449219 168.855469 238.945312 155.847656 L 224.375 113.789062 C 221.730469 101.796875 228.753906 89.765625 240.34375 86.179688 C 242.269531 85.132812 244.34375 84.339844 246.539062 83.859375 C 259.195312 81.074219 271.765625 89.101562 274.550781 101.765625 L 289.054688 143.597656 C 294.550781 159.464844 299.171875 175.832031 302.78125 192.238281 L 303.199219 194.128906 C 333.835938 184.171875 369.445312 178.910156 406.175781 178.910156 C 510.421875 178.910156 595.238281 221.375 595.238281 273.566406 L 595.238281 318.304688 C 595.464844 318.367188 595.683594 318.492188 595.828125 318.707031 C 602.347656 328.179688 605.652344 338.097656 605.652344 348.183594 C 605.65625 358.761719 601.972656 368.941406 595.183594 378.445312 Z M 227.5625 282.792969 C 230.578125 275.859375 242.539062 250.335938 258.304688 242.457031 C 257.761719 239.863281 257.375 237.996094 257.230469 237.28125 C 256.691406 234.601562 255.957031 230.355469 255.15625 225.425781 C 236 239.144531 225.882812 254.996094 225.882812 271.441406 C 225.882812 275.289062 226.488281 279.078125 227.5625 282.792969 Z M 228.851562 286.59375 C 244.128906 325.855469 317.558594 355.71875 405.636719 355.71875 C 495.527344 355.71875 570.210938 324.621094 583.335938 284.164062 C 581.027344 271.851562 571.53125 267.847656 561.46875 263.644531 C 554.941406 260.910156 548.1875 258.089844 543.1875 252.847656 C 534.003906 243.222656 511.398438 236.378906 493.238281 230.871094 C 486.847656 228.9375 480.8125 227.109375 476.101562 225.378906 C 463.433594 220.734375 453.875 219.820312 438.035156 218.304688 C 431.335938 217.664062 423.742188 216.941406 414.269531 215.789062 C 383.925781 212.105469 339.992188 213.570312 325.578125 218.75 C 320.753906 220.484375 315.929688 222.53125 310.066406 225.324219 L 314.65625 246.167969 C 314.730469 246.136719 314.804688 246.105469 314.878906 246.074219 C 315.121094 245.832031 315.363281 245.582031 315.621094 245.355469 C 320.511719 241.066406 328.019531 239.460938 336.226562 240.945312 C 343.261719 242.21875 349.21875 245.347656 353.269531 249.816406 C 354.109375 249.296875 354.988281 248.851562 355.902344 248.484375 C 355.953125 248.433594 355.996094 248.378906 356.042969 248.328125 C 356.601562 247.785156 357.195312 247.292969 357.820312 246.832031 L 356.589844 246.46875 C 354.664062 243.382812 354.394531 239.460938 355.257812 235.925781 C 356.125 232.390625 358.035156 229.199219 360.226562 226.296875 C 361.613281 224.464844 363.242188 222.640625 365.433594 221.960938 C 365.785156 221.851562 366.148438 221.792969 366.511719 221.742188 C 367.792969 220.203125 369.347656 218.738281 371.382812 218.105469 C 372.890625 217.640625 374.429688 217.691406 375.867188 217.816406 C 380.332031 218.203125 386.558594 219.621094 390.871094 224.183594 C 393.023438 226.460938 394.042969 232.933594 394.058594 239.226562 C 395.613281 237.949219 397.296875 236.835938 399.097656 235.953125 C 401.605469 233.804688 404.492188 232.09375 407.640625 231 C 416.675781 227.855469 427.15625 229.90625 434.339844 236.230469 C 434.671875 236.523438 435.003906 236.832031 435.335938 237.136719 C 436.878906 238.558594 438.339844 239.902344 440.140625 240.246094 C 441.46875 240.503906 442.859375 240.1875 444.339844 239.859375 L 444.691406 239.78125 C 456.996094 237.070312 468.378906 238.945312 475.925781 244.910156 C 480.683594 248.667969 483.921875 254.875 484.382812 261.113281 C 484.769531 266.320312 483.222656 271.054688 480.027344 274.457031 L 479.449219 275.054688 C 478.628906 275.886719 477.855469 276.675781 477.609375 277.609375 C 477.566406 277.785156 477.558594 277.957031 477.550781 278.132812 C 478.5625 277.4375 479.621094 276.816406 480.71875 276.285156 C 485.523438 272.046875 491.78125 269.71875 497.816406 270.167969 C 506.347656 270.792969 514.054688 277.246094 515.738281 285.175781 C 516.3125 287.875 516.285156 290.796875 515.65625 293.855469 C 514.550781 299.285156 511.65625 303.9375 507.726562 306.617188 C 506.015625 307.785156 503.027344 308.703125 499.753906 309.222656 C 496.621094 310.722656 491.007812 311.644531 486.386719 311.464844 C 483.582031 318.316406 477.683594 323.78125 470.738281 325.625 C 469.691406 325.902344 468.632812 326.085938 467.570312 326.21875 C 466.492188 326.726562 465.375 327.152344 464.210938 327.460938 C 456.835938 329.417969 449.066406 327.304688 441.734375 325.199219 C 434.761719 323.203125 427.792969 321.203125 420.820312 319.203125 C 420.859375 322.480469 419.785156 325.917969 417.648438 328.792969 C 414.816406 332.597656 410.429688 335.457031 404.605469 337.285156 C 403.101562 337.757812 401.566406 338.109375 400.023438 338.390625 C 399.359375 338.644531 398.703125 338.925781 398.027344 339.136719 C 382.878906 343.894531 365.113281 338.722656 354.878906 326.582031 C 354.011719 325.550781 353.113281 324.425781 351.828125 324.035156 C 350.636719 323.679688 349.367188 324.027344 348.164062 324.335938 C 342.523438 325.769531 336.636719 326.222656 330.84375 325.667969 C 326.566406 325.261719 322.1875 324.230469 318.8125 321.566406 C 315.4375 318.90625 313.335938 314.289062 314.632812 310.191406 C 315.332031 307.996094 316.878906 306.191406 318.390625 304.453125 C 323.320312 298.789062 328.65625 292.925781 334.660156 288.425781 C 328.351562 286.257812 322.039062 283.671875 316.953125 280.824219 C 316.835938 280.910156 316.703125 280.972656 316.5625 281.003906 L 272.695312 290.671875 C 272.621094 290.6875 272.546875 290.699219 272.46875 290.699219 C 271.992188 290.699219 271.554688 290.363281 271.449219 289.875 L 271.300781 289.195312 L 267.863281 287.859375 C 267.863281 287.859375 261.726562 258.773438 258.75 244.578125 C 242.476562 253.183594 229.945312 282.488281 228.851562 285.109375 Z M 389.347656 225.628906 C 385.488281 221.546875 379.789062 220.261719 375.683594 219.90625 C 374.464844 219.800781 373.167969 219.75 372.003906 220.113281 C 370.070312 220.714844 368.554688 222.453125 367.328125 224.074219 C 364.78125 227.441406 363.257812 230.382812 362.539062 233.324219 C 361.664062 236.886719 362.101562 240.4375 363.742188 243.0625 C 363.90625 243.324219 363.929688 243.628906 363.851562 243.902344 C 366.378906 243.1875 369.109375 242.929688 371.921875 243.222656 C 378.039062 243.863281 383.316406 246.882812 386.394531 251.507812 C 386.597656 251.808594 386.601562 252.167969 386.472656 252.480469 C 386.761719 252.222656 387.179688 252.128906 387.5625 252.285156 C 390.878906 253.628906 393.519531 256.398438 395.003906 260.089844 C 396.710938 264.332031 396.664062 269.257812 394.875 273.261719 C 391.816406 280.109375 384.457031 285.046875 375.664062 286.148438 C 375.621094 286.15625 375.574219 286.160156 375.535156 286.160156 C 375.011719 286.160156 374.5625 285.769531 374.496094 285.242188 C 374.421875 284.667969 374.832031 284.140625 375.40625 284.070312 C 383.472656 283.058594 390.203125 278.589844 392.960938 272.40625 C 394.523438 268.910156 394.558594 264.601562 393.058594 260.875 C 391.789062 257.71875 389.558594 255.359375 386.773438 254.230469 C 386.238281 254.015625 385.980469 253.410156 386.195312 252.875 C 386.160156 252.902344 386.140625 252.9375 386.105469 252.964844 C 385.621094 253.28125 384.96875 253.15625 384.652344 252.671875 C 381.917969 248.566406 377.199219 245.882812 371.703125 245.308594 C 366.203125 244.730469 361.035156 246.382812 357.511719 249.832031 C 353.992188 253.28125 352.234375 258.417969 352.691406 263.929688 C 353.148438 269.441406 355.730469 274.21875 359.773438 277.039062 C 360.132812 277.289062 360.296875 277.742188 360.183594 278.167969 C 360.109375 278.453125 359.898438 278.648438 359.652344 278.78125 C 359.664062 278.789062 359.679688 278.785156 359.695312 278.792969 C 365.359375 281.398438 369.285156 287.34375 369.457031 293.578125 C 369.472656 294.15625 369.015625 294.640625 368.4375 294.65625 C 368.429688 294.65625 368.417969 294.65625 368.40625 294.65625 C 367.84375 294.65625 367.375 294.203125 367.359375 293.636719 C 367.210938 288.175781 363.773438 282.976562 358.816406 280.695312 C 358.289062 280.453125 358.058594 279.832031 358.304688 279.304688 C 358.347656 279.203125 358.417969 279.128906 358.488281 279.050781 C 345.3125 280.644531 334.9375 291.382812 325.441406 302.292969 C 324.011719 303.9375 322.535156 305.636719 321.894531 307.660156 C 320.816406 311.058594 322.390625 315.265625 325.722656 317.894531 C 328.421875 320.027344 332.175781 321.296875 337.207031 321.777344 C 342.90625 322.320312 348.617188 321.882812 354.167969 320.472656 C 355.546875 320.121094 356.964844 319.753906 358.394531 320.1875 C 359.914062 320.644531 360.917969 321.84375 361.808594 322.898438 C 371.921875 334.902344 389.207031 339.929688 403.976562 335.292969 C 409.371094 333.597656 413.40625 330.992188 415.96875 327.546875 C 418.976562 323.507812 419.613281 318.222656 417.5625 314.390625 C 417.363281 314.019531 417.40625 313.566406 417.667969 313.238281 C 417.933594 312.910156 418.363281 312.773438 418.773438 312.886719 L 428.871094 315.78125 C 426.980469 312.144531 426.570312 308.152344 427.132812 304.308594 C 424.148438 305.605469 420.878906 306.261719 417.601562 306.261719 C 413.445312 306.261719 409.292969 305.226562 405.714844 303.167969 C 406.738281 305.28125 407.28125 307.609375 407.125 310.074219 C 407.085938 310.652344 406.570312 311.066406 406.011719 311.054688 C 405.433594 311.015625 404.996094 310.519531 405.035156 309.941406 C 405.496094 302.730469 398.984375 296.75 392.425781 295.132812 C 385.765625 293.492188 378.386719 295.257812 373.183594 299.742188 C 367.988281 304.230469 365.152344 311.265625 365.792969 318.105469 C 365.847656 318.679688 365.425781 319.191406 364.847656 319.246094 C 364.816406 319.25 364.78125 319.25 364.75 319.25 C 364.214844 319.25 363.761719 318.84375 363.707031 318.300781 C 363.003906 310.796875 366.109375 303.078125 371.816406 298.15625 C 377.523438 293.234375 385.613281 291.296875 392.929688 293.097656 C 397.199219 294.148438 401.4375 296.882812 404.164062 300.597656 C 404.515625 300.296875 405.03125 300.238281 405.433594 300.511719 C 411.84375 304.929688 420.804688 305.324219 427.667969 301.675781 C 428.652344 297.941406 430.488281 294.472656 432.691406 291.769531 C 434.441406 289.628906 436.464844 287.789062 438.636719 286.128906 C 438.972656 284.136719 439.027344 282.101562 438.765625 280.101562 C 438.25 276.171875 436.535156 273.074219 434.058594 271.601562 C 433.5625 271.308594 433.398438 270.664062 433.691406 270.167969 C 433.988281 269.667969 434.632812 269.507812 435.128906 269.800781 C 438.160156 271.601562 440.242188 275.257812 440.84375 279.828125 C 441.046875 281.371094 441.066406 282.929688 440.941406 284.480469 C 445.210938 281.628906 449.960938 279.417969 454.671875 277.457031 C 455.199219 277.242188 455.816406 277.488281 456.039062 278.023438 C 456.257812 278.558594 456.007812 279.171875 455.472656 279.394531 C 450.277344 281.554688 445.039062 284.019531 440.527344 287.328125 C 439.214844 293.671875 435.332031 299.542969 429.820312 302.921875 C 429.726562 302.976562 429.625 303.015625 429.527344 303.070312 C 428.566406 307.476562 428.929688 312.128906 431.402344 315.996094 C 431.507812 316.167969 431.546875 316.355469 431.546875 316.546875 L 448.285156 321.34375 C 454.796875 323.210938 462.90625 325.53125 470.203125 323.601562 C 477.699219 321.617188 483.878906 314.972656 485.585938 307.070312 C 487.226562 299.445312 484.808594 290.96875 479.261719 284.945312 L 479 284.664062 C 478.34375 283.957031 477.636719 283.183594 477.023438 282.347656 C 476.988281 282.332031 476.949219 282.328125 476.917969 282.304688 C 476.652344 282.125 476.511719 281.84375 476.484375 281.546875 C 476.125 280.96875 475.84375 280.359375 475.660156 279.726562 C 473.46875 280.464844 471.183594 280.839844 468.894531 280.839844 C 463.75 280.839844 458.628906 279.019531 454.707031 275.601562 C 448.921875 270.570312 446.21875 262.46875 447.8125 254.964844 C 447.933594 254.398438 448.519531 254.042969 449.054688 254.160156 C 449.621094 254.28125 449.984375 254.835938 449.863281 255.402344 C 448.445312 262.066406 450.945312 269.546875 456.082031 274.023438 C 461.21875 278.496094 468.964844 279.941406 475.375 277.621094 C 475.421875 277.601562 475.46875 277.609375 475.519531 277.597656 C 475.542969 277.425781 475.546875 277.257812 475.589844 277.078125 C 475.976562 275.601562 477.03125 274.53125 477.964844 273.585938 L 478.511719 273.019531 C 481.296875 270.054688 482.644531 265.878906 482.300781 261.269531 C 481.882812 255.597656 478.945312 249.960938 474.636719 246.558594 C 467.585938 240.980469 456.839844 239.257812 445.152344 241.828125 L 444.804688 241.90625 C 443.179688 242.265625 441.496094 242.640625 439.757812 242.304688 C 437.367188 241.847656 435.617188 240.238281 433.925781 238.679688 C 433.605469 238.382812 433.285156 238.089844 432.964844 237.804688 C 426.339844 231.972656 416.667969 230.074219 408.339844 232.976562 C 401.601562 235.320312 396.175781 240.683594 393.488281 247.234375 C 393.117188 249.46875 392.578125 251.328125 391.867188 252.425781 C 391.777344 252.566406 391.652344 252.675781 391.507812 252.757812 C 391.476562 252.777344 391.441406 252.785156 391.40625 252.800781 C 391.300781 252.851562 391.1875 252.878906 391.066406 252.886719 C 391.039062 252.886719 391.015625 252.90625 390.988281 252.90625 C 390.96875 252.90625 390.945312 252.890625 390.925781 252.886719 C 390.882812 252.886719 390.84375 252.898438 390.800781 252.890625 C 390.664062 252.867188 390.539062 252.8125 390.425781 252.742188 C 390.425781 252.738281 390.421875 252.742188 390.417969 252.738281 C 390.417969 252.738281 390.417969 252.738281 390.414062 252.738281 C 390.300781 252.664062 390.199219 252.5625 390.121094 252.453125 C 390.085938 252.398438 390.070312 252.335938 390.046875 252.28125 C 390.019531 252.214844 389.976562 252.15625 389.964844 252.082031 C 389.933594 251.949219 389.933594 251.8125 389.953125 251.675781 C 390.285156 249.867188 390.808594 248.105469 391.5 246.421875 C 392.503906 239.492188 391.90625 228.332031 389.347656 225.628906 Z M 506.546875 304.890625 C 510.03125 302.511719 512.601562 298.339844 513.601562 293.4375 C 514.171875 290.660156 514.203125 288.027344 513.6875 285.617188 C 512.1875 278.5625 505.300781 272.820312 497.667969 272.265625 C 490.691406 271.753906 483.425781 275.320312 478.902344 281.367188 C 479.40625 282.011719 479.980469 282.640625 480.535156 283.242188 L 480.800781 283.527344 C 486.605469 289.832031 489.203125 298.632812 487.75 306.699219 C 491.96875 308.578125 503.03125 307.289062 506.546875 304.890625 Z M 437.761719 289.566406 C 436.53125 290.660156 435.359375 291.816406 434.3125 293.097656 C 432.71875 295.046875 431.378906 297.402344 430.441406 299.933594 C 433.832031 297.320312 436.382812 293.636719 437.761719 289.566406 Z M 339.921875 285.039062 C 339.539062 284.96875 339.160156 284.902344 338.753906 284.816406 C 339.089844 284.933594 339.421875 285.050781 339.757812 285.167969 C 339.8125 285.125 339.867188 285.082031 339.921875 285.039062 Z M 335.855469 243.007812 C 328.28125 241.636719 321.410156 243.0625 317.003906 246.929688 C 311.40625 251.839844 309.984375 261.203125 313.761719 268.246094 C 317.464844 275.144531 334.601562 282.742188 342.398438 283.25 C 346.78125 280.277344 351.484375 278.078125 356.632812 277.179688 C 353.195312 273.953125 351.035156 269.3125 350.601562 264.101562 C 350.257812 259.933594 351.085938 255.957031 352.882812 252.609375 C 349.1875 247.738281 343.148438 244.328125 335.855469 243.007812 Z M 585.386719 271.4375 C 585.386719 224.964844 504.75 187.15625 405.636719 187.15625 C 369.507812 187.15625 334.664062 192.179688 304.863281 201.683594 L 309.605469 223.230469 C 315.332031 220.515625 320.105469 218.492188 324.871094 216.78125 C 339.792969 211.417969 383.363281 209.929688 414.527344 213.714844 C 423.96875 214.859375 431.550781 215.585938 438.234375 216.222656 C 454.242188 217.75 463.902344 218.671875 476.820312 223.414062 C 481.480469 225.125 487.484375 226.945312 493.84375 228.871094 C 512.242188 234.445312 535.140625 241.382812 544.699219 251.40625 C 549.398438 256.328125 555.945312 259.066406 562.277344 261.714844 C 571.429688 265.539062 580.84375 269.488281 584.445312 280.078125 C 585.066406 277.230469 585.386719 274.351562 585.386719 271.4375 Z M 241.363281 88.011719 C 241.347656 88.019531 241.339844 88.035156 241.328125 88.039062 C 240.300781 88.601562 239.335938 89.242188 238.433594 89.949219 C 238.417969 89.960938 238.402344 89.96875 238.386719 89.984375 C 233.445312 93.875 230.464844 99.796875 230.214844 106.03125 C 230.210938 106.171875 230.207031 106.3125 230.203125 106.457031 C 230.195312 106.875 230.199219 107.296875 230.214844 107.714844 C 230.226562 108.019531 230.253906 108.316406 230.277344 108.621094 C 230.304688 108.925781 230.324219 109.226562 230.363281 109.53125 C 230.445312 110.164062 230.542969 110.796875 230.683594 111.429688 L 245.21875 153.371094 C 250.707031 169.21875 255.320312 185.5625 258.929688 201.953125 L 277.570312 286.613281 L 313.472656 278.699219 C 310.105469 276.4375 307.617188 274.042969 306.582031 271.59375 C 303.375 264.015625 303.871094 254.414062 310.054688 248.992188 C 310.882812 248.265625 311.789062 247.667969 312.726562 247.132812 L 300.738281 192.6875 C 297.144531 176.363281 292.546875 160.074219 287.074219 144.28125 L 272.539062 102.335938 C 269.964844 90.679688 258.511719 83.367188 246.988281 85.90625 C 244.996094 86.347656 243.109375 87.066406 241.363281 88.011719 Z M 240.921875 155.160156 C 246.414062 171.019531 251.027344 187.363281 254.628906 203.742188 L 273.269531 288.402344 L 275.699219 287.867188 L 256.882812 202.40625 C 253.289062 186.09375 248.699219 169.828125 243.238281 154.058594 L 228.671875 112 C 228.488281 111.164062 228.351562 110.328125 228.257812 109.496094 C 228.257812 109.488281 228.257812 109.480469 228.257812 109.46875 C 227.640625 104.066406 228.863281 98.738281 231.789062 94.160156 C 231.996094 93.839844 232.230469 93.539062 232.449219 93.226562 C 227.273438 98.253906 224.75 105.773438 226.390625 113.21875 Z M 219.210938 273.566406 C 219.210938 274.140625 219.222656 274.710938 219.242188 275.28125 C 219.246094 275.351562 219.222656 275.410156 219.210938 275.476562 L 219.210938 343.742188 C 219.269531 388.890625 303.140625 425.621094 406.179688 425.621094 C 508.636719 425.621094 592.507812 389.097656 593.140625 344.207031 C 593.140625 344.199219 593.144531 344.195312 593.144531 344.1875 L 593.144531 287.691406 C 592.410156 290.164062 591.496094 292.617188 590.378906 295.042969 C 590.199219 295.425781 589.820312 295.652344 589.425781 295.652344 C 589.28125 295.652344 589.128906 295.621094 588.988281 295.554688 C 588.464844 295.3125 588.234375 294.6875 588.476562 294.164062 C 591.574219 287.445312 593.148438 280.515625 593.148438 273.566406 C 593.148438 222.527344 509.273438 181.003906 406.179688 181.003906 C 369.65625 181.003906 334.261719 186.234375 303.828125 196.132812 C 303.769531 196.152344 303.710938 196.144531 303.648438 196.152344 L 304.414062 199.628906 C 334.378906 190.097656 369.371094 185.058594 405.636719 185.058594 C 505.90625 185.058594 587.484375 223.808594 587.484375 271.4375 C 587.484375 275.78125 586.796875 280.054688 585.484375 284.230469 C 585.515625 284.398438 585.558594 284.554688 585.585938 284.726562 C 585.660156 285.214844 585.378906 285.65625 584.945312 285.835938 C 570.46875 326.632812 495.578125 357.8125 405.636719 357.8125 C 317.835938 357.8125 244.371094 328.101562 227.457031 288.734375 C 227.050781 288.589844 226.757812 288.214844 226.757812 287.757812 L 226.757812 287.011719 C 224.8125 281.957031 223.789062 276.753906 223.789062 271.4375 C 223.789062 254.046875 234.511719 237.390625 254.785156 223.125 C 254.605469 222.011719 254.425781 220.875 254.242188 219.71875 C 231.332031 235.511719 219.210938 254.078125 219.210938 273.566406 Z M 217.117188 320.667969 C 211.183594 329.554688 208.148438 338.792969 208.148438 348.183594 C 208.148438 399.222656 296.839844 440.746094 405.855469 440.746094 C 514.871094 440.746094 603.5625 399.222656 603.5625 348.183594 C 603.5625 339.152344 600.738281 330.242188 595.242188 321.664062 L 595.242188 347.890625 C 595.242188 348.1875 595.113281 348.453125 594.910156 348.644531 C 589.117188 392.636719 506.445312 427.722656 406.179688 427.722656 C 304.265625 427.722656 220.90625 391.675781 217.253906 346.769531 C 217.175781 346.621094 217.117188 346.457031 217.117188 346.277344 Z M 228.851562 612.148438 C 228.851562 662.40625 308.398438 703.292969 406.179688 703.292969 C 503.957031 703.292969 583.503906 662.40625 583.503906 612.148438 L 583.503906 391.476562 C 551.339844 420.980469 487.378906 441.488281 413.238281 442.773438 C 404.886719 443.324219 394.363281 443.902344 386.988281 443.902344 C 316.117188 443.902344 259.183594 427.5625 228.855469 402.28125 L 228.855469 612.148438 Z M 593.144531 381.152344 C 590.878906 384.03125 588.328125 386.839844 585.507812 389.578125 C 585.5625 389.707031 585.597656 389.847656 585.597656 390 L 585.597656 612.148438 C 585.597656 663.558594 505.109375 705.390625 406.175781 705.390625 C 307.242188 705.390625 226.753906 663.5625 226.753906 612.148438 L 226.753906 400.503906 C 223.996094 398.066406 221.472656 395.550781 219.207031 392.960938 L 219.207031 618.503906 C 219.207031 671.507812 303.082031 714.632812 406.175781 714.632812 C 509.269531 714.632812 593.144531 671.511719 593.144531 618.503906 Z M 351.019531 390.476562 C 351.027344 390.476562 351.039062 390.476562 351.050781 390.476562 C 351.613281 390.476562 352.078125 390.03125 352.097656 389.460938 C 352.113281 388.882812 351.660156 388.398438 351.082031 388.382812 C 268.132812 385.953125 227.472656 328.101562 227.070312 327.515625 C 226.746094 327.039062 226.09375 326.917969 225.613281 327.246094 C 225.136719 327.574219 225.015625 328.226562 225.34375 328.703125 C 225.75 329.296875 266.96875 388.015625 351.019531 390.476562 Z M 406.082031 388.917969 C 406.246094 388.929688 411.363281 389.355469 419.996094 389.355469 C 439.011719 389.355469 475.085938 387.300781 512.6875 374.285156 C 513.238281 374.09375 513.523438 373.496094 513.339844 372.949219 C 513.148438 372.40625 512.550781 372.113281 512.003906 372.300781 C 457.777344 391.070312 406.773438 386.871094 406.265625 386.828125 C 405.699219 386.796875 405.183594 387.207031 405.128906 387.78125 C 405.082031 388.355469 405.507812 388.863281 406.082031 388.917969 Z M 287.695312 391.761719 C 287.433594 392.277344 287.636719 392.910156 288.152344 393.175781 C 288.769531 393.488281 333.589844 415.859375 401.707031 415.859375 C 428.367188 415.859375 458.609375 412.429688 491.152344 402.90625 C 491.710938 402.746094 492.027344 402.164062 491.863281 401.609375 C 491.703125 401.054688 491.125 400.730469 490.566406 400.898438 C 375.71875 434.488281 289.957031 391.742188 289.105469 391.304688 C 288.59375 391.042969 287.957031 391.25 287.695312 391.761719 Z M 275.179688 515.851562 C 280.773438 519.699219 287.140625 522.472656 293.761719 523.96875 C 297.082031 524.71875 300.484375 525.160156 303.890625 525.257812 C 307.046875 525.347656 310.519531 525.414062 313.15625 523.425781 C 315.714844 521.496094 317.792969 518.640625 319.707031 516.101562 C 321.75 513.386719 323.589844 510.515625 325.1875 507.515625 C 328.351562 501.582031 330.617188 495.140625 331.664062 488.492188 C 333.746094 475.203125 331.078125 460.601562 322.933594 449.691406 C 320.628906 446.609375 317.824219 444.101562 314.402344 442.324219 C 310.824219 440.46875 306.914062 439.1875 303.035156 438.132812 C 294.808594 435.890625 286.226562 435.023438 277.714844 435.53125 C 276.375 435.613281 276.367188 437.707031 277.714844 437.628906 C 284.914062 437.199219 292.140625 437.742188 299.175781 439.332031 C 302.488281 440.078125 305.753906 441.039062 308.9375 442.222656 C 312.199219 443.433594 315.421875 444.949219 318.019531 447.3125 C 322.800781 451.660156 325.929688 458.039062 327.855469 464.121094 C 329.820312 470.324219 330.566406 476.867188 330.144531 483.355469 C 329.308594 496.125 323.742188 508.375 315.480469 518.042969 C 314.546875 519.132812 313.605469 520.257812 312.542969 521.21875 C 311.1875 522.445312 309.636719 522.960938 307.835938 523.109375 C 304.589844 523.375 301.222656 523.128906 298.007812 522.644531 C 291.679688 521.695312 285.542969 519.5625 279.984375 516.394531 C 267.832031 509.464844 258.96875 497.640625 255.207031 484.21875 C 254.84375 482.917969 252.820312 483.46875 253.1875 484.773438 C 256.691406 497.277344 264.460938 508.480469 275.179688 515.851562 Z M 369.828125 518.601562 C 375.796875 523.128906 383.808594 523.535156 390.816406 521.550781 C 399.550781 519.082031 406.675781 513.039062 413.464844 507.285156 C 414.496094 506.410156 413.007812 504.9375 411.984375 505.804688 C 406.253906 510.660156 400.347656 515.703125 393.28125 518.507812 C 386.839844 521.066406 379.050781 521.6875 372.859375 518.113281 C 367.082031 514.773438 363.847656 508.371094 362.742188 501.976562 C 361.363281 493.984375 363.171875 485.71875 365.039062 477.960938 C 366.765625 470.769531 369.171875 463.261719 375.105469 458.417969 C 376.152344 457.566406 374.664062 456.089844 373.625 456.9375 C 368.035156 461.5 365.347656 468.4375 363.5625 475.230469 C 361.414062 483.417969 359.441406 492.195312 360.457031 500.691406 C 361.273438 507.511719 364.242188 514.367188 369.828125 518.601562 Z M 452.691406 529.640625 C 457.933594 528.117188 463.398438 528.457031 468.695312 529.5 C 473.597656 530.464844 478.589844 531.742188 483.246094 533.574219 C 487.765625 535.355469 491.777344 538.117188 494.488281 542.210938 C 497.09375 546.144531 498.46875 550.792969 498.574219 555.5 C 498.707031 561.339844 496.988281 567.054688 494.210938 572.148438 C 493.5625 573.332031 495.371094 574.390625 496.015625 573.207031 C 501.054688 563.976562 502.570312 552.636719 497.457031 543.097656 C 495.039062 538.585938 491.289062 535.078125 486.710938 532.824219 C 484.507812 531.742188 482.179688 530.886719 479.808594 530.144531 C 475.066406 522.929688 471.898438 514.585938 471.605469 505.894531 C 471.460938 501.609375 472.128906 497.417969 474.777344 493.929688 C 477.203125 490.730469 480.738281 488.421875 484.445312 486.964844 C 489.230469 485.082031 494.472656 484.472656 499.5625 485.21875 C 500.882812 485.410156 501.449219 483.390625 500.121094 483.195312 C 491.175781 481.886719 481.074219 484.222656 474.636719 490.890625 C 468.011719 497.753906 468.785156 508.097656 471.222656 516.640625 C 472.492188 521.09375 474.4375 525.324219 476.828125 529.285156 C 474.9375 528.773438 473.035156 528.304688 471.15625 527.882812 C 464.902344 526.480469 458.375 525.804688 452.132812 527.621094 C 450.839844 527.996094 451.390625 530.015625 452.691406 529.640625 Z M 303.988281 621.449219 C 295.429688 616.113281 288.863281 608.015625 284.332031 599.082031 C 281.707031 593.914062 279.386719 587.324219 282.363281 581.8125 C 283.007812 580.625 281.199219 579.5625 280.554688 580.753906 C 277.828125 585.800781 278.867188 591.652344 280.953125 596.734375 C 283.019531 601.761719 285.929688 606.5 289.269531 610.777344 C 296.082031 619.511719 305.429688 626.320312 316.332031 628.808594 C 322.59375 630.238281 329.144531 630.214844 335.339844 628.460938 C 336.632812 628.09375 336.085938 626.074219 334.78125 626.441406 C 324.363281 629.386719 313.078125 627.117188 303.988281 621.449219 Z M 410.722656 274.878906 C 412.679688 275.25 414.621094 275.433594 416.527344 275.433594 C 422.390625 275.433594 427.867188 273.707031 432.097656 270.441406 C 438.480469 265.507812 441.355469 257.148438 439.089844 250.109375 C 438.914062 249.558594 438.324219 249.253906 437.773438 249.433594 C 437.222656 249.609375 436.921875 250.199219 437.097656 250.75 C 439.0625 256.867188 436.421875 264.449219 430.816406 268.78125 C 425.761719 272.6875 418.390625 274.199219 411.109375 272.820312 C 405.65625 271.789062 399.917969 268.398438 399.382812 263.152344 C 399.320312 262.574219 398.792969 262.15625 398.234375 262.214844 C 397.65625 262.273438 397.238281 262.785156 397.296875 263.363281 C 397.941406 269.6875 404.503906 273.703125 410.722656 274.878906 Z M 421.355469 608.308594 C 417.773438 608.683594 414.070312 610.011719 410.480469 612.859375 C 410.023438 613.21875 409.949219 613.878906 410.308594 614.332031 C 410.671875 614.789062 411.328125 614.859375 411.78125 614.5 C 415.085938 611.878906 418.488281 610.660156 421.773438 610.328125 C 421.78125 610.328125 421.789062 610.335938 421.800781 610.335938 C 421.8125 610.335938 421.828125 610.320312 421.839844 610.320312 C 427.261719 609.789062 432.347656 611.671875 436.121094 613.734375 C 436.238281 613.847656 436.386719 613.925781 436.542969 613.972656 C 439.988281 615.917969 442.25 617.933594 442.492188 618.15625 C 442.691406 618.339844 442.945312 618.429688 443.199219 618.429688 C 443.484375 618.429688 443.765625 618.3125 443.972656 618.085938 C 444.363281 617.660156 444.332031 616.996094 443.902344 616.605469 C 443.851562 616.558594 442.234375 615.113281 439.597656 613.4375 C 442.253906 612.566406 446.101562 610.445312 447.390625 605.300781 C 447.527344 604.738281 447.191406 604.167969 446.628906 604.027344 C 446.070312 603.890625 445.496094 604.230469 445.359375 604.792969 C 443.851562 610.824219 438.148438 611.78125 436.988281 611.914062 C 435.40625 611.070312 433.621094 610.253906 431.675781 609.597656 C 434.175781 608.132812 438.085938 605.070312 439.417969 599.738281 C 439.554688 599.175781 439.214844 598.609375 438.65625 598.46875 C 438.097656 598.332031 437.523438 598.667969 437.386719 599.230469 C 435.6875 606.023438 428.832031 608.695312 428.761719 608.71875 C 428.730469 608.734375 428.710938 608.757812 428.683594 608.769531 C 427.382812 608.484375 426.039062 608.292969 424.664062 608.222656 C 427.144531 605.796875 430.582031 601.28125 429.121094 595.839844 C 428.972656 595.28125 428.402344 594.960938 427.839844 595.097656 C 427.277344 595.25 426.949219 595.824219 427.097656 596.382812 C 428.726562 602.46875 422.40625 607.519531 421.355469 608.308594 Z M 366.460938 613.300781 C 363.710938 614.960938 362.019531 616.417969 361.964844 616.460938 C 361.527344 616.847656 361.488281 617.507812 361.871094 617.941406 C 362.078125 618.175781 362.367188 618.300781 362.65625 618.300781 C 362.902344 618.300781 363.148438 618.214844 363.347656 618.039062 C 364.03125 617.441406 380.230469 603.507812 394.121094 614.988281 C 394.570312 615.355469 395.226562 615.292969 395.597656 614.847656 C 395.964844 614.398438 395.902344 613.738281 395.457031 613.371094 C 391.824219 610.367188 388.035156 608.972656 384.367188 608.574219 C 384.316406 608.519531 384.28125 608.457031 384.222656 608.414062 C 384.144531 608.359375 376.660156 602.816406 378.558594 596.253906 C 378.722656 595.699219 378.402344 595.117188 377.84375 594.957031 C 377.285156 594.792969 376.710938 595.117188 376.546875 595.675781 C 374.910156 601.332031 378.640625 606.074219 381.085938 608.460938 C 379.730469 608.519531 378.40625 608.699219 377.125 608.964844 C 377.011719 608.792969 376.859375 608.640625 376.652344 608.558594 C 376.585938 608.527344 369.785156 605.722656 368.21875 598.898438 C 368.085938 598.332031 367.527344 597.980469 366.960938 598.109375 C 366.398438 598.242188 366.042969 598.800781 366.175781 599.367188 C 367.503906 605.152344 371.882812 608.347656 374.28125 609.707031 C 372.398438 610.304688 370.65625 611.054688 369.105469 611.839844 C 368.953125 611.726562 368.78125 611.636719 368.574219 611.621094 C 368.507812 611.613281 361.664062 610.960938 360.136719 604.304688 C 360.003906 603.742188 359.445312 603.390625 358.878906 603.519531 C 358.316406 603.648438 357.960938 604.210938 358.09375 604.777344 C 359.394531 610.449219 363.855469 612.546875 366.460938 613.300781 Z M 417.214844 631.398438 C 416.65625 631.230469 416.074219 631.546875 415.910156 632.101562 C 415.859375 632.265625 410.832031 648.679688 402.335938 651.230469 C 401.164062 651.582031 400.070312 651.425781 398.988281 650.75 C 393.328125 647.226562 390.707031 631.917969 390.683594 631.765625 C 390.585938 631.191406 390.046875 630.796875 389.476562 630.902344 C 388.90625 631 388.519531 631.539062 388.613281 632.109375 C 388.726562 632.777344 391.417969 648.503906 397.878906 652.527344 C 398.925781 653.179688 400.015625 653.507812 401.136719 653.507812 C 401.726562 653.507812 402.328125 653.414062 402.933594 653.234375 C 412.496094 650.363281 417.691406 633.421875 417.910156 632.703125 C 418.082031 632.148438 417.769531 631.566406 417.214844 631.398438 Z M 417.214844 631.398438 " fill-opacity="1" fill-rule="nonzero"/></svg>