<svg xmlns="http://www.w3.org/2000/svg" xmlns:xlink="http://www.w3.org/1999/xlink" width="750" zoomAndPan="magnify" viewBox="0 0 750 1124.99995" height="1124.99995" preserveAspectRatio="xMidYMid meet" version="1.0"><defs><clipPath id="id1"><path d="M 331 492 L 542 492 L 542 851.648438 L 331 851.648438 Z M 331 492 " clip-rule="nonzero"/></clipPath><clipPath id="id2"><path d="M 210 273.398438 L 410 273.398438 L 410 670 L 210 670 Z M 210 273.398438 " clip-rule="nonzero"/></clipPath></defs><path fill="rgb(90.979004%, 72.938538%, 15.689087%)" d="M 441.515625 563.253906 C 458.53125 549.308594 471.816406 526.746094 488.222656 505.519531 C 489.476562 502.53125 500.226562 485.945312 503.960938 494.585938 C 514.472656 530.773438 516.871094 559.976562 530.53125 597.46875 C 535.519531 603.125 529.195312 618.058594 532.929688 626.699219 C 535.625 641.6875 538.960938 655.261719 541.011719 668.675781 C 563.449219 610.671875 575.371094 561.363281 575.371094 561.363281 C 564.96875 572.800781 552.804688 553.519531 552.804688 553.519531 C 558.140625 480.023438 534.558594 487.652344 534.558594 487.652344 C 547.816406 465.089844 536.292969 444.316406 536.292969 444.316406 C 443.300781 463.007812 442.128906 522.425781 442.128906 522.425781 L 424.894531 515.117188 C 404.886719 529.171875 386.507812 560.960938 372.71875 590.511719 C 395.257812 578.828125 421.558594 576.5625 441.515625 563.253906 " fill-opacity="1" fill-rule="nonzero"/><g clip-path="url(#id1)"><path fill="rgb(93.328857%, 88.62915%, 79.998779%)" d="M 532.929688 626.699219 C 529.195312 618.058594 535.519531 603.125 530.53125 597.46875 C 516.871094 559.976562 514.472656 530.773438 503.960938 494.585938 C 500.226562 485.945312 489.476562 502.53125 488.222656 505.519531 C 471.816406 526.746094 458.53125 549.308594 441.515625 563.253906 C 421.558594 576.5625 395.257812 578.828125 372.71875 590.511719 C 357.40625 623.257812 347.722656 653.285156 347.722656 653.285156 C 320.113281 757.824219 332.0625 807.480469 345.800781 830.417969 C 347.375 833.03125 349.828125 835.054688 352.65625 836.257812 L 385.308594 850.125 C 387.523438 851.058594 389.949219 851.511719 392.324219 851.269531 C 459.441406 844.417969 510.175781 748.359375 541.011719 668.675781 C 538.960938 655.261719 535.625 641.6875 532.929688 626.699219 " fill-opacity="1" fill-rule="nonzero"/></g><path fill="rgb(95.689392%, 95.289612%, 59.999084%)" d="M 537.226562 648.273438 C 538.425781 644.914062 540.640625 642.246094 543.199219 639.953125 C 544.535156 638.859375 545.976562 637.820312 547.601562 637.074219 C 549.203125 636.300781 551.042969 635.6875 552.964844 635.953125 C 551.46875 636.992188 550.351562 638.085938 549.121094 639.179688 L 545.496094 642.433594 C 542.988281 644.539062 540.453125 646.644531 537.226562 648.273438 " fill-opacity="1" fill-rule="nonzero"/><path fill="rgb(95.689392%, 95.289612%, 59.999084%)" d="M 534.453125 634.753906 C 535.542969 632.21875 537.066406 629.925781 538.800781 627.820312 C 540.53125 625.660156 542.507812 623.765625 544.613281 621.953125 C 548.882812 618.539062 554.085938 615.65625 559.847656 615.230469 C 557.472656 616.722656 555.257812 618.136719 553.097656 619.65625 C 550.964844 621.257812 548.855469 622.804688 546.828125 624.484375 C 542.746094 627.820312 538.824219 631.339844 534.453125 634.753906 " fill-opacity="1" fill-rule="nonzero"/><path fill="rgb(95.689392%, 95.289612%, 59.999084%)" d="M 531.703125 618.269531 C 533.039062 614.777344 535.066406 611.605469 537.332031 608.644531 C 539.625 605.683594 542.320312 603.015625 545.28125 600.617188 C 548.296875 598.296875 551.628906 596.296875 555.230469 594.882812 C 558.859375 593.523438 562.808594 592.828125 566.675781 593.042969 C 563.019531 594.191406 559.605469 595.496094 556.433594 597.203125 C 553.285156 598.992188 550.269531 600.9375 547.46875 603.175781 C 541.8125 607.65625 536.773438 612.804688 531.703125 618.269531 " fill-opacity="1" fill-rule="nonzero"/><path fill="rgb(95.689392%, 95.289612%, 59.999084%)" d="M 530.53125 597.46875 C 535.785156 590.375 542.242188 584.269531 549.28125 578.800781 C 552.804688 576.136719 556.59375 573.65625 560.621094 571.601562 C 564.621094 569.574219 569.074219 567.867188 573.71875 567.84375 C 569.371094 569.148438 565.6875 571.46875 562.035156 573.816406 C 558.40625 576.214844 554.859375 578.722656 551.417969 581.414062 C 544.453125 586.667969 537.707031 592.242188 530.53125 597.46875 " fill-opacity="1" fill-rule="nonzero"/><path fill="rgb(95.689392%, 95.289612%, 59.999084%)" d="M 525.886719 583.789062 C 527.460938 580.75 529.4375 578.003906 531.570312 575.363281 C 533.675781 572.75 536.078125 570.320312 538.613281 568.027344 C 541.171875 565.789062 543.921875 563.683594 546.988281 562 C 550.003906 560.320312 553.363281 558.882812 556.9375 558.773438 C 553.789062 560.214844 551.125 562.136719 548.507812 564.109375 C 545.894531 566.136719 543.386719 568.242188 540.933594 570.480469 C 535.945312 574.828125 531.195312 579.441406 525.886719 583.789062 " fill-opacity="1" fill-rule="nonzero"/><path fill="rgb(95.689392%, 95.289612%, 59.999084%)" d="M 521.273438 567.574219 C 523.0625 564.640625 525.222656 562 527.515625 559.496094 C 529.78125 556.960938 532.289062 554.640625 534.90625 552.429688 C 537.570312 550.269531 540.375 548.242188 543.441406 546.5625 C 546.507812 544.90625 549.816406 543.414062 553.390625 543.09375 C 550.296875 544.695312 547.628906 546.695312 544.960938 548.695312 C 542.320312 550.722656 539.707031 552.773438 537.171875 554.933594 C 531.96875 559.175781 526.902344 563.574219 521.273438 567.574219 " fill-opacity="1" fill-rule="nonzero"/><path fill="rgb(95.689392%, 95.289612%, 59.999084%)" d="M 517.433594 551.734375 C 519.058594 548.320312 521.246094 545.199219 523.675781 542.265625 C 526.101562 539.332031 528.824219 536.640625 531.835938 534.238281 C 534.90625 531.894531 538.160156 529.707031 541.839844 528.238281 C 545.496094 526.773438 549.496094 525.867188 553.445312 526.160156 C 549.683594 527.226562 546.296875 528.71875 543.09375 530.535156 C 539.894531 532.347656 536.90625 534.507812 534.023438 536.800781 C 531.117188 539.015625 528.394531 541.519531 525.648438 544.027344 L 517.433594 551.734375 " fill-opacity="1" fill-rule="nonzero"/><path fill="rgb(95.689392%, 95.289612%, 59.999084%)" d="M 513.75 534.851562 C 515.539062 531.332031 517.886719 528.132812 520.445312 525.121094 C 522.980469 522.078125 525.863281 519.332031 529.007812 516.800781 C 532.15625 514.347656 535.570312 512.078125 539.441406 510.558594 C 543.226562 509.011719 547.46875 508.078125 551.578125 508.746094 C 547.550781 509.464844 544.027344 511.011719 540.667969 512.851562 C 537.304688 514.691406 534.183594 516.960938 531.195312 519.359375 C 525.113281 524.105469 519.621094 529.519531 513.75 534.851562 " fill-opacity="1" fill-rule="nonzero"/><path fill="rgb(95.689392%, 95.289612%, 59.999084%)" d="M 510.628906 520.640625 C 514.335938 514 519.300781 508.183594 524.792969 502.90625 C 527.621094 500.34375 530.609375 497.890625 533.945312 495.839844 C 537.253906 493.890625 541.121094 492.023438 545.175781 492.371094 C 541.386719 493.382812 538.480469 495.679688 535.542969 497.917969 C 532.664062 500.292969 529.917969 502.746094 527.195312 505.304688 C 521.726562 510.371094 516.445312 515.652344 510.628906 520.640625 " fill-opacity="1" fill-rule="nonzero"/><path fill="rgb(95.689392%, 95.289612%, 59.999084%)" d="M 506.46875 503.679688 C 507.9375 500.023438 509.910156 496.613281 512.097656 493.359375 C 514.257812 490.078125 516.792969 487.011719 519.484375 484.128906 C 522.261719 481.277344 525.273438 478.609375 528.742188 476.476562 C 532.128906 474.371094 536.050781 472.582031 540.214844 472.53125 C 536.425781 473.945312 533.304688 476.183594 530.34375 478.558594 C 527.410156 480.984375 524.609375 483.597656 521.992188 486.398438 C 516.683594 491.917969 511.777344 497.863281 506.46875 503.679688 " fill-opacity="1" fill-rule="nonzero"/><path fill="rgb(95.689392%, 95.289612%, 59.999084%)" d="M 503.960938 494.585938 C 506.601562 485.515625 510.949219 477.035156 516.445312 469.277344 C 519.246094 465.410156 522.445312 461.78125 526.183594 458.714844 C 529.890625 455.675781 534.425781 452.980469 539.441406 452.796875 C 534.769531 454.261719 531.277344 457.410156 528.023438 460.582031 C 524.847656 463.890625 521.886719 467.410156 519.246094 471.195312 C 513.832031 478.691406 509.03125 486.636719 503.960938 494.585938 " fill-opacity="1" fill-rule="nonzero"/><path fill="rgb(95.689392%, 95.289612%, 59.999084%)" d="M 497.480469 493.597656 C 499.800781 486.183594 502.789062 479.195312 505.667969 472.15625 C 507.109375 468.636719 508.523438 465.144531 509.855469 461.597656 C 510.496094 459.835938 511.136719 458.050781 511.644531 456.234375 C 512.125 454.449219 512.550781 452.609375 512.175781 450.6875 C 513.296875 452.421875 513.324219 454.582031 513.269531 456.554688 C 513.164062 458.53125 512.84375 460.476562 512.390625 462.371094 C 511.535156 466.210938 510.230469 469.863281 508.789062 473.4375 C 507.296875 477.011719 505.667969 480.503906 503.773438 483.863281 C 501.90625 487.25 499.878906 490.53125 497.480469 493.597656 " fill-opacity="1" fill-rule="nonzero"/><path fill="rgb(95.689392%, 95.289612%, 59.999084%)" d="M 488.222656 505.519531 C 489.128906 497.730469 490.4375 490.183594 491.316406 482.609375 C 491.742188 478.824219 492.011719 475.035156 492.0625 471.277344 C 492.011719 467.488281 491.71875 463.703125 489.796875 460.15625 C 492.917969 462.957031 494.199219 467.277344 494.679688 471.171875 C 495.210938 475.171875 495.078125 479.171875 494.652344 483.089844 C 493.664062 490.878906 491.691406 498.503906 488.222656 505.519531 " fill-opacity="1" fill-rule="nonzero"/><path fill="rgb(95.689392%, 95.289612%, 59.999084%)" d="M 481.074219 515.039062 C 479.847656 507.785156 478.992188 500.664062 477.417969 493.679688 C 476.671875 490.210938 475.765625 486.746094 474.511719 483.4375 C 473.230469 480.105469 471.683594 476.878906 469.390625 473.863281 C 472.671875 475.917969 475.097656 479.117188 476.910156 482.476562 C 478.78125 485.835938 479.875 489.492188 480.726562 493.117188 C 481.5 496.769531 481.953125 500.453125 482.007812 504.105469 C 482.085938 507.785156 481.875 511.464844 481.074219 515.039062 " fill-opacity="1" fill-rule="nonzero"/><path fill="rgb(95.689392%, 95.289612%, 59.999084%)" d="M 471.683594 528.078125 C 469.550781 521.066406 467.84375 514.160156 465.574219 507.4375 C 464.507812 504.050781 463.175781 500.773438 461.652344 497.625 C 460.054688 494.503906 458.238281 491.4375 455.359375 488.984375 C 458.984375 490.292969 461.8125 493.304688 463.921875 496.398438 C 466.054688 499.570312 467.628906 503.039062 468.777344 506.53125 C 469.921875 510.050781 470.777344 513.625 471.257812 517.226562 C 471.765625 520.824219 472.003906 524.453125 471.683594 528.078125 " fill-opacity="1" fill-rule="nonzero"/><path fill="rgb(95.689392%, 95.289612%, 59.999084%)" d="M 462.265625 540.828125 L 459.652344 530.585938 C 458.746094 527.226562 457.890625 523.867188 456.796875 520.585938 C 455.730469 517.304688 454.585938 514.050781 453.144531 510.90625 C 451.648438 507.785156 449.96875 504.796875 447.753906 501.863281 C 450.929688 503.8125 453.464844 506.691406 455.464844 509.785156 C 457.492188 512.878906 458.851562 516.292969 460.027344 519.734375 C 461.121094 523.171875 461.839844 526.691406 462.242188 530.214844 C 462.613281 533.761719 462.746094 537.308594 462.265625 540.828125 " fill-opacity="1" fill-rule="nonzero"/><path fill="rgb(95.689392%, 95.289612%, 59.999084%)" d="M 450.742188 554.5625 L 449.542969 546.109375 C 449.117188 543.332031 448.769531 540.585938 448.15625 537.894531 C 447.035156 532.480469 445.460938 527.359375 442.128906 522.425781 C 444.742188 523.945312 446.847656 526.347656 448.371094 528.960938 C 449.917969 531.601562 450.796875 534.480469 451.464844 537.359375 C 452.050781 540.265625 452.289062 543.175781 452.15625 546.054688 C 452.050781 548.933594 451.675781 551.8125 450.742188 554.5625 " fill-opacity="1" fill-rule="nonzero"/><path fill="rgb(95.689392%, 95.289612%, 59.999084%)" d="M 434.070312 567.601562 C 434.339844 562.988281 434.390625 558.453125 434.417969 553.949219 C 434.363281 549.441406 434.3125 544.933594 433.722656 540.480469 C 433.191406 536.054688 432.417969 531.625 431.03125 527.359375 C 429.5625 523.121094 427.640625 518.984375 424.894531 515.117188 C 428.601562 518.132812 431.535156 522.160156 433.511719 526.53125 C 435.484375 530.90625 436.472656 535.601562 437.058594 540.242188 C 437.617188 544.90625 437.539062 549.574219 437.058594 554.160156 C 436.578125 558.75 435.644531 563.28125 434.070312 567.601562 " fill-opacity="1" fill-rule="nonzero"/><path fill="rgb(95.689392%, 95.289612%, 59.999084%)" d="M 416.917969 574.640625 C 417.691406 570.589844 418.144531 566.507812 418.492188 562.480469 C 418.757812 558.453125 418.867188 554.429688 418.546875 550.453125 C 418.332031 546.425781 417.503906 542.507812 416.4375 538.613281 C 415.316406 534.695312 413.558594 531.011719 411.558594 527.226562 C 414.570312 530.238281 417.320312 533.8125 418.917969 537.839844 C 420.601562 541.839844 421.640625 546.082031 421.933594 550.320312 C 422.441406 558.800781 420.867188 567.335938 416.917969 574.640625 " fill-opacity="1" fill-rule="nonzero"/><path fill="rgb(95.689392%, 95.289612%, 59.999084%)" d="M 403.128906 579.015625 C 403.179688 572.589844 403.660156 566.375 403.449219 560.1875 C 403.394531 557.09375 403.207031 554.027344 402.675781 550.988281 C 402.113281 547.972656 401.339844 544.988281 399.847656 542.027344 C 402.460938 544.1875 404.167969 547.308594 405.234375 550.480469 C 406.328125 553.65625 406.703125 556.960938 406.808594 560.214844 C 406.863281 563.46875 406.621094 566.722656 405.980469 569.867188 C 405.394531 573.015625 404.542969 576.109375 403.128906 579.015625 " fill-opacity="1" fill-rule="nonzero"/><path fill="rgb(95.689392%, 95.289612%, 59.999084%)" d="M 392.402344 582.457031 C 391.308594 578.800781 390.722656 575.46875 390.003906 572.136719 C 389.65625 570.480469 389.230469 568.855469 388.828125 567.175781 L 387.308594 562.082031 C 388.964844 563.121094 390.269531 564.640625 391.257812 566.296875 C 392.21875 567.949219 392.859375 569.761719 393.3125 571.574219 C 393.632812 573.414062 393.816406 575.253906 393.683594 577.097656 C 393.578125 578.9375 393.230469 580.75 392.402344 582.457031 " fill-opacity="1" fill-rule="nonzero"/><path fill="rgb(95.689392%, 95.289612%, 59.999084%)" d="M 383.441406 585.683594 C 381.972656 584.164062 381.308594 582.910156 380.640625 581.574219 C 380.078125 580.214844 379.574219 578.960938 379.332031 576.910156 C 381.492188 577.175781 382.960938 578.695312 383.734375 580.347656 C 384.453125 582.03125 384.640625 583.976562 383.441406 585.683594 " fill-opacity="1" fill-rule="nonzero"/><g clip-path="url(#id2)"><path fill="rgb(90.589905%, 81.17981%, 17.649841%)" d="M 264.253906 653.714844 C 264.253906 653.714844 174.066406 597.550781 226.828125 381.457031 C 226.828125 381.457031 237.019531 378.046875 246.382812 388.257812 C 246.382812 388.257812 239.101562 329.5625 309.550781 273.398438 C 309.550781 273.398438 332.359375 285.320312 328.089844 311.695312 C 328.089844 311.695312 358.738281 293.828125 366.394531 364.445312 C 366.394531 364.445312 374.050781 373.804688 380.855469 362.738281 C 380.855469 362.738281 425.828125 402.925781 402.460938 578.828125 L 339.160156 669.046875 L 264.253906 653.714844 " fill-opacity="1" fill-rule="nonzero"/></g><path fill="rgb(95.689392%, 95.289612%, 59.999084%)" d="M 309.738281 298.652344 C 309.496094 296.734375 309.871094 295.027344 310.457031 293.425781 C 311.042969 291.828125 311.925781 290.359375 313.019531 289.027344 C 314.136719 287.71875 315.578125 286.546875 317.339844 285.800781 C 318.992188 285.054688 321.339844 284.761719 322.914062 286.039062 C 321.234375 286.972656 320.488281 288.066406 319.578125 289.105469 C 318.726562 290.199219 317.847656 291.242188 316.914062 292.359375 C 315.953125 293.453125 314.964844 294.546875 313.792969 295.613281 C 312.644531 296.679688 311.390625 297.71875 309.738281 298.652344 " fill-opacity="1" fill-rule="nonzero"/><path fill="rgb(95.689392%, 95.289612%, 59.999084%)" d="M 309.738281 316.226562 C 309.84375 313.773438 310.535156 311.5625 311.496094 309.453125 C 312.402344 307.347656 313.65625 305.429688 315.179688 303.640625 C 316.671875 301.882812 318.539062 300.28125 320.753906 299.1875 C 322.886719 298.066406 325.769531 297.402344 328.007812 298.652344 C 325.769531 299.613281 324.460938 301.027344 323.046875 302.441406 C 321.714844 303.90625 320.378906 305.402344 319.046875 306.972656 C 317.6875 308.546875 316.296875 310.148438 314.777344 311.667969 C 313.285156 313.242188 311.683594 314.789062 309.738281 316.226562 " fill-opacity="1" fill-rule="nonzero"/><path fill="rgb(95.689392%, 95.289612%, 59.999084%)" d="M 309.738281 339.75 C 309.65625 336.710938 310.191406 333.777344 310.992188 330.921875 C 311.765625 328.070312 312.910156 325.320312 314.296875 322.707031 C 315.738281 320.09375 317.5 317.589844 319.714844 315.453125 C 321.847656 313.375 324.914062 311.375 328.089844 311.695312 C 325.609375 313.453125 324.25 315.667969 322.808594 317.988281 L 318.78125 325.164062 C 317.472656 327.589844 316.140625 330.042969 314.644531 332.496094 C 313.179688 334.949219 311.628906 337.375 309.738281 339.75 " fill-opacity="1" fill-rule="nonzero"/><path fill="rgb(95.689392%, 95.289612%, 59.999084%)" d="M 309.738281 368.523438 C 311.015625 362.925781 313.070312 357.5625 315.417969 352.363281 C 317.792969 347.136719 320.648438 342.175781 323.792969 337.347656 C 326.996094 332.574219 330.703125 328.070312 335.050781 324.121094 C 339.320312 320.28125 344.546875 316.734375 350.417969 316.226562 C 345.269531 318.789062 341.480469 322.789062 337.90625 326.921875 C 334.386719 331.164062 331.050781 335.535156 328.035156 340.203125 C 321.792969 349.402344 316.140625 359.03125 309.738281 368.523438 " fill-opacity="1" fill-rule="nonzero"/><path fill="rgb(95.689392%, 95.289612%, 59.999084%)" d="M 309.738281 393.378906 C 312.324219 387.03125 315.445312 380.976562 318.804688 375.058594 C 322.140625 369.109375 325.796875 363.378906 329.609375 357.75 C 333.503906 352.175781 337.558594 346.683594 342.148438 341.5625 C 344.414062 339.003906 346.84375 336.523438 349.429688 334.230469 C 350.761719 333.109375 352.070312 332.015625 353.566406 331.054688 C 355.03125 330.148438 356.632812 329.214844 358.394531 329.082031 C 356.765625 329.75 355.617188 331.003906 354.472656 332.148438 C 353.324219 333.347656 352.257812 334.628906 351.242188 335.960938 C 349.164062 338.578125 347.214844 341.324219 345.269531 344.042969 L 333.796875 360.628906 C 326.089844 371.699219 318.460938 382.84375 309.738281 393.378906 " fill-opacity="1" fill-rule="nonzero"/><path fill="rgb(95.689392%, 95.289612%, 59.999084%)" d="M 309.738281 424.421875 C 312.136719 416.953125 315.285156 409.753906 318.726562 402.714844 C 322.167969 395.671875 326.035156 388.84375 330.277344 382.230469 C 334.570312 375.644531 339.238281 369.246094 344.707031 363.484375 C 347.429688 360.578125 350.363281 357.882812 353.589844 355.511719 C 356.84375 353.242188 360.472656 351.164062 364.421875 350.601562 C 360.847656 352.257812 357.914062 354.738281 355.21875 357.429688 C 352.523438 360.125 350.097656 363.085938 347.722656 366.070312 C 343.082031 372.152344 338.734375 378.5 334.570312 384.980469 C 326.140625 397.9375 318.324219 411.300781 309.738281 424.421875 " fill-opacity="1" fill-rule="nonzero"/><path fill="rgb(95.689392%, 95.289612%, 59.999084%)" d="M 309.738281 464.824219 C 312.777344 455.648438 316.511719 446.714844 320.566406 437.96875 C 324.59375 429.195312 329.078125 420.605469 333.851562 412.207031 C 338.757812 403.832031 343.933594 395.621094 349.910156 387.9375 C 352.898438 384.097656 356.097656 380.390625 359.59375 376.953125 C 363.113281 373.617188 366.980469 370.363281 371.492188 368.523438 C 367.542969 371.351562 364.394531 374.925781 361.460938 378.632812 C 358.472656 382.363281 355.804688 386.285156 353.164062 390.257812 C 347.960938 398.234375 343.027344 406.445312 338.28125 414.742188 C 328.675781 431.300781 319.605469 448.207031 309.738281 464.824219 " fill-opacity="1" fill-rule="nonzero"/><path fill="rgb(95.689392%, 95.289612%, 59.999084%)" d="M 309.738281 499.304688 C 319.207031 476.289062 330.597656 454.15625 343.054688 432.632812 C 349.351562 421.914062 355.910156 411.328125 363.195312 401.191406 C 366.820312 396.097656 370.636719 391.140625 374.746094 386.445312 C 378.984375 381.886719 383.28125 377.058594 388.910156 374.203125 C 383.972656 378.019531 380.238281 382.953125 376.71875 387.992188 C 373.117188 393.003906 369.808594 398.207031 366.503906 403.40625 C 359.964844 413.886719 353.644531 424.5 347.457031 435.195312 L 328.78125 467.304688 C 322.59375 478.023438 316.21875 488.691406 309.738281 499.304688 " fill-opacity="1" fill-rule="nonzero"/><path fill="rgb(95.689392%, 95.289612%, 59.999084%)" d="M 309.738281 528.640625 C 315.046875 516.371094 320.886719 504.320312 327.128906 492.503906 C 333.316406 480.636719 339.960938 469.035156 346.867188 457.570312 C 353.882812 446.15625 361.167969 434.902344 369.25 424.179688 C 373.277344 418.792969 377.546875 413.566406 382.132812 408.632812 C 386.828125 403.914062 391.683594 398.820312 398.007812 396.3125 C 392.269531 399.804688 388.054688 405.03125 384.027344 410.261719 C 379.972656 415.515625 376.210938 420.953125 372.503906 426.472656 C 365.167969 437.542969 358.125 448.820312 351.21875 460.210938 C 344.253906 471.570312 337.480469 483.039062 330.597656 494.453125 C 323.769531 505.890625 316.804688 517.277344 309.738281 528.640625 " fill-opacity="1" fill-rule="nonzero"/><path fill="rgb(95.689392%, 95.289612%, 59.999084%)" d="M 309.738281 560.988281 C 321.902344 535.308594 335.851562 510.585938 350.738281 486.425781 C 358.257812 474.398438 365.996094 462.476562 374.425781 451.035156 C 378.613281 445.273438 382.988281 439.648438 387.65625 434.234375 C 390.03125 431.59375 392.457031 428.953125 395.070312 426.5 C 397.632812 424.074219 400.433594 421.566406 403.875 420.5 C 402.246094 421.273438 400.886719 422.394531 399.632812 423.59375 C 398.378906 424.820312 397.152344 426.074219 396.03125 427.433594 C 393.765625 430.101562 391.65625 432.953125 389.601562 435.808594 C 385.46875 441.488281 381.574219 447.382812 377.707031 453.277344 C 369.996094 465.117188 362.5 477.089844 355.058594 489.117188 L 332.652344 525.171875 C 325.183594 537.199219 317.527344 549.121094 309.738281 560.988281 " fill-opacity="1" fill-rule="nonzero"/><path fill="rgb(95.689392%, 95.289612%, 59.999084%)" d="M 309.738281 589.894531 C 323.316406 564.429688 338.441406 539.894531 354.257812 515.8125 C 362.261719 503.785156 370.398438 491.890625 378.984375 480.289062 C 383.28125 474.503906 387.710938 468.769531 392.296875 463.195312 C 394.644531 460.449219 396.992188 457.703125 399.472656 455.0625 C 401.953125 452.421875 404.488281 449.753906 407.554688 447.78125 C 404.835938 450.183594 402.699219 453.089844 400.539062 455.914062 C 398.351562 458.796875 396.324219 461.757812 394.296875 464.714844 C 390.214844 470.609375 386.242188 476.609375 382.265625 482.585938 L 358.527344 518.613281 C 342.601562 542.5625 326.730469 566.5625 309.738281 589.894531 " fill-opacity="1" fill-rule="nonzero"/><path fill="rgb(95.689392%, 95.289612%, 59.999084%)" d="M 309.738281 623.953125 C 323.046875 597.898438 338.066406 572.828125 353.964844 548.320312 C 361.992188 536.105469 370.238281 524.027344 379.066406 512.34375 C 383.46875 506.503906 388.027344 500.773438 392.859375 495.226562 C 395.3125 492.503906 397.792969 489.785156 400.460938 487.25 C 403.101562 484.71875 405.847656 482.128906 409.210938 480.582031 C 406.140625 482.585938 403.792969 485.4375 401.445312 488.15625 C 399.101562 490.929688 396.9375 493.863281 394.804688 496.796875 C 390.511719 502.636719 386.402344 508.664062 382.320312 514.664062 C 374.183594 526.71875 366.183594 538.878906 358.234375 551.09375 C 342.253906 575.46875 326.488281 599.976562 309.738281 623.953125 " fill-opacity="1" fill-rule="nonzero"/><path fill="rgb(95.689392%, 95.289612%, 59.999084%)" d="M 309.738281 649.472656 C 316.699219 636.914062 324.035156 624.566406 331.691406 612.457031 C 339.292969 600.296875 347.1875 588.324219 355.246094 576.480469 C 363.40625 564.667969 371.675781 552.960938 380.453125 541.574219 C 384.773438 535.839844 389.308594 530.238281 393.953125 524.773438 C 396.378906 522.078125 398.621094 519.304688 401.207031 516.773438 L 404.996094 512.90625 L 409.210938 509.519531 L 405.527344 513.4375 L 402.246094 517.652344 C 399.980469 520.398438 398.03125 523.441406 395.925781 526.292969 C 391.765625 532.132812 387.710938 538 383.65625 543.894531 L 359.460938 579.363281 C 343.242188 602.9375 327.023438 626.539062 309.738281 649.472656 " fill-opacity="1" fill-rule="nonzero"/><path fill="rgb(95.689392%, 95.289612%, 59.999084%)" d="M 309.550781 639.550781 L 286.582031 614.429688 C 278.953125 606.085938 271.296875 597.789062 263.453125 589.683594 C 255.691406 581.46875 247.664062 573.550781 239.394531 565.949219 C 235.285156 562.082031 230.964844 558.507812 226.617188 554.933594 L 219.867188 549.8125 C 217.492188 548.347656 215.09375 546.828125 212.691406 545.253906 C 223.496094 549.148438 233.070312 555.816406 241.980469 562.910156 C 250.945312 570.027344 259.238281 577.921875 267.136719 586.136719 C 274.976562 594.402344 282.527344 602.9375 289.597656 611.871094 C 296.71875 620.726562 303.414062 629.953125 309.550781 639.550781 " fill-opacity="1" fill-rule="nonzero"/><path fill="rgb(95.689392%, 95.289612%, 59.999084%)" d="M 309.550781 611.175781 C 302.695312 601.65625 295.410156 592.484375 288.050781 583.46875 C 280.605469 574.535156 272.898438 565.84375 264.761719 557.519531 C 256.730469 549.148438 248.0625 541.441406 239.125 534.027344 C 230.082031 526.746094 220.507812 520.210938 210.371094 514.1875 C 221.332031 518.425781 231.898438 523.972656 241.527344 530.851562 C 251.15625 537.761719 260.171875 545.492188 268.417969 553.949219 C 276.605469 562.480469 284.289062 571.496094 291.195312 581.070312 C 298.132812 590.589844 304.375 600.617188 309.550781 611.175781 " fill-opacity="1" fill-rule="nonzero"/><path fill="rgb(95.689392%, 95.289612%, 59.999084%)" d="M 309.550781 572.027344 C 302 564.242188 294.34375 556.667969 286.714844 549.066406 C 279.03125 541.519531 271.324219 534.027344 263.269531 526.960938 C 255.292969 519.8125 247.074219 512.933594 238.378906 506.71875 C 229.65625 500.585938 220.667969 494.71875 210.53125 490.746094 C 221.253906 492.796875 231.3125 497.679688 240.59375 503.410156 C 245.316406 506.183594 249.664062 509.492188 254.089844 512.691406 C 258.332031 516.105469 262.628906 519.492188 266.65625 523.171875 C 274.765625 530.425781 282.449219 538.160156 289.597656 546.320312 C 296.800781 554.453125 303.519531 563.015625 309.550781 572.027344 " fill-opacity="1" fill-rule="nonzero"/><path fill="rgb(95.689392%, 95.289612%, 59.999084%)" d="M 309.550781 545.253906 C 302.855469 537.332031 295.730469 529.867188 288.476562 522.613281 C 281.140625 515.4375 273.539062 508.558594 265.535156 502.183594 L 259.535156 497.4375 L 253.292969 493.011719 C 251.265625 491.464844 249.078125 490.15625 246.914062 488.769531 C 244.753906 487.4375 242.675781 485.917969 240.40625 484.71875 L 233.738281 480.929688 C 231.523438 479.675781 229.148438 478.664062 226.882812 477.492188 C 222.375 474.902344 217.4375 473.488281 212.691406 471.222656 C 222.855469 473.277344 232.992188 476.371094 242.328125 481.222656 C 251.664062 485.972656 260.601562 491.597656 268.738281 498.210938 C 276.871094 504.824219 284.5 512.027344 291.355469 519.894531 C 298.238281 527.734375 304.453125 536.1875 309.550781 545.253906 " fill-opacity="1" fill-rule="nonzero"/><path fill="rgb(95.689392%, 95.289612%, 59.999084%)" d="M 309.550781 514.1875 C 302.90625 506.851562 295.917969 499.972656 288.636719 493.464844 C 281.355469 486.957031 273.777344 480.851562 265.800781 475.277344 C 261.90625 472.34375 257.71875 469.863281 253.664062 467.195312 C 249.449219 464.769531 245.34375 462.15625 240.96875 459.996094 C 232.429688 455.25 223.335938 451.648438 214.210938 447.78125 C 223.921875 449.59375 233.632812 452.234375 242.699219 456.394531 C 247.394531 458.183594 251.664062 460.796875 256.117188 463.035156 C 260.359375 465.648438 264.707031 468.183594 268.738281 471.117188 C 276.871094 476.902344 284.554688 483.382812 291.410156 490.609375 C 298.292969 497.785156 304.613281 505.570312 309.550781 514.1875 " fill-opacity="1" fill-rule="nonzero"/><path fill="rgb(95.689392%, 95.289612%, 59.999084%)" d="M 309.550781 480.984375 C 295.757812 468.875 281.675781 457.515625 266.601562 447.570312 C 259.078125 442.582031 251.238281 438.179688 243.179688 434.128906 C 235.046875 430.207031 226.589844 427.113281 217.785156 424.421875 C 226.960938 425.007812 236.085938 427.140625 244.78125 430.472656 C 253.398438 433.886719 261.640625 438.261719 269.402344 443.300781 C 277.085938 448.449219 284.394531 454.128906 291.144531 460.449219 C 297.867188 466.742188 304.214844 473.488281 309.550781 480.984375 " fill-opacity="1" fill-rule="nonzero"/><path fill="rgb(95.689392%, 95.289612%, 59.999084%)" d="M 309.738281 452.714844 C 296.105469 442.609375 282.152344 433.40625 267.457031 425.566406 C 260.148438 421.539062 252.625 417.941406 244.941406 414.6875 C 237.285156 411.273438 229.335938 408.6875 221.332031 405.753906 C 229.761719 406.605469 238.246094 408.179688 246.328125 410.953125 C 250.464844 412.125 254.332031 413.941406 258.332031 415.433594 C 262.199219 417.246094 266.121094 419.007812 269.855469 421.0625 C 277.378906 425.167969 284.609375 429.753906 291.304688 435.0625 C 298 440.316406 304.347656 446.074219 309.738281 452.714844 " fill-opacity="1" fill-rule="nonzero"/><path fill="rgb(95.689392%, 95.289612%, 59.999084%)" d="M 309.738281 429.222656 C 304.453125 425.539062 299.359375 421.808594 294.265625 418.074219 C 289.144531 414.421875 284.101562 410.632812 278.925781 407.167969 C 273.75 403.621094 268.523438 400.179688 263.160156 396.980469 C 257.773438 393.832031 252.277344 390.898438 246.382812 388.257812 C 252.8125 388.84375 259.078125 390.84375 265 393.433594 C 270.921875 396.019531 276.472656 399.378906 281.808594 402.953125 C 287.089844 406.632812 292.105469 410.632812 296.800781 415.007812 C 301.46875 419.378906 305.921875 424.019531 309.738281 429.222656 " fill-opacity="1" fill-rule="nonzero"/><path fill="rgb(95.689392%, 95.289612%, 59.999084%)" d="M 309.738281 405.753906 C 300.054688 398.019531 290.371094 390.925781 280.019531 384.765625 C 274.898438 381.617188 269.617188 378.765625 264.175781 376.097656 C 258.785156 373.351562 253.15625 371.136719 247.503906 368.523438 C 253.664062 369.058594 259.851562 370.285156 265.722656 372.445312 C 268.710938 373.324219 271.511719 374.738281 274.390625 375.9375 C 277.191406 377.378906 279.992188 378.765625 282.632812 380.390625 C 287.996094 383.644531 293.0625 387.351562 297.625 391.59375 C 302.214844 395.777344 306.457031 400.445312 309.738281 405.753906 " fill-opacity="1" fill-rule="nonzero"/><path fill="rgb(95.689392%, 95.289612%, 59.999084%)" d="M 309.738281 378.605469 L 295.492188 370.925781 C 290.769531 368.472656 286.074219 365.992188 281.273438 363.722656 C 276.527344 361.378906 271.699219 359.164062 266.816406 357.03125 C 261.960938 354.816406 256.972656 352.921875 251.984375 350.601562 C 257.453125 350.84375 262.894531 351.722656 268.148438 353.296875 C 273.457031 354.710938 278.578125 356.789062 283.515625 359.136719 C 288.421875 361.5625 293.171875 364.335938 297.597656 367.5625 C 302.027344 370.792969 306.242188 374.363281 309.738281 378.605469 " fill-opacity="1" fill-rule="nonzero"/><path fill="rgb(95.689392%, 95.289612%, 59.999084%)" d="M 310.214844 355.9375 C 301.441406 351.9375 293.144531 347.9375 284.554688 344.523438 C 280.285156 342.738281 275.9375 341.269531 271.539062 339.777344 C 267.136719 338.257812 262.628906 337.191406 257.984375 335.75 C 262.761719 335.054688 267.695312 335.054688 272.472656 335.910156 C 277.273438 336.65625 281.96875 337.988281 286.449219 339.804688 C 290.929688 341.667969 295.25 343.855469 299.253906 346.523438 C 303.28125 349.191406 307.070312 352.230469 310.214844 355.9375 " fill-opacity="1" fill-rule="nonzero"/><path fill="rgb(95.689392%, 95.289612%, 59.999084%)" d="M 309.550781 335.75 C 302.613281 332.097656 296.292969 328.253906 289.757812 324.84375 C 286.503906 323.136719 283.195312 321.589844 279.832031 320.09375 C 276.417969 318.683594 272.949219 317.480469 269.191406 316.226562 C 273.03125 315.347656 277.113281 315.480469 281.007812 316.28125 C 284.875 317.109375 288.636719 318.496094 292.128906 320.308594 C 295.597656 322.175781 298.878906 324.390625 301.8125 326.949219 C 304.75 329.507812 307.496094 332.390625 309.550781 335.75 " fill-opacity="1" fill-rule="nonzero"/><path fill="rgb(95.689392%, 95.289612%, 59.999084%)" d="M 309.550781 307.429688 C 304.75 305.933594 300.800781 304.148438 296.691406 302.519531 L 290.609375 299.988281 C 288.53125 299.105469 286.394531 298.386719 284.101562 297.1875 C 286.449219 296.253906 288.984375 295.878906 291.464844 296.121094 C 293.945312 296.226562 296.398438 296.839844 298.667969 297.800781 C 300.933594 298.761719 303.066406 300.015625 304.933594 301.640625 C 306.828125 303.214844 308.507812 305.082031 309.550781 307.429688 " fill-opacity="1" fill-rule="nonzero"/><path fill="rgb(95.689392%, 95.289612%, 59.999084%)" d="M 310.214844 320.761719 C 304.453125 317.988281 299.414062 315.109375 294.15625 312.441406 C 291.542969 311.082031 288.929688 309.773438 286.261719 308.441406 C 283.621094 307.082031 280.875 305.90625 278.074219 304.253906 C 281.246094 303.800781 284.476562 303.960938 287.570312 304.679688 C 290.691406 305.292969 293.703125 306.441406 296.503906 307.90625 C 299.304688 309.375 301.972656 311.160156 304.292969 313.320312 C 306.640625 315.429688 308.777344 317.855469 310.214844 320.761719 " fill-opacity="1" fill-rule="nonzero"/><path fill="rgb(94.509888%, 91.758728%, 83.529663%)" d="M 310.214844 817.082031 C 310.214844 817.082031 243.820312 820.496094 218.320312 635.019531 C 218.320312 635.019531 208.101562 515.890625 235.3125 469.941406 L 254.039062 469.941406 C 254.039062 469.941406 231.925781 412.101562 310.214844 355.9375 C 310.214844 355.9375 328.941406 371.246094 325.554688 398.472656 C 325.554688 398.472656 344.253906 381.457031 368.101562 454.636719 C 368.101562 454.636719 386.800781 468.238281 391.925781 452.929688 C 391.925781 452.929688 446.394531 796.65625 310.214844 817.082031 " fill-opacity="1" fill-rule="nonzero"/><path fill="rgb(90.19928%, 83.529663%, 17.248535%)" d="M 288.636719 430.632812 C 280.261719 427.273438 273.429688 416.582031 267.027344 405.753906 L 263.082031 405.753906 C 262.679688 406.875 262.28125 408.101562 261.878906 409.300781 C 264.523438 431.355469 268.523438 452.847656 280.101562 471.328125 C 320.300781 535.359375 372.265625 586.882812 400.007812 664.992188 C 401.207031 646.140625 401.925781 626.964844 402.300781 607.949219 C 383.28125 526.214844 347.75 460.902344 288.636719 430.632812 " fill-opacity="1" fill-rule="nonzero"/><path fill="rgb(95.689392%, 95.289612%, 59.999084%)" d="M 272.3125 414.3125 C 273.726562 420.152344 273.9375 426.074219 273.644531 431.96875 C 273.269531 437.863281 272.417969 443.835938 269.910156 449.300781 C 269.855469 443.328125 270.097656 437.59375 270.390625 431.78125 C 270.765625 425.996094 271.136719 420.207031 272.3125 414.3125 " fill-opacity="1" fill-rule="nonzero"/><path fill="rgb(95.689392%, 95.289612%, 59.999084%)" d="M 281.992188 426.261719 C 283.195312 427.996094 283.566406 430.101562 284.128906 432.046875 C 284.582031 434.046875 284.957031 436.074219 285.222656 438.101562 C 285.835938 442.15625 286.023438 446.261719 286.046875 450.367188 C 285.996094 458.53125 285.007812 466.824219 282.128906 474.53125 L 282.609375 462.371094 C 282.660156 458.371094 282.820312 454.367188 282.792969 450.34375 C 282.820312 446.34375 282.769531 442.316406 282.6875 438.316406 C 282.632812 436.289062 282.632812 434.289062 282.527344 432.289062 C 282.421875 430.261719 282.5 428.207031 281.992188 426.261719 " fill-opacity="1" fill-rule="nonzero"/><path fill="rgb(95.689392%, 95.289612%, 59.999084%)" d="M 290.902344 431.808594 C 294.476562 441.222656 296.160156 451.25 296.746094 461.304688 C 297.011719 466.316406 296.878906 471.382812 296.34375 476.398438 C 295.867188 481.410156 294.71875 486.371094 293.117188 491.117188 C 293.464844 486.105469 293.730469 481.171875 293.785156 476.238281 C 293.785156 471.304688 293.785156 466.394531 293.492188 461.460938 C 293.011719 451.59375 291.945312 441.78125 290.902344 431.808594 " fill-opacity="1" fill-rule="nonzero"/><path fill="rgb(95.689392%, 95.289612%, 59.999084%)" d="M 302.988281 438.980469 C 306.214844 449.703125 307.414062 460.929688 307.574219 472.101562 C 307.628906 477.730469 307.308594 483.332031 306.589844 488.90625 C 305.976562 494.476562 304.640625 499.945312 302.988281 505.277344 C 303.414062 499.679688 303.839844 494.183594 304.054688 488.664062 C 304.242188 483.144531 304.402344 477.648438 304.292969 472.128906 C 304.269531 461.117188 303.65625 450.128906 302.988281 438.980469 " fill-opacity="1" fill-rule="nonzero"/><path fill="rgb(95.689392%, 95.289612%, 59.999084%)" d="M 315.046875 447.648438 C 317.925781 459.328125 318.964844 471.4375 318.964844 483.492188 C 318.78125 495.492188 317.445312 507.8125 312.910156 519.011719 C 313.925781 513.066406 314.539062 507.144531 315.019531 501.25 C 315.417969 495.332031 315.660156 489.382812 315.710938 483.464844 C 315.765625 477.515625 315.660156 471.570312 315.550781 465.597656 L 315.046875 447.648438 " fill-opacity="1" fill-rule="nonzero"/><path fill="rgb(95.689392%, 95.289612%, 59.999084%)" d="M 326.300781 457.355469 C 327.636719 463.488281 328.488281 469.703125 328.996094 475.945312 C 329.554688 482.183594 329.742188 488.476562 329.582031 494.746094 C 329.398438 501.039062 328.96875 507.332031 327.769531 513.519531 C 326.648438 519.734375 324.941406 525.894531 322.007812 531.441406 C 323.769531 525.414062 324.566406 519.28125 325.234375 513.171875 C 325.902344 507.039062 326.167969 500.851562 326.328125 494.664062 C 326.515625 488.476562 326.488281 482.265625 326.460938 476.050781 L 326.300781 457.355469 " fill-opacity="1" fill-rule="nonzero"/><path fill="rgb(95.689392%, 95.289612%, 59.999084%)" d="M 335.664062 466.851562 C 337.480469 473.625 338.625 480.558594 339.558594 487.492188 C 340.492188 494.453125 340.945312 501.464844 341.160156 508.503906 C 341.242188 515.546875 341.027344 522.585938 340.199219 529.574219 C 339.320312 536.558594 337.984375 543.519531 335.664062 550.132812 C 336.039062 546.640625 336.707031 543.253906 336.890625 539.761719 C 337.371094 536.320312 337.480469 532.828125 337.691406 529.359375 C 337.933594 522.425781 338.011719 515.519531 337.878906 508.558594 C 337.773438 501.625 337.398438 494.691406 337.050781 487.730469 C 336.890625 484.265625 336.652344 480.769531 336.359375 477.304688 C 336.199219 473.808594 335.878906 470.34375 335.664062 466.851562 " fill-opacity="1" fill-rule="nonzero"/><path fill="rgb(95.689392%, 95.289612%, 59.999084%)" d="M 348.148438 481.863281 C 350.042969 488.476562 351.324219 495.25 352.203125 502.105469 C 353.085938 508.933594 353.566406 515.839844 353.539062 522.746094 C 353.40625 529.652344 353.058594 536.613281 351.644531 543.414062 C 350.335938 550.214844 348.175781 556.933594 344.734375 562.882812 C 347.027344 556.402344 348.230469 549.707031 349.136719 543.015625 C 349.988281 536.320312 350.203125 529.519531 350.257812 522.746094 C 350.363281 515.945312 350.015625 509.144531 349.667969 502.34375 C 349.242188 495.542969 348.789062 488.71875 348.148438 481.863281 " fill-opacity="1" fill-rule="nonzero"/><path fill="rgb(95.689392%, 95.289612%, 59.999084%)" d="M 361.914062 502.320312 C 364.5 515.492188 365.433594 528.933594 365.222656 542.375 C 365.035156 549.09375 364.582031 555.816406 363.433594 562.480469 C 362.3125 569.09375 360.632812 575.761719 357.511719 581.710938 C 359.433594 575.28125 360.207031 568.695312 360.898438 562.136719 C 361.515625 555.546875 361.832031 548.90625 361.941406 542.292969 C 362.128906 535.652344 362.101562 529.011719 362.046875 522.371094 L 361.914062 502.320312 " fill-opacity="1" fill-rule="nonzero"/><path fill="rgb(95.689392%, 95.289612%, 59.999084%)" d="M 373.359375 523.519531 C 375.464844 530.054688 376.773438 536.855469 377.546875 543.707031 C 378.320312 550.535156 378.667969 557.441406 378.507812 564.320312 C 378.265625 571.230469 377.8125 578.109375 376.664062 584.910156 C 375.652344 591.738281 373.917969 598.402344 371.890625 604.9375 C 372.691406 598.109375 373.570312 591.363281 374.105469 584.589844 C 374.746094 577.816406 375.066406 571.042969 375.226562 564.269531 C 375.4375 557.46875 375.25 550.695312 375.011719 543.894531 C 374.664062 537.121094 374.238281 530.320312 373.359375 523.519531 " fill-opacity="1" fill-rule="nonzero"/><path fill="rgb(95.689392%, 95.289612%, 59.999084%)" d="M 385.335938 551.335938 C 388.347656 563.601562 389.578125 576.214844 389.628906 588.855469 C 389.496094 601.417969 388.1875 614.351562 383.308594 626.058594 C 385.683594 613.683594 386.296875 601.308594 386.347656 588.855469 C 386.402344 582.617188 386.214844 576.375 386.027344 570.136719 L 385.335938 551.335938 " fill-opacity="1" fill-rule="nonzero"/><path fill="rgb(95.689392%, 95.289612%, 59.999084%)" d="M 396.539062 585.601562 C 398.886719 590.242188 399.417969 595.578125 399.714844 600.671875 C 399.953125 605.84375 399.632812 610.992188 399.152344 616.085938 C 398.566406 621.203125 397.792969 626.246094 396.699219 631.257812 C 395.632812 636.273438 394.21875 641.179688 392.589844 646.03125 C 393.390625 635.820312 394.859375 625.792969 395.898438 615.738281 C 396.433594 610.722656 396.886719 605.710938 397.152344 600.671875 C 397.257812 598.164062 397.367188 595.65625 397.3125 593.125 C 397.285156 590.617188 397.152344 588.082031 396.539062 585.601562 " fill-opacity="1" fill-rule="nonzero"/><path fill="rgb(82.348633%, 77.249146%, 63.919067%)" d="M 341.480469 803.082031 L 286.582031 803.082031 C 282.714844 803.082031 279.566406 806.226562 279.566406 810.070312 L 279.566406 813.613281 C 279.566406 817.457031 282.714844 820.628906 286.582031 820.628906 L 341.480469 820.628906 C 345.347656 820.628906 348.496094 817.457031 348.496094 813.613281 L 348.496094 810.070312 C 348.496094 806.226562 345.347656 803.082031 341.480469 803.082031 " fill-opacity="1" fill-rule="nonzero"/></svg>