<svg xmlns="http://www.w3.org/2000/svg" xmlns:xlink="http://www.w3.org/1999/xlink" width="750" zoomAndPan="magnify" viewBox="0 0 750 1124.99995" height="1124.99995" preserveAspectRatio="xMidYMid meet" version="1.0"><defs><clipPath id="id1"><path d="M 365 536.683594 L 520 536.683594 L 520 680.996094 L 365 680.996094 Z M 365 536.683594 " clip-rule="nonzero"/></clipPath><clipPath id="id2"><path d="M 512.402344 680.230469 C 488.441406 571.648438 411.285156 559.972656 379.175781 559.972656 C 371.640625 559.972656 366.582031 560.613281 365.28125 560.800781 C 377.492188 556.800781 389.046875 551.371094 399.480469 545.273438 C 409.070312 539.664062 420.574219 536.980469 432.65625 536.980469 C 461.046875 536.980469 492.660156 551.816406 510.332031 578.476562 C 516.417969 597.6875 518.875 615.636719 519.417969 631.109375 C 518.984375 644.167969 517.226562 657.386719 514.542969 670.660156 C 513.894531 673.859375 513.183594 677.050781 512.402344 680.230469 M 474.707031 557.117188 C 474.707031 557.117188 499.117188 628.296875 513.230469 646.699219 C 513.230469 646.699219 517.898438 567.953125 474.707031 557.117188 M 495.15625 542.917969 C 494.359375 541.597656 493.542969 540.257812 492.703125 538.933594 C 493.097656 539.484375 493.484375 540.03125 493.867188 540.582031 C 494.304688 541.363281 494.730469 542.140625 495.15625 542.917969 " clip-rule="nonzero"/></clipPath></defs><path fill="rgb(61.959839%, 14.118958%, 21.179199%)" d="M 177.21875 343.585938 C 177.21875 343.585938 209.925781 333.609375 247.574219 334.136719 C 285.21875 334.671875 300.320312 341.433594 301.191406 342.507812 C 302.054688 343.582031 177.21875 343.585938 177.21875 343.585938 " fill-opacity="1" fill-rule="nonzero"/><path fill="rgb(84.309387%, 19.60907%, 30.198669%)" d="M 236.316406 340.636719 C 236.316406 340.636719 259.429688 336.96875 271.867188 340.074219 C 284.304688 343.179688 311.980469 338.566406 335.820312 364.464844 C 359.660156 390.363281 371.066406 419.371094 373.136719 438.015625 C 375.210938 456.667969 362.773438 507.425781 360.695312 512.605469 C 358.621094 517.789062 329.601562 579.941406 263.261719 589.265625 C 263.261719 589.265625 201.078125 598.585938 161.691406 568.554688 C 122.296875 538.507812 103.644531 473.242188 103.644531 451.484375 C 103.644531 429.734375 115.289062 389.328125 131.753906 376.902344 C 148.214844 364.464844 171.019531 342.707031 181.382812 342.707031 C 191.746094 342.707031 222.839844 335.460938 236.316406 340.636719 " fill-opacity="1" fill-rule="nonzero"/><path fill="rgb(85.099792%, 34.509277%, 41.178894%)" d="M 150.398438 370.464844 C 150.398438 370.464844 115.0625 440.355469 144.078125 490.515625 C 173.097656 540.679688 175.820312 535.300781 175.820312 535.300781 L 152.808594 560.851562 C 152.808594 560.851562 97.414062 504.074219 110.941406 449.007812 C 124.457031 393.945312 150.398438 370.464844 150.398438 370.464844 " fill-opacity="1" fill-rule="nonzero"/><path fill="rgb(60.778809%, 50.979614%, 15.689087%)" d="M 177.542969 343.457031 C 180.183594 342.382812 199.332031 335.144531 237.828125 334.226562 C 210.53125 335.089844 187.335938 340.804688 179.800781 342.855469 C 179.089844 342.980469 178.335938 343.1875 177.542969 343.457031 " fill-opacity="1" fill-rule="nonzero"/><path fill="rgb(60.389709%, 12.939453%, 19.219971%)" d="M 179.800781 342.855469 C 187.335938 340.804688 210.53125 335.089844 237.828125 334.226562 C 239.761719 334.183594 241.746094 334.148438 243.773438 334.136719 C 244.042969 334.136719 244.316406 334.136719 244.578125 334.136719 C 261.308594 334.136719 276.164062 337.328125 288.484375 342.003906 C 281.738281 341.285156 275.972656 341.097656 271.867188 340.074219 C 268.164062 339.148438 263.523438 338.824219 258.816406 338.824219 C 247.722656 338.824219 236.316406 340.636719 236.316406 340.636719 C 232.769531 339.277344 228.011719 338.773438 222.71875 338.773438 C 207.917969 338.773438 189.015625 342.707031 181.382812 342.707031 C 180.878906 342.707031 180.355469 342.761719 179.800781 342.855469 " fill-opacity="1" fill-rule="nonzero"/><path fill="rgb(75.289917%, 16.468811%, 25.099182%)" d="M 262.71875 420.691406 C 229.859375 420.691406 154.050781 388.445312 151.96875 375.445312 C 149.742188 361.507812 177.21875 343.585938 177.21875 343.585938 C 177.21875 343.585938 177.328125 343.539062 177.542969 343.457031 C 178.335938 343.1875 179.089844 342.980469 179.800781 342.855469 C 180.355469 342.761719 180.878906 342.707031 181.382812 342.707031 C 189.015625 342.707031 207.917969 338.773438 222.71875 338.773438 C 228.011719 338.773438 232.769531 339.277344 236.316406 340.636719 C 236.316406 340.636719 247.722656 338.824219 258.816406 338.824219 C 263.523438 338.824219 268.164062 339.148438 271.867188 340.074219 C 275.972656 341.097656 281.738281 341.285156 288.484375 342.003906 C 309.519531 349.984375 323.171875 362.304688 326.183594 370.464844 C 327.851562 374.980469 324.863281 381.710938 319.078125 388.800781 C 306.484375 392.019531 296.039062 402.117188 286.570312 414.082031 C 280.738281 416.953125 274.773438 419.113281 269.054688 420.179688 C 267.1875 420.527344 265.0625 420.695312 262.71875 420.691406 M 234.390625 351.347656 C 224.617188 351.347656 215.046875 355.070312 212.507812 365.210938 C 211.074219 370.953125 220.195312 372.769531 230.328125 372.769531 C 240.703125 372.773438 252.144531 370.863281 254.460938 369.296875 C 266.265625 361.265625 250.722656 351.707031 235.210938 351.359375 C 234.9375 351.355469 234.660156 351.347656 234.390625 351.347656 " fill-opacity="1" fill-rule="nonzero"/><path fill="rgb(85.879517%, 46.669006%, 44.309998%)" d="M 240.488281 340.074219 C 240.488281 340.074219 307.238281 339.449219 317.277344 367.761719 C 317.277344 367.761719 298.855469 356.648438 293.023438 369.308594 C 287.199219 381.949219 317.277344 407.289062 317.277344 407.289062 L 348.625 380.242188 C 348.625 380.242188 322.175781 324.960938 240.488281 340.074219 " fill-opacity="1" fill-rule="nonzero"/><path fill="rgb(56.469727%, 9.799194%, 15.289307%)" d="M 163.945312 565.433594 C 163.945312 565.433594 163.261719 564.523438 162.070312 562.898438 C 154.976562 553.273438 143.828125 554.550781 138.277344 535.300781 C 138.277344 535.300781 201.4375 471.527344 235.480469 467.863281 C 269.535156 464.195312 289.179688 371.390625 341.152344 390.25 L 353.765625 437.714844 L 163.945312 565.433594 " fill-opacity="1" fill-rule="nonzero"/><path fill="rgb(65.879822%, 12.939453%, 19.999695%)" d="M 230.328125 372.769531 C 220.195312 372.769531 211.074219 370.953125 212.507812 365.210938 C 215.046875 355.070312 224.617188 351.347656 234.390625 351.347656 C 234.660156 351.347656 234.9375 351.355469 235.210938 351.359375 C 250.722656 351.707031 266.265625 361.265625 254.460938 369.296875 C 252.144531 370.863281 240.703125 372.773438 230.328125 372.769531 M 234.695312 357.535156 C 227.910156 357.535156 221.265625 360.128906 219.507812 367.179688 C 218.511719 371.167969 224.84375 372.433594 231.894531 372.433594 C 239.105469 372.433594 247.070312 371.101562 248.683594 370.011719 C 256.886719 364.425781 246.085938 357.78125 235.296875 357.542969 C 235.09375 357.535156 234.894531 357.535156 234.695312 357.535156 " fill-opacity="1" fill-rule="nonzero"/><path fill="rgb(61.178589%, 11.369324%, 17.649841%)" d="M 231.894531 372.433594 C 224.84375 372.433594 218.511719 371.167969 219.507812 367.179688 C 221.265625 360.128906 227.910156 357.535156 234.695312 357.535156 C 234.894531 357.535156 235.09375 357.535156 235.296875 357.542969 C 246.085938 357.78125 256.886719 364.425781 248.683594 370.011719 C 247.070312 371.101562 239.105469 372.433594 231.894531 372.433594 " fill-opacity="1" fill-rule="nonzero"/><path fill="rgb(31.759644%, 18.429565%, 5.488586%)" d="M 231.066406 372.773438 C 231.066406 372.773438 238.507812 322.398438 197.597656 272.03125 L 202.378906 272.03125 C 202.378906 272.03125 230.40625 284.75 238.507812 372.773438 L 231.066406 372.773438 " fill-opacity="1" fill-rule="nonzero"/><path fill="rgb(23.529053%, 32.159424%, 12.159729%)" d="M 218.050781 301.121094 C 218.050781 301.121094 180.980469 265.816406 130.601562 280.03125 C 130.601562 280.03125 174.074219 329.902344 218.050781 301.121094 " fill-opacity="1" fill-rule="nonzero"/><path fill="rgb(67.059326%, 15.689087%, 23.529053%)" d="M 462.070312 352.390625 C 462.070312 352.390625 490.308594 330.117188 508.140625 334.574219 C 525.96875 339.03125 570.550781 349.421875 604.730469 386.554688 C 638.90625 423.691406 655.257812 465.273438 658.226562 492 C 661.203125 518.734375 643.363281 591.511719 640.394531 598.941406 C 637.425781 606.363281 595.8125 695.480469 500.707031 708.847656 C 500.707031 708.847656 411.550781 722.214844 355.082031 679.136719 C 298.613281 636.066406 271.867188 542.503906 271.867188 511.3125 C 271.867188 480.128906 288.566406 422.203125 312.167969 404.378906 C 335.765625 386.554688 368.453125 355.367188 383.316406 355.367188 C 398.175781 355.367188 442.757812 344.96875 462.070312 352.390625 " fill-opacity="1" fill-rule="nonzero"/><path fill="rgb(41.958618%, 7.058716%, 10.5896%)" d="M 373.207031 656.210938 C 309.5 602.050781 303.566406 496.207031 303.566406 456.992188 C 303.566406 442.734375 306.082031 424.039062 310.527344 404.941406 C 287.804688 424.152344 271.867188 479.988281 271.867188 510.4375 C 271.867188 541.625 298.613281 635.191406 355.082031 678.269531 C 411.550781 721.339844 500.707031 707.972656 500.707031 707.972656 C 502.351562 707.742188 503.941406 707.4375 505.550781 707.164062 C 472.09375 704.828125 405.734375 683.871094 373.207031 656.210938 " fill-opacity="1" fill-rule="nonzero"/><path fill="rgb(55.688477%, 34.899902%, 14.509583%)" d="M 378.152344 356.320312 C 383.496094 354.050781 388.21875 354.878906 412.71875 352.074219 C 400.453125 353.625 389.394531 355.367188 383.316406 355.367188 C 381.78125 355.367188 380.046875 355.703125 378.152344 356.320312 M 462.070312 352.390625 C 456.988281 350.4375 450.160156 349.714844 442.578125 349.714844 C 435.308594 349.714844 427.347656 350.382812 419.589844 351.25 C 432.292969 349.632812 448.644531 346.417969 464.734375 346.417969 C 466.632812 346.417969 468.523438 346.460938 470.398438 346.554688 C 465.359375 349.800781 462.070312 352.390625 462.070312 352.390625 " fill-opacity="1" fill-rule="nonzero"/><path fill="rgb(57.249451%, 11.369324%, 17.248535%)" d="M 442.871094 429.339844 C 440.488281 428.929688 438.15625 428.65625 435.886719 428.515625 C 407.738281 426.808594 382.800781 417.351562 364.949219 400.863281 C 347.105469 384.386719 377.996094 356.390625 377.996094 356.390625 L 377.976562 356.398438 C 377.984375 356.390625 377.988281 356.390625 377.996094 356.390625 C 378.050781 356.367188 378.101562 356.34375 378.152344 356.320312 C 380.046875 355.703125 381.78125 355.367188 383.316406 355.367188 C 389.394531 355.367188 400.453125 353.625 412.71875 352.074219 C 414.609375 351.855469 416.613281 351.617188 418.75 351.359375 C 419.027344 351.324219 419.308594 351.289062 419.589844 351.25 C 427.347656 350.382812 435.308594 349.714844 442.578125 349.714844 C 450.160156 349.714844 456.988281 350.4375 462.070312 352.390625 C 462.070312 352.390625 465.359375 349.800781 470.398438 346.554688 C 490.53125 347.597656 509.515625 354.632812 519.542969 377.289062 C 537.722656 418.398438 451.101562 428.476562 442.871094 429.339844 " fill-opacity="1" fill-rule="nonzero"/><path fill="rgb(49.409485%, 8.628845%, 12.939453%)" d="M 460.480469 367.773438 C 446.074219 367.457031 431.679688 372.679688 427.941406 387.628906 C 423.785156 404.265625 481.53125 397.933594 488.082031 393.46875 C 505.003906 381.960938 482.730469 368.257812 460.480469 367.773438 " fill-opacity="1" fill-rule="nonzero"/><path fill="rgb(39.608765%, 6.269836%, 9.799194%)" d="M 460.582031 375.457031 C 449.78125 375.210938 438.996094 379.132812 436.1875 390.339844 C 433.070312 402.808594 476.363281 398.0625 481.277344 394.71875 C 493.964844 386.09375 477.265625 375.820312 460.582031 375.457031 " fill-opacity="1" fill-rule="nonzero"/><path fill="rgb(31.759644%, 18.429565%, 5.488586%)" d="M 454.546875 398.464844 C 454.546875 398.464844 465.210938 326.246094 406.5625 254.027344 L 413.414062 254.027344 C 413.414062 254.027344 453.597656 272.265625 465.210938 398.464844 L 454.546875 398.464844 " fill-opacity="1" fill-rule="nonzero"/><path fill="rgb(45.489502%, 7.449341%, 11.759949%)" d="M 377.996094 356.390625 C 377.996094 356.390625 347.105469 384.386719 364.949219 400.863281 C 382.800781 417.351562 407.738281 426.808594 435.886719 428.515625 C 464.035156 430.214844 501.535156 452.992188 522.410156 487.648438 C 543.285156 522.296875 572.578125 600.492188 526.726562 702.496094 C 526.726562 702.496094 469.734375 711.304688 451.03125 705.417969 C 432.328125 699.535156 254.773438 630.402344 293.023438 435.257812 C 293.023438 435.257812 298.394531 410.472656 338.195312 383.4375 L 364.949219 362.070312 L 377.996094 356.390625 " fill-opacity="1" fill-rule="nonzero"/><path fill="rgb(23.529053%, 32.159424%, 12.159729%)" d="M 438.363281 295.738281 C 438.363281 295.738281 471.496094 245.140625 516.53125 265.5 C 516.53125 265.5 477.671875 337.003906 438.363281 295.738281 " fill-opacity="1" fill-rule="nonzero"/><path fill="rgb(45.098877%, 7.449341%, 11.369324%)" d="M 275.515625 475.160156 C 278.332031 463.1875 282.273438 450.765625 287.101562 439.515625 C 287.402344 439.492188 287.703125 439.472656 288.003906 439.457031 C 283.214844 450.710938 279.320312 463.101562 276.558594 475.023438 C 276.210938 475.070312 275.863281 475.113281 275.515625 475.160156 " fill-opacity="1" fill-rule="nonzero"/><path fill="rgb(50.19989%, 9.799194%, 14.509583%)" d="M 517.671875 705.125 C 517.828125 704.648438 517.980469 704.175781 518.132812 703.695312 C 523.417969 703.007812 526.726562 702.496094 526.726562 702.496094 C 523.765625 703.445312 520.753906 704.320312 517.671875 705.125 " fill-opacity="1" fill-rule="nonzero"/><path fill="rgb(38.819885%, 6.269836%, 9.408569%)" d="M 276.558594 475.023438 C 279.320312 463.101562 283.214844 450.710938 288.003906 439.457031 C 289.4375 439.359375 290.863281 439.28125 292.273438 439.214844 C 290.089844 451.175781 288.722656 462.65625 288.082031 473.667969 C 284.179688 474.078125 280.304688 474.542969 276.558594 475.023438 " fill-opacity="1" fill-rule="nonzero"/><path fill="rgb(40.388489%, 6.669617%, 9.799194%)" d="M 518.132812 703.695312 C 523.542969 686.800781 526.664062 669.09375 528.429688 650.730469 C 528.429688 650.730469 535.105469 581.21875 481.65625 521.289062 C 474.941406 511.816406 468.238281 505.03125 461.628906 500.445312 C 439.914062 479.660156 411.148438 462.640625 373.441406 457.339844 C 373.441406 457.339844 370.121094 456.078125 365.246094 456.078125 C 360.265625 456.078125 353.652344 457.398438 347.304688 462.730469 C 347.304688 462.730469 347.304688 462.734375 347.304688 462.734375 C 344.136719 464.285156 341.140625 465.96875 338.484375 467.585938 C 332.53125 469.925781 325.167969 471.707031 318.117188 473.03125 C 314.949219 472.648438 311.5 472.480469 307.875 472.480469 C 301.597656 472.480469 294.8125 472.980469 288.082031 473.667969 C 288.722656 462.65625 290.089844 451.175781 292.273438 439.214844 C 294.769531 439.101562 297.21875 439.042969 299.601562 439.042969 C 308.097656 439.042969 315.761719 439.84375 321.464844 442.035156 C 321.464844 442.035156 347.707031 421.328125 367.546875 421.328125 C 369.527344 421.328125 371.449219 421.535156 373.273438 421.992188 C 393.332031 427.007812 443.46875 438.695312 481.914062 480.457031 C 520.351562 522.21875 538.738281 568.984375 542.078125 599.058594 C 544.628906 621.960938 533.605469 674.867188 526.726562 702.496094 C 526.726562 702.496094 523.417969 703.007812 518.132812 703.695312 " fill-opacity="1" fill-rule="nonzero"/><path fill="rgb(77.249146%, 14.118958%, 22.349548%)" d="M 327.375 475.15625 C 327.375 475.15625 355.613281 452.882812 373.441406 457.339844 C 391.273438 461.789062 435.851562 472.1875 470.027344 509.316406 C 504.210938 546.449219 520.554688 588.039062 523.53125 614.765625 C 526.503906 641.496094 508.667969 714.273438 505.695312 721.703125 C 502.722656 729.128906 461.117188 818.238281 366.011719 831.605469 C 366.011719 831.605469 276.855469 844.972656 220.378906 801.898438 C 163.917969 758.828125 137.167969 665.261719 137.167969 634.070312 C 137.167969 602.878906 153.871094 544.960938 177.464844 527.136719 C 201.0625 509.316406 233.761719 478.128906 248.617188 478.128906 C 263.472656 478.128906 308.054688 467.730469 327.375 475.15625 " fill-opacity="1" fill-rule="nonzero"/><path fill="rgb(84.309387%, 19.60907%, 30.198669%)" d="M 238.507812 778.984375 C 174.808594 724.8125 168.867188 618.976562 168.867188 579.753906 C 168.867188 565.5 171.386719 546.796875 175.828125 527.703125 C 153.109375 546.917969 137.171875 602.753906 137.171875 633.207031 C 137.171875 664.390625 163.917969 757.964844 220.386719 801.027344 C 276.855469 844.097656 366.011719 830.730469 366.011719 830.730469 C 367.652344 830.507812 369.242188 830.195312 370.855469 829.921875 C 337.390625 827.582031 271.035156 806.632812 238.507812 778.984375 " fill-opacity="1" fill-rule="nonzero"/><path fill="rgb(45.098877%, 7.449341%, 11.369324%)" d="M 461.628906 500.445312 C 461.027344 500.027344 460.425781 499.628906 459.832031 499.25 C 427.460938 470.226562 389.546875 461.355469 373.441406 457.339844 C 411.148438 462.640625 439.914062 479.660156 461.628906 500.445312 M 327.375 475.15625 C 324.71875 474.136719 321.585938 473.453125 318.117188 473.03125 C 325.167969 471.707031 332.53125 469.925781 338.484375 467.585938 C 331.902344 471.582031 327.375 475.15625 327.375 475.15625 M 347.304688 462.734375 C 347.304688 462.734375 347.304688 462.730469 347.304688 462.730469 C 353.652344 457.398438 360.265625 456.078125 365.246094 456.078125 C 370.121094 456.078125 373.441406 457.339844 373.441406 457.339844 C 371.820312 456.9375 370.109375 456.75 368.347656 456.75 C 361.625 456.75 354.070312 459.425781 347.304688 462.734375 " fill-opacity="1" fill-rule="nonzero"/><path fill="rgb(70.979309%, 12.939453%, 20.388794%)" d="M 514.96875 586.382812 C 513.558594 583.640625 512.011719 581.007812 510.332031 578.476562 C 506.695312 566.988281 501.757812 555.054688 495.15625 542.917969 C 502.539062 555.1875 508.148438 567.042969 512.304688 577.175781 C 513.308594 580.230469 514.191406 583.300781 514.96875 586.382812 M 323.652344 567.828125 C 301.691406 567.828125 279.285156 561.496094 258.613281 545.273438 C 212.195312 508.828125 293.023438 476.375 293.023438 476.375 C 293.023438 476.375 305.042969 475.484375 318.117188 473.03125 C 321.585938 473.453125 324.71875 474.136719 327.375 475.15625 C 327.375 475.15625 331.902344 471.582031 338.484375 467.585938 C 342.054688 466.179688 345.121094 464.570312 347.304688 462.734375 C 354.070312 459.425781 361.625 456.75 368.347656 456.75 C 370.109375 456.75 371.820312 456.9375 373.441406 457.339844 C 389.546875 461.355469 427.460938 470.226562 459.832031 499.25 C 458.25 498.246094 456.675781 497.363281 455.105469 496.601562 C 441.574219 486.125 425.566406 476.378906 406.652344 467.910156 C 406.617188 467.894531 406.574219 467.875 406.539062 467.863281 C 406.582031 467.882812 406.609375 467.894531 406.652344 467.910156 C 421.136719 474.398438 435.851562 483.5625 449.5625 494.363281 C 445.734375 493.140625 441.964844 492.578125 438.257812 492.578125 C 397.40625 492.578125 364.949219 560.851562 364.949219 560.851562 C 364.949219 560.851562 365.066406 560.835938 365.28125 560.800781 C 351.984375 565.160156 337.914062 567.828125 323.652344 567.828125 " fill-opacity="1" fill-rule="nonzero"/><path fill="rgb(56.469727%, 9.799194%, 15.289307%)" d="M 325.785156 490.527344 C 311.378906 490.214844 296.984375 495.4375 293.242188 510.394531 C 289.082031 527.023438 346.828125 520.695312 353.386719 516.234375 C 370.308594 504.726562 348.035156 491.019531 325.785156 490.527344 " fill-opacity="1" fill-rule="nonzero"/><path fill="rgb(39.608765%, 6.269836%, 9.799194%)" d="M 325.902344 500.277344 C 315.515625 500.050781 305.140625 503.808594 302.445312 514.585938 C 299.445312 526.574219 341.0625 522.015625 345.792969 518.800781 C 357.984375 510.503906 341.925781 500.625 325.902344 500.277344 " fill-opacity="1" fill-rule="nonzero"/><path fill="rgb(31.759644%, 18.429565%, 5.488586%)" d="M 319.851562 521.21875 C 319.851562 521.21875 330.515625 449.007812 271.867188 376.785156 L 278.71875 376.785156 C 278.71875 376.785156 318.898438 395.03125 330.515625 521.21875 L 319.851562 521.21875 " fill-opacity="1" fill-rule="nonzero"/><path fill="rgb(23.529053%, 32.159424%, 12.159729%)" d="M 301.191406 418.507812 C 301.191406 418.507812 248.039062 367.894531 175.820312 388.265625 C 175.820312 388.265625 238.144531 459.769531 301.191406 418.507812 " fill-opacity="1" fill-rule="nonzero"/><path fill="rgb(14.118958%, 16.468811%, 1.959229%)" d="M 175.820312 388.265625 L 301.191406 418.507812 C 301.191406 418.507812 244.25 462.15625 175.820312 388.265625 " fill-opacity="1" fill-rule="nonzero"/><path fill="rgb(14.118958%, 16.468811%, 1.959229%)" d="M 271.867188 376.785156 C 271.867188 376.785156 285.484375 365.824219 293.023438 372.773438 C 293.023438 372.773438 328.757812 416.1875 330.515625 521.21875 C 330.515625 521.21875 319.804688 400.535156 271.867188 376.785156 " fill-opacity="1" fill-rule="nonzero"/><path fill="rgb(84.309387%, 19.60907%, 30.198669%)" d="M 516.3125 592.230469 C 521.578125 617.585938 519.933594 644.015625 514.542969 670.660156 C 503.179688 726.785156 471.496094 780.265625 422.632812 812.480469 C 408.160156 822.023438 390.6875 828.433594 373.367188 830.394531 C 387.066406 828.847656 403.050781 820.929688 415.011719 814.816406 C 443.03125 800.5 472.152344 780.558594 491.359375 755.480469 C 515.203125 724.351562 524.757812 688.960938 528.429688 650.730469 C 528.429688 650.730469 540.242188 527.660156 406.539062 467.863281 C 442.066406 483.75 479.011719 515.730469 499.070312 548.535156 C 507.660156 562.609375 513.199219 577.230469 516.3125 592.230469 " fill-opacity="1" fill-rule="nonzero"/><path fill="rgb(45.489502%, 7.449341%, 11.759949%)" d="M 317.277344 472.96875 C 317.277344 472.96875 268.472656 465.003906 235.480469 480.78125 C 202.492188 496.558594 136.230469 538.941406 137.167969 624.179688 C 137.167969 624.179688 154.242188 495.371094 258.613281 488.042969 L 270.675781 490.515625 C 270.675781 490.515625 281.4375 482.808594 317.277344 472.96875 " fill-opacity="1" fill-rule="nonzero"/><path fill="rgb(85.879517%, 46.669006%, 44.309998%)" d="M 189.578125 705.417969 C 189.578125 705.417969 215.332031 812.734375 373.367188 830.394531 C 373.367188 830.394531 227.21875 851.023438 189.578125 705.417969 " fill-opacity="1" fill-rule="nonzero"/><path fill="rgb(85.879517%, 46.669006%, 44.309998%)" d="M 170.917969 538.976562 C 170.917969 538.976562 124.164062 647.960938 189.578125 770.28125 C 189.578125 770.28125 87.828125 641.792969 170.917969 538.976562 " fill-opacity="1" fill-rule="nonzero"/><path fill="rgb(85.879517%, 46.669006%, 44.309998%)" d="M 199.382812 561.589844 C 199.382812 564.332031 197.160156 566.566406 194.402344 566.566406 C 191.65625 566.566406 189.429688 564.332031 189.429688 561.589844 C 189.429688 558.84375 191.65625 556.613281 194.402344 556.613281 C 197.160156 556.613281 199.382812 558.84375 199.382812 561.589844 " fill-opacity="1" fill-rule="nonzero"/><path fill="rgb(85.879517%, 46.669006%, 44.309998%)" d="M 217.433594 566.566406 C 217.433594 569.316406 215.207031 571.535156 212.460938 571.535156 C 209.703125 571.535156 207.480469 569.316406 207.480469 566.566406 C 207.480469 563.816406 209.703125 561.589844 212.460938 561.589844 C 215.207031 561.589844 217.433594 563.816406 217.433594 566.566406 " fill-opacity="1" fill-rule="nonzero"/><path fill="rgb(85.879517%, 46.669006%, 44.309998%)" d="M 216.871094 547.695312 C 216.871094 550.128906 214.894531 552.105469 212.460938 552.105469 C 210.023438 552.105469 208.046875 550.128906 208.046875 547.695312 C 208.046875 545.261719 210.023438 543.289062 212.460938 543.289062 C 214.894531 543.289062 216.871094 545.261719 216.871094 547.695312 " fill-opacity="1" fill-rule="nonzero"/><path fill="rgb(85.879517%, 46.669006%, 44.309998%)" d="M 243.773438 565.433594 C 243.773438 567.234375 242.308594 568.703125 240.503906 568.703125 C 238.703125 568.703125 237.242188 567.234375 237.242188 565.433594 C 237.242188 563.636719 238.703125 562.171875 240.503906 562.171875 C 242.308594 562.171875 243.773438 563.636719 243.773438 565.433594 " fill-opacity="1" fill-rule="nonzero"/><path fill="rgb(85.879517%, 46.669006%, 44.309998%)" d="M 187.546875 559.316406 C 187.546875 560.402344 186.664062 561.285156 185.578125 561.285156 C 184.484375 561.285156 183.605469 560.402344 183.605469 559.316406 C 183.605469 558.226562 184.484375 557.34375 185.578125 557.34375 C 186.664062 557.34375 187.546875 558.226562 187.546875 559.316406 " fill-opacity="1" fill-rule="nonzero"/><path fill="rgb(85.879517%, 46.669006%, 44.309998%)" d="M 239.140625 575.941406 C 239.140625 578.375 237.164062 580.347656 234.726562 580.347656 C 232.296875 580.347656 230.320312 578.375 230.320312 575.941406 C 230.320312 573.507812 232.296875 571.535156 234.726562 571.535156 C 237.164062 571.535156 239.140625 573.507812 239.140625 575.941406 " fill-opacity="1" fill-rule="nonzero"/><path fill="rgb(85.879517%, 46.669006%, 44.309998%)" d="M 194.390625 550.402344 C 194.390625 552.835938 192.417969 554.808594 189.988281 554.808594 C 187.550781 554.808594 185.578125 552.835938 185.578125 550.402344 C 185.578125 547.972656 187.550781 546 189.988281 546 C 192.417969 546 194.390625 547.972656 194.390625 550.402344 " fill-opacity="1" fill-rule="nonzero"/><path fill="rgb(85.879517%, 46.669006%, 44.309998%)" d="M 233.699219 564.289062 C 233.699219 567.042969 231.46875 569.261719 228.71875 569.261719 C 225.972656 569.261719 223.746094 567.042969 223.746094 564.289062 C 223.746094 561.542969 225.972656 559.316406 228.71875 559.316406 C 231.46875 559.316406 233.699219 561.542969 233.699219 564.289062 " fill-opacity="1" fill-rule="nonzero"/><path fill="rgb(49.01886%, 8.239746%, 12.939453%)" d="M 153.578125 705.417969 C 153.578125 705.417969 198.988281 854.160156 394.683594 825.757812 C 394.683594 825.757812 199.761719 882.59375 153.578125 705.417969 " fill-opacity="1" fill-rule="nonzero"/><g clip-path="url(#id1)"><g clip-path="url(#id2)"><path fill="rgb(72.938538%, 13.328552%, 20.779419%)" d="M 365.28125 680.230469 L 519.417969 680.230469 L 519.417969 536.980469 L 365.28125 536.980469 Z M 365.28125 680.230469 " fill-opacity="1" fill-rule="nonzero"/></g></g><path fill="rgb(68.238831%, 12.548828%, 19.219971%)" d="M 510.332031 578.476562 C 492.660156 551.816406 461.046875 536.980469 432.65625 536.980469 C 420.574219 536.980469 409.070312 539.664062 399.480469 545.273438 C 389.046875 551.371094 377.492188 556.800781 365.28125 560.800781 C 365.066406 560.835938 364.949219 560.851562 364.949219 560.851562 C 364.949219 560.851562 397.40625 492.578125 438.257812 492.578125 C 441.964844 492.578125 445.734375 493.140625 449.5625 494.363281 C 466.152344 507.433594 481.265625 522.902344 492.703125 538.933594 C 493.542969 540.257812 494.359375 541.597656 495.15625 542.917969 C 501.757812 555.054688 506.695312 566.988281 510.332031 578.476562 " fill-opacity="1" fill-rule="nonzero"/><path fill="rgb(43.528748%, 7.449341%, 10.978699%)" d="M 481.65625 521.289062 C 478.652344 517.914062 475.441406 514.5625 472.039062 511.265625 C 468.761719 507.574219 465.292969 503.953125 461.628906 500.445312 C 468.238281 505.03125 474.941406 511.816406 481.65625 521.289062 " fill-opacity="1" fill-rule="nonzero"/><path fill="rgb(47.44873%, 8.239746%, 12.159729%)" d="M 472.039062 511.265625 C 471.445312 510.6875 470.855469 510.125 470.25 509.546875 C 470.179688 509.472656 470.105469 509.394531 470.027344 509.316406 C 466.722656 505.714844 463.308594 502.363281 459.832031 499.25 C 460.425781 499.628906 461.027344 500.027344 461.628906 500.445312 C 465.292969 503.953125 468.761719 507.574219 472.039062 511.265625 " fill-opacity="1" fill-rule="nonzero"/><path fill="rgb(68.238831%, 12.548828%, 19.219971%)" d="M 470.25 509.546875 C 465.582031 505.136719 460.542969 500.8125 455.105469 496.601562 C 456.675781 497.363281 458.25 498.246094 459.832031 499.25 C 463.308594 502.363281 466.722656 505.714844 470.027344 509.316406 C 470.105469 509.394531 470.179688 509.472656 470.25 509.546875 " fill-opacity="1" fill-rule="nonzero"/><path fill="rgb(68.238831%, 12.548828%, 19.219971%)" d="M 513.230469 646.699219 C 499.117188 628.296875 474.707031 557.117188 474.707031 557.117188 C 517.898438 567.953125 513.230469 646.699219 513.230469 646.699219 " fill-opacity="1" fill-rule="nonzero"/><path fill="rgb(78.42865%, 17.248535%, 26.669312%)" d="M 513.375 684.851562 C 513.0625 683.292969 512.738281 681.746094 512.402344 680.230469 C 513.183594 677.050781 513.894531 673.859375 514.542969 670.660156 C 517.226562 657.386719 518.984375 644.167969 519.417969 631.109375 C 520.542969 663.324219 513.375 684.851562 513.375 684.851562 M 493.867188 540.582031 C 493.484375 540.03125 493.097656 539.484375 492.703125 538.933594 C 481.265625 522.902344 466.152344 507.433594 449.5625 494.363281 C 451.398438 494.953125 453.246094 495.695312 455.105469 496.601562 C 460.542969 500.8125 465.582031 505.136719 470.25 509.546875 C 470.855469 510.125 471.445312 510.6875 472.039062 511.265625 C 475.441406 514.5625 478.652344 517.914062 481.65625 521.289062 C 481.664062 521.296875 481.675781 521.308594 481.679688 521.320312 C 486.246094 527.769531 490.289062 534.203125 493.867188 540.582031 " fill-opacity="1" fill-rule="nonzero"/><path fill="rgb(85.879517%, 46.669006%, 44.309998%)" d="M 278.996094 556.613281 C 278.996094 556.613281 322.828125 581.679688 373.367188 559.414062 C 373.367188 559.414062 331.714844 607.265625 278.996094 556.613281 " fill-opacity="1" fill-rule="nonzero"/><path fill="rgb(49.01886%, 8.239746%, 12.939453%)" d="M 657.632812 487.648438 C 657.632812 487.648438 647.871094 666.832031 526.726562 702.496094 C 526.726562 702.496094 674.890625 658.933594 657.632812 487.648438 " fill-opacity="1" fill-rule="nonzero"/><path fill="rgb(85.879517%, 46.669006%, 44.309998%)" d="M 479.09375 421.074219 C 479.09375 421.074219 532.304688 409.0625 518.433594 375.84375 C 518.433594 375.84375 545.34375 392.46875 523.386719 405.855469 C 501.433594 419.234375 479.09375 421.074219 479.09375 421.074219 " fill-opacity="1" fill-rule="nonzero"/><path fill="rgb(85.879517%, 46.669006%, 44.309998%)" d="M 571.0625 424.425781 C 571.0625 427.175781 568.835938 429.398438 566.085938 429.398438 C 563.332031 429.398438 561.105469 427.175781 561.105469 424.425781 C 561.105469 421.679688 563.332031 419.445312 566.085938 419.445312 C 568.835938 419.445312 571.0625 421.679688 571.0625 424.425781 " fill-opacity="1" fill-rule="nonzero"/><path fill="rgb(85.879517%, 46.669006%, 44.309998%)" d="M 589.109375 429.398438 C 589.109375 432.144531 586.882812 434.375 584.136719 434.375 C 581.382812 434.375 579.15625 432.144531 579.15625 429.398438 C 579.15625 426.644531 581.382812 424.425781 584.136719 424.425781 C 586.882812 424.425781 589.109375 426.644531 589.109375 429.398438 " fill-opacity="1" fill-rule="nonzero"/><path fill="rgb(85.879517%, 46.669006%, 44.309998%)" d="M 588.539062 410.527344 C 588.539062 412.960938 586.570312 414.941406 584.136719 414.941406 C 581.699219 414.941406 579.726562 412.960938 579.726562 410.527344 C 579.726562 408.097656 581.699219 406.117188 584.136719 406.117188 C 586.570312 406.117188 588.539062 408.097656 588.539062 410.527344 " fill-opacity="1" fill-rule="nonzero"/><path fill="rgb(85.879517%, 46.669006%, 44.309998%)" d="M 615.445312 428.269531 C 615.445312 430.070312 613.988281 431.535156 612.179688 431.535156 C 610.382812 431.535156 608.921875 430.070312 608.921875 428.269531 C 608.921875 426.472656 610.382812 425.007812 612.179688 425.007812 C 613.988281 425.007812 615.445312 426.472656 615.445312 428.269531 " fill-opacity="1" fill-rule="nonzero"/><path fill="rgb(85.879517%, 46.669006%, 44.309998%)" d="M 559.214844 422.148438 C 559.214844 423.238281 558.335938 424.121094 557.253906 424.121094 C 556.164062 424.121094 555.28125 423.238281 555.28125 422.148438 C 555.28125 421.070312 556.164062 420.179688 557.253906 420.179688 C 558.335938 420.179688 559.214844 421.070312 559.214844 422.148438 " fill-opacity="1" fill-rule="nonzero"/><path fill="rgb(85.879517%, 46.669006%, 44.309998%)" d="M 610.8125 438.777344 C 610.8125 441.210938 608.839844 443.1875 606.410156 443.1875 C 603.972656 443.1875 602 441.210938 602 438.777344 C 602 436.34375 603.972656 434.375 606.410156 434.375 C 608.839844 434.375 610.8125 436.34375 610.8125 438.777344 " fill-opacity="1" fill-rule="nonzero"/><path fill="rgb(85.879517%, 46.669006%, 44.309998%)" d="M 566.070312 413.242188 C 566.070312 415.675781 564.09375 417.652344 561.660156 417.652344 C 559.226562 417.652344 557.253906 415.675781 557.253906 413.242188 C 557.253906 410.808594 559.226562 408.835938 561.660156 408.835938 C 564.09375 408.835938 566.070312 410.808594 566.070312 413.242188 " fill-opacity="1" fill-rule="nonzero"/><path fill="rgb(85.879517%, 46.669006%, 44.309998%)" d="M 605.375 427.121094 C 605.375 429.871094 603.152344 432.101562 600.398438 432.101562 C 597.648438 432.101562 595.421875 429.871094 595.421875 427.121094 C 595.421875 424.375 597.648438 422.148438 600.398438 422.148438 C 603.152344 422.148438 605.375 424.375 605.375 427.121094 " fill-opacity="1" fill-rule="nonzero"/><path fill="rgb(85.879517%, 46.669006%, 44.309998%)" d="M 462.070312 352.390625 C 462.070312 352.390625 591.132812 342.296875 637.050781 431.3125 C 637.050781 431.3125 597.59375 349.945312 505.554688 334.136719 C 505.554688 334.136719 476.359375 335.675781 462.070312 352.390625 " fill-opacity="1" fill-rule="nonzero"/><path fill="rgb(45.489502%, 7.449341%, 11.759949%)" d="M 654.21875 472.308594 C 654.21875 472.308594 646.882812 638.125 526.726562 702.496094 C 526.726562 702.496094 648.296875 675.769531 657.632812 487.648438 L 654.21875 472.308594 " fill-opacity="1" fill-rule="nonzero"/><path fill="rgb(45.489502%, 7.449341%, 11.759949%)" d="M 457.179688 343.28125 C 457.179688 343.28125 486.03125 332.269531 500.449219 334.136719 C 514.875 336.011719 547.355469 342.761719 566.332031 356.390625 C 566.332031 356.390625 520.550781 329.027344 462.070312 352.390625 L 460 358.046875 L 457.179688 343.28125 " fill-opacity="1" fill-rule="nonzero"/><path fill="rgb(14.118958%, 16.468811%, 1.959229%)" d="M 406.5625 254.027344 C 406.5625 254.027344 459.921875 314.226562 454.546875 398.464844 L 460.882812 399.898438 C 460.882812 399.898438 463.019531 302.597656 406.5625 254.027344 " fill-opacity="1" fill-rule="nonzero"/><path fill="rgb(16.079712%, 21.958923%, 7.449341%)" d="M 438.363281 296.300781 C 438.363281 296.300781 461.039062 271.582031 516.53125 265.5 C 516.53125 265.5 472.632812 242.082031 438.363281 296.300781 " fill-opacity="1" fill-rule="nonzero"/><path fill="rgb(45.489502%, 7.449341%, 11.759949%)" d="M 117.679688 506.167969 C 117.679688 506.167969 129.847656 541.679688 152.847656 561.640625 L 164.085938 545.8125 C 164.085938 545.8125 118.734375 523.289062 111.449219 471.199219 C 111.449219 471.199219 106.828125 482.429688 117.679688 506.167969 " fill-opacity="1" fill-rule="nonzero"/><path fill="rgb(56.469727%, 9.799194%, 15.289307%)" d="M 137.042969 372.773438 C 137.042969 372.773438 93.292969 432.050781 119.070312 509.589844 C 119.070312 509.589844 75.296875 425.972656 137.042969 372.773438 " fill-opacity="1" fill-rule="nonzero"/><path fill="rgb(85.879517%, 46.669006%, 44.309998%)" d="M 177.21875 343.585938 C 177.21875 343.585938 83.285156 378.855469 119.070312 509.589844 C 119.070312 509.589844 100.679688 401.765625 177.21875 343.585938 " fill-opacity="1" fill-rule="nonzero"/><path fill="rgb(85.879517%, 46.669006%, 44.309998%)" d="M 275.125 359.40625 C 275.125 361.25 273.632812 362.742188 271.789062 362.742188 C 269.941406 362.742188 268.449219 361.25 268.449219 359.40625 C 268.449219 357.558594 269.941406 356.0625 271.789062 356.0625 C 273.632812 356.0625 275.125 357.558594 275.125 359.40625 " fill-opacity="1" fill-rule="nonzero"/><path fill="rgb(85.879517%, 46.669006%, 44.309998%)" d="M 287.246094 362.742188 C 287.246094 364.589844 285.746094 366.089844 283.90625 366.089844 C 282.054688 366.089844 280.5625 364.589844 280.5625 362.742188 C 280.5625 360.90625 282.054688 359.40625 283.90625 359.40625 C 285.746094 359.40625 287.246094 360.90625 287.246094 362.742188 " fill-opacity="1" fill-rule="nonzero"/><path fill="rgb(85.879517%, 46.669006%, 44.309998%)" d="M 267.183594 357.878906 C 267.183594 358.609375 266.585938 359.203125 265.863281 359.203125 C 265.128906 359.203125 264.535156 358.609375 264.535156 357.878906 C 264.535156 357.152344 265.128906 356.566406 265.863281 356.566406 C 266.585938 356.566406 267.183594 357.152344 267.183594 357.878906 " fill-opacity="1" fill-rule="nonzero"/><path fill="rgb(85.879517%, 46.669006%, 44.309998%)" d="M 271.777344 351.894531 C 271.777344 353.53125 270.453125 354.855469 268.820312 354.855469 C 267.183594 354.855469 265.863281 353.53125 265.863281 351.894531 C 265.863281 350.261719 267.183594 348.9375 268.820312 348.9375 C 270.453125 348.9375 271.777344 350.261719 271.777344 351.894531 " fill-opacity="1" fill-rule="nonzero"/><path fill="rgb(14.118958%, 16.468811%, 1.959229%)" d="M 130.601562 280.03125 L 218.050781 301.121094 C 218.050781 301.121094 173.132812 265.734375 130.601562 280.03125 " fill-opacity="1" fill-rule="nonzero"/></svg>