<svg xmlns="http://www.w3.org/2000/svg" xmlns:xlink="http://www.w3.org/1999/xlink" width="750" zoomAndPan="magnify" viewBox="0 0 750 1124.99995" height="1124.99995" preserveAspectRatio="xMidYMid meet" version="1.0"><path fill="rgb(16.079712%, 40.388489%, 9.408569%)" d="M 523.019531 363.832031 C 523.480469 364.398438 522.515625 363.1875 523.019531 363.832031 Z M 523.019531 363.832031 " fill-opacity="1" fill-rule="nonzero"/><path fill="rgb(16.079712%, 40.388489%, 9.408569%)" d="M 504.21875 364.835938 C 504.976562 365.140625 503.363281 364.46875 504.21875 364.835938 Z M 504.21875 364.835938 " fill-opacity="1" fill-rule="nonzero"/><path fill="rgb(16.079712%, 40.388489%, 9.408569%)" d="M 492.84375 366.496094 C 493.460938 366.992188 492.246094 366.011719 492.84375 366.496094 Z M 492.84375 366.496094 " fill-opacity="1" fill-rule="nonzero"/><path fill="rgb(16.079712%, 40.388489%, 9.408569%)" d="M 445.871094 385.945312 C 446.761719 385.558594 444.898438 386.332031 445.871094 385.945312 Z M 445.871094 385.945312 " fill-opacity="1" fill-rule="nonzero"/><path fill="rgb(16.079712%, 40.388489%, 9.408569%)" d="M 459.179688 387.203125 C 459.621094 387.273438 458.765625 387.132812 459.179688 387.203125 Z M 459.179688 387.203125 " fill-opacity="1" fill-rule="nonzero"/><path fill="rgb(16.079712%, 40.388489%, 9.408569%)" d="M 505.871094 388.457031 C 506.019531 389.210938 505.738281 387.75 505.871094 388.457031 Z M 505.871094 388.457031 " fill-opacity="1" fill-rule="nonzero"/><path fill="rgb(16.079712%, 40.388489%, 9.408569%)" d="M 517.269531 427.917969 C 516.820312 428.613281 517.679688 427.320312 517.269531 427.917969 Z M 517.269531 427.917969 " fill-opacity="1" fill-rule="nonzero"/><path fill="rgb(16.079712%, 40.388489%, 9.408569%)" d="M 537.453125 418.191406 C 537.4375 418.914062 537.484375 417.398438 537.453125 418.191406 Z M 537.453125 418.191406 " fill-opacity="1" fill-rule="nonzero"/><path fill="rgb(16.079712%, 40.388489%, 9.408569%)" d="M 512.289062 412.480469 C 512.457031 413.179688 512.121094 411.734375 512.289062 412.480469 Z M 512.289062 412.480469 " fill-opacity="1" fill-rule="nonzero"/><path fill="rgb(16.079712%, 40.388489%, 9.408569%)" d="M 496.421875 442.949219 C 495.683594 443.285156 497.117188 442.648438 496.421875 442.949219 Z M 496.421875 442.949219 " fill-opacity="1" fill-rule="nonzero"/><path fill="rgb(16.079712%, 40.388489%, 9.408569%)" d="M 507.457031 433.375 C 507.238281 433.714844 507.671875 433.054688 507.457031 433.375 Z M 507.457031 433.375 " fill-opacity="1" fill-rule="nonzero"/><path fill="rgb(16.079712%, 40.388489%, 9.408569%)" d="M 483.332031 436.019531 C 482.59375 436.566406 483.652344 435.789062 483.332031 436.019531 Z M 483.332031 436.019531 " fill-opacity="1" fill-rule="nonzero"/><path fill="rgb(16.079712%, 40.388489%, 9.408569%)" d="M 478.507812 443.253906 C 477.945312 443.835938 479.09375 442.644531 478.507812 443.253906 Z M 478.507812 443.253906 " fill-opacity="1" fill-rule="nonzero"/><path fill="rgb(16.079712%, 40.388489%, 9.408569%)" d="M 526.894531 378.492188 C 526.992188 378.574219 527.242188 378.785156 526.894531 378.492188 C 526.914062 378.503906 526.957031 378.542969 526.894531 378.492188 Z M 526.894531 378.492188 " fill-opacity="1" fill-rule="nonzero"/><path fill="rgb(16.079712%, 40.388489%, 9.408569%)" d="M 527.0625 378.632812 C 527.105469 378.675781 527.121094 378.683594 527.0625 378.632812 Z M 527.0625 378.632812 " fill-opacity="1" fill-rule="nonzero"/><path fill="rgb(16.079712%, 40.388489%, 9.408569%)" d="M 526.894531 378.492188 C 526.691406 378.316406 526.773438 378.386719 526.894531 378.492188 Z M 526.894531 378.492188 " fill-opacity="1" fill-rule="nonzero"/><path fill="rgb(16.079712%, 40.388489%, 9.408569%)" d="M 554.679688 386.929688 C 554.757812 387.652344 554.601562 386.160156 554.679688 386.929688 Z M 554.679688 386.929688 " fill-opacity="1" fill-rule="nonzero"/><path fill="rgb(16.079712%, 40.388489%, 9.408569%)" d="M 547.910156 367.878906 C 548.375 367.902344 547.402344 367.835938 547.910156 367.878906 Z M 547.910156 367.878906 " fill-opacity="1" fill-rule="nonzero"/><path fill="rgb(16.079712%, 40.388489%, 9.408569%)" d="M 564.632812 396.796875 C 564.152344 397.519531 565.074219 396.152344 564.632812 396.796875 Z M 564.632812 396.796875 " fill-opacity="1" fill-rule="nonzero"/><path fill="rgb(16.079712%, 40.388489%, 9.408569%)" d="M 535.253906 428.003906 C 534.886719 428.699219 535.609375 427.320312 535.253906 428.003906 Z M 535.253906 428.003906 " fill-opacity="1" fill-rule="nonzero"/><path fill="rgb(16.079712%, 40.388489%, 9.408569%)" d="M 463.945312 439.53125 C 463.417969 440.230469 464.449219 438.863281 463.945312 439.53125 Z M 463.945312 439.53125 " fill-opacity="1" fill-rule="nonzero"/><path fill="rgb(16.079712%, 40.388489%, 9.408569%)" d="M 514.566406 377.664062 C 515.050781 377.621094 514.097656 377.703125 514.566406 377.664062 Z M 514.566406 377.664062 " fill-opacity="1" fill-rule="nonzero"/><path fill="rgb(16.079712%, 40.388489%, 9.408569%)" d="M 544.96875 406.589844 C 545.148438 407.292969 544.789062 405.851562 544.96875 406.589844 Z M 544.96875 406.589844 " fill-opacity="1" fill-rule="nonzero"/><path fill="rgb(16.079712%, 40.388489%, 9.408569%)" d="M 492.175781 438.96875 C 492.492188 439.378906 495.148438 443.527344 496.421875 442.949219 C 498.574219 442.007812 493.96875 433.183594 493.445312 432.09375 C 496.335938 432.609375 513.71875 435.078125 504.757812 430.277344 C 501.78125 428.683594 498.480469 427.804688 495.210938 426.847656 C 490.734375 425.546875 490.550781 425.042969 488.097656 421.226562 C 490.746094 421.597656 516.707031 428.734375 517.269531 427.917969 C 518.667969 425.894531 508.753906 421.988281 507.769531 421.570312 C 511.003906 421.648438 534.582031 429.269531 535.253906 428.003906 C 536.542969 425.542969 527.128906 421.425781 525.679688 420.738281 C 526.914062 420.613281 537.382812 420.339844 537.453125 418.191406 C 537.550781 416.320312 526.515625 416.449219 525.351562 416.4375 C 527.769531 415.457031 545.449219 408.632812 544.96875 406.589844 C 544.242188 403.71875 526.1875 410.191406 524.5625 410.820312 C 518.101562 413.203125 512.300781 416.359375 505.640625 416.078125 C 506.125 415.886719 512.535156 413.582031 512.289062 412.480469 C 511.675781 409.710938 497.496094 413.167969 495.414062 413.601562 C 493.152344 414.070312 489.367188 414.019531 487.644531 415.976562 C 483.546875 415.496094 479.429688 415.332031 475.238281 415.476562 C 484.019531 411.46875 495.816406 404.683594 505.238281 405.289062 C 508.464844 405.496094 526.582031 410.265625 527.285156 408.917969 C 528.8125 405.976562 517.324219 402.386719 515.425781 401.738281 C 520.84375 400.363281 526.433594 399.886719 531.875 399.914062 C 533.929688 399.929688 545.199219 401.863281 545.425781 401.480469 C 547.066406 398.757812 533.757812 396.234375 531.425781 395.992188 C 536.320312 394.640625 543.066406 395.53125 548 395.820312 C 550.027344 395.9375 563.445312 398.578125 564.632812 396.796875 C 566.3125 394.363281 548.300781 390.316406 546.28125 390.039062 C 547.539062 389.726562 554.835938 388.414062 554.679688 386.929688 C 554.398438 384.125 534.707031 388.011719 532.488281 388.457031 C 535.335938 386.738281 559.488281 373.890625 557.136719 371.808594 C 556.164062 370.941406 545.707031 377.289062 543.285156 378.4375 C 543.847656 377.703125 550.957031 368.070312 547.910156 367.875 C 545.746094 367.71875 542.488281 373.132812 541.027344 374.484375 C 537.4375 377.796875 531.476562 380.851562 528.996094 385.101562 C 526.0625 387.148438 521.511719 388.039062 518.234375 389.304688 C 519.132812 388.414062 528.261719 379.664062 526.933594 378.527344 C 525.285156 377.140625 518.257812 382.917969 516.941406 383.875 C 516.859375 378.300781 513.933594 375.429688 511.832031 382.3125 C 510.238281 387.507812 508.609375 390.957031 504.160156 394.605469 C 501.1875 397.039062 501.539062 398.742188 497.898438 399.910156 C 493.878906 401.199219 489.882812 402.59375 485.914062 404.082031 C 476.625 407.574219 467.449219 411.582031 458.5 416.023438 C 459.59375 414.578125 460.617188 413.089844 461.582031 411.566406 C 463.558594 408.453125 464.300781 409.40625 467.523438 407.949219 C 471.417969 406.191406 475.050781 403.855469 478.90625 402.003906 C 481.4375 400.789062 506.320312 390.738281 505.871094 388.457031 C 505.480469 386.417969 492.996094 390.9375 491.738281 391.339844 C 497.039062 385.648438 499.046875 380.335938 490.03125 386.289062 C 484.726562 389.964844 480.816406 395.570312 475.59375 397.851562 C 476.386719 396.789062 477.90625 394.03125 477.148438 393.40625 C 475.011719 391.644531 469.914062 396.902344 468.285156 398.324219 C 469.253906 395.972656 470.261719 393.636719 471.324219 391.316406 C 473.992188 390.847656 476.65625 389.507812 479.121094 388.328125 C 484.359375 385.832031 489.570312 383.253906 494.753906 380.625 C 498.007812 378.972656 523.8125 364.796875 523.019531 363.832031 C 521.210938 361.339844 500.332031 372.375 497.523438 373.714844 C 500.085938 371.371094 509.148438 361.226562 500.199219 366.660156 C 494.101562 370.363281 488.613281 374.875 482.445312 378.460938 C 483.539062 377.355469 494.09375 367.5 492.84375 366.496094 C 491.121094 365.117188 484.949219 370.242188 483.703125 371.171875 C 485.347656 369.207031 501.714844 352.277344 501.742188 352.300781 C 498.386719 349.992188 480.945312 368.542969 478.261719 371.453125 C 478.675781 367.292969 477.398438 362.269531 476.191406 358.484375 C 473.054688 348.703125 471.957031 369.082031 471.933594 371.476562 C 471.863281 377.332031 467.355469 386.265625 464.796875 391.707031 C 460.1875 401.519531 456.921875 410.550781 448.890625 418.574219 C 450.582031 414.285156 450.804688 411.734375 453.277344 407.925781 C 455.625 404.3125 457 400.675781 458.214844 396.679688 C 458.421875 396.015625 461.277344 385.171875 458.257812 387.570312 C 454.351562 390.664062 452.371094 397.144531 450.457031 401.40625 C 450.113281 396.925781 450.324219 390.144531 447.53125 386.527344 C 444.78125 382.964844 445.472656 393.144531 445.558594 393.96875 C 444.5625 392.671875 441.835938 389.230469 440.539062 389.890625 C 436.910156 391.738281 445.027344 408.390625 444.863281 411.449219 C 441.628906 428.046875 424.816406 434.136719 411.570312 442.382812 C 396.960938 451.480469 382.453125 460.746094 368.121094 470.296875 C 359.65625 475.9375 351.257812 481.683594 342.949219 487.5625 C 339.972656 489.667969 326.171875 496.789062 325.535156 500.828125 C 325.484375 501.15625 337.519531 495.363281 338.539062 494.8125 C 345.324219 491.117188 351.992188 487.203125 358.605469 483.195312 C 372.015625 475.058594 385.261719 466.625 398.589844 458.332031 C 411.023438 450.601562 423.519531 442.960938 436.222656 435.707031 C 439.910156 433.601562 446.550781 434.671875 450.546875 436.023438 C 452.246094 436.601562 462.515625 441.433594 463.945312 439.53125 C 466.734375 435.832031 450.0625 429.679688 447.964844 429.164062 C 450.140625 427.453125 451.742188 427.402344 454.316406 427.449219 C 457.0625 427.5 459.738281 426.65625 460.957031 429.066406 C 461.785156 430.699219 462.914062 432.171875 464.070312 433.5625 C 465.863281 435.734375 476.03125 445.847656 478.507812 443.253906 C 480.316406 441.359375 469.605469 430.863281 468.292969 428.816406 C 469.882812 429.203125 482.964844 436.292969 483.332031 436.019531 C 484.949219 434.847656 479.949219 430.117188 479.28125 429.449219 C 475.222656 425.40625 469.300781 423.144531 463.425781 422.351562 C 467.644531 421.535156 471.941406 421.152344 476.164062 420.992188 C 481.699219 420.78125 480.078125 421.652344 482.660156 425.6875 C 481.96875 427.878906 483.234375 430.328125 484.113281 432.125 C 485.359375 434.652344 489.863281 449.433594 491.285156 449.324219 C 494.347656 449.089844 492.40625 440.425781 492.175781 438.96875 C 494.003906 441.378906 492.886719 443.523438 492.175781 438.96875 Z M 492.175781 438.96875 " fill-opacity="1" fill-rule="nonzero"/><path fill="rgb(16.079712%, 40.388489%, 9.408569%)" d="M 440.539062 389.890625 C 440.410156 389.953125 440.34375 389.984375 440.539062 389.890625 Z M 440.539062 389.890625 " fill-opacity="1" fill-rule="nonzero"/><path fill="rgb(16.079712%, 40.388489%, 9.408569%)" d="M 427.148438 324.855469 C 427.871094 324.875 426.335938 324.816406 427.148438 324.855469 Z M 427.148438 324.855469 " fill-opacity="1" fill-rule="nonzero"/><path fill="rgb(16.079712%, 40.388489%, 9.408569%)" d="M 416.746094 335.054688 C 417.460938 334.871094 415.917969 335.246094 416.746094 335.054688 Z M 416.746094 335.054688 " fill-opacity="1" fill-rule="nonzero"/><path fill="rgb(16.079712%, 40.388489%, 9.408569%)" d="M 410.226562 341.371094 C 411.007812 341.425781 409.46875 341.316406 410.226562 341.371094 Z M 410.226562 341.371094 " fill-opacity="1" fill-rule="nonzero"/><path fill="rgb(16.079712%, 40.388489%, 9.408569%)" d="M 383.65625 374.8125 C 384.261719 374.164062 382.984375 375.511719 383.65625 374.8125 Z M 383.65625 374.8125 " fill-opacity="1" fill-rule="nonzero"/><path fill="rgb(16.079712%, 40.388489%, 9.408569%)" d="M 395.933594 370.738281 C 396.359375 370.621094 395.539062 370.84375 395.933594 370.738281 Z M 395.933594 370.738281 " fill-opacity="1" fill-rule="nonzero"/><path fill="rgb(16.079712%, 40.388489%, 9.408569%)" d="M 435.066406 348.957031 C 435.710938 349.351562 434.460938 348.574219 435.066406 348.957031 Z M 435.066406 348.957031 " fill-opacity="1" fill-rule="nonzero"/><path fill="rgb(16.079712%, 40.388489%, 9.408569%)" d="M 472.398438 366.558594 C 472.425781 367.507812 472.390625 365.71875 472.398438 366.558594 Z M 472.398438 366.558594 " fill-opacity="1" fill-rule="nonzero"/><path fill="rgb(16.079712%, 40.388489%, 9.408569%)" d="M 483.199219 337.535156 C 483.824219 337.867188 482.523438 337.15625 483.199219 337.535156 Z M 483.199219 337.535156 " fill-opacity="1" fill-rule="nonzero"/><path fill="rgb(16.079712%, 40.388489%, 9.408569%)" d="M 457.140625 360.398438 C 457.773438 360.746094 456.476562 360.03125 457.140625 360.398438 Z M 457.140625 360.398438 " fill-opacity="1" fill-rule="nonzero"/><path fill="rgb(16.079712%, 40.388489%, 9.408569%)" d="M 459.558594 396.605469 C 458.9375 397.441406 460.148438 395.828125 459.558594 396.605469 Z M 459.558594 396.605469 " fill-opacity="1" fill-rule="nonzero"/><path fill="rgb(16.079712%, 40.388489%, 9.408569%)" d="M 465.898438 379.804688 C 465.871094 380.257812 465.929688 379.375 465.898438 379.804688 Z M 465.898438 379.804688 " fill-opacity="1" fill-rule="nonzero"/><path fill="rgb(16.079712%, 40.388489%, 9.408569%)" d="M 442.664062 399.363281 C 442.191406 400.28125 442.875 398.972656 442.664062 399.363281 Z M 442.664062 399.363281 " fill-opacity="1" fill-rule="nonzero"/><path fill="rgb(16.079712%, 40.388489%, 9.408569%)" d="M 441.15625 408.390625 C 440.855469 409.21875 441.472656 407.53125 441.15625 408.390625 Z M 441.15625 408.390625 " fill-opacity="1" fill-rule="nonzero"/><path fill="rgb(16.079712%, 40.388489%, 9.408569%)" d="M 441.695312 329.511719 C 441.820312 329.484375 442.144531 329.414062 441.695312 329.511719 C 441.714844 329.503906 441.773438 329.492188 441.695312 329.511719 Z M 441.695312 329.511719 " fill-opacity="1" fill-rule="nonzero"/><path fill="rgb(16.079712%, 40.388489%, 9.408569%)" d="M 441.910156 329.464844 C 441.96875 329.449219 441.988281 329.449219 441.910156 329.464844 Z M 441.910156 329.464844 " fill-opacity="1" fill-rule="nonzero"/><path fill="rgb(16.079712%, 40.388489%, 9.408569%)" d="M 441.695312 329.511719 C 441.425781 329.5625 441.535156 329.542969 441.695312 329.511719 Z M 441.695312 329.511719 " fill-opacity="1" fill-rule="nonzero"/><path fill="rgb(16.079712%, 40.388489%, 9.408569%)" d="M 441.667969 311.492188 C 441.855469 311.203125 441.460938 311.8125 441.667969 311.492188 Z M 441.667969 311.492188 " fill-opacity="1" fill-rule="nonzero"/><path fill="rgb(16.079712%, 40.388489%, 9.408569%)" d="M 474.761719 297.835938 C 475.449219 298.308594 474.148438 297.398438 474.761719 297.835938 Z M 474.761719 297.835938 " fill-opacity="1" fill-rule="nonzero"/><path fill="rgb(16.079712%, 40.388489%, 9.408569%)" d="M 489.839844 345.039062 C 490.085938 345.890625 489.59375 344.199219 489.839844 345.039062 Z M 489.839844 345.039062 " fill-opacity="1" fill-rule="nonzero"/><path fill="rgb(16.079712%, 40.388489%, 9.408569%)" d="M 425.199219 412.429688 C 425.003906 413.265625 425.390625 411.632812 425.199219 412.429688 Z M 425.199219 412.429688 " fill-opacity="1" fill-rule="nonzero"/><path fill="rgb(16.079712%, 40.388489%, 9.408569%)" d="M 433.292969 337.023438 C 433.589844 336.710938 433.003906 337.332031 433.292969 337.023438 Z M 433.292969 337.023438 " fill-opacity="1" fill-rule="nonzero"/><path fill="rgb(16.079712%, 40.388489%, 9.408569%)" d="M 477.730469 323.78125 C 478.511719 323.753906 476.914062 323.808594 477.730469 323.78125 Z M 477.730469 323.78125 " fill-opacity="1" fill-rule="nonzero"/><path fill="rgb(16.079712%, 40.388489%, 9.408569%)" d="M 453.109375 396.242188 C 465.3125 399.363281 455.441406 391.875 450.890625 389.613281 C 453.917969 388.15625 456.898438 386.503906 459.773438 384.757812 C 460.773438 384.15625 469.609375 378.089844 463.6875 379.066406 C 459.398438 379.777344 455.046875 381.898438 451 383.609375 C 445.636719 385.875 444.832031 385.96875 439.875 384.132812 C 445.984375 381.238281 452.121094 378.445312 458.113281 375.273438 C 459.695312 374.449219 472.453125 368.617188 472.398438 366.558594 C 472.375 364.578125 459.878906 370.199219 458.976562 370.585938 C 463.292969 367.054688 468.195312 364.070312 472.804688 360.886719 C 475.605469 358.949219 491.011719 349.039062 489.839844 345.039062 C 489.367188 343.402344 476.410156 352.242188 475.1875 353.023438 C 476.1875 351.675781 485.578125 338.828125 483.199219 337.535156 C 482.210938 336.988281 472.597656 349.632812 471.574219 350.832031 C 472.472656 348.742188 480.777344 323.574219 477.730469 323.78125 C 475.292969 323.816406 466.957031 347.46875 465.578125 350.367188 C 462.382812 357.117188 459.59375 363.519531 453.480469 368.210938 C 453.8125 367.683594 458.164062 360.964844 457.140625 360.398438 C 455.050781 359.246094 445.070312 370.925781 443.546875 372.449219 C 441.605469 374.398438 439.316406 376.203125 437.613281 378.335938 C 434.582031 382.132812 429.117188 383.964844 424.742188 386.53125 C 431.398438 378.28125 437.472656 367.066406 446.097656 360.757812 C 449.226562 358.46875 468.328125 347.570312 467.246094 344.640625 C 467.195312 344.496094 467.144531 344.351562 467.09375 344.210938 C 466.535156 342.691406 453.953125 349.863281 452.136719 350.835938 C 454.347656 347.535156 474.363281 323.78125 473.097656 321.871094 C 472.046875 320.28125 461.347656 332.09375 459.484375 334.1875 C 461.6875 328.949219 465.8125 323.671875 468.503906 318.433594 C 469.785156 315.949219 477.898438 299.996094 474.761719 297.835938 C 474.488281 297.644531 463.636719 316.242188 462.507812 318.039062 C 462.6875 317.230469 464.433594 309.285156 462.625 309.300781 C 461.011719 309.3125 454.601562 327.875 453.644531 329.882812 C 453.894531 327.171875 453.828125 302.625 448.003906 305.933594 C 447.867188 306.011719 450.050781 315.554688 450.097656 317.503906 C 449.617188 316.824219 443.183594 309.066406 441.667969 311.492188 C 441.664062 311.496094 447.082031 323.863281 447.390625 325.535156 C 448.433594 332.113281 447.714844 334.511719 444.863281 341.277344 C 444.804688 340.128906 444.132812 328.964844 441.75 329.5 C 439.882812 329.902344 439.84375 337.953125 439.734375 339.0625 C 435.601562 336.140625 431.179688 335.878906 434.945312 341.421875 C 437.742188 345.539062 439.078125 348.726562 437.988281 354.105469 C 437.265625 357.6875 438.667969 358.667969 436.316406 361.738281 C 433.722656 365.125 431.082031 368.46875 428.402344 371.796875 C 422.171875 379.53125 415.777344 387.140625 409.390625 394.753906 C 409.894531 392.238281 410.234375 389.710938 410.363281 387.1875 C 412.183594 386.210938 413.628906 384.386719 414.84375 382.792969 C 417.054688 379.902344 418.933594 376.785156 421.027344 373.820312 C 422.6875 371.464844 437.824219 350.621094 435.066406 348.957031 C 433.484375 347.980469 426.511719 358.121094 425.761719 359.09375 C 426.402344 352.914062 424.757812 346.851562 421.195312 356.347656 C 419.167969 361.792969 419.050781 367.914062 415.84375 372.152344 C 415.964844 370.871094 415.691406 368.070312 414.710938 367.945312 C 411.984375 367.601562 410.324219 374.058594 409.65625 375.855469 C 409.296875 373.558594 408.933594 371.257812 408.570312 368.964844 C 410.097656 367.867188 411.316406 366.160156 412.394531 364.6875 C 416.011719 359.738281 419.0625 354.34375 421.707031 348.910156 C 422.945312 346.363281 430.820312 324.914062 427.148438 324.855469 C 425.582031 324.800781 419.453125 341.960938 418.546875 343.921875 C 418.625 342.875 419.320312 334.375 416.746094 335.054688 C 414.902344 335.484375 411.652344 351.5 410.253906 354.3125 C 410.824219 350.5625 411.523438 346.378906 410.9375 342.707031 C 410.210938 338.140625 406.859375 347.886719 406.660156 348.558594 C 406.691406 346.410156 407.9375 328.652344 405.804688 328.671875 C 404.179688 328.691406 402.890625 348.621094 402.691406 351.042969 C 400.109375 347.472656 395.695312 344.117188 391.867188 341.898438 C 386.195312 338.613281 394.175781 349.175781 395.042969 350.242188 C 399.679688 355.902344 399.394531 361.933594 402.152344 368.476562 C 406.046875 377.722656 405.378906 390.992188 401.582031 400.964844 C 401.367188 398.527344 400.039062 396.097656 399.921875 393.742188 C 401.023438 391.441406 400.996094 388.59375 400.996094 386.214844 C 400.992188 382.835938 400.160156 379.554688 399.253906 376.40625 C 399.03125 375.640625 396.242188 367.871094 395.128906 371.960938 C 393.910156 376.410156 394.910156 381.445312 395.15625 385.832031 C 392.703125 382.160156 389.6875 376.59375 385.410156 374.671875 C 381.351562 372.847656 386.757812 380.9375 387.21875 381.578125 C 385.824219 380.941406 381.605469 379.035156 380.742188 380.132812 C 378.890625 382.464844 387.914062 389.914062 389.53125 391.378906 C 393.835938 395.292969 395.710938 397.230469 395.699219 403.664062 C 395.675781 416.671875 381.40625 428.386719 373.035156 437.9375 C 361.167969 451.46875 348.859375 464.628906 337.203125 478.328125 C 331.777344 484.703125 326.519531 491.210938 321.539062 497.90625 C 318.917969 501.417969 311.367188 509.164062 311.257812 513.675781 C 311.261719 513.476562 320.421875 504.972656 321.378906 503.9375 C 326.832031 498.035156 332.28125 492.132812 337.734375 486.234375 C 348.453125 474.628906 359.25 463.089844 369.914062 451.4375 C 375.234375 445.621094 380.511719 439.769531 385.707031 433.847656 C 389.117188 429.957031 395.84375 419.027344 400.597656 418.238281 C 404.765625 417.550781 408.566406 415.558594 412.777344 415.039062 C 413.988281 414.886719 424.8125 414.214844 425.199219 412.429688 C 426.226562 408.09375 407.65625 409.984375 405.378906 410.421875 C 406.496094 408.410156 407.925781 407.378906 409.96875 406.519531 C 414.417969 404.640625 415.417969 403.707031 419.203125 405.695312 C 423.238281 407.816406 427.472656 408.828125 432.117188 409.363281 C 433.46875 409.515625 444.847656 409.679688 439.765625 406.867188 C 435.058594 404.261719 429.351562 403.648438 424.558594 401.1875 C 428.769531 400.128906 432.996094 399.585938 437.199219 399.839844 C 438.9375 399.949219 445.722656 399.621094 441.046875 397.617188 C 433.785156 394.515625 424.789062 395.320312 416.941406 397.9375 C 421.1875 394.929688 425.65625 392.234375 430.128906 389.601562 C 435.066406 386.707031 438.386719 393.914062 442.628906 396.164062 C 445.140625 397.5 455.890625 406.765625 457.179688 405.820312 C 460.3125 403.511719 454.433594 397.71875 453.109375 396.242188 C 456.203125 397.03125 456.128906 399.621094 453.109375 396.242188 Z M 453.109375 396.242188 " fill-opacity="1" fill-rule="nonzero"/><path fill="rgb(16.079712%, 40.388489%, 9.408569%)" d="M 380.742188 380.132812 C 380.65625 380.242188 380.609375 380.289062 380.742188 380.132812 Z M 380.742188 380.132812 " fill-opacity="1" fill-rule="nonzero"/><path fill="rgb(19.999695%, 56.469727%, 7.839966%)" d="M 490.828125 310.261719 C 491.546875 310.386719 490.03125 310.101562 490.828125 310.261719 Z M 490.828125 310.261719 " fill-opacity="1" fill-rule="nonzero"/><path fill="rgb(19.999695%, 56.469727%, 7.839966%)" d="M 477.738281 320.03125 C 478.496094 319.917969 476.871094 320.140625 477.738281 320.03125 Z M 477.738281 320.03125 " fill-opacity="1" fill-rule="nonzero"/><path fill="rgb(19.999695%, 56.469727%, 7.839966%)" d="M 469.949219 326.023438 C 470.730469 326.171875 469.191406 325.882812 469.949219 326.023438 Z M 469.949219 326.023438 " fill-opacity="1" fill-rule="nonzero"/><path fill="rgb(19.999695%, 56.469727%, 7.839966%)" d="M 438.609375 356.832031 C 439.269531 356.285156 437.875 357.410156 438.609375 356.832031 Z M 438.609375 356.832031 " fill-opacity="1" fill-rule="nonzero"/><path fill="rgb(19.999695%, 56.469727%, 7.839966%)" d="M 451.125 354.507812 C 451.558594 354.449219 450.71875 354.5625 451.125 354.507812 Z M 451.125 354.507812 " fill-opacity="1" fill-rule="nonzero"/><path fill="rgb(19.999695%, 56.469727%, 7.839966%)" d="M 493.234375 336.894531 C 493.800781 337.394531 492.703125 336.425781 493.234375 336.894531 Z M 493.234375 336.894531 " fill-opacity="1" fill-rule="nonzero"/><path fill="rgb(19.999695%, 56.469727%, 7.839966%)" d="M 526.714844 360.253906 C 526.613281 361.179688 526.824219 359.433594 526.714844 360.253906 Z M 526.714844 360.253906 " fill-opacity="1" fill-rule="nonzero"/><path fill="rgb(19.999695%, 56.469727%, 7.839966%)" d="M 541.363281 335.25 C 541.875 335.726562 540.808594 334.726562 541.363281 335.25 Z M 541.363281 335.25 " fill-opacity="1" fill-rule="nonzero"/><path fill="rgb(19.999695%, 56.469727%, 7.839966%)" d="M 512.921875 351.691406 C 513.480469 352.132812 512.339844 351.21875 512.921875 351.691406 Z M 512.921875 351.691406 " fill-opacity="1" fill-rule="nonzero"/><path fill="rgb(19.999695%, 56.469727%, 7.839966%)" d="M 510.160156 388.410156 C 509.425781 389.167969 510.855469 387.699219 510.160156 388.410156 Z M 510.160156 388.410156 " fill-opacity="1" fill-rule="nonzero"/><path fill="rgb(19.999695%, 56.469727%, 7.839966%)" d="M 518.679688 372.324219 C 518.589844 372.773438 518.769531 371.902344 518.679688 372.324219 Z M 518.679688 372.324219 " fill-opacity="1" fill-rule="nonzero"/><path fill="rgb(19.999695%, 56.469727%, 7.839966%)" d="M 492.976562 389.285156 C 492.367188 390.179688 493.25 388.902344 492.976562 389.285156 Z M 492.976562 389.285156 " fill-opacity="1" fill-rule="nonzero"/><path fill="rgb(19.999695%, 56.469727%, 7.839966%)" d="M 489.945312 398.445312 C 489.492188 399.261719 490.414062 397.589844 489.945312 398.445312 Z M 489.945312 398.445312 " fill-opacity="1" fill-rule="nonzero"/><path fill="rgb(19.999695%, 56.469727%, 7.839966%)" d="M 503.925781 317.703125 C 504.050781 317.707031 504.394531 317.6875 503.925781 317.703125 C 503.949219 317.703125 504.011719 317.699219 503.925781 317.703125 Z M 503.925781 317.703125 " fill-opacity="1" fill-rule="nonzero"/><path fill="rgb(19.999695%, 56.469727%, 7.839966%)" d="M 503.925781 317.703125 C 503.648438 317.714844 503.761719 317.710938 503.925781 317.703125 Z M 503.925781 317.703125 " fill-opacity="1" fill-rule="nonzero"/><path fill="rgb(19.999695%, 56.469727%, 7.839966%)" d="M 530.359375 302.542969 C 531.023438 302.828125 529.65625 302.238281 530.359375 302.542969 Z M 530.359375 302.542969 " fill-opacity="1" fill-rule="nonzero"/><path fill="rgb(19.999695%, 56.469727%, 7.839966%)" d="M 510.320312 297.878906 C 510.640625 297.589844 509.972656 298.1875 510.320312 297.878906 Z M 510.320312 297.878906 " fill-opacity="1" fill-rule="nonzero"/><path fill="rgb(19.999695%, 56.469727%, 7.839966%)" d="M 545.632812 297.960938 C 545.964844 298.691406 545.347656 297.300781 545.632812 297.960938 Z M 545.632812 297.960938 " fill-opacity="1" fill-rule="nonzero"/><path fill="rgb(19.999695%, 56.469727%, 7.839966%)" d="M 546.199219 343.824219 C 546.289062 344.652344 546.109375 343.011719 546.199219 343.824219 Z M 546.199219 343.824219 " fill-opacity="1" fill-rule="nonzero"/><path fill="rgb(19.999695%, 56.469727%, 7.839966%)" d="M 473.027344 400.945312 C 472.640625 401.796875 473.402344 400.132812 473.027344 400.945312 Z M 473.027344 400.945312 " fill-opacity="1" fill-rule="nonzero"/><path fill="rgb(19.999695%, 56.469727%, 7.839966%)" d="M 493.890625 324.300781 C 494.261719 324.015625 493.53125 324.578125 493.890625 324.300781 Z M 493.890625 324.300781 " fill-opacity="1" fill-rule="nonzero"/><path fill="rgb(19.999695%, 56.469727%, 7.839966%)" d="M 539.265625 321.21875 C 539.980469 321.453125 538.527344 320.984375 539.265625 321.21875 Z M 539.265625 321.21875 " fill-opacity="1" fill-rule="nonzero"/><path fill="rgb(19.999695%, 56.469727%, 7.839966%)" d="M 503.832031 387.257812 C 515.417969 391.890625 506.84375 383.167969 502.628906 380.273438 C 505.722656 379.234375 517.980469 375.664062 518.679688 372.324219 C 519.234375 369.597656 506.886719 373.230469 505.714844 373.566406 C 503.84375 374.097656 501.980469 374.710938 500.085938 375.136719 C 496.042969 376.050781 496.007812 375.21875 492.539062 373.378906 C 496.695312 372.085938 526.320312 363.988281 526.714844 360.253906 C 527 358.132812 514.167969 361.910156 513.246094 362.171875 C 521.003906 357.050781 530.253906 354.070312 538.382812 349.539062 C 538.863281 349.269531 547.8125 344.007812 545.777344 343.402344 C 542.085938 342.292969 534.808594 346.347656 531.316406 347.730469 C 532.4375 346.640625 543.144531 336.914062 541.363281 335.25 C 540.355469 334.285156 529.398438 343.9375 528.246094 344.878906 C 529.253906 343.300781 541.925781 322.082031 539.265625 321.21875 C 536.71875 320.398438 524.589844 340.402344 523.144531 342.519531 C 518.828125 348.851562 514.953125 355.082031 508.238281 359.019531 C 508.632812 358.527344 513.804688 352.390625 512.921875 351.691406 C 510.988281 350.125 498.234375 361.625 496.339844 363.140625 C 494.308594 364.757812 490.917969 366.464844 489.90625 368.972656 C 485.605469 370.476562 481.359375 372.175781 477.1875 374.082031 C 484.886719 366.40625 492.644531 355.800781 502.132812 350.457031 C 505.53125 348.550781 525.632812 340.710938 525.191406 337.992188 C 525.167969 337.847656 525.140625 337.695312 525.117188 337.550781 C 524.828125 335.738281 511.554688 340.695312 509.628906 341.34375 C 510.597656 340.296875 535.746094 318.574219 535.578125 317.984375 C 534.894531 315.601562 521.921875 324.699219 519.9375 326.113281 C 522.898438 322.039062 547.472656 301.972656 545.632812 297.960938 C 544.859375 296.15625 528.5 309.824219 527.085938 311.011719 C 527.75 309.867188 531.917969 303.210938 530.359375 302.542969 C 528.402344 301.695312 516.777344 318.746094 515.421875 320.523438 C 516.425781 317.707031 523.804688 292.328125 519.035156 293.40625 C 518.308594 293.570312 516.410156 304.660156 515.730469 306.824219 C 515.527344 305.988281 512.644531 295.800781 510.320312 297.878906 C 508.863281 299.15625 511.109375 304.550781 511.121094 306.148438 C 511.324219 316.207031 509.765625 321.808594 504.34375 330.484375 C 504.496094 329.367188 506.195312 317.625 503.980469 317.703125 C 501.882812 317.78125 500.140625 326.164062 499.789062 327.386719 C 496.285156 323.652344 492.003906 322.871094 494.5625 329.101562 C 496.953125 334.933594 496.355469 338.304688 494.527344 344.726562 C 493.464844 348.433594 493.984375 348.535156 490.65625 351.859375 C 487.214844 355.296875 483.808594 358.753906 480.296875 362.117188 C 473.789062 368.339844 467.253906 374.507812 460.636719 380.609375 C 461.546875 378.109375 462.292969 375.570312 462.832031 373.003906 C 465.144531 372.085938 467.167969 370.003906 468.816406 368.214844 C 471.382812 365.40625 473.78125 362.457031 476.335938 359.632812 C 478.234375 357.535156 495.523438 338.90625 493.234375 336.894531 C 491.875 335.707031 483.210938 345.28125 482.335938 346.148438 C 483.835938 340.320312 483.425781 333.597656 478.679688 342.003906 C 475.601562 347.453125 474.464844 354.304688 470.527344 358.34375 C 470.824219 357.085938 471.003906 354.171875 470.042969 353.929688 C 467.351562 353.25 464.792969 359.632812 463.875 361.40625 C 463.851562 359.019531 463.828125 356.632812 463.808594 354.246094 C 465.480469 353.296875 466.9375 351.707031 468.238281 350.335938 C 472.191406 346.140625 475.597656 341.46875 478.910156 336.808594 C 481.011719 333.851562 493.832031 310.796875 490.828125 310.261719 C 488.8125 309.871094 479.03125 327.664062 477.785156 329.636719 C 478.011719 328.675781 480.34375 319.636719 477.738281 320.03125 C 475.4375 320.324219 469.625 336.535156 467.710938 339.457031 C 468.839844 335.617188 470.277344 331.433594 470.402344 327.5 C 470.542969 322.707031 465.351562 332.453125 465.058594 333.109375 C 465.429688 330.964844 469.789062 312.09375 468.136719 311.941406 C 465.976562 311.746094 461.308594 332.59375 460.722656 335.257812 C 458.726562 331.277344 454.738281 327.105469 451.199219 324.457031 C 446.417969 320.875 452.613281 332.496094 453.246094 333.578125 C 454.652344 335.980469 456.175781 338.15625 456.703125 340.992188 C 457.335938 344.40625 455.707031 351.519531 458.117188 354.148438 C 457.644531 365.34375 458.035156 375.351562 451.800781 385.820312 C 452.082031 383.28125 451.222656 380.6875 451.515625 378.253906 C 452.988281 376.105469 453.40625 373.1875 453.769531 370.785156 C 454.285156 367.378906 453.964844 363.957031 453.546875 360.652344 C 453.441406 359.847656 451.851562 351.648438 450.144531 355.625 C 448.304688 359.929688 448.570312 365.125 448.144531 369.574219 C 446.316406 365.507812 444.191406 359.527344 440.316406 356.957031 C 436.6875 354.550781 440.765625 363.402344 441.113281 364.105469 C 439.898438 363.265625 436.132812 360.660156 435.121094 361.582031 C 432.398438 364.019531 445.164062 377.5 445.824219 380.246094 C 447.4375 396.78125 431.261719 406.519531 419.460938 416.433594 C 405.160156 428.457031 390.40625 439.929688 375.960938 451.777344 C 368.054688 458.269531 360.234375 464.875 352.648438 471.734375 C 350.492188 473.683594 339.570312 481.296875 339.582031 484.789062 C 339.582031 484.601562 355.6875 474.246094 357.066406 473.238281 C 365.125 467.378906 373.078125 461.363281 381 455.3125 C 396.570312 443.417969 412.019531 431.367188 427.117188 418.875 C 432.660156 414.296875 441.683594 403.589844 448.359375 403.195312 C 453.890625 402.867188 458.867188 402.046875 464.382812 402.089844 C 465.265625 402.097656 475.613281 402.152344 472.488281 399.558594 C 468.1875 395.988281 459.242188 395.894531 453.648438 396.085938 C 455.421875 393.878906 457.085938 393.320312 459.714844 392.605469 C 465.835938 390.945312 465.488281 391.398438 469.953125 394.230469 C 473.742188 396.636719 477.816406 397.9375 482.347656 398.832031 C 485.125 399.378906 493.527344 399.605469 487.789062 396.015625 C 483.578125 393.375 478.625 391.984375 474.582031 389.101562 C 478.953125 388.503906 483.253906 388.445312 487.464844 389.1875 C 489.144531 389.488281 496.003906 389.898438 491.644531 387.308594 C 484.832031 383.261719 475.648438 383.125 467.558594 384.832031 C 471.671875 382.589844 475.929688 380.6875 480.160156 378.71875 C 485.695312 376.140625 484.179688 377.5 488.589844 380.0625 C 488.671875 382.710938 491.570312 384.628906 493.445312 385.980469 C 495.746094 387.640625 505.015625 398.320312 506.410156 397.515625 C 509.855469 395.519531 504.96875 388.992188 503.832031 387.257812 C 506.773438 388.433594 506.316406 391.039062 503.832031 387.257812 Z M 503.832031 387.257812 " fill-opacity="1" fill-rule="nonzero"/><path fill="rgb(19.999695%, 56.469727%, 7.839966%)" d="M 435.121094 361.582031 C 435.023438 361.664062 434.972656 361.714844 435.121094 361.582031 Z M 435.121094 361.582031 " fill-opacity="1" fill-rule="nonzero"/><path fill="rgb(100%, 49.01886%, 1.959229%)" d="M 368.34375 493.140625 C 361.882812 479.480469 345.820312 455.363281 328.375 454.339844 C 306.292969 453.042969 290.027344 474.304688 275.773438 488.636719 C 275.773438 488.636719 222.945312 541.769531 222.945312 541.769531 C 222.945312 541.769531 75.601562 672.761719 91.050781 689.882812 C 104.53125 708.589844 263.621094 592.144531 263.621094 592.144531 C 263.621094 592.144531 326.691406 551.695312 326.691406 551.695312 C 343.207031 542.695312 362.105469 531.492188 369.523438 513.480469 C 372.433594 506.414062 371.394531 499.605469 368.34375 493.140625 Z M 368.34375 493.140625 " fill-opacity="1" fill-rule="nonzero"/><path fill="rgb(100%, 58.428955%, 24.308777%)" d="M 356.414062 490.714844 C 359.285156 488.65625 360.332031 498.421875 360.179688 499.417969 C 359.214844 505.929688 353.832031 511.609375 348.875 515.972656 C 338.0625 525.484375 324.875 532.078125 312.6875 539.539062 C 298.941406 547.886719 285.722656 557.238281 272.367188 566.214844 C 262.667969 572.734375 251.875 581.578125 240.800781 585.253906 C 237.480469 586.355469 240.546875 582.976562 241.453125 582.046875 C 245.960938 577.429688 251.101562 573.332031 256.089844 569.242188 C 267.949219 559.597656 280.070312 550.285156 292.703125 541.6875 C 305.089844 533.261719 317.953125 526.210938 330.976562 518.953125 C 337.789062 515.160156 344.871094 511.0625 350.570312 505.617188 C 352.859375 503.429688 355.078125 500.878906 356.007812 497.890625 C 356.335938 496.839844 355.78125 491.167969 356.414062 490.714844 C 356.699219 490.511719 356.132812 490.917969 356.414062 490.714844 Z M 356.414062 490.714844 " fill-opacity="1" fill-rule="nonzero"/><path fill="rgb(100%, 58.428955%, 24.308777%)" d="M 104.792969 675.199219 C 98.496094 671.542969 145.730469 621.160156 150.472656 616.335938 C 173.382812 593.035156 197.660156 570.9375 222.613281 549.785156 C 246.855469 529.226562 269.078125 504.367188 290.363281 484.035156 C 300.125 474.710938 312.3125 464.703125 326.019531 463.761719 C 331.902344 463.355469 337.21875 464.132812 342.199219 466.859375 C 343.589844 467.75 354.921875 475.84375 352.375 478.332031 C 351.164062 479.511719 342.371094 474.074219 340.753906 473.464844 C 334.394531 470.910156 326.992188 471.507812 320.328125 474.617188 C 306.175781 481.230469 298.421875 494.859375 287.246094 504.9375 C 268.535156 521.820312 253.46875 542.625 234.214844 559.003906 C 210.203125 579.425781 186.453125 600.171875 163.035156 621.253906 C 152.886719 630.398438 142.910156 639.699219 132.925781 649.007812 C 130.074219 651.691406 107.179688 676.582031 104.792969 675.199219 C 104.359375 674.945312 105.234375 675.449219 104.792969 675.199219 Z M 104.792969 675.199219 " fill-opacity="1" fill-rule="nonzero"/><path fill="rgb(75.689697%, 34.118652%, 0%)" d="M 373.625 479.15625 C 365.332031 464.566406 351.308594 444.613281 331.914062 443.832031 C 316.878906 443.226562 303.722656 453.894531 293.859375 464.800781 C 310.945312 450.023438 330.300781 441.378906 346.605469 456.480469 C 357.609375 466.671875 373.8125 487.84375 367.769531 503.742188 C 361.304688 517.246094 348.589844 526.066406 335.738281 533.320312 C 320.277344 542.042969 305.300781 551.578125 290.238281 561.039062 C 277.222656 569.210938 264.320312 577.367188 251.753906 586.246094 C 237.1875 596.539062 222.578125 606.785156 207.816406 616.789062 C 186.921875 630.949219 165.882812 644.984375 144.152344 657.761719 C 133.554688 663.992188 122.761719 670.199219 111.425781 674.792969 C 110.144531 675.308594 98.703125 678.738281 98.769531 678.128906 C 98.652344 677.945312 98.582031 677.847656 98.523438 677.78125 C 98.421875 667.449219 111.667969 653.621094 118.027344 645.679688 C 127.222656 634.195312 137.027344 623.113281 146.953125 612.203125 C 159.78125 598.105469 172.871094 584.234375 185.9375 570.347656 C 164.570312 588.203125 143.738281 607.066406 124.363281 627.015625 C 114.917969 636.746094 105.492188 646.738281 97.492188 657.621094 C 92.222656 664.796875 82.988281 677.628906 89.71875 685.433594 C 96.570312 710.273438 227.664062 620.042969 246.9375 606.296875 C 275.046875 586.257812 303.929688 567.691406 332.675781 548.601562 C 359.707031 533.300781 390.746094 509.269531 373.625 479.15625 Z M 373.625 479.15625 " fill-opacity="1" fill-rule="nonzero"/><path fill="rgb(75.689697%, 34.118652%, 0%)" d="M 351.191406 504.675781 C 348.570312 506.808594 340.554688 497.847656 342.84375 495.339844 C 345.378906 492.53125 354.308594 502.140625 351.191406 504.675781 C 350.097656 505.5625 352.265625 503.804688 351.191406 504.675781 Z M 351.191406 504.675781 " fill-opacity="1" fill-rule="nonzero"/><path fill="rgb(75.689697%, 34.118652%, 0%)" d="M 326.992188 500.828125 C 324.367188 502.238281 310.675781 480.386719 313.011719 478.492188 C 316.519531 475.648438 330.980469 498.699219 326.992188 500.828125 C 325.730469 501.503906 328.175781 500.195312 326.992188 500.828125 Z M 326.992188 500.828125 " fill-opacity="1" fill-rule="nonzero"/><path fill="rgb(75.689697%, 34.118652%, 0%)" d="M 328.027344 537.273438 C 325.21875 540.640625 308 518.726562 312.214844 515.679688 C 314.363281 514.125 329.800781 535.179688 328.027344 537.273438 C 327.601562 537.78125 328.492188 536.722656 328.027344 537.273438 Z M 328.027344 537.273438 " fill-opacity="1" fill-rule="nonzero"/><path fill="rgb(75.689697%, 34.118652%, 0%)" d="M 291.566406 524.273438 C 288.007812 527.132812 276.988281 510.238281 279.9375 508.859375 C 283.355469 507.242188 294.148438 522.199219 291.566406 524.273438 C 290.484375 525.140625 292.660156 523.394531 291.566406 524.273438 Z M 291.566406 524.273438 " fill-opacity="1" fill-rule="nonzero"/><path fill="rgb(75.689697%, 34.118652%, 0%)" d="M 279.273438 553.246094 C 275.671875 557.15625 265.457031 539.175781 265.15625 536.460938 C 264.710938 532.3125 271.757812 540.320312 272.089844 540.75 C 273.070312 542.03125 281 551.378906 279.273438 553.246094 C 278.808594 553.746094 279.753906 552.726562 279.273438 553.246094 Z M 279.273438 553.246094 " fill-opacity="1" fill-rule="nonzero"/><path fill="rgb(75.689697%, 34.118652%, 0%)" d="M 241.722656 557.984375 C 238.824219 560.324219 227.390625 546.164062 230.289062 543.828125 C 233.179688 541.492188 244.613281 555.648438 241.722656 557.984375 Z M 241.722656 557.984375 " fill-opacity="1" fill-rule="nonzero"/><path fill="rgb(75.689697%, 34.118652%, 0%)" d="M 245.335938 583.5625 C 242.980469 587.40625 232.695312 575.300781 233.054688 572.074219 C 233.230469 570.492188 247.984375 579.296875 245.335938 583.5625 C 244.617188 584.738281 246.105469 582.328125 245.335938 583.5625 Z M 245.335938 583.5625 " fill-opacity="1" fill-rule="nonzero"/><path fill="rgb(75.689697%, 34.118652%, 0%)" d="M 218.460938 588.460938 C 215.554688 590.863281 206.496094 576.707031 208.464844 573.167969 C 209.585938 571.160156 222.179688 585.390625 218.460938 588.460938 Z M 218.460938 588.460938 " fill-opacity="1" fill-rule="nonzero"/><path fill="rgb(75.689697%, 34.118652%, 0%)" d="M 201.054688 617.136719 C 197.820312 620.957031 179.496094 598.554688 183.902344 595.898438 C 186.144531 594.523438 202.582031 615.34375 201.054688 617.136719 C 200.621094 617.652344 201.523438 616.59375 201.054688 617.136719 Z M 201.054688 617.136719 " fill-opacity="1" fill-rule="nonzero"/><path fill="rgb(75.689697%, 34.118652%, 0%)" d="M 179.042969 637.101562 C 174.996094 640.824219 165.960938 624.453125 165.851562 621.421875 C 165.675781 616.230469 171.378906 624.324219 172.085938 625.238281 C 173.003906 626.429688 181.117188 635.207031 179.042969 637.101562 C 178.0625 638.007812 180.109375 636.125 179.042969 637.101562 Z M 179.042969 637.101562 " fill-opacity="1" fill-rule="nonzero"/><path fill="rgb(75.689697%, 34.118652%, 0%)" d="M 154.265625 631.527344 C 151.082031 634.074219 146.644531 626.027344 147.34375 623.589844 C 148.347656 620.0625 157.9375 628.589844 154.265625 631.527344 C 153.1875 632.390625 155.363281 630.648438 154.265625 631.527344 Z M 154.265625 631.527344 " fill-opacity="1" fill-rule="nonzero"/><path fill="rgb(75.689697%, 34.118652%, 0%)" d="M 141.546875 662.996094 C 138.667969 666.726562 131.121094 655.117188 131.792969 652.25 C 132.390625 649.695312 144.191406 659.589844 141.546875 662.996094 C 141.128906 663.527344 141.976562 662.433594 141.546875 662.996094 Z M 141.546875 662.996094 " fill-opacity="1" fill-rule="nonzero"/><path fill="rgb(75.689697%, 34.118652%, 0%)" d="M 121.542969 670.375 C 118.710938 672.664062 110.851562 662.925781 113.679688 660.640625 C 116.511719 658.351562 124.375 668.089844 121.542969 670.375 Z M 121.542969 670.375 " fill-opacity="1" fill-rule="nonzero"/><path fill="rgb(16.079712%, 40.388489%, 9.408569%)" d="M 577.683594 536.933594 C 577.84375 537.601562 577.515625 536.171875 577.683594 536.933594 Z M 577.683594 536.933594 " fill-opacity="1" fill-rule="nonzero"/><path fill="rgb(16.079712%, 40.388489%, 9.408569%)" d="M 565.625 533 C 566.027344 533.503906 565.179688 532.40625 565.625 533 Z M 565.625 533 " fill-opacity="1" fill-rule="nonzero"/><path fill="rgb(16.079712%, 40.388489%, 9.408569%)" d="M 558.109375 531.257812 C 558.378906 531.929688 557.855469 530.601562 558.109375 531.257812 Z M 558.109375 531.257812 " fill-opacity="1" fill-rule="nonzero"/><path fill="rgb(16.079712%, 40.388489%, 9.408569%)" d="M 524.246094 534.011719 C 524.894531 533.988281 523.542969 534.019531 524.246094 534.011719 Z M 524.246094 534.011719 " fill-opacity="1" fill-rule="nonzero"/><path fill="rgb(16.079712%, 40.388489%, 9.408569%)" d="M 532.25 540.148438 C 532.511719 540.378906 532.011719 539.929688 532.25 540.148438 Z M 532.25 540.148438 " fill-opacity="1" fill-rule="nonzero"/><path fill="rgb(16.079712%, 40.388489%, 9.408569%)" d="M 561.09375 556.761719 C 561.007812 557.542969 561.175781 556.019531 561.09375 556.761719 Z M 561.09375 556.761719 " fill-opacity="1" fill-rule="nonzero"/><path fill="rgb(16.079712%, 40.388489%, 9.408569%)" d="M 558.933594 598.949219 C 558.484375 599.519531 559.335938 598.460938 558.933594 598.949219 Z M 558.933594 598.949219 " fill-opacity="1" fill-rule="nonzero"/><path fill="rgb(16.079712%, 40.388489%, 9.408569%)" d="M 574.046875 594.25 C 573.859375 594.960938 574.246094 593.464844 574.046875 594.25 Z M 574.046875 594.25 " fill-opacity="1" fill-rule="nonzero"/><path fill="rgb(16.079712%, 40.388489%, 9.408569%)" d="M 559.445312 582.308594 C 559.386719 583.050781 559.515625 581.527344 559.445312 582.308594 Z M 559.445312 582.308594 " fill-opacity="1" fill-rule="nonzero"/><path fill="rgb(16.079712%, 40.388489%, 9.408569%)" d="M 542.351562 607.199219 C 541.808594 607.269531 542.859375 607.132812 542.351562 607.199219 Z M 542.351562 607.199219 " fill-opacity="1" fill-rule="nonzero"/><path fill="rgb(16.079712%, 40.388489%, 9.408569%)" d="M 551.5 601.402344 C 551.28125 601.667969 551.710938 601.148438 551.5 601.402344 Z M 551.5 601.402344 " fill-opacity="1" fill-rule="nonzero"/><path fill="rgb(16.079712%, 40.388489%, 9.408569%)" d="M 535.820312 595.929688 C 535.238281 596.195312 536.078125 595.820312 535.820312 595.929688 Z M 535.820312 595.929688 " fill-opacity="1" fill-rule="nonzero"/><path fill="rgb(16.079712%, 40.388489%, 9.408569%)" d="M 531.113281 601.175781 C 530.621094 601.539062 531.621094 600.796875 531.113281 601.175781 Z M 531.113281 601.175781 " fill-opacity="1" fill-rule="nonzero"/><path fill="rgb(16.079712%, 40.388489%, 9.408569%)" d="M 576.679688 552.394531 C 576.71875 552.5 576.828125 552.765625 576.679688 552.394531 C 576.6875 552.414062 576.707031 552.460938 576.679688 552.394531 Z M 576.679688 552.394531 " fill-opacity="1" fill-rule="nonzero"/><path fill="rgb(16.079712%, 40.388489%, 9.408569%)" d="M 576.753906 552.574219 C 576.773438 552.621094 576.777344 552.640625 576.753906 552.574219 Z M 576.753906 552.574219 " fill-opacity="1" fill-rule="nonzero"/><path fill="rgb(16.079712%, 40.388489%, 9.408569%)" d="M 576.679688 552.394531 C 576.59375 552.171875 576.625 552.261719 576.679688 552.394531 Z M 576.679688 552.394531 " fill-opacity="1" fill-rule="nonzero"/><path fill="rgb(16.079712%, 40.388489%, 9.408569%)" d="M 592.503906 566.320312 C 592.378906 567.058594 592.636719 565.542969 592.503906 566.320312 Z M 592.503906 566.320312 " fill-opacity="1" fill-rule="nonzero"/><path fill="rgb(16.079712%, 40.388489%, 9.408569%)" d="M 592.621094 546.15625 C 592.914062 546.269531 592.304688 546.027344 592.621094 546.15625 Z M 592.621094 546.15625 " fill-opacity="1" fill-rule="nonzero"/><path fill="rgb(16.079712%, 40.388489%, 9.408569%)" d="M 596.695312 577.535156 C 596.207031 578.1875 597.136719 576.953125 596.695312 577.535156 Z M 596.695312 577.535156 " fill-opacity="1" fill-rule="nonzero"/><path fill="rgb(16.079712%, 40.388489%, 9.408569%)" d="M 570.324219 603.539062 C 569.925781 604.148438 570.71875 602.945312 570.324219 603.539062 Z M 570.324219 603.539062 " fill-opacity="1" fill-rule="nonzero"/><path fill="rgb(16.079712%, 40.388489%, 9.408569%)" d="M 522.929688 592.136719 C 522.433594 592.601562 523.402344 591.691406 522.929688 592.136719 Z M 522.929688 592.136719 " fill-opacity="1" fill-rule="nonzero"/><path fill="rgb(16.079712%, 40.388489%, 9.408569%)" d="M 569.09375 548.457031 C 569.40625 548.542969 568.785156 548.371094 569.09375 548.457031 Z M 569.09375 548.457031 " fill-opacity="1" fill-rule="nonzero"/><path fill="rgb(16.079712%, 40.388489%, 9.408569%)" d="M 581.585938 584.222656 C 581.53125 584.957031 581.636719 583.457031 581.585938 584.222656 Z M 581.585938 584.222656 " fill-opacity="1" fill-rule="nonzero"/><path fill="rgb(16.079712%, 40.388489%, 9.408569%)" d="M 540.632812 601.898438 C 540.664062 602.0625 541.382812 607.328125 542.351562 607.199219 C 544.011719 606.984375 543.113281 596.703125 543.050781 595.628906 C 544.023438 596.472656 550.570312 602.597656 551.5 601.402344 C 553.386719 599.128906 547.4375 593.34375 546.253906 592.03125 C 543.304688 588.78125 542.886719 587.695312 542.269531 583.253906 C 543.960938 584.488281 559.265625 598.53125 558.933594 598.949219 C 560.488281 597.066406 555.335938 591.035156 554.488281 589.886719 C 556.429688 590.90625 570.003906 604.027344 570.324219 603.539062 C 571.835938 601.265625 567.011719 595.535156 565.945312 594.046875 C 566.761719 594.257812 573.523438 596.34375 574.046875 594.25 C 574.539062 592.511719 567.757812 590.144531 566.75 589.703125 C 568.707031 589.296875 581.398438 586.757812 581.585938 584.222656 C 581.773438 581.691406 568.988281 583.738281 567.582031 583.925781 C 562.46875 584.609375 558.863281 586.09375 554.449219 583.855469 C 554.753906 583.8125 559.34375 583.390625 559.445312 582.308594 C 559.710938 579.375 549.707031 578.515625 547.703125 578.082031 C 546.496094 577.8125 544.476562 576.914062 543.226562 577.996094 C 540.835938 576.195312 538.292969 574.585938 535.609375 573.199219 C 540.753906 572.757812 545.886719 572.140625 551.027344 571.875 C 556.398438 572.699219 559.394531 574.832031 563.304688 578.203125 C 574.039062 587.46875 568.675781 577.636719 563.960938 572.527344 C 565.644531 572.558594 584.144531 577.699219 583.085938 579.210938 C 584.878906 576.660156 577.3125 571.828125 575.429688 570.828125 C 578.761719 570.574219 595.351562 579.328125 596.695312 577.535156 C 598.570312 575.074219 587.78125 568.679688 586.335938 567.960938 C 587.113281 567.878906 592.257812 567.792969 592.503906 566.320312 C 592.90625 563.933594 579.273438 563.621094 577.882812 563.5625 C 580.671875 562.21875 599.175781 555.285156 597.675781 551.675781 C 597.4375 551.105469 588.601562 555.292969 587.144531 555.867188 C 587.765625 555.128906 594.699219 546.960938 592.621094 546.15625 C 591.492188 545.710938 585.808594 552.191406 584.605469 553.078125 C 578.628906 557.496094 575.773438 559.742188 568.660156 560.945312 C 569.804688 559.988281 577.457031 554.34375 576.695312 552.4375 C 576.109375 550.953125 569.691406 554.90625 569.125 555.226562 C 569.652344 552.914062 570.121094 544.976562 567.042969 550.796875 C 565.890625 552.972656 561.835938 558.351562 561.425781 560.371094 C 559.796875 561.53125 557.753906 562.453125 556.359375 563.90625 C 553.808594 566.5625 550.53125 565.644531 546.675781 565.765625 C 539.476562 565.996094 532.257812 566.78125 525.054688 567.585938 C 526.613281 566.09375 528.070312 564.515625 529.417969 562.839844 C 531.03125 563.351562 532.710938 563.359375 534.449219 562.871094 C 537.058594 562.40625 539.644531 561.71875 542.257812 561.253906 C 544.160156 560.914062 560.824219 559.234375 561.09375 556.761719 C 561.324219 554.683594 552.675781 555.3125 551.578125 555.335938 C 556.425781 551.183594 558.699219 546.5625 550.929688 550.203125 C 546.90625 552.085938 543.636719 555.855469 539.980469 556.308594 C 540.832031 555.433594 542.253906 553.179688 541.996094 552.503906 C 541.152344 550.285156 536.605469 553.390625 535.308594 554.148438 C 536.457031 552.242188 537.644531 550.347656 538.859375 548.476562 C 540.898438 549.109375 543.796875 548.367188 545.882812 547.941406 C 549.828125 547.257812 553.847656 546.429688 557.726562 545.238281 C 559.84375 544.605469 578.265625 539.386719 577.683594 536.933594 C 577.246094 534.910156 561.058594 539.351562 559.335938 539.753906 C 560.363281 539.023438 567.019531 534.761719 565.625 533 C 564.589844 531.625 551.425781 538.898438 548.8125 539.703125 C 550.140625 538.703125 558.847656 533.199219 558.109375 531.257812 C 557.464844 529.609375 552.085938 532.636719 551.320312 533.019531 C 553 531.519531 567.554688 521.007812 567.03125 519.925781 C 565.976562 517.753906 549.539062 530.113281 547.847656 531.488281 C 549.183594 527.316406 549.46875 522.382812 549.609375 518.164062 C 549.867188 510.378906 546.640625 518.609375 545.824219 521.617188 C 543.933594 528.636719 542.25 533.558594 538.191406 540.03125 C 532.339844 549.355469 528.25 559.867188 518.457031 566.359375 C 520.617188 562.746094 521.496094 560.433594 524.164062 557.320312 C 526.917969 554.097656 528.742188 550.503906 530.488281 546.742188 C 536.621094 533.503906 526.28125 546.171875 523.464844 550.546875 C 523.765625 548.976562 527.136719 533.894531 524.246094 534.011719 C 523.132812 534.023438 522.285156 540.816406 522.15625 541.574219 C 522.027344 540.925781 521.308594 535.574219 519.984375 535.761719 C 517.777344 536.066406 518.136719 549.59375 518.074219 551.644531 C 517.617188 564.644531 510.070312 569.597656 497.953125 571.953125 C 485.894531 574.300781 473.851562 576.859375 461.847656 579.582031 C 454.589844 581.230469 447.34375 582.996094 440.148438 585.019531 C 435.242188 586.398438 425.78125 587.5 421.847656 591.246094 C 421.78125 591.3125 433.910156 590.871094 435.234375 590.695312 C 442.375 589.730469 449.503906 588.421875 456.621094 587.078125 C 471.828125 584.207031 487.015625 581.097656 502.238281 578.335938 C 505.828125 577.683594 507.65625 576.441406 510.046875 578.824219 C 511.519531 580.296875 513.398438 581.347656 514.820312 582.871094 C 516.886719 585.011719 518.363281 587.761719 520.285156 590.042969 C 522.207031 592.332031 523.976562 592.835938 522.84375 589.027344 C 521.433594 584.28125 518.625 579.6875 515.390625 576.066406 C 524.285156 572.65625 525.210938 590.300781 527.476562 595.722656 C 528.09375 597.203125 531.957031 604.570312 531.277344 598.746094 C 530.671875 593.554688 528.84375 588.710938 528.144531 583.546875 C 528.714844 584.167969 536.066406 595.816406 535.820312 595.929688 C 540.542969 593.914062 527.644531 576.386719 526.632812 575.511719 C 530.570312 576.710938 534.351562 578.398438 537.824219 580.449219 C 536.597656 584.976562 537.101562 591.109375 537.472656 595.652344 C 537.695312 598.390625 535.894531 610.859375 537.636719 611.636719 C 539.414062 612.429688 540.503906 602.828125 540.632812 601.898438 C 541.207031 604.851562 540.003906 606.5625 540.632812 601.898438 Z M 540.632812 601.898438 " fill-opacity="1" fill-rule="nonzero"/><path fill="rgb(16.079712%, 40.388489%, 9.408569%)" d="M 519.984375 535.761719 C 519.890625 535.769531 519.839844 535.78125 519.984375 535.761719 Z M 519.984375 535.761719 " fill-opacity="1" fill-rule="nonzero"/><path fill="rgb(19.999695%, 56.469727%, 7.839966%)" d="M 622.828125 466.539062 C 623.386719 466.949219 622.207031 466.074219 622.828125 466.539062 Z M 622.828125 466.539062 " fill-opacity="1" fill-rule="nonzero"/><path fill="rgb(19.999695%, 56.469727%, 7.839966%)" d="M 607.839844 470.519531 C 608.539062 470.71875 607.050781 470.277344 607.839844 470.519531 Z M 607.839844 470.519531 " fill-opacity="1" fill-rule="nonzero"/><path fill="rgb(19.999695%, 56.469727%, 7.839966%)" d="M 598.808594 473.097656 C 599.417969 473.535156 598.21875 472.671875 598.808594 473.097656 Z M 598.808594 473.097656 " fill-opacity="1" fill-rule="nonzero"/><path fill="rgb(19.999695%, 56.469727%, 7.839966%)" d="M 559.113281 491.21875 C 559.917969 490.898438 558.238281 491.550781 559.113281 491.21875 Z M 559.113281 491.21875 " fill-opacity="1" fill-rule="nonzero"/><path fill="rgb(19.999695%, 56.469727%, 7.839966%)" d="M 571.484375 493.21875 C 571.902344 493.3125 571.09375 493.128906 571.484375 493.21875 Z M 571.484375 493.21875 " fill-opacity="1" fill-rule="nonzero"/><path fill="rgb(19.999695%, 56.469727%, 7.839966%)" d="M 614.710938 492.644531 C 615.007812 493.347656 614.433594 491.988281 614.710938 492.644531 Z M 614.710938 492.644531 " fill-opacity="1" fill-rule="nonzero"/><path fill="rgb(19.999695%, 56.469727%, 7.839966%)" d="M 634.527344 528.128906 C 634.097656 528.953125 634.925781 527.410156 634.527344 528.128906 Z M 634.527344 528.128906 " fill-opacity="1" fill-rule="nonzero"/><path fill="rgb(19.999695%, 56.469727%, 7.839966%)" d="M 656.460938 510.445312 C 656.71875 511.101562 656.191406 509.730469 656.460938 510.445312 Z M 656.460938 510.445312 " fill-opacity="1" fill-rule="nonzero"/><path fill="rgb(19.999695%, 56.469727%, 7.839966%)" d="M 625.980469 514.5 C 626.289062 515.144531 625.65625 513.820312 625.980469 514.5 Z M 625.980469 514.5 " fill-opacity="1" fill-rule="nonzero"/><path fill="rgb(19.999695%, 56.469727%, 7.839966%)" d="M 610.28125 548.035156 C 609.398438 548.464844 611.113281 547.636719 610.28125 548.035156 Z M 610.28125 548.035156 " fill-opacity="1" fill-rule="nonzero"/><path fill="rgb(19.999695%, 56.469727%, 7.839966%)" d="M 623.246094 536.265625 C 623.011719 536.65625 623.476562 535.898438 623.246094 536.265625 Z M 623.246094 536.265625 " fill-opacity="1" fill-rule="nonzero"/><path fill="rgb(19.999695%, 56.469727%, 7.839966%)" d="M 595.457031 542.167969 C 594.679688 542.730469 595.792969 541.925781 595.457031 542.167969 Z M 595.457031 542.167969 " fill-opacity="1" fill-rule="nonzero"/><path fill="rgb(19.999695%, 56.469727%, 7.839966%)" d="M 590.257812 549.449219 C 589.652344 550.039062 590.886719 548.84375 590.257812 549.449219 Z M 590.257812 549.449219 " fill-opacity="1" fill-rule="nonzero"/><path fill="rgb(19.999695%, 56.469727%, 7.839966%)" d="M 631.164062 478.824219 C 631.273438 478.867188 631.570312 478.988281 631.164062 478.824219 C 631.179688 478.828125 631.238281 478.851562 631.164062 478.824219 Z M 631.164062 478.824219 " fill-opacity="1" fill-rule="nonzero"/><path fill="rgb(19.999695%, 56.469727%, 7.839966%)" d="M 631.355469 478.902344 C 631.414062 478.925781 631.425781 478.929688 631.355469 478.902344 Z M 631.355469 478.902344 " fill-opacity="1" fill-rule="nonzero"/><path fill="rgb(19.999695%, 56.469727%, 7.839966%)" d="M 631.164062 478.824219 C 630.925781 478.71875 631.019531 478.761719 631.164062 478.824219 Z M 631.164062 478.824219 " fill-opacity="1" fill-rule="nonzero"/><path fill="rgb(19.999695%, 56.469727%, 7.839966%)" d="M 659.570312 475.269531 C 660.03125 475.804688 659.085938 474.699219 659.570312 475.269531 Z M 659.570312 475.269531 " fill-opacity="1" fill-rule="nonzero"/><path fill="rgb(19.999695%, 56.469727%, 7.839966%)" d="M 644.164062 462.714844 C 644.539062 462.570312 643.746094 462.867188 644.164062 462.714844 Z M 644.164062 462.714844 " fill-opacity="1" fill-rule="nonzero"/><path fill="rgb(19.999695%, 56.469727%, 7.839966%)" d="M 674.417969 477.097656 C 674.425781 477.914062 674.425781 476.359375 674.417969 477.097656 Z M 674.417969 477.097656 " fill-opacity="1" fill-rule="nonzero"/><path fill="rgb(19.999695%, 56.469727%, 7.839966%)" d="M 657.316406 520.441406 C 657.082031 521.265625 657.550781 519.632812 657.316406 520.441406 Z M 657.316406 520.441406 " fill-opacity="1" fill-rule="nonzero"/><path fill="rgb(19.999695%, 56.469727%, 7.839966%)" d="M 575.351562 545.585938 C 574.769531 546.277344 575.902344 544.921875 575.351562 545.585938 Z M 575.351562 545.585938 " fill-opacity="1" fill-rule="nonzero"/><path fill="rgb(19.999695%, 56.469727%, 7.839966%)" d="M 620.023438 480.945312 C 620.441406 480.820312 619.613281 481.066406 620.023438 480.945312 Z M 620.023438 480.945312 " fill-opacity="1" fill-rule="nonzero"/><path fill="rgb(19.999695%, 56.469727%, 7.839966%)" d="M 660.042969 496.40625 C 660.5625 496.910156 659.503906 495.886719 660.042969 496.40625 Z M 660.042969 496.40625 " fill-opacity="1" fill-rule="nonzero"/><path fill="rgb(19.999695%, 56.469727%, 7.839966%)" d="M 605.332031 544.484375 C 613.546875 553.398438 609.234375 541.625 606.765625 537.378906 C 610.148438 537.628906 613.613281 537.601562 617.035156 537.453125 C 618.035156 537.410156 626.195312 536.78125 622.351562 534.695312 C 619.160156 532.957031 614.808594 532.660156 611.140625 532.191406 C 609.5625 531.992188 607.992188 531.832031 606.441406 531.527344 C 602.664062 530.785156 602.898438 529.941406 600.644531 526.921875 C 604.78125 527.253906 632.875 531.238281 634.527344 528.128906 C 635.605469 526.171875 623.285156 524.601562 622.347656 524.464844 C 627.183594 523.519531 655.984375 525.101562 657.316406 520.441406 C 657.933594 518.300781 644.550781 518.210938 643.148438 518.15625 C 644.621094 517.574219 657.316406 512.628906 656.460938 510.445312 C 655.933594 509.058594 643.011719 513.828125 641.605469 514.234375 C 643.714844 512.695312 661.96875 498.195312 660.042969 496.40625 C 658.257812 494.683594 641.273438 507.800781 639.148438 509.253906 C 632.589844 513.6875 626.90625 518.246094 619.25 519.492188 C 619.660156 519.253906 626.460938 515.503906 625.980469 514.5 C 624.929688 512.300781 611.308594 517.566406 609.320312 518.179688 C 606.816406 518.957031 604.101562 519.460938 601.691406 520.542969 C 597.386719 522.472656 592.039062 521.460938 587.28125 521.660156 C 596.316406 517.496094 605.34375 513.367188 614.417969 509.359375 C 618.054688 508.828125 641.0625 508.84375 641.613281 506.558594 C 641.652344 506.410156 641.691406 506.261719 641.722656 506.113281 C 642.210938 504.140625 628.90625 503.519531 627.046875 503.40625 C 630.175781 501.804688 658.003906 492.738281 658.117188 491.863281 C 658.441406 489.371094 643.910156 492.585938 641.625 493.171875 C 645.988281 490.238281 674.472656 481.722656 674.417969 477.097656 C 674.4375 475.078125 655.226562 481.25 653.507812 481.859375 C 654.207031 481.292969 660.625 476.484375 659.570312 475.269531 C 658.261719 473.734375 641.832031 484.859375 639.882812 486.058594 C 641.921875 483.609375 658.011719 463.042969 653.347656 462.101562 C 652.683594 461.96875 646.769531 471.609375 645.402344 473.355469 C 645.546875 472.476562 646.933594 461.671875 644.164062 462.714844 C 642.671875 463.253906 642.238281 468.851562 641.949219 470.097656 C 639.75 479.441406 634.195312 485.449219 626.625 490.988281 C 627.28125 489.835938 633.203125 479.683594 631.210938 478.839844 C 629.558594 478.125 624.695312 485.199219 623.898438 486.230469 C 622.335938 481.332031 618.953125 478.808594 618.804688 485.808594 C 618.695312 491 617.957031 494.523438 614.277344 498.804688 C 611.808594 501.679688 612.480469 503.25 608.980469 504.835938 C 605.175781 506.566406 601.367188 508.304688 597.546875 510.007812 C 588.65625 513.976562 579.640625 517.640625 570.804688 521.75 C 572.382812 519.644531 573.886719 517.484375 575.234375 515.242188 C 576.933594 515.222656 578.714844 514.480469 580.28125 513.769531 C 583.328125 512.386719 586.128906 510.535156 589.089844 508.976562 C 591.925781 507.484375 615.972656 495.589844 614.710938 492.644531 C 614 490.96875 603.082031 496.558594 601.890625 497.105469 C 605.324219 492.234375 607.601562 485.5625 600.292969 491.738281 C 595.585938 495.714844 592.058594 501.777344 587.195312 504.136719 C 587.9375 503.011719 589.121094 500.320312 588.394531 499.730469 C 586.34375 498.066406 581.75 503.210938 580.296875 504.523438 C 581.15625 502.238281 582.019531 499.945312 582.886719 497.65625 C 585.132812 497.304688 587.488281 495.992188 589.5 494.925781 C 594.515625 492.265625 599.390625 489.101562 604.023438 485.789062 C 606.449219 484.054688 625.113281 468.207031 622.828125 466.539062 C 621.265625 465.320312 606.027344 478.28125 604.183594 479.605469 C 604.78125 478.738281 610.253906 471.191406 607.839844 470.519531 C 605.777344 469.890625 594.511719 483.019531 591.78125 485.035156 C 594.214844 481.804688 597.066406 478.375 598.648438 474.6875 C 600.59375 470.148438 592.414062 477.425781 591.882812 477.960938 C 593.035156 476.035156 604.035156 459.824219 602.6875 459.039062 C 600.859375 457.984375 588.953125 475.820312 587.304688 478.3125 C 587.136719 473.796875 585.210938 468.4375 583.253906 464.566406 C 580.320312 458.742188 581.261719 472.433594 581.414062 473.839844 C 582.230469 481.28125 578.964844 486.753906 577.90625 494.09375 C 576.445312 504.203125 569.222656 516.542969 561.421875 523.882812 C 562.457031 521.460938 563.140625 518.933594 563.515625 516.398438 C 564.199219 514.898438 566.148438 513.183594 567.03125 511.625 C 568.558594 508.914062 569.558594 506.230469 570.441406 503.324219 C 571.179688 500.890625 573.265625 495.890625 571.945312 493.585938 C 570.652344 491.324219 564.054688 505.253906 563.347656 506.824219 C 563.0625 502.257812 563.246094 495.699219 560.628906 491.894531 C 558.171875 488.335938 558.785156 498.367188 558.855469 499.164062 C 558.039062 497.949219 555.515625 494.1875 554.28125 494.773438 C 550.90625 496.394531 558.121094 513.539062 557.847656 516.511719 C 554.277344 532.5 538.375 536.800781 525.054688 543.132812 C 510.503906 550.054688 496.214844 557.578125 481.46875 563.992188 C 472.613281 567.847656 463.671875 571.605469 455.226562 576.421875 C 450.90625 578.886719 438.5 585.019531 437.253906 590.507812 C 437.300781 590.3125 447.5 585.195312 448.550781 584.652344 C 454.265625 581.683594 460.160156 579.128906 466.09375 576.710938 C 477.210938 572.171875 488.519531 568.132812 499.390625 562.90625 C 507.085938 559.203125 514.757812 555.441406 522.5 551.855469 C 528.847656 548.917969 535.195312 545.976562 541.542969 543.039062 C 543.929688 541.933594 546.316406 540.832031 548.703125 539.722656 C 551.628906 538.371094 551.65625 539.34375 554.910156 540.019531 C 561.375 541.355469 567.457031 545.007812 573.972656 545.804688 C 577.238281 546.203125 574.289062 542.683594 573.496094 541.964844 C 569.769531 538.585938 564.871094 536.054688 559.984375 534.457031 C 560.835938 533.851562 562.308594 533.148438 563.292969 532.859375 C 568.460938 533.242188 571.191406 532.386719 573.660156 536.507812 C 576.238281 540.804688 579.757812 544 583.871094 546.871094 C 587.9375 549.832031 592.507812 550.8125 588.386719 545.191406 C 585.773438 541.632812 582.503906 538.613281 580.207031 534.824219 C 584.121094 535.910156 587.773438 537.5 590.964844 539.835938 C 591.480469 540.210938 596.886719 543.933594 595.539062 540.792969 C 592.515625 533.710938 582.804688 529.3125 575.496094 528.21875 C 581.320312 527.246094 587.191406 527.253906 593.003906 526.996094 C 592.914062 529.410156 594.621094 530.902344 594.71875 533.214844 C 594.820312 535.59375 596.132812 537.785156 597.25 539.742188 C 598.648438 542.199219 602.285156 555.4375 603.957031 555.191406 C 607.597656 554.65625 605.660156 546.375 605.332031 544.484375 C 607.414062 546.734375 606.117188 549.027344 605.332031 544.484375 Z M 605.332031 544.484375 " fill-opacity="1" fill-rule="nonzero"/><path fill="rgb(19.999695%, 56.469727%, 7.839966%)" d="M 554.28125 494.773438 C 554.160156 494.828125 554.101562 494.855469 554.28125 494.773438 Z M 554.28125 494.773438 " fill-opacity="1" fill-rule="nonzero"/><path fill="rgb(16.079712%, 40.388489%, 9.408569%)" d="M 534.324219 471.363281 C 535.011719 471.546875 533.5625 471.144531 534.324219 471.363281 Z M 534.324219 471.363281 " fill-opacity="1" fill-rule="nonzero"/><path fill="rgb(16.079712%, 40.388489%, 9.408569%)" d="M 522.121094 479.5625 C 522.832031 479.519531 521.3125 479.59375 522.121094 479.5625 Z M 522.121094 479.5625 " fill-opacity="1" fill-rule="nonzero"/><path fill="rgb(16.079712%, 40.388489%, 9.408569%)" d="M 515.082031 484.53125 C 515.816406 484.722656 514.375 484.351562 515.082031 484.53125 Z M 515.082031 484.53125 " fill-opacity="1" fill-rule="nonzero"/><path fill="rgb(16.079712%, 40.388489%, 9.408569%)" d="M 490.160156 507.371094 C 490.671875 507.066406 489.589844 507.683594 490.160156 507.371094 Z M 490.160156 507.371094 " fill-opacity="1" fill-rule="nonzero"/><path fill="rgb(16.079712%, 40.388489%, 9.408569%)" d="M 500.285156 508.035156 C 500.644531 508.058594 499.945312 508.011719 500.285156 508.035156 Z M 500.285156 508.035156 " fill-opacity="1" fill-rule="nonzero"/><path fill="rgb(16.079712%, 40.388489%, 9.408569%)" d="M 537.539062 496.429688 C 538.097656 496.941406 537.015625 495.957031 537.539062 496.429688 Z M 537.539062 496.429688 " fill-opacity="1" fill-rule="nonzero"/><path fill="rgb(16.079712%, 40.388489%, 9.408569%)" d="M 570.175781 520.808594 C 570.136719 521.644531 570.230469 520.0625 570.175781 520.808594 Z M 570.175781 520.808594 " fill-opacity="1" fill-rule="nonzero"/><path fill="rgb(16.079712%, 40.388489%, 9.408569%)" d="M 582.074219 500.222656 C 582.558594 500.726562 581.546875 499.675781 582.074219 500.222656 Z M 582.074219 500.222656 " fill-opacity="1" fill-rule="nonzero"/><path fill="rgb(16.079712%, 40.388489%, 9.408569%)" d="M 556.796875 511.734375 C 557.347656 512.1875 556.222656 511.246094 556.796875 511.734375 Z M 556.796875 511.734375 " fill-opacity="1" fill-rule="nonzero"/><path fill="rgb(16.079712%, 40.388489%, 9.408569%)" d="M 555.808594 546 C 555.101562 546.695312 556.472656 545.34375 555.808594 546 Z M 555.808594 546 " fill-opacity="1" fill-rule="nonzero"/><path fill="rgb(16.079712%, 40.388489%, 9.408569%)" d="M 563.390625 531.261719 C 563.320312 531.679688 563.453125 530.867188 563.390625 531.261719 Z M 563.390625 531.261719 " fill-opacity="1" fill-rule="nonzero"/><path fill="rgb(16.079712%, 40.388489%, 9.408569%)" d="M 539.171875 545.863281 C 538.503906 546.71875 539.472656 545.496094 539.171875 545.863281 Z M 539.171875 545.863281 " fill-opacity="1" fill-rule="nonzero"/><path fill="rgb(16.079712%, 40.388489%, 9.408569%)" d="M 535.441406 555.027344 C 534.914062 555.851562 535.984375 554.164062 535.441406 555.027344 Z M 535.441406 555.027344 " fill-opacity="1" fill-rule="nonzero"/><path fill="rgb(16.079712%, 40.388489%, 9.408569%)" d="M 546.867188 479.550781 C 546.992188 479.558594 547.3125 479.582031 546.867188 479.550781 C 546.890625 479.550781 546.949219 479.558594 546.867188 479.550781 Z M 546.867188 479.550781 " fill-opacity="1" fill-rule="nonzero"/><path fill="rgb(16.079712%, 40.388489%, 9.408569%)" d="M 547.078125 479.5625 C 547.140625 479.566406 547.15625 479.570312 547.078125 479.5625 Z M 547.078125 479.5625 " fill-opacity="1" fill-rule="nonzero"/><path fill="rgb(16.079712%, 40.388489%, 9.408569%)" d="M 546.867188 479.550781 C 546.609375 479.53125 546.707031 479.542969 546.867188 479.550781 Z M 546.867188 479.550781 " fill-opacity="1" fill-rule="nonzero"/><path fill="rgb(16.079712%, 40.388489%, 9.408569%)" d="M 571.933594 469.144531 C 572.53125 469.53125 571.292969 468.730469 571.933594 469.144531 Z M 571.933594 469.144531 " fill-opacity="1" fill-rule="nonzero"/><path fill="rgb(16.079712%, 40.388489%, 9.408569%)" d="M 553.367188 461.496094 C 553.691406 461.261719 553.019531 461.75 553.367188 461.496094 Z M 553.367188 461.496094 " fill-opacity="1" fill-rule="nonzero"/><path fill="rgb(16.079712%, 40.388489%, 9.408569%)" d="M 586.046875 468.355469 C 586.296875 469.09375 585.835938 467.691406 586.046875 468.355469 Z M 586.046875 468.355469 " fill-opacity="1" fill-rule="nonzero"/><path fill="rgb(16.079712%, 40.388489%, 9.408569%)" d="M 586.902344 508.476562 C 587.039062 509.21875 586.765625 507.75 586.902344 508.476562 Z M 586.902344 508.476562 " fill-opacity="1" fill-rule="nonzero"/><path fill="rgb(16.079712%, 40.388489%, 9.408569%)" d="M 518.332031 555.761719 C 517.835938 556.578125 518.8125 554.980469 518.332031 555.761719 Z M 518.332031 555.761719 " fill-opacity="1" fill-rule="nonzero"/><path fill="rgb(16.079712%, 40.388489%, 9.408569%)" d="M 537.515625 484.765625 C 537.84375 484.523438 537.1875 485 537.515625 484.765625 Z M 537.515625 484.765625 " fill-opacity="1" fill-rule="nonzero"/><path fill="rgb(16.079712%, 40.388489%, 9.408569%)" d="M 579.746094 487.5625 C 580.394531 487.894531 579.074219 487.21875 579.746094 487.5625 Z M 579.746094 487.5625 " fill-opacity="1" fill-rule="nonzero"/><path fill="rgb(16.079712%, 40.388489%, 9.408569%)" d="M 549.703125 544.535156 C 560.929688 549.75 552.386719 540.613281 548.457031 537.695312 C 551.128906 536.949219 567.355469 530.425781 561.394531 530.140625 C 557.445312 529.953125 553.164062 531.089844 549.234375 531.976562 C 543.84375 533.1875 543.027344 533.019531 538.710938 530.421875 C 541.726562 529.578125 570.054688 523.375 570.175781 520.808594 C 570.335938 518.628906 558.699219 521.191406 557.710938 521.382812 C 564.644531 517.359375 572.980469 515.46875 580.339844 512.386719 C 581.15625 512.042969 587.25 509.882812 586.902344 508.476562 C 586.398438 506.042969 575.074219 509.5625 573.605469 509.957031 C 574.675781 509.027344 583.609375 501.804688 582.074219 500.222656 C 580.96875 499.074219 571.746094 506.25 570.605469 507.042969 C 571.773438 505.257812 582.175781 488.894531 579.746094 487.5625 C 577.519531 486.425781 567.839844 501.410156 566.363281 503.46875 C 562.324219 509.164062 559.101562 514.707031 552.851562 518.066406 C 553.15625 517.6875 557.648438 512.4375 556.796875 511.734375 C 554.886719 510.117188 543.960938 519.527344 542.203125 520.84375 C 540.355469 522.222656 536.921875 523.75 536.097656 526.035156 C 532.117188 527.136719 528.203125 528.472656 524.28125 529.804688 C 533.285156 521.976562 540.484375 511.386719 551.980469 507.34375 C 554.085938 506.609375 567.804688 502.21875 567.4375 500.476562 C 566.832031 497.632812 555.109375 501.40625 553.132812 501.917969 C 554.738281 500.214844 576.296875 483.839844 576.355469 484.035156 C 575.589844 481.335938 564.042969 487.867188 562.050781 489.054688 C 564.855469 485.347656 587.058594 471.359375 586.046875 468.355469 C 585.277344 465.925781 570.3125 475.148438 568.589844 476.304688 C 568.964844 475.730469 573.226562 469.980469 571.933594 469.144531 C 570.019531 467.878906 558.871094 481.984375 557.691406 483.371094 C 558.640625 480.582031 566.382812 458.371094 562.066406 458.566406 C 561.234375 458.605469 558.808594 468.785156 558.101562 470.746094 C 557.601562 468.316406 556.804688 462.585938 554.164062 461.410156 C 552.285156 460.585938 553.582031 467.890625 553.671875 468.59375 C 554.761719 477.113281 552.351562 484.113281 547.621094 491.417969 C 547.742188 490.171875 549.125 479.71875 546.921875 479.554688 C 545.035156 479.457031 543.472656 487.125 543.199219 488.140625 C 539.964844 484.59375 535.574219 483.101562 538.386719 489.328125 C 539.070312 490.847656 540.332031 492.566406 540.539062 494.289062 C 541.019531 498.101562 539.253906 501.101562 538.988281 504.886719 C 538.585938 510.707031 526.210938 519.664062 521.078125 524.027344 C 517.117188 527.484375 513.039062 530.773438 508.796875 533.871094 C 510.117188 530.964844 510.179688 527.917969 512.8125 526.292969 C 516.242188 524.167969 518.710938 520.796875 521.394531 517.898438 C 523.605469 515.507812 539.941406 498.589844 537.539062 496.429688 C 536.203125 495.195312 528.722656 503.328125 527.910156 504.113281 C 529.089844 498.109375 527.832031 492.816406 523.902344 500.671875 C 521.578125 505.3125 520.957031 511.0625 517.679688 514.328125 C 517.890625 513.191406 517.816406 510.464844 517 510.171875 C 514.652344 509.3125 512.523438 514.894531 511.777344 516.347656 C 511.636719 514.164062 511.5 511.984375 511.363281 509.800781 C 513.429688 508.820312 515.140625 506.722656 516.636719 505.0625 C 519.769531 501.589844 522.527344 497.695312 525.070312 493.820312 C 526.632812 491.4375 537.121094 472.113281 534.324219 471.363281 C 532.503906 470.847656 523.804688 486.585938 522.632812 488.472656 C 522.84375 487.359375 524.632812 479.394531 522.121094 479.5625 C 520.34375 479.636719 515.46875 494.230469 513.960938 496.664062 C 514.304688 495.160156 517.207031 485.140625 515.082031 484.53125 C 513.289062 484.074219 511.429688 489.710938 511.085938 490.582031 C 511.308594 488.464844 514.351562 471.570312 512.6875 471.289062 C 510.769531 470.964844 507.609375 489.84375 507.253906 492.140625 C 506.179688 490.199219 498.484375 479.273438 495.921875 480.425781 C 494.503906 481.101562 501.011719 490.714844 501.558594 491.585938 C 504.0625 495.578125 504.628906 499.636719 505.15625 504.402344 C 506.34375 515.679688 508.613281 526.53125 500.496094 537.085938 C 500.972656 534.664062 500.378906 532.183594 500.820312 529.859375 C 502.246094 528.085938 502.695312 525.460938 503.066406 523.386719 C 503.597656 520.433594 503.734375 508.269531 500.285156 508.035156 C 498.820312 507.933594 498.335938 519.742188 498.214844 521.058594 C 497.710938 519.648438 492.738281 505.859375 490.160156 507.371094 C 489.324219 507.820312 492.117188 513.8125 492.363281 514.4375 C 491.933594 513.988281 488.601562 509.945312 487.535156 510.648438 C 485.921875 511.742188 493.851562 527.746094 495.667969 529.1875 C 499 543.058594 482.566406 550.535156 472.484375 555.816406 C 458.738281 563.019531 444.605469 569.285156 430.660156 576.023438 C 422.523438 579.957031 414.453125 584.089844 406.6875 588.800781 C 402.777344 591.175781 391.460938 596.34375 389.8125 601.070312 C 389.878906 600.886719 403.027344 595.457031 404.140625 594.929688 C 410.992188 591.695312 417.867188 588.515625 424.769531 585.394531 C 439.695312 578.648438 454.761719 572.246094 469.484375 564.984375 C 476.5 561.527344 483.4375 557.878906 490.230469 553.957031 C 494.46875 551.507812 501.417969 553.175781 506.082031 554.371094 C 507.121094 554.640625 519.722656 557.503906 518.34375 554.761719 C 516.109375 550.316406 505.710938 548.242188 501.097656 547.335938 C 503.917969 544.644531 511.847656 543.5 513.738281 545.980469 C 516.125 549.113281 519.566406 551.492188 523.222656 553.082031 C 524.140625 553.480469 537.222656 557.207031 535.332031 554.128906 C 532.527344 549.554688 525.230469 547.894531 521.273438 544.257812 C 522.789062 544.289062 538.296875 546.972656 539.171875 545.863281 C 542.488281 541.765625 517.238281 538.992188 514.921875 539.09375 C 520.515625 537.101562 526.035156 534.878906 531.625 532.871094 C 532.429688 535.054688 534.582031 536.136719 535.609375 538.144531 C 536.835938 540.53125 539.25 542.183594 541.300781 543.816406 C 543.335938 545.4375 550.566406 555.582031 552.179688 554.722656 C 555.570312 552.917969 550.746094 546.179688 549.703125 544.535156 C 552.53125 545.851562 552.125 548.351562 549.703125 544.535156 Z M 549.703125 544.535156 " fill-opacity="1" fill-rule="nonzero"/><path fill="rgb(16.079712%, 40.388489%, 9.408569%)" d="M 487.535156 510.648438 C 487.449219 510.703125 487.410156 510.730469 487.535156 510.648438 Z M 487.535156 510.648438 " fill-opacity="1" fill-rule="nonzero"/><path fill="rgb(100%, 49.01886%, 1.959229%)" d="M 454.332031 601.960938 C 453.195312 588.089844 447.382812 562.238281 433.425781 556.265625 C 415.761719 548.707031 395.996094 562.648438 379.984375 571.089844 C 379.984375 571.09375 320.636719 602.394531 320.636719 602.394531 C 320.636719 602.394531 160.324219 674.597656 167.761719 694.128906 C 173.101562 714.480469 338.601562 658.46875 338.601562 658.46875 L 402.476562 641.28125 C 418.71875 638.179688 437.578125 633.835938 449.117188 620.171875 C 453.648438 614.8125 454.863281 608.53125 454.332031 601.960938 Z M 454.332031 601.960938 " fill-opacity="1" fill-rule="nonzero"/><path fill="rgb(100%, 58.428955%, 24.308777%)" d="M 443.367188 608.5 C 444.3125 607.480469 449.589844 594.988281 445.320312 596.363281 C 445.386719 596.339844 445.457031 596.320312 445.3125 596.363281 C 445.167969 596.410156 445.238281 596.390625 445.3125 596.367188 C 444.789062 596.542969 442.910156 602.46875 442.28125 603.222656 C 440.617188 605.222656 438.296875 606.621094 436.003906 607.753906 C 430.5625 610.449219 424.570312 611.917969 418.769531 613.175781 C 406.835938 615.769531 394.980469 617.703125 383.136719 621.035156 C 378.011719 622.480469 319.558594 640.460938 320.699219 645.402344 C 321.59375 649.3125 379.632812 630.621094 384.726562 629.21875 C 398.277344 625.488281 412.296875 623.289062 425.644531 618.644531 C 431.925781 616.457031 438.699219 613.546875 443.367188 608.5 Z M 443.367188 608.5 " fill-opacity="1" fill-rule="nonzero"/><path fill="rgb(100%, 58.428955%, 24.308777%)" d="M 435.984375 575.203125 C 437.511719 576.332031 444.339844 585.039062 445.773438 584.3125 C 449.15625 582.601562 440.4375 570.714844 439.421875 569.613281 C 435.285156 565.546875 429.746094 563.777344 423.835938 563.0625 C 415.363281 562.425781 406.667969 565.1875 398.691406 568.753906 C 392.558594 571.492188 386.414062 574.3125 380.625 577.808594 C 380.695312 577.945312 380.824219 577.925781 381.015625 577.75 C 362.136719 587.355469 343.035156 598.734375 323.628906 606.929688 C 304.609375 614.964844 285.730469 623.34375 267.101562 632.386719 C 260.210938 635.730469 178.152344 678.550781 183.460938 685.230469 C 183.390625 685.144531 183.320312 685.058594 183.460938 685.230469 C 183.601562 685.410156 183.535156 685.324219 183.460938 685.234375 C 185.070312 687.238281 210.839844 672.148438 214.421875 670.410156 C 225.582031 665.058594 236.734375 659.714844 247.980469 654.5625 C 273.378906 642.933594 298.941406 631.699219 324.617188 620.8125 C 342.074219 613.414062 358.773438 604.117188 375.175781 594.414062 C 389.035156 586.21875 404.1875 574.085938 420.164062 571.804688 C 425.804688 571 431.660156 572.011719 435.984375 575.203125 Z M 435.984375 575.203125 " fill-opacity="1" fill-rule="nonzero"/><path fill="rgb(75.689697%, 34.118652%, 0%)" d="M 167.230469 690.191406 C 167.1875 690.070312 167.160156 689.949219 167.121094 689.832031 C 167.101562 689.773438 167.082031 689.722656 167.0625 689.667969 C 167.121094 689.84375 167.175781 690.019531 167.230469 690.191406 Z M 167.230469 690.191406 " fill-opacity="1" fill-rule="nonzero"/><path fill="rgb(75.689697%, 34.118652%, 0%)" d="M 178.351562 685.445312 C 178.355469 685.488281 178.371094 685.550781 178.398438 685.621094 C 178.398438 685.617188 178.398438 685.609375 178.402344 685.601562 C 178.390625 685.546875 178.371094 685.503906 178.351562 685.445312 Z M 178.351562 685.445312 " fill-opacity="1" fill-rule="nonzero"/><path fill="rgb(75.689697%, 34.118652%, 0%)" d="M 463.59375 591.070312 C 461.1875 575.734375 455.390625 553.921875 439.597656 547.71875 C 427.386719 542.933594 413.382812 548.5625 402.019531 555.417969 C 417.5625 548.867188 436.042969 545.167969 445.128906 559.753906 C 451.722656 570.273438 454.554688 584.835938 454.570312 597.621094 C 454.757812 602.332031 453.164062 607.117188 449.871094 610.902344 C 449.941406 610.824219 450.003906 610.742188 450.066406 610.664062 C 441.144531 620.058594 428.777344 624.042969 416.730469 626.597656 C 402.210938 629.675781 387.8125 633.429688 373.359375 637.144531 C 366.519531 638.90625 359.679688 640.667969 352.84375 642.449219 C 349.753906 643.257812 346.660156 644.066406 343.570312 644.875 C 343.113281 644.996094 338.789062 646.433594 341.8125 645.148438 C 326.414062 650.203125 310.960938 655.039062 295.484375 659.769531 C 275.78125 665.792969 256.015625 671.574219 236.132812 676.6875 C 217.460938 681.484375 196.941406 687.644531 178.347656 685.210938 C 178.894531 681.214844 189.300781 674.109375 191.695312 672.261719 C 197.726562 667.59375 204.058594 663.335938 210.425781 659.160156 C 220.847656 652.3125 231.523438 645.867188 242.261719 639.566406 C 255.359375 631.878906 268.523438 624.308594 281.683594 616.730469 C 261.207031 624.953125 241.042969 634.246094 221.265625 644.277344 C 208.777344 650.574219 196.3125 657.390625 184.765625 665.425781 C 177.402344 670.554688 163.984375 679.917969 167.121094 689.832031 C 170.753906 700.886719 188.261719 698.628906 197.878906 697.59375 C 215.1875 695.738281 232.488281 691.808594 249.570312 687.570312 C 274.011719 681.496094 298.351562 674.371094 322.441406 666.554688 C 351.515625 657.113281 380.65625 649.132812 410.082031 640.597656 C 409.425781 640.828125 408.765625 641.054688 408.105469 641.285156 C 435.316406 635.570312 468.628906 623.09375 463.59375 591.070312 Z M 178.320312 685.824219 C 178.304688 685.691406 178.328125 685.539062 178.339844 685.402344 C 178.339844 685.414062 178.347656 685.425781 178.351562 685.445312 C 178.332031 685.234375 178.488281 685.289062 178.402344 685.601562 C 178.433594 685.695312 178.460938 685.773438 178.457031 685.777344 C 178.429688 685.714844 178.414062 685.671875 178.398438 685.621094 C 178.378906 685.683594 178.355469 685.746094 178.320312 685.824219 Z M 178.320312 685.824219 " fill-opacity="1" fill-rule="nonzero"/><path fill="rgb(75.689697%, 34.118652%, 0%)" d="M 436.800781 607.113281 C 432.679688 608.746094 430.859375 595.355469 433.765625 596.464844 C 435.792969 597.238281 440.316406 605.710938 436.800781 607.113281 C 435.636719 607.570312 437.941406 606.65625 436.800781 607.113281 Z M 436.800781 607.113281 " fill-opacity="1" fill-rule="nonzero"/><path fill="rgb(75.689697%, 34.118652%, 0%)" d="M 418.175781 596.691406 C 415.597656 597.167969 411.046875 573.984375 413.527344 573.007812 C 417.203125 571.554688 422.144531 595.980469 418.175781 596.691406 C 416.9375 596.921875 419.335938 596.484375 418.175781 596.691406 Z M 418.175781 596.691406 " fill-opacity="1" fill-rule="nonzero"/><path fill="rgb(75.689697%, 34.118652%, 0%)" d="M 407.949219 629.003906 C 404.617188 631.144531 397.214844 606.890625 401.574219 605.445312 C 404.105469 604.601562 409.726562 627.875 407.949219 629.003906 C 407.445312 629.324219 408.496094 628.65625 407.949219 629.003906 Z M 407.949219 629.003906 " fill-opacity="1" fill-rule="nonzero"/><path fill="rgb(75.689697%, 34.118652%, 0%)" d="M 382.078125 606.980469 C 378.292969 608.464844 374.417969 590.421875 377.242188 590.066406 C 380.539062 589.636719 384.820312 605.917969 382.078125 606.980469 C 380.929688 607.433594 383.238281 606.527344 382.078125 606.980469 Z M 382.078125 606.980469 " fill-opacity="1" fill-rule="nonzero"/><path fill="rgb(75.689697%, 34.118652%, 0%)" d="M 363.214844 628.855469 C 359.855469 630.808594 353.464844 610.203125 357.425781 608.953125 C 359.898438 608.167969 365.503906 627.550781 363.214844 628.855469 C 362.6875 629.164062 363.769531 628.535156 363.214844 628.855469 Z M 363.214844 628.855469 " fill-opacity="1" fill-rule="nonzero"/><path fill="rgb(75.689697%, 34.118652%, 0%)" d="M 331.066406 622.101562 C 327.992188 623.308594 322.933594 607.550781 326.015625 606.339844 C 329.089844 605.128906 334.144531 620.890625 331.066406 622.101562 C 329.914062 622.554688 332.21875 621.644531 331.066406 622.101562 Z M 331.066406 622.101562 " fill-opacity="1" fill-rule="nonzero"/><path fill="rgb(75.689697%, 34.118652%, 0%)" d="M 326.253906 645.613281 C 323.199219 648.265625 318.359375 634.828125 319.699219 631.953125 C 320.441406 630.355469 329.582031 642.753906 326.253906 645.613281 C 325.304688 646.433594 327.253906 644.753906 326.253906 645.613281 Z M 326.253906 645.613281 " fill-opacity="1" fill-rule="nonzero"/><path fill="rgb(75.689697%, 34.118652%, 0%)" d="M 302.785156 642.105469 C 298.785156 643.722656 296.75 625.148438 299.832031 625.550781 C 302.644531 625.914062 305.683594 640.917969 302.785156 642.105469 C 302.210938 642.332031 303.359375 641.871094 302.785156 642.105469 Z M 302.785156 642.105469 " fill-opacity="1" fill-rule="nonzero"/><path fill="rgb(75.689697%, 34.118652%, 0%)" d="M 279.832031 662.222656 C 276.128906 664.574219 267.722656 639.671875 272.257812 638.585938 C 274.339844 638.070312 281.777344 661.003906 279.832031 662.222656 C 279.320312 662.546875 280.378906 661.882812 279.832031 662.222656 Z M 279.832031 662.222656 " fill-opacity="1" fill-rule="nonzero"/><path fill="rgb(75.689697%, 34.118652%, 0%)" d="M 255.769531 673.359375 C 251.246094 675.496094 248.722656 657.898438 249.976562 655.121094 C 251.414062 651.957031 253.464844 660.1875 253.683594 660.917969 C 254.078125 662.269531 258.042969 672.296875 255.769531 673.359375 C 254.6875 673.867188 256.933594 672.8125 255.769531 673.359375 Z M 255.769531 673.359375 " fill-opacity="1" fill-rule="nonzero"/><path fill="rgb(75.689697%, 34.118652%, 0%)" d="M 237.191406 661.261719 C 233.84375 662.5625 232.5625 654.3125 233.941406 652.277344 C 235.835938 649.472656 241.085938 659.753906 237.191406 661.261719 C 236.046875 661.707031 238.359375 660.808594 237.191406 661.261719 Z M 237.191406 661.261719 " fill-opacity="1" fill-rule="nonzero"/><path fill="rgb(75.689697%, 34.118652%, 0%)" d="M 217.226562 685.199219 C 214.03125 687.433594 209.128906 673.527344 213.125 672.394531 C 215.667969 671.667969 219.355469 683.71875 217.226562 685.199219 C 216.726562 685.550781 217.75 684.835938 217.226562 685.199219 Z M 217.226562 685.199219 " fill-opacity="1" fill-rule="nonzero"/><path fill="rgb(75.689697%, 34.118652%, 0%)" d="M 198.625 685.867188 C 195.636719 687.042969 192.117188 676.226562 195.152344 675.03125 C 198.136719 673.855469 201.664062 684.667969 198.625 685.867188 C 197.46875 686.320312 199.777344 685.410156 198.625 685.867188 Z M 198.625 685.867188 " fill-opacity="1" fill-rule="nonzero"/></svg>