<svg xmlns="http://www.w3.org/2000/svg" xmlns:xlink="http://www.w3.org/1999/xlink" width="750" zoomAndPan="magnify" viewBox="0 0 750 1124.99995" height="1124.99995" preserveAspectRatio="xMidYMid meet" version="1.0"><path fill="rgb(55.688477%, 67.059326%, 48.239136%)" d="M 232.050781 347.792969 C 225.066406 352.113281 218.367188 356.890625 212.023438 362.074219 C 218.492188 357.121094 225.269531 352.535156 232.28125 348.320312 C 232.203125 348.144531 232.128906 347.96875 232.050781 347.792969 Z M 232.050781 347.792969 " fill-opacity="1" fill-rule="nonzero"/><path fill="rgb(55.688477%, 67.059326%, 48.239136%)" d="M 346.597656 236.304688 C 345.554688 262.65625 344.828125 289.070312 344.382812 315.472656 C 346.042969 315.433594 347.703125 315.414062 349.367188 315.40625 Z M 346.597656 236.304688 " fill-opacity="1" fill-rule="nonzero"/><path fill="rgb(55.688477%, 67.059326%, 48.239136%)" d="M 491.371094 352.59375 C 496.4375 356.03125 501.359375 359.636719 506.128906 363.390625 L 517.507812 305.417969 C 517.222656 305.484375 516.933594 305.53125 516.644531 305.53125 C 515.382812 305.53125 514.148438 304.890625 513.449219 303.726562 C 512.269531 301.777344 511.132812 299.785156 510.019531 297.785156 C 506.90625 306.488281 503.820312 315.1875 500.785156 323.863281 C 497.492188 333.277344 494.382812 342.996094 491.371094 352.59375 Z M 491.371094 352.59375 " fill-opacity="1" fill-rule="nonzero"/><path fill="rgb(55.688477%, 67.059326%, 48.239136%)" d="M 273.898438 328.570312 L 273.851562 328.417969 C 265.992188 330.96875 258.292969 334.035156 250.816406 337.585938 C 250.84375 337.8125 250.871094 338.042969 250.898438 338.273438 C 258.402344 334.648438 266.085938 331.410156 273.898438 328.570312 Z M 273.898438 328.570312 " fill-opacity="1" fill-rule="nonzero"/><path fill="rgb(55.688477%, 67.059326%, 48.239136%)" d="M 245.585938 340.925781 C 245.554688 340.683594 245.527344 340.445312 245.496094 340.203125 C 242.589844 341.695312 239.71875 343.257812 236.890625 344.894531 C 236.976562 345.09375 237.0625 345.289062 237.152344 345.484375 C 239.929688 343.90625 242.742188 342.386719 245.585938 340.925781 Z M 245.585938 340.925781 " fill-opacity="1" fill-rule="nonzero"/><path fill="rgb(55.688477%, 67.059326%, 48.239136%)" d="M 369.359375 316.0625 C 374.046875 293.703125 378.5625 271.289062 382.898438 248.890625 C 381.460938 248.765625 380.035156 248.570312 378.617188 248.300781 C 378.707031 248.605469 378.777344 248.917969 378.792969 249.246094 C 378.882812 251.308594 377.28125 253.042969 375.226562 253.132812 C 371.492188 253.292969 367.789062 254.332031 364.519531 256.136719 C 363.949219 256.453125 363.328125 256.601562 362.71875 256.601562 C 361.402344 256.601562 360.128906 255.90625 359.449219 254.675781 C 358.453125 252.871094 359.105469 250.605469 360.910156 249.609375 C 364.046875 247.875 367.492188 246.6875 371.027344 246.09375 C 371.011719 246.085938 370.996094 246.082031 370.976562 246.074219 C 364.011719 243.199219 358.183594 238.285156 352.109375 233.769531 L 354.96875 315.429688 C 359.765625 315.511719 364.566406 315.722656 369.359375 316.0625 Z M 369.359375 316.0625 " fill-opacity="1" fill-rule="nonzero"/><path fill="rgb(55.688477%, 67.059326%, 48.239136%)" d="M 563.265625 427.339844 C 568.34375 405.085938 573.847656 382.894531 579.757812 360.84375 C 580.460938 354.027344 580.851562 347.179688 580.421875 340.429688 C 568.664062 361.546875 557.832031 383.199219 547.957031 405.265625 C 553.484375 412.335938 558.59375 419.707031 563.265625 427.339844 Z M 563.265625 427.339844 " fill-opacity="1" fill-rule="nonzero"/><path fill="rgb(55.688477%, 67.059326%, 48.239136%)" d="M 479.765625 345.171875 C 482.039062 346.546875 484.292969 347.941406 486.515625 349.378906 C 489.390625 340.242188 492.359375 331 495.503906 322.015625 C 499.097656 311.738281 502.765625 301.429688 506.460938 291.121094 C 505.488281 289.207031 504.535156 287.285156 503.628906 285.355469 C 502.753906 283.488281 503.558594 281.269531 505.421875 280.394531 C 505.585938 280.316406 505.757812 280.269531 505.925781 280.214844 C 504.300781 276.84375 503.109375 273.199219 501.839844 269.664062 C 500.164062 265.007812 498.15625 260.34375 495.714844 255.976562 L 486.292969 311.28125 C 484.390625 322.453125 482.046875 333.984375 479.765625 345.171875 Z M 479.765625 345.171875 " fill-opacity="1" fill-rule="nonzero"/><path fill="rgb(55.688477%, 67.059326%, 48.239136%)" d="M 544.03125 400.375 C 554.695312 376.761719 566.433594 353.609375 579.234375 331.09375 C 578.886719 329.332031 578.46875 327.582031 577.960938 325.847656 C 575.238281 316.578125 569.601562 307.988281 561.78125 302.425781 C 553.632812 333.199219 546.316406 364.28125 539.867188 395.46875 C 541.277344 397.089844 542.667969 398.722656 544.03125 400.375 Z M 544.03125 400.375 " fill-opacity="1" fill-rule="nonzero"/><path fill="rgb(55.688477%, 67.059326%, 48.239136%)" d="M 390.621094 318.382812 C 391.800781 295.195312 392.554688 271.96875 392.835938 248.773438 C 391.410156 248.917969 389.992188 249.007812 388.578125 249.046875 C 384.230469 271.542969 379.691406 294.050781 374.988281 316.503906 C 380.21875 316.980469 385.433594 317.617188 390.621094 318.382812 Z M 390.621094 318.382812 " fill-opacity="1" fill-rule="nonzero"/><path fill="rgb(55.688477%, 67.059326%, 48.239136%)" d="M 535.226562 390.285156 C 541.597656 359.835938 548.792969 329.5 556.777344 299.457031 C 555.753906 298.957031 554.707031 298.496094 553.625 298.097656 C 541.523438 323.492188 530.753906 349.570312 520.671875 375.761719 C 525.742188 380.414062 530.59375 385.261719 535.226562 390.285156 Z M 535.226562 390.285156 " fill-opacity="1" fill-rule="nonzero"/><path fill="rgb(55.688477%, 67.059326%, 48.239136%)" d="M 516.214844 371.765625 C 526.003906 346.433594 536.449219 321.203125 548.148438 296.578125 C 540.714844 295.160156 532.726562 295.757812 525.351562 294.5 L 511.050781 367.371094 C 512.792969 368.8125 514.515625 370.28125 516.214844 371.765625 Z M 516.214844 371.765625 " fill-opacity="1" fill-rule="nonzero"/><path fill="rgb(55.688477%, 67.059326%, 48.239136%)" d="M 519.917969 293.128906 C 518.058594 292.480469 516.257812 291.644531 514.550781 290.511719 C 515.941406 293.140625 517.398438 295.734375 518.90625 298.285156 Z M 519.917969 293.128906 " fill-opacity="1" fill-rule="nonzero"/><path fill="rgb(55.688477%, 67.059326%, 48.239136%)" d="M 436.328125 328.855469 C 437.613281 329.257812 438.886719 329.679688 440.160156 330.101562 C 440.207031 329.929688 440.246094 329.757812 440.316406 329.59375 C 440.679688 328.738281 441.328125 328.101562 442.097656 327.714844 C 444.820312 296.195312 447.972656 264.65625 451.511719 233.230469 C 448.875 233.546875 446.222656 234.023438 443.582031 234.609375 L 414.367188 322.886719 C 421.808594 324.609375 429.148438 326.589844 436.328125 328.855469 Z M 436.328125 328.855469 " fill-opacity="1" fill-rule="nonzero"/><path fill="rgb(55.688477%, 67.059326%, 48.239136%)" d="M 408.871094 321.675781 L 437.148438 236.230469 C 432.785156 237.464844 428.480469 238.910156 424.320312 240.390625 C 415.976562 243.363281 407.1875 246.410156 398.421875 247.988281 C 398.144531 271.734375 397.398438 295.511719 396.183594 319.25 C 400.441406 319.953125 404.667969 320.785156 408.871094 321.675781 Z M 408.871094 321.675781 " fill-opacity="1" fill-rule="nonzero"/><path fill="rgb(55.688477%, 67.059326%, 48.239136%)" d="M 571.921875 442.746094 C 572.300781 442.175781 572.675781 441.605469 573.019531 441.03125 C 580.070312 429.316406 582.277344 415.308594 584.417969 401.761719 C 584.589844 400.652344 585.25 399.753906 586.132812 399.199219 C 582.960938 395.554688 580.074219 391.785156 578.6875 387.242188 C 574.722656 402.914062 570.960938 418.644531 567.421875 434.402344 C 568.972656 437.152344 570.480469 439.933594 571.921875 442.746094 Z M 571.921875 442.746094 " fill-opacity="1" fill-rule="nonzero"/><path fill="rgb(55.688477%, 67.059326%, 48.239136%)" d="M 474.664062 342.175781 C 476.816406 331.617188 478.992188 320.804688 480.777344 310.34375 L 491.222656 249.023438 C 490.496094 248.0625 489.738281 247.128906 488.953125 246.226562 C 479.046875 275.535156 469.691406 305.113281 460.949219 334.824219 C 465.613281 337.144531 470.179688 339.605469 474.664062 342.175781 Z M 474.664062 342.175781 " fill-opacity="1" fill-rule="nonzero"/><path fill="rgb(55.688477%, 67.059326%, 48.239136%)" d="M 455.84375 332.34375 C 464.792969 301.984375 474.363281 271.75 484.519531 241.8125 C 482.390625 239.984375 480.082031 238.367188 477.546875 237.050781 C 471.175781 233.742188 464.269531 232.617188 457.191406 232.816406 C 453.59375 264.691406 450.402344 296.683594 447.644531 328.65625 C 450.402344 329.847656 453.140625 331.070312 455.84375 332.34375 Z M 455.84375 332.34375 " fill-opacity="1" fill-rule="nonzero"/><path fill="rgb(55.688477%, 67.059326%, 48.239136%)" d="M 204.296875 358.792969 C 195.15625 328.140625 187.503906 297.035156 181.378906 265.648438 C 180.609375 265.753906 179.824219 265.917969 179.023438 266.152344 C 168.921875 269.089844 164.679688 281.195312 165.023438 291.144531 C 165.066406 292.332031 165.171875 293.488281 165.339844 294.597656 C 167.101562 306.082031 173.730469 316.125 179.523438 326.199219 C 182.019531 330.535156 184.410156 335.097656 186.210938 339.800781 C 190.664062 347.535156 195.058594 355.308594 199.40625 363.117188 C 201.015625 361.652344 202.640625 360.207031 204.296875 358.792969 Z M 204.296875 358.792969 " fill-opacity="1" fill-rule="nonzero"/><path fill="rgb(55.688477%, 67.059326%, 48.239136%)" d="M 206.476562 276.386719 C 206.152344 276.226562 205.824219 276.0625 205.5 275.890625 C 205.746094 276.417969 206 276.941406 206.25 277.46875 C 206.269531 277.105469 206.34375 276.742188 206.476562 276.386719 Z M 206.476562 276.386719 " fill-opacity="1" fill-rule="nonzero"/><path fill="rgb(55.688477%, 67.059326%, 48.239136%)" d="M 236.859375 283.058594 C 236.78125 285.066406 235.125 286.640625 233.132812 286.640625 C 233.085938 286.640625 233.035156 286.640625 232.988281 286.640625 C 224.519531 286.304688 216.277344 284.445312 208.492188 281.105469 C 208.238281 280.996094 208.003906 280.859375 207.789062 280.707031 C 216.746094 299.746094 225.410156 318.914062 233.875 338.042969 C 237.371094 336.039062 240.925781 334.136719 244.539062 332.347656 C 242.039062 310.34375 240.136719 288.257812 238.839844 266.148438 C 236.523438 267.941406 234.179688 269.699219 231.796875 271.394531 C 228.429688 273.785156 224.746094 276.101562 220.867188 277.410156 C 224.917969 278.414062 229.066406 279.019531 233.277344 279.183594 C 235.339844 279.265625 236.941406 281 236.859375 283.058594 Z M 236.859375 283.058594 " fill-opacity="1" fill-rule="nonzero"/><path fill="rgb(55.688477%, 67.059326%, 48.239136%)" d="M 229.023438 340.910156 C 218.601562 317.347656 207.863281 293.746094 196.664062 270.390625 C 193.605469 268.445312 190.492188 266.703125 187.136719 265.929688 C 193.027344 295.910156 200.335938 325.621094 209 354.929688 C 215.367188 349.851562 222.058594 345.167969 229.023438 340.910156 Z M 229.023438 340.910156 " fill-opacity="1" fill-rule="nonzero"/><path fill="rgb(55.688477%, 67.059326%, 48.239136%)" d="M 317.070312 312.40625 L 299.191406 225.894531 C 298.996094 225.957031 298.800781 226.023438 298.605469 226.089844 C 298.640625 255.464844 299.121094 284.945312 300.039062 314.402344 C 305.6875 313.476562 311.371094 312.804688 317.070312 312.40625 Z M 317.070312 312.40625 " fill-opacity="1" fill-rule="nonzero"/><path fill="rgb(55.688477%, 67.059326%, 48.239136%)" d="M 325.179688 315.703125 C 325.195312 316.050781 325.148438 316.382812 325.074219 316.707031 C 329.625 316.226562 334.199219 315.878906 338.789062 315.660156 C 339.285156 286.089844 340.144531 256.503906 341.386719 227 C 330.003906 221.480469 317.046875 221.28125 304.582031 224.347656 L 322.789062 312.417969 C 324.097656 312.945312 325.109375 314.191406 325.179688 315.703125 Z M 325.179688 315.703125 " fill-opacity="1" fill-rule="nonzero"/><path fill="rgb(55.688477%, 67.059326%, 48.239136%)" d="M 186.375 376.222656 C 189.210938 373.066406 192.160156 370.015625 195.210938 367.0625 C 193.257812 363.550781 191.296875 360.046875 189.324219 356.550781 C 189.285156 357.386719 189.226562 358.21875 189.121094 359.058594 C 188.703125 362.414062 187.730469 365.753906 186.589844 369.074219 C 186.691406 371.46875 186.578125 373.84375 186.375 376.222656 Z M 186.375 376.222656 " fill-opacity="1" fill-rule="nonzero"/><path fill="rgb(55.688477%, 67.059326%, 48.239136%)" d="M 294.464844 315.402344 C 293.546875 286.296875 293.074219 257.171875 293.023438 228.140625 C 289.226562 229.703125 285.546875 231.519531 282.050781 233.535156 C 273.328125 238.574219 265.347656 244.695312 257.511719 251.042969 L 277.148438 319.601562 C 282.859375 317.933594 288.640625 316.535156 294.464844 315.402344 Z M 294.464844 315.402344 " fill-opacity="1" fill-rule="nonzero"/><path fill="rgb(55.688477%, 67.059326%, 48.239136%)" d="M 271.800781 321.25 L 252.796875 254.894531 C 249.9375 257.238281 247.085938 259.59375 244.207031 261.910156 C 245.464844 284.578125 247.351562 307.226562 249.875 329.789062 C 257.011719 326.511719 264.339844 323.664062 271.800781 321.25 Z M 271.800781 321.25 " fill-opacity="1" fill-rule="nonzero"/><path fill="rgb(81.17981%, 87.059021%, 53.729248%)" d="M 460.945312 334.824219 C 469.6875 305.113281 479.042969 275.535156 488.953125 246.226562 C 487.574219 244.644531 486.101562 243.167969 484.519531 241.8125 C 474.363281 271.75 464.792969 301.984375 455.84375 332.347656 C 457.554688 333.15625 459.257812 333.980469 460.945312 334.824219 Z M 460.945312 334.824219 " fill-opacity="1" fill-rule="nonzero"/><path fill="rgb(81.17981%, 87.059021%, 53.729248%)" d="M 344.382812 315.472656 C 344.828125 289.070312 345.554688 262.65625 346.597656 236.304688 L 349.367188 315.40625 C 351.234375 315.394531 353.101562 315.398438 354.96875 315.429688 L 352.109375 233.769531 C 348.914062 231.394531 345.652344 229.132812 342.121094 227.335938 C 341.878906 227.214844 341.628906 227.121094 341.386719 227.003906 C 340.144531 256.503906 339.285156 286.089844 338.789062 315.660156 C 340.648438 315.570312 342.515625 315.519531 344.382812 315.472656 Z M 344.382812 315.472656 " fill-opacity="1" fill-rule="nonzero"/><path fill="rgb(81.17981%, 87.059021%, 53.729248%)" d="M 249.875 329.789062 C 247.351562 307.230469 245.464844 284.578125 244.207031 261.910156 C 242.429688 263.339844 240.640625 264.753906 238.839844 266.148438 C 240.136719 288.257812 242.039062 310.347656 244.539062 332.347656 C 246.304688 331.472656 248.082031 330.613281 249.875 329.789062 Z M 249.875 329.789062 " fill-opacity="1" fill-rule="nonzero"/><path fill="rgb(81.17981%, 87.059021%, 53.729248%)" d="M 277.871094 327.167969 C 276.527344 327.570312 275.1875 327.988281 273.855469 328.417969 L 273.898438 328.570312 C 275.21875 328.089844 276.542969 327.625 277.871094 327.167969 Z M 277.871094 327.167969 " fill-opacity="1" fill-rule="nonzero"/><path fill="rgb(81.17981%, 87.059021%, 53.729248%)" d="M 300.039062 314.402344 C 299.121094 284.941406 298.636719 255.464844 298.605469 226.085938 C 296.722656 226.710938 294.855469 227.386719 293.023438 228.140625 C 293.074219 257.171875 293.546875 286.296875 294.464844 315.402344 C 296.316406 315.042969 298.175781 314.707031 300.039062 314.402344 Z M 300.039062 314.402344 " fill-opacity="1" fill-rule="nonzero"/><path fill="rgb(81.17981%, 87.059021%, 53.729248%)" d="M 374.988281 316.503906 C 379.691406 294.050781 384.230469 271.542969 388.578125 249.046875 C 386.671875 249.101562 384.78125 249.050781 382.898438 248.890625 C 378.5625 271.289062 374.046875 293.703125 369.359375 316.0625 C 371.238281 316.195312 373.113281 316.332031 374.988281 316.503906 Z M 374.988281 316.503906 " fill-opacity="1" fill-rule="nonzero"/><path fill="rgb(81.17981%, 87.059021%, 53.729248%)" d="M 500.785156 323.863281 C 503.820312 315.183594 506.90625 306.488281 510.015625 297.785156 C 508.792969 295.585938 507.605469 293.363281 506.460938 291.121094 C 502.761719 301.429688 499.097656 311.738281 495.503906 322.015625 C 492.359375 331.003906 489.390625 340.242188 486.515625 349.378906 C 488.148438 350.433594 489.765625 351.507812 491.371094 352.59375 C 494.382812 342.996094 497.492188 333.277344 500.785156 323.863281 Z M 500.785156 323.863281 " fill-opacity="1" fill-rule="nonzero"/><path fill="rgb(81.17981%, 87.059021%, 53.729248%)" d="M 277.148438 319.601562 L 257.515625 251.042969 C 255.9375 252.320312 254.363281 253.605469 252.796875 254.894531 L 271.800781 321.25 C 273.578125 320.675781 275.359375 320.125 277.148438 319.601562 Z M 277.148438 319.601562 " fill-opacity="1" fill-rule="nonzero"/><path fill="rgb(81.17981%, 87.059021%, 53.729248%)" d="M 414.363281 322.886719 L 443.578125 234.609375 C 441.425781 235.082031 439.28125 235.625 437.148438 236.230469 L 408.871094 321.675781 C 410.707031 322.0625 412.539062 322.460938 414.363281 322.886719 Z M 414.363281 322.886719 " fill-opacity="1" fill-rule="nonzero"/><path fill="rgb(81.17981%, 87.059021%, 53.729248%)" d="M 547.960938 405.265625 C 557.832031 383.199219 568.667969 361.546875 580.425781 340.429688 C 580.226562 337.289062 579.847656 334.175781 579.238281 331.09375 C 566.433594 353.609375 554.695312 376.761719 544.03125 400.375 C 545.359375 401.992188 546.671875 403.617188 547.960938 405.265625 Z M 547.960938 405.265625 " fill-opacity="1" fill-rule="nonzero"/><path fill="rgb(81.17981%, 87.059021%, 53.729248%)" d="M 567.421875 434.402344 C 570.960938 418.640625 574.71875 402.914062 578.683594 387.238281 C 578.625 387.035156 578.550781 386.835938 578.492188 386.628906 C 577.171875 381.738281 577.828125 376.554688 578.480469 371.53125 C 578.941406 367.992188 579.390625 364.421875 579.757812 360.84375 C 573.847656 382.894531 568.34375 405.085938 563.265625 427.339844 C 564.691406 429.667969 566.078125 432.023438 567.421875 434.402344 Z M 567.421875 434.402344 " fill-opacity="1" fill-rule="nonzero"/><path fill="rgb(81.17981%, 87.059021%, 53.729248%)" d="M 445.203125 327.597656 C 446.019531 327.941406 446.828125 328.304688 447.640625 328.65625 C 450.398438 296.683594 453.589844 264.691406 457.191406 232.816406 C 455.304688 232.871094 453.414062 233.003906 451.511719 233.230469 C 447.972656 264.65625 444.816406 296.195312 442.097656 327.714844 C 443.039062 327.25 444.160156 327.164062 445.203125 327.597656 Z M 445.203125 327.597656 " fill-opacity="1" fill-rule="nonzero"/><path fill="rgb(81.17981%, 87.059021%, 53.729248%)" d="M 519.835938 299.875 C 520.902344 301.636719 520.332031 303.929688 518.570312 304.992188 C 518.230469 305.199219 517.871094 305.328125 517.507812 305.414062 L 506.128906 363.390625 C 507.789062 364.699219 509.425781 366.023438 511.050781 367.371094 L 525.351562 294.5 C 523.492188 294.183594 521.675781 293.746094 519.917969 293.128906 L 518.90625 298.28125 C 519.21875 298.8125 519.519531 299.351562 519.835938 299.875 Z M 519.835938 299.875 " fill-opacity="1" fill-rule="nonzero"/><path fill="rgb(81.17981%, 87.059021%, 53.729248%)" d="M 395.882812 319.195312 C 395.980469 319.210938 396.082031 319.234375 396.179688 319.25 C 397.398438 295.511719 398.144531 271.734375 398.421875 247.988281 C 396.554688 248.324219 394.695312 248.585938 392.835938 248.773438 C 392.554688 271.96875 391.800781 295.195312 390.621094 318.382812 C 392.375 318.644531 394.132812 318.902344 395.882812 319.195312 Z M 395.882812 319.195312 " fill-opacity="1" fill-rule="nonzero"/><path fill="rgb(81.17981%, 87.059021%, 53.729248%)" d="M 520.671875 375.761719 C 530.753906 349.570312 541.523438 323.492188 553.625 298.097656 C 552.695312 297.753906 551.75 297.441406 550.78125 297.179688 C 549.914062 296.949219 549.035156 296.75 548.148438 296.582031 C 536.449219 321.207031 526 346.433594 516.214844 371.769531 C 517.71875 373.082031 519.203125 374.414062 520.671875 375.761719 Z M 520.671875 375.761719 " fill-opacity="1" fill-rule="nonzero"/><path fill="rgb(81.17981%, 87.059021%, 53.729248%)" d="M 237.148438 345.484375 C 237.0625 345.289062 236.976562 345.09375 236.890625 344.894531 C 235.261719 345.839844 233.648438 346.800781 232.050781 347.789062 C 232.125 347.964844 232.203125 348.144531 232.28125 348.320312 C 233.894531 347.355469 235.515625 346.414062 237.148438 345.484375 Z M 237.148438 345.484375 " fill-opacity="1" fill-rule="nonzero"/><path fill="rgb(81.17981%, 87.059021%, 53.729248%)" d="M 233.875 338.042969 C 225.410156 318.914062 216.746094 299.742188 207.789062 280.707031 C 206.746094 279.957031 206.179688 278.726562 206.25 277.46875 C 206.003906 276.941406 205.75 276.417969 205.5 275.890625 C 202.492188 274.316406 199.601562 272.261719 196.664062 270.394531 C 207.863281 293.746094 218.601562 317.347656 229.023438 340.914062 C 230.625 339.929688 232.246094 338.976562 233.875 338.042969 Z M 233.875 338.042969 " fill-opacity="1" fill-rule="nonzero"/><path fill="rgb(81.17981%, 87.059021%, 53.729248%)" d="M 539.867188 395.46875 C 546.320312 364.28125 553.632812 333.199219 561.78125 302.425781 C 560.203125 301.304688 558.53125 300.308594 556.777344 299.457031 C 548.792969 329.5 541.597656 359.835938 535.226562 390.285156 C 536.800781 391.992188 538.347656 393.722656 539.867188 395.46875 Z M 539.867188 395.46875 " fill-opacity="1" fill-rule="nonzero"/><path fill="rgb(81.17981%, 87.059021%, 53.729248%)" d="M 474.664062 342.175781 C 476.378906 343.15625 478.078125 344.15625 479.765625 345.175781 C 482.046875 333.984375 484.390625 322.453125 486.292969 311.28125 L 495.714844 255.980469 C 494.359375 253.550781 492.871094 251.214844 491.222656 249.027344 L 480.777344 310.34375 C 478.992188 320.804688 476.816406 331.617188 474.664062 342.175781 Z M 474.664062 342.175781 " fill-opacity="1" fill-rule="nonzero"/><path fill="rgb(81.17981%, 87.059021%, 53.729248%)" d="M 321.28125 312.152344 C 321.800781 312.128906 322.3125 312.230469 322.789062 312.421875 L 304.582031 224.347656 C 302.769531 224.792969 300.972656 225.316406 299.1875 225.894531 L 317.070312 312.402344 C 318.472656 312.308594 319.875 312.214844 321.28125 312.152344 Z M 321.28125 312.152344 " fill-opacity="1" fill-rule="nonzero"/><path fill="rgb(81.17981%, 87.059021%, 53.729248%)" d="M 209 354.929688 C 200.335938 325.621094 193.023438 295.910156 187.132812 265.929688 C 185.300781 265.507812 183.390625 265.375 181.378906 265.652344 C 187.503906 297.039062 195.15625 328.140625 204.296875 358.796875 C 205.84375 357.480469 207.414062 356.195312 209 354.929688 Z M 209 354.929688 " fill-opacity="1" fill-rule="nonzero"/><path fill="rgb(81.17981%, 87.059021%, 53.729248%)" d="M 250.898438 338.273438 C 250.871094 338.042969 250.84375 337.8125 250.816406 337.585938 C 249.03125 338.429688 247.257812 339.300781 245.496094 340.203125 C 245.527344 340.445312 245.554688 340.683594 245.585938 340.925781 C 247.34375 340.019531 249.117188 339.136719 250.898438 338.273438 Z M 250.898438 338.273438 " fill-opacity="1" fill-rule="nonzero"/><path fill="rgb(81.17981%, 87.059021%, 53.729248%)" d="M 199.40625 363.117188 C 195.0625 355.304688 190.664062 347.53125 186.214844 339.800781 C 188.289062 345.226562 189.574219 350.847656 189.324219 356.550781 C 191.296875 360.046875 193.261719 363.550781 195.210938 367.0625 C 196.589844 365.726562 197.988281 364.410156 199.40625 363.117188 Z M 199.40625 363.117188 " fill-opacity="1" fill-rule="nonzero"/><path fill="rgb(80.778503%, 87.838745%, 62.748718%)" d="M 337.476562 446.1875 C 317.203125 472.117188 296.925781 498.042969 276.648438 523.96875 C 277.589844 533.164062 276.648438 542.554688 276.691406 551.847656 C 276.703125 554.449219 276.820312 557.089844 277.078125 559.71875 C 277.9375 564.339844 279.441406 568.671875 282.070312 572.453125 C 285.496094 577.382812 290.53125 581.003906 295.867188 584.835938 C 300.988281 588.515625 306.285156 592.320312 310.359375 597.523438 C 311.390625 598.839844 311.382812 600.621094 310.480469 601.929688 C 310.578125 602.039062 310.691406 602.128906 310.789062 602.238281 C 310.902344 602.367188 310.992188 602.503906 311.101562 602.636719 C 313.035156 602.613281 315.027344 602.636719 317.085938 602.679688 C 317.597656 597.832031 317.875 592.933594 318.167969 588.078125 C 321.019531 540.390625 327.496094 492.921875 337.476562 446.1875 Z M 337.476562 446.1875 " fill-opacity="1" fill-rule="nonzero"/><path fill="rgb(80.778503%, 87.838745%, 62.748718%)" d="M 232.453125 487.214844 C 232.875 487.757812 233.328125 488.277344 233.847656 488.746094 C 234.402344 489.246094 234.996094 489.660156 235.613281 490.035156 C 234.472656 489.164062 233.417969 488.226562 232.453125 487.214844 Z M 232.453125 487.214844 " fill-opacity="1" fill-rule="nonzero"/><path fill="rgb(80.778503%, 87.838745%, 62.748718%)" d="M 272.652344 508.882812 C 273.773438 511.203125 274.671875 513.640625 275.316406 516.109375 C 284.289062 500.226562 292.820312 484.097656 300.855469 467.726562 C 288.390625 477.105469 275.785156 486.542969 262.21875 494.132812 C 266.804688 497.585938 270.300781 502.546875 272.652344 508.882812 Z M 272.652344 508.882812 " fill-opacity="1" fill-rule="nonzero"/><path fill="rgb(80.778503%, 87.838745%, 62.748718%)" d="M 425.898438 488.542969 C 419.050781 460.585938 407.207031 432.515625 385.007812 414.164062 C 384.664062 414.820312 384.339844 415.484375 384.003906 416.144531 C 385.027344 416.121094 386.058594 416.503906 386.8125 417.3125 C 388.21875 418.816406 388.140625 421.179688 386.632812 422.585938 C 381.28125 427.585938 376.761719 433.394531 373.179688 439.726562 C 370.191406 447.015625 367.464844 454.398438 364.996094 461.875 C 364.320312 465.367188 363.902344 468.910156 363.757812 472.480469 C 363.6875 474.273438 362.359375 475.710938 360.65625 476 C 349.074219 516.484375 344.125 559.136719 342.371094 601.507812 C 342.722656 601.417969 343.089844 601.34375 343.429688 601.238281 C 351.753906 598.695312 358.953125 593.542969 363.707031 586.734375 C 368.382812 580.03125 370.832031 572.042969 373.429688 563.582031 C 376.496094 553.582031 379.667969 543.238281 386.863281 535.027344 C 395.796875 524.835938 410.199219 519.78125 423.535156 522.128906 C 426.929688 522.726562 430.136719 523.761719 433.167969 525.007812 C 431.003906 512.792969 428.835938 500.574219 425.898438 488.542969 Z M 425.898438 488.542969 " fill-opacity="1" fill-rule="nonzero"/><path fill="rgb(80.778503%, 87.838745%, 62.748718%)" d="M 321.625 319.605469 C 306.839844 320.292969 292.121094 322.890625 277.867188 327.167969 C 276.539062 327.625 275.214844 328.089844 273.898438 328.570312 C 266.085938 331.410156 258.398438 334.648438 250.898438 338.273438 C 249.117188 339.136719 247.34375 340.019531 245.582031 340.925781 C 242.742188 342.386719 239.925781 343.90625 237.148438 345.484375 C 235.515625 346.414062 233.890625 347.355469 232.28125 348.320312 C 225.269531 352.535156 218.492188 357.121094 212.023438 362.074219 C 203.796875 368.792969 196.152344 376.195312 189.265625 384.226562 C 189.253906 384.238281 189.242188 384.246094 189.230469 384.257812 C 189.21875 384.269531 189.214844 384.285156 189.203125 384.296875 C 187.195312 386.523438 186.917969 389.769531 187.042969 392.09375 C 187.363281 398.085938 190.648438 405.171875 194.863281 408.953125 C 197.628906 411.433594 200.746094 413.550781 204.042969 415.796875 C 209.320312 419.386719 214.777344 423.097656 218.855469 428.488281 C 224.988281 436.601562 226.628906 446.542969 228.214844 456.15625 C 228.457031 457.617188 228.695312 459.074219 228.953125 460.515625 C 231.277344 473.621094 235.414062 481.519531 241.972656 485.359375 C 244.347656 486.753906 247.113281 487.617188 250.039062 488.535156 C 252.101562 489.179688 254.214844 489.859375 256.292969 490.738281 C 277.675781 466.273438 287.167969 442.75 319.003906 416.875 C 318.355469 416.613281 317.769531 416.191406 317.339844 415.574219 C 316.160156 413.886719 316.570312 411.558594 318.261719 410.382812 C 322.183594 407.644531 325.75 404.375 328.847656 400.707031 C 328.566406 400.863281 328.292969 401.027344 328.023438 401.199219 C 326.292969 402.308594 323.984375 401.796875 322.875 400.058594 C 322.488281 399.453125 322.308594 398.777344 322.300781 398.109375 C 293.027344 401.152344 266.167969 407.214844 236.125 415.671875 C 251.273438 401.964844 270.148438 392.378906 290.164062 388.21875 C 305.855469 384.972656 322.347656 384.957031 337.175781 378.914062 C 310.945312 378.800781 284.71875 379.0625 258.492188 379.660156 L 347.976562 363.65625 C 352.195312 362.890625 356.578125 362.070312 360.066406 359.574219 C 363.871094 356.832031 366.09375 352.484375 368.40625 348.398438 C 375.082031 336.632812 384.054688 325.609375 395.882812 319.195312 C 394.132812 318.902344 392.375 318.644531 390.621094 318.382812 C 385.433594 317.617188 380.21875 316.980469 374.988281 316.503906 C 373.113281 316.332031 371.238281 316.195312 369.359375 316.0625 C 364.566406 315.722656 359.765625 315.511719 354.96875 315.429688 C 353.101562 315.398438 351.234375 315.394531 349.367188 315.40625 C 347.707031 315.414062 346.042969 315.433594 344.382812 315.472656 C 342.515625 315.519531 340.652344 315.570312 338.789062 315.660156 C 334.199219 315.878906 329.625 316.226562 325.078125 316.707031 C 324.710938 318.296875 323.335938 319.523438 321.625 319.605469 Z M 321.625 319.605469 " fill-opacity="1" fill-rule="nonzero"/><path fill="rgb(80.778503%, 87.838745%, 62.748718%)" d="M 439.21875 485.296875 C 439.921875 499.875 440.628906 514.453125 441.335938 529.027344 C 442.496094 529.683594 443.632812 530.34375 444.707031 530.996094 L 445.761719 531.636719 C 449.667969 534.015625 453.355469 536.265625 457.269531 536.675781 C 462.527344 537.214844 468.417969 534.234375 473.027344 528.679688 C 475.039062 526.253906 476.679688 523.558594 478.097656 520.71875 C 466.988281 507.070312 453.855469 495.0625 439.21875 485.296875 Z M 439.21875 485.296875 " fill-opacity="1" fill-rule="nonzero"/><path fill="rgb(80.778503%, 87.838745%, 62.748718%)" d="M 422.875 409.769531 C 421.90625 411.332031 421.988281 413.304688 422.203125 415.132812 C 424.019531 430.441406 434.003906 447.429688 442.726562 459.894531 C 455.378906 477.972656 469.746094 495.335938 480.882812 514.222656 C 482.324219 510.292969 483.488281 506.230469 484.550781 502.226562 L 485.179688 499.847656 C 487.625 490.539062 490.15625 480.914062 495.503906 472.476562 C 498.238281 468.160156 502.242188 463.753906 507.15625 460.503906 C 482.714844 443.453125 461.242188 421.785156 434.269531 409.148438 C 430.484375 407.371094 425.082031 406.21875 422.875 409.769531 Z M 422.875 409.769531 " fill-opacity="1" fill-rule="nonzero"/><path fill="rgb(80.778503%, 87.838745%, 62.748718%)" d="M 442.308594 334.476562 C 440.574219 333.746094 439.699219 331.867188 440.160156 330.101562 C 438.886719 329.679688 437.613281 329.257812 436.324219 328.855469 C 431.628906 335.003906 426.070312 341.652344 422.125 348.351562 C 422.6875 349.265625 422.867188 350.40625 422.496094 351.5 C 419.003906 361.789062 421.1875 373.871094 428.0625 382.285156 C 428.855469 383.253906 429.070312 384.496094 428.769531 385.617188 C 451.742188 414.335938 489.21875 437.980469 523.753906 455.5 C 523.78125 455.5 523.808594 455.496094 523.839844 455.496094 C 527.613281 455.636719 531.113281 456.597656 534.503906 457.53125 C 536.992188 458.214844 539.347656 458.859375 541.695312 459.160156 C 551.199219 460.371094 560.167969 455.640625 566.726562 449.050781 C 541.714844 398.378906 497.632812 357.742188 442.308594 334.476562 Z M 442.308594 334.476562 " fill-opacity="1" fill-rule="nonzero"/><path fill="rgb(80.778503%, 87.838745%, 62.748718%)" d="M 334.863281 405.136719 C 339.199219 402.195312 343.824219 399.222656 348.875 396.207031 C 346.15625 396.3125 343.476562 396.449219 340.816406 396.601562 C 340.796875 396.636719 340.789062 396.675781 340.769531 396.710938 C 339.046875 399.667969 337.0625 402.488281 334.863281 405.136719 Z M 334.863281 405.136719 " fill-opacity="1" fill-rule="nonzero"/><path fill="rgb(96.078491%, 96.078491%, 81.568909%)" d="M 373.175781 439.726562 C 369.28125 446.605469 366.496094 454.101562 364.992188 461.875 C 367.464844 454.398438 370.191406 447.015625 373.175781 439.726562 Z M 373.175781 439.726562 " fill-opacity="1" fill-rule="nonzero"/><path fill="rgb(96.078491%, 96.078491%, 81.568909%)" d="M 428.769531 385.617188 C 428.574219 386.34375 428.164062 387.019531 427.535156 387.535156 C 426.84375 388.101562 426.007812 388.375 425.175781 388.375 C 424.097656 388.375 423.023438 387.910156 422.285156 387.003906 C 413.824219 376.644531 411.132812 361.769531 415.429688 349.101562 C 416.09375 347.152344 418.203125 346.105469 420.160156 346.765625 C 421.015625 347.058594 421.683594 347.636719 422.125 348.351562 C 426.070312 341.648438 431.628906 335 436.324219 328.851562 C 429.144531 326.585938 421.804688 324.609375 414.363281 322.882812 C 412.539062 322.460938 410.707031 322.058594 408.871094 321.671875 C 404.664062 320.78125 400.441406 319.953125 396.179688 319.246094 C 396.082031 319.230469 395.980469 319.207031 395.882812 319.191406 C 384.054688 325.609375 375.082031 336.628906 368.402344 348.398438 C 366.089844 352.484375 363.871094 356.828125 360.066406 359.570312 C 356.574219 362.070312 352.191406 362.890625 347.976562 363.65625 L 258.488281 379.65625 C 284.71875 379.0625 310.949219 378.800781 337.175781 378.910156 C 322.34375 384.953125 305.851562 384.972656 290.164062 388.21875 C 270.148438 392.375 251.269531 401.964844 236.121094 415.671875 C 266.167969 407.210938 293.027344 401.152344 322.296875 398.105469 C 322.28125 396.859375 322.878906 395.628906 324.011719 394.90625 C 328.03125 392.34375 332.8125 390.996094 337.632812 391.101562 C 338.953125 391.132812 340.15625 391.859375 340.800781 393.007812 C 341.429688 394.128906 341.421875 395.480469 340.8125 396.601562 C 343.472656 396.449219 346.15625 396.3125 348.875 396.207031 C 343.824219 399.222656 339.195312 402.195312 334.863281 405.136719 C 331.277344 409.453125 327.113281 413.300781 322.53125 416.5 C 321.878906 416.953125 321.136719 417.167969 320.398438 417.167969 C 319.917969 417.167969 319.449219 417.054688 319 416.875 C 287.167969 442.75 277.675781 466.273438 256.289062 490.738281 C 257.238281 491.140625 258.183594 491.574219 259.113281 492.085938 C 260.203125 492.691406 261.226562 493.386719 262.21875 494.132812 C 275.785156 486.542969 288.386719 477.105469 300.855469 467.726562 C 292.820312 484.097656 284.289062 500.226562 275.316406 516.109375 C 275.484375 516.75 275.640625 517.394531 275.773438 518.039062 C 276.1875 520.003906 276.445312 521.984375 276.648438 523.96875 C 296.925781 498.042969 317.203125 472.117188 337.476562 446.1875 C 327.496094 492.921875 321.019531 540.390625 318.167969 588.078125 C 317.875 592.9375 317.597656 597.832031 317.085938 602.683594 C 318.050781 602.703125 319.023438 602.726562 320.007812 602.753906 C 327.949219 602.957031 336.117188 603.136719 342.367188 601.507812 C 344.125 559.136719 349.070312 516.480469 360.65625 476 C 360.453125 476.035156 360.246094 476.0625 360.03125 476.0625 C 359.980469 476.0625 359.929688 476.058594 359.878906 476.058594 C 357.820312 475.976562 356.21875 474.238281 356.300781 472.179688 C 357.140625 451.398438 366.335938 431.332031 381.539062 417.132812 C 382.234375 416.480469 383.117188 416.164062 384 416.144531 C 384.339844 415.484375 384.664062 414.820312 385.003906 414.164062 C 407.203125 432.515625 419.050781 460.585938 425.898438 488.542969 C 428.835938 500.578125 431.003906 512.792969 433.164062 525.007812 C 436.066406 526.199219 438.796875 527.59375 441.335938 529.027344 C 440.628906 514.453125 439.921875 499.878906 439.214844 485.296875 C 453.855469 495.0625 466.988281 507.070312 478.097656 520.71875 C 479.144531 518.625 480.0625 516.449219 480.882812 514.222656 C 469.742188 495.335938 455.375 477.972656 442.722656 459.894531 C 434 447.429688 424.019531 430.441406 422.203125 415.132812 C 421.988281 413.304688 421.90625 411.332031 422.875 409.769531 C 425.078125 406.21875 430.484375 407.375 434.269531 409.148438 C 461.238281 421.785156 482.710938 443.453125 507.152344 460.507812 C 511.925781 457.355469 517.566406 455.296875 523.753906 455.5 C 489.222656 437.984375 451.742188 414.335938 428.769531 385.617188 Z M 428.769531 385.617188 " fill-opacity="1" fill-rule="nonzero"/><path fill="rgb(69.018555%, 80.389404%, 57.649231%)" d="M 235.917969 675.46875 C 238.160156 648.570312 247.25 628.171875 262.207031 616.476562 C 275.257812 606.277344 291.140625 603.753906 305.296875 602.867188 C 305 602.660156 304.71875 602.421875 304.484375 602.125 C 301.066406 597.757812 296.425781 594.421875 291.515625 590.894531 C 285.902344 586.859375 280.101562 582.695312 275.941406 576.707031 C 268.070312 565.375 268.378906 551.492188 268.671875 538.0625 C 268.710938 536.371094 268.75 534.691406 268.765625 533.027344 C 268.90625 520.757812 266.722656 504.824219 255.5 498.613281 C 253.203125 497.34375 250.582031 496.523438 247.804688 495.652344 C 244.609375 494.652344 241.304688 493.617188 238.199219 491.796875 C 237.28125 491.261719 236.429688 490.660156 235.609375 490.035156 C 234.996094 489.664062 234.402344 489.246094 233.84375 488.746094 C 233.328125 488.277344 232.871094 487.761719 232.453125 487.214844 C 225.597656 480.015625 222.988281 469.636719 221.601562 461.820312 C 221.34375 460.347656 221.097656 458.863281 220.851562 457.371094 C 219.347656 448.25 217.925781 439.632812 212.902344 432.988281 C 209.5625 428.574219 204.84375 425.363281 199.84375 421.964844 C 196.488281 419.683594 193.015625 417.320312 189.878906 414.503906 C 184.238281 409.449219 180.007812 400.394531 179.589844 392.492188 C 179.308594 387.199219 180.683594 382.691406 183.558594 379.429688 C 183.570312 379.410156 183.582031 379.390625 183.597656 379.371094 C 184.507812 378.308594 185.4375 377.261719 186.375 376.222656 C 186.578125 373.84375 186.691406 371.46875 186.589844 369.078125 C 186.398438 364.515625 185.460938 359.902344 182.996094 355.109375 C 172.980469 335.628906 144.453125 331.886719 125.585938 343.023438 C 106.714844 354.15625 96.289062 375.554688 90.789062 396.757812 C 75.804688 454.476562 90.003906 516.027344 112.941406 571.074219 C 122.011719 592.84375 132.53125 614.191406 146.675781 633.066406 C 153.207031 641.789062 160.46875 649.90625 168.101562 657.683594 C 146.308594 603.527344 145.742188 544.617188 148.132812 493.933594 C 148.234375 491.875 150.027344 490.285156 152.039062 490.382812 C 154.09375 490.480469 155.6875 492.226562 155.589844 494.285156 C 153.1875 545.203125 153.773438 604.492188 176.367188 658.203125 C 177.164062 660.101562 176.273438 662.289062 174.375 663.089844 C 174.160156 663.179688 173.941406 663.242188 173.722656 663.289062 C 180.035156 669.46875 186.539062 675.46875 193.066406 681.410156 C 200.714844 688.375 226.417969 708.472656 244.011719 720.746094 C 235.613281 707.121094 234.757812 689.402344 235.917969 675.46875 Z M 237.316406 603.164062 L 216.851562 605.222656 C 216.726562 605.234375 216.597656 605.242188 216.476562 605.242188 C 214.582031 605.242188 212.960938 603.808594 212.765625 601.886719 C 212.5625 599.835938 214.054688 598.007812 216.105469 597.800781 L 236.570312 595.742188 C 238.640625 595.539062 240.449219 597.03125 240.65625 599.078125 C 240.863281 601.128906 239.367188 602.957031 237.316406 603.164062 Z M 115.0625 497.085938 C 114.339844 497.773438 113.414062 498.117188 112.488281 498.117188 C 111.507812 498.117188 110.523438 497.726562 109.789062 496.957031 C 102.9375 489.773438 96.914062 481.789062 91.886719 473.222656 C 90.84375 471.449219 91.441406 469.160156 93.214844 468.121094 C 94.996094 467.074219 97.277344 467.671875 98.320312 469.445312 C 103.058594 477.515625 108.734375 485.039062 115.191406 491.8125 C 116.609375 493.300781 116.554688 495.664062 115.0625 497.085938 Z M 140.960938 545.53125 C 140.789062 545.554688 140.617188 545.566406 140.445312 545.566406 C 138.613281 545.566406 137.015625 544.210938 136.753906 542.34375 C 134.476562 525.796875 128.332031 509.671875 122.394531 494.082031 C 118.882812 484.863281 115.253906 475.328125 112.390625 465.683594 C 105.664062 443.019531 103.035156 419.5625 104.570312 395.964844 C 104.707031 393.910156 106.535156 392.355469 108.535156 392.484375 C 110.59375 392.617188 112.152344 394.394531 112.019531 396.449219 C 110.539062 419.164062 113.070312 441.742188 119.542969 463.5625 C 122.324219 472.9375 125.90625 482.335938 129.367188 491.425781 C 135.453125 507.410156 141.75 523.933594 144.144531 541.324219 C 144.429688 543.367188 143.003906 545.25 140.960938 545.53125 Z M 176.015625 621.710938 C 175.40625 623.117188 174.03125 623.957031 172.589844 623.957031 C 172.09375 623.957031 171.589844 623.859375 171.105469 623.648438 C 169.21875 622.828125 168.347656 620.632812 169.167969 618.742188 C 175.304688 604.59375 185.65625 591.363281 199.929688 579.414062 C 211.925781 569.371094 225.089844 561.359375 241.167969 552.417969 L 241.742188 552.101562 C 248.191406 548.515625 254.855469 544.8125 259.609375 539.53125 C 260.984375 538 263.347656 537.875 264.878906 539.25 C 266.410156 540.632812 266.535156 542.988281 265.15625 544.519531 C 259.570312 550.726562 252.351562 554.742188 245.367188 558.621094 L 244.796875 558.9375 C 229.09375 567.671875 216.265625 575.46875 204.722656 585.132812 C 191.34375 596.332031 181.683594 608.636719 176.015625 621.710938 Z M 176.015625 621.710938 " fill-opacity="1" fill-rule="nonzero"/><path fill="rgb(69.018555%, 80.389404%, 57.649231%)" d="M 245.339844 704.980469 C 246.472656 709.148438 248.097656 713.132812 250.316406 716.753906 C 248.398438 712.914062 246.722656 708.984375 245.339844 704.980469 Z M 245.339844 704.980469 " fill-opacity="1" fill-rule="nonzero"/><path fill="rgb(69.018555%, 80.389404%, 57.649231%)" d="M 276.226562 533.117188 C 276.207031 534.804688 276.167969 536.511719 276.132812 538.226562 C 275.972656 545.507812 275.820312 552.929688 277.082031 559.71875 C 276.824219 557.089844 276.703125 554.453125 276.691406 551.851562 C 276.648438 542.558594 277.589844 533.167969 276.648438 523.972656 C 276.449219 521.984375 276.1875 520.003906 275.777344 518.042969 C 275.640625 517.394531 275.488281 516.75 275.316406 516.109375 C 274.671875 513.640625 273.773438 511.203125 272.652344 508.882812 C 275.113281 515.511719 276.335938 523.625 276.226562 533.117188 Z M 276.226562 533.117188 " fill-opacity="1" fill-rule="nonzero"/><path fill="rgb(69.018555%, 80.389404%, 57.649231%)" d="M 310.484375 601.929688 C 310.300781 602.195312 310.085938 602.441406 309.828125 602.660156 C 310.25 602.648438 310.675781 602.640625 311.101562 602.636719 C 310.992188 602.507812 310.902344 602.367188 310.789062 602.238281 C 310.695312 602.128906 310.582031 602.039062 310.484375 601.929688 Z M 310.484375 601.929688 " fill-opacity="1" fill-rule="nonzero"/><path fill="rgb(69.018555%, 80.389404%, 57.649231%)" d="M 259.691406 629.324219 C 262.488281 626.257812 265.53125 623.429688 268.808594 620.890625 C 268.132812 621.359375 267.460938 621.839844 266.804688 622.355469 C 264.144531 624.433594 261.800781 626.796875 259.691406 629.324219 Z M 259.691406 629.324219 " fill-opacity="1" fill-rule="nonzero"/><path fill="rgb(59.999084%, 77.249146%, 46.269226%)" d="M 614.296875 359.605469 C 599.558594 356.203125 591.5 385.199219 588.207031 398.628906 C 588.363281 398.632812 588.523438 398.632812 588.683594 398.65625 C 590.71875 398.976562 592.109375 400.886719 591.789062 402.921875 C 589.644531 416.511719 587.210938 431.914062 579.414062 444.875 C 572.019531 457.167969 557.21875 468.644531 540.761719 466.5625 C 537.886719 466.199219 535.160156 465.449219 532.527344 464.726562 C 529.414062 463.871094 526.472656 463.0625 523.5625 462.953125 C 514.039062 462.613281 506.097656 469.703125 501.808594 476.46875 C 497.078125 483.929688 494.699219 492.988281 492.394531 501.746094 L 491.765625 504.140625 C 489.070312 514.292969 485.84375 524.914062 478.769531 533.441406 C 472.566406 540.921875 464.253906 544.90625 456.492188 544.09375 C 450.90625 543.511719 446.109375 540.585938 441.875 538.007812 L 440.84375 537.378906 C 435.519531 534.152344 429.152344 530.695312 422.238281 529.472656 C 411.410156 527.558594 399.726562 531.667969 392.476562 539.941406 C 386.335938 546.949219 383.53125 556.089844 380.5625 565.765625 C 377.910156 574.402344 375.171875 583.335938 369.828125 590.996094 C 364.125 599.171875 355.523438 605.339844 345.613281 608.371094 C 338.085938 610.667969 328.808594 610.4375 319.824219 610.207031 C 315.527344 610.097656 311.46875 609.996094 307.882812 610.1875 C 295.089844 610.859375 280.574219 612.695312 268.808594 620.890625 C 265.53125 623.425781 262.492188 626.257812 259.691406 629.324219 C 248.496094 642.742188 244.5625 661.550781 243.351562 676.085938 C 242.617188 684.914062 242.734375 695.394531 245.339844 704.980469 C 246.722656 708.984375 248.398438 712.914062 250.316406 716.75 C 252.328125 720.019531 254.804688 723 257.917969 725.492188 C 259.464844 726.734375 259.746094 728.957031 258.609375 730.558594 C 268.664062 744.738281 282.230469 756.714844 297.59375 764.4375 C 353.855469 792.726562 428.054688 780.042969 480.304688 749.464844 C 514.464844 729.476562 553.582031 702.609375 579.175781 672.445312 C 613.488281 632.011719 637.011719 583.148438 651.777344 532.21875 C 665.550781 484.707031 674.339844 431.160156 646.972656 386.445312 C 639.417969 374.09375 628.402344 362.863281 614.296875 359.605469 Z M 531.804688 672.003906 C 532.457031 673.957031 531.402344 676.070312 529.449219 676.726562 C 529.054688 676.855469 528.65625 676.917969 528.265625 676.917969 C 526.703125 676.917969 525.246094 675.933594 524.726562 674.371094 C 518.625 656.128906 509.78125 639 498.441406 623.460938 C 497.226562 621.796875 497.589844 619.464844 499.253906 618.25 C 500.921875 617.035156 503.253906 617.402344 504.464844 619.066406 C 516.261719 635.222656 525.457031 653.035156 531.804688 672.003906 Z M 547.691406 586.175781 C 547.210938 586.382812 546.710938 586.480469 546.21875 586.480469 C 544.773438 586.480469 543.398438 585.632812 542.789062 584.222656 C 534.964844 566.003906 529.636719 546.800781 526.964844 527.152344 C 526.6875 525.109375 528.117188 523.230469 530.15625 522.953125 C 532.210938 522.671875 534.078125 524.101562 534.355469 526.144531 C 536.941406 545.128906 542.082031 563.679688 549.644531 581.277344 C 550.460938 583.167969 549.585938 585.363281 547.691406 586.175781 Z M 430.144531 624.773438 C 430.65625 622.777344 432.679688 621.578125 434.6875 622.085938 C 436.683594 622.597656 437.886719 624.628906 437.375 626.625 C 433.320312 642.433594 431.675781 658.714844 432.496094 675.015625 C 432.597656 677.070312 431.015625 678.824219 428.957031 678.925781 C 428.890625 678.929688 428.828125 678.929688 428.765625 678.929688 C 426.789062 678.929688 425.140625 677.382812 425.042969 675.386719 C 424.1875 658.335938 425.902344 641.308594 430.144531 624.773438 Z M 346.332031 693.792969 C 355.75 700.109375 367.175781 703.78125 378.511719 704.128906 C 380.570312 704.191406 382.191406 705.910156 382.128906 707.96875 C 382.066406 709.992188 380.40625 711.585938 378.402344 711.585938 C 378.363281 711.585938 378.324219 711.585938 378.285156 711.585938 C 365.566406 711.195312 352.742188 707.074219 342.175781 699.988281 C 340.464844 698.839844 340.007812 696.523438 341.15625 694.8125 C 342.304688 693.101562 344.621094 692.644531 346.332031 693.792969 Z M 456.714844 753.132812 C 456.582031 753.148438 456.449219 753.15625 456.320312 753.15625 C 454.433594 753.15625 452.816406 751.730469 452.613281 749.816406 C 451.15625 736.046875 442.699219 724.363281 435.859375 716.988281 C 429.136719 709.738281 421.164062 703.359375 413.453125 697.191406 C 410.984375 695.214844 408.519531 693.242188 406.085938 691.234375 C 392.460938 680.019531 379.628906 667.628906 367.9375 654.410156 C 366.570312 652.867188 366.71875 650.507812 368.257812 649.144531 C 369.804688 647.777344 372.160156 647.925781 373.527344 649.46875 C 384.957031 662.390625 397.507812 674.507812 410.828125 685.476562 C 413.238281 687.460938 415.679688 689.414062 418.117188 691.367188 C 426.039062 697.707031 434.230469 704.257812 441.332031 711.914062 C 452.246094 723.683594 458.710938 736.515625 460.035156 749.03125 C 460.25 751.082031 458.765625 752.917969 456.714844 753.132812 Z M 556.484375 656.382812 C 539.753906 694.0625 513.4375 721.757812 492.378906 741.671875 C 491.660156 742.355469 490.734375 742.695312 489.816406 742.695312 C 488.828125 742.695312 487.839844 742.304688 487.105469 741.527344 C 485.6875 740.03125 485.753906 737.667969 487.25 736.253906 C 518.195312 706.988281 536.859375 682.195312 549.664062 653.355469 C 563.703125 621.738281 573.246094 587.484375 582.472656 554.355469 L 583.378906 551.117188 C 589.140625 530.449219 594.578125 509.40625 599.546875 488.566406 C 600.027344 486.558594 602.054688 485.324219 604.042969 485.800781 C 606.046875 486.277344 607.28125 488.289062 606.804688 490.292969 C 601.816406 511.226562 596.351562 532.363281 590.566406 553.117188 L 589.664062 556.359375 C 580.363281 589.746094 570.746094 624.265625 556.484375 656.382812 Z M 603.667969 605.609375 C 595.8125 613.578125 588.070312 621.863281 580.664062 630.230469 C 579.136719 631.953125 577.40625 633.910156 576.660156 635.96875 C 576.109375 637.484375 574.675781 638.429688 573.152344 638.429688 C 572.726562 638.429688 572.296875 638.355469 571.878906 638.203125 C 569.941406 637.503906 568.941406 635.363281 569.644531 633.425781 C 570.875 630.03125 573.203125 627.398438 575.074219 625.285156 C 582.574219 616.820312 590.40625 608.4375 598.355469 600.375 C 599.800781 598.90625 602.164062 598.890625 603.632812 600.335938 C 605.097656 601.78125 605.117188 604.144531 603.667969 605.609375 Z M 633.984375 487.613281 C 630.582031 499.859375 623.695312 510.527344 617.03125 520.839844 C 612.332031 528.113281 607.472656 535.636719 604.027344 543.5 C 603.414062 544.898438 602.042969 545.734375 600.605469 545.734375 C 600.105469 545.734375 599.597656 545.632812 599.113281 545.417969 C 597.222656 544.59375 596.363281 542.390625 597.191406 540.503906 C 600.878906 532.09375 605.90625 524.316406 610.761719 516.792969 C 617.414062 506.496094 623.699219 496.769531 626.792969 485.617188 C 627.34375 483.636719 629.398438 482.476562 631.386719 483.023438 C 633.375 483.574219 634.535156 485.628906 633.984375 487.613281 Z M 633.984375 487.613281 " fill-opacity="1" fill-rule="nonzero"/><path fill="rgb(8.628845%, 12.939453%, 23.919678%)" d="M 257.914062 725.496094 C 254.804688 723 252.324219 720.023438 250.316406 716.753906 C 248.09375 713.132812 246.472656 709.148438 245.339844 704.980469 C 242.730469 695.394531 242.613281 684.917969 243.351562 676.085938 C 244.5625 661.554688 248.492188 642.746094 259.691406 629.324219 C 261.800781 626.796875 264.144531 624.433594 266.804688 622.355469 C 267.460938 621.839844 268.132812 621.359375 268.808594 620.890625 C 280.570312 612.699219 295.089844 610.859375 307.882812 610.1875 C 311.464844 610 315.527344 610.101562 319.824219 610.210938 C 328.804688 610.4375 338.085938 610.671875 345.609375 608.371094 C 355.523438 605.34375 364.121094 599.171875 369.824219 590.996094 C 375.171875 583.335938 377.910156 574.40625 380.5625 565.769531 C 383.53125 556.089844 386.335938 546.953125 392.476562 539.941406 C 399.726562 531.671875 411.410156 527.558594 422.238281 529.476562 C 429.148438 530.695312 435.519531 534.15625 440.839844 537.378906 L 441.875 538.007812 C 446.105469 540.589844 450.902344 543.511719 456.492188 544.097656 C 464.25 544.910156 472.566406 540.921875 478.769531 533.441406 C 485.84375 524.917969 489.066406 514.292969 491.765625 504.144531 L 492.394531 501.746094 C 494.695312 492.988281 497.078125 483.933594 501.808594 476.46875 C 506.097656 469.703125 514.039062 462.617188 523.558594 462.957031 C 526.46875 463.066406 529.410156 463.871094 532.527344 464.726562 C 535.160156 465.453125 537.882812 466.199219 540.761719 466.5625 C 557.214844 468.644531 572.019531 457.171875 579.414062 444.878906 C 587.210938 431.917969 589.644531 416.515625 591.785156 402.925781 C 592.105469 400.890625 590.714844 398.980469 588.683594 398.65625 C 588.523438 398.632812 588.363281 398.636719 588.203125 398.632812 C 587.457031 398.613281 586.742188 398.816406 586.132812 399.199219 C 585.25 399.753906 584.589844 400.652344 584.414062 401.761719 C 582.277344 415.308594 580.066406 429.316406 573.019531 441.03125 C 572.671875 441.605469 572.300781 442.179688 571.917969 442.746094 C 572.804688 444.480469 573.671875 446.226562 574.515625 447.980469 C 575.410156 449.835938 574.625 452.066406 572.765625 452.957031 C 572.246094 453.207031 571.695312 453.328125 571.15625 453.328125 C 569.765625 453.328125 568.429688 452.546875 567.789062 451.207031 C 567.441406 450.484375 567.078125 449.773438 566.722656 449.050781 C 560.164062 455.644531 551.199219 460.371094 541.695312 459.160156 C 539.34375 458.863281 536.992188 458.214844 534.5 457.53125 C 531.113281 456.601562 527.609375 455.640625 523.835938 455.5 C 523.808594 455.496094 523.78125 455.5 523.753906 455.5 C 517.5625 455.296875 511.925781 457.351562 507.152344 460.503906 C 502.234375 463.753906 498.234375 468.164062 495.5 472.476562 C 490.152344 480.914062 487.621094 490.539062 485.175781 499.847656 L 484.546875 502.226562 C 483.484375 506.230469 482.320312 510.292969 480.878906 514.222656 C 480.0625 516.449219 479.140625 518.625 478.09375 520.71875 C 476.671875 523.558594 475.03125 526.253906 473.023438 528.679688 C 468.410156 534.234375 462.523438 537.21875 457.261719 536.675781 C 453.347656 536.265625 449.660156 534.015625 445.757812 531.636719 L 444.703125 530.996094 C 443.625 530.34375 442.492188 529.683594 441.332031 529.027344 C 438.792969 527.589844 436.0625 526.199219 433.160156 525.007812 C 430.128906 523.761719 426.921875 522.726562 423.527344 522.128906 C 410.191406 519.777344 395.789062 524.835938 386.855469 535.027344 C 379.664062 543.238281 376.488281 553.578125 373.421875 563.582031 C 370.824219 572.039062 368.375 580.03125 363.699219 586.730469 C 358.945312 593.542969 351.746094 598.695312 343.421875 601.238281 C 343.082031 601.34375 342.714844 601.414062 342.363281 601.507812 C 336.113281 603.136719 327.941406 602.953125 320.003906 602.753906 C 319.015625 602.726562 318.042969 602.703125 317.082031 602.683594 C 315.023438 602.636719 313.027344 602.613281 311.097656 602.636719 C 310.667969 602.640625 310.246094 602.648438 309.824219 602.660156 C 309.789062 602.691406 309.757812 602.730469 309.71875 602.761719 C 309.035156 603.296875 308.226562 603.554688 307.417969 603.554688 C 306.664062 603.554688 305.925781 603.308594 305.292969 602.867188 C 291.136719 603.753906 275.253906 606.277344 262.203125 616.476562 C 247.242188 628.171875 238.152344 648.570312 235.910156 675.46875 C 234.75 689.402344 235.609375 707.121094 244.007812 720.742188 C 246.425781 724.664062 249.433594 728.265625 253.242188 731.316406 C 253.929688 731.867188 254.753906 732.136719 255.574219 732.136719 C 256.667969 732.136719 257.75 731.65625 258.488281 730.738281 C 258.53125 730.679688 258.5625 730.617188 258.605469 730.558594 C 259.746094 728.960938 259.464844 726.738281 257.914062 725.496094 Z M 257.914062 725.496094 " fill-opacity="1" fill-rule="nonzero"/><path fill="rgb(8.628845%, 12.939453%, 23.919678%)" d="M 310.484375 601.929688 C 311.382812 600.621094 311.390625 598.839844 310.363281 597.523438 C 306.285156 592.320312 300.988281 588.515625 295.867188 584.835938 C 290.535156 581.003906 285.496094 577.382812 282.070312 572.453125 C 279.441406 568.667969 277.9375 564.339844 277.082031 559.71875 C 275.820312 552.929688 275.972656 545.503906 276.132812 538.226562 C 276.171875 536.507812 276.207031 534.804688 276.226562 533.113281 C 276.335938 523.625 275.113281 515.511719 272.652344 508.882812 C 270.300781 502.546875 266.804688 497.585938 262.21875 494.132812 C 261.226562 493.386719 260.203125 492.691406 259.113281 492.085938 C 258.183594 491.574219 257.242188 491.140625 256.292969 490.738281 C 254.210938 489.859375 252.101562 489.179688 250.035156 488.535156 C 247.109375 487.617188 244.347656 486.753906 241.972656 485.359375 C 235.414062 481.515625 231.273438 473.621094 228.953125 460.515625 C 228.695312 459.074219 228.457031 457.617188 228.214844 456.15625 C 226.628906 446.542969 224.984375 436.601562 218.855469 428.488281 C 214.777344 423.097656 209.320312 419.386719 204.042969 415.796875 C 200.742188 413.550781 197.628906 411.433594 194.859375 408.953125 C 190.648438 405.171875 187.359375 398.085938 187.042969 392.09375 C 186.917969 389.769531 187.195312 386.523438 189.203125 384.296875 C 189.210938 384.285156 189.21875 384.269531 189.226562 384.257812 C 188.492188 385.09375 187.464844 385.527344 186.429688 385.527344 C 185.570312 385.527344 184.707031 385.234375 184.003906 384.628906 C 182.457031 383.304688 182.269531 380.992188 183.558594 379.429688 C 180.6875 382.6875 179.308594 387.195312 179.589844 392.488281 C 180.011719 400.394531 184.242188 409.449219 189.878906 414.503906 C 193.015625 417.320312 196.488281 419.679688 199.847656 421.964844 C 204.84375 425.363281 209.566406 428.574219 212.902344 432.988281 C 217.925781 439.628906 219.347656 448.246094 220.855469 457.371094 C 221.097656 458.859375 221.34375 460.347656 221.605469 461.820312 C 222.992188 469.632812 225.597656 480.011719 232.453125 487.214844 C 233.417969 488.226562 234.472656 489.164062 235.613281 490.035156 C 236.433594 490.660156 237.28125 491.257812 238.199219 491.796875 C 241.308594 493.617188 244.613281 494.652344 247.808594 495.652344 C 250.585938 496.519531 253.207031 497.34375 255.5 498.613281 C 266.722656 504.824219 268.910156 520.753906 268.769531 533.027344 C 268.75 534.691406 268.710938 536.371094 268.675781 538.0625 C 268.378906 551.488281 268.070312 565.375 275.945312 576.707031 C 280.101562 582.691406 285.90625 586.859375 291.515625 590.890625 C 296.429688 594.421875 301.066406 597.753906 304.488281 602.121094 C 304.722656 602.421875 305.003906 602.660156 305.300781 602.867188 C 305.933594 603.308594 306.671875 603.550781 307.425781 603.550781 C 308.230469 603.550781 309.042969 603.292969 309.726562 602.757812 C 309.765625 602.726562 309.792969 602.691406 309.832031 602.660156 C 310.085938 602.441406 310.300781 602.195312 310.484375 601.929688 Z M 310.484375 601.929688 " fill-opacity="1" fill-rule="nonzero"/><path fill="rgb(8.628845%, 12.939453%, 23.919678%)" d="M 563.265625 427.339844 C 558.59375 419.707031 553.484375 412.335938 547.960938 405.265625 C 546.671875 403.617188 545.359375 401.992188 544.03125 400.375 C 542.667969 398.722656 541.277344 397.089844 539.871094 395.46875 C 538.347656 393.71875 536.800781 391.992188 535.226562 390.285156 C 530.59375 385.257812 525.742188 380.414062 520.675781 375.761719 C 519.207031 374.414062 517.71875 373.082031 516.214844 371.765625 C 514.515625 370.277344 512.796875 368.8125 511.050781 367.367188 C 509.429688 366.023438 507.789062 364.695312 506.128906 363.390625 C 501.359375 359.632812 496.4375 356.027344 491.371094 352.589844 C 489.765625 351.503906 488.148438 350.429688 486.515625 349.375 C 484.292969 347.941406 482.039062 346.542969 479.765625 345.171875 C 478.078125 344.152344 476.378906 343.152344 474.664062 342.171875 C 470.183594 339.601562 465.613281 337.144531 460.949219 334.820312 C 459.257812 333.976562 457.554688 333.148438 455.84375 332.339844 C 453.140625 331.066406 450.402344 329.84375 447.644531 328.652344 C 446.828125 328.300781 446.023438 327.9375 445.203125 327.59375 C 444.160156 327.160156 443.039062 327.246094 442.097656 327.710938 C 441.324219 328.09375 440.675781 328.730469 440.316406 329.589844 C 440.246094 329.757812 440.203125 329.925781 440.160156 330.097656 C 439.699219 331.863281 440.578125 333.742188 442.308594 334.472656 C 497.632812 357.738281 541.714844 398.375 566.722656 449.046875 C 567.078125 449.765625 567.445312 450.480469 567.792969 451.203125 C 568.433594 452.539062 569.765625 453.320312 571.15625 453.320312 C 571.699219 453.320312 572.25 453.203125 572.769531 452.953125 C 574.625 452.0625 575.410156 449.832031 574.515625 447.976562 C 573.675781 446.21875 572.804688 444.476562 571.917969 442.742188 C 570.476562 439.925781 568.972656 437.148438 567.421875 434.398438 C 566.078125 432.023438 564.691406 429.667969 563.265625 427.339844 Z M 563.265625 427.339844 " fill-opacity="1" fill-rule="nonzero"/><path fill="rgb(8.628845%, 12.939453%, 23.919678%)" d="M 184.003906 384.628906 C 184.707031 385.234375 185.570312 385.53125 186.429688 385.53125 C 187.464844 385.53125 188.492188 385.097656 189.226562 384.261719 C 189.238281 384.25 189.253906 384.238281 189.261719 384.226562 C 196.152344 376.195312 203.792969 368.792969 212.023438 362.074219 C 218.367188 356.890625 225.0625 352.117188 232.046875 347.792969 C 233.644531 346.800781 235.261719 345.839844 236.890625 344.898438 C 239.714844 343.261719 242.585938 341.699219 245.496094 340.207031 C 247.253906 339.304688 249.027344 338.433594 250.8125 337.585938 C 258.289062 334.039062 265.992188 330.972656 273.851562 328.421875 C 275.183594 327.988281 276.523438 327.574219 277.867188 327.171875 C 292.117188 322.894531 306.839844 320.296875 321.625 319.605469 C 323.335938 319.527344 324.707031 318.300781 325.070312 316.707031 C 325.148438 316.386719 325.195312 316.054688 325.175781 315.707031 C 325.109375 314.195312 324.09375 312.949219 322.785156 312.425781 C 322.3125 312.234375 321.800781 312.128906 321.277344 312.152344 C 319.875 312.21875 318.46875 312.308594 317.070312 312.40625 C 311.367188 312.804688 305.683594 313.480469 300.035156 314.40625 C 298.171875 314.710938 296.316406 315.042969 294.460938 315.40625 C 288.632812 316.539062 282.855469 317.9375 277.144531 319.601562 C 275.355469 320.125 273.574219 320.679688 271.796875 321.253906 C 264.335938 323.664062 257.007812 326.515625 249.871094 329.792969 C 248.078125 330.617188 246.300781 331.476562 244.535156 332.351562 C 240.921875 334.140625 237.367188 336.042969 233.871094 338.046875 C 232.238281 338.980469 230.621094 339.933594 229.019531 340.914062 C 222.054688 345.171875 215.359375 349.855469 208.996094 354.933594 C 207.40625 356.199219 205.835938 357.484375 204.292969 358.796875 C 202.632812 360.207031 201.011719 361.65625 199.402344 363.121094 C 197.980469 364.414062 196.585938 365.730469 195.207031 367.066406 C 192.15625 370.019531 189.203125 373.070312 186.371094 376.222656 C 185.4375 377.265625 184.503906 378.3125 183.59375 379.375 C 183.578125 379.394531 183.570312 379.414062 183.554688 379.433594 C 182.269531 380.992188 182.457031 383.304688 184.003906 384.628906 Z M 184.003906 384.628906 " fill-opacity="1" fill-rule="nonzero"/><path fill="rgb(8.628845%, 12.939453%, 23.919678%)" d="M 176.367188 658.199219 C 153.777344 604.488281 153.1875 545.199219 155.589844 494.28125 C 155.6875 492.222656 154.097656 490.476562 152.039062 490.378906 C 150.027344 490.28125 148.234375 491.871094 148.136719 493.929688 C 145.746094 544.613281 146.3125 603.527344 168.101562 657.679688 C 168.558594 658.816406 169.011719 659.957031 169.488281 661.089844 C 170.089844 662.519531 171.472656 663.375 172.929688 663.375 C 173.191406 663.375 173.457031 663.34375 173.722656 663.285156 C 173.941406 663.238281 174.160156 663.175781 174.375 663.085938 C 176.273438 662.285156 177.167969 660.097656 176.367188 658.199219 Z M 176.367188 658.199219 " fill-opacity="1" fill-rule="nonzero"/><path fill="rgb(8.628845%, 12.939453%, 23.919678%)" d="M 129.367188 491.429688 C 125.90625 482.339844 122.328125 472.9375 119.546875 463.5625 C 113.074219 441.746094 110.542969 419.164062 112.019531 396.449219 C 112.152344 394.394531 110.597656 392.621094 108.539062 392.484375 C 106.539062 392.355469 104.710938 393.910156 104.574219 395.964844 C 103.039062 419.5625 105.667969 443.019531 112.394531 465.6875 C 115.253906 475.332031 118.886719 484.863281 122.398438 494.082031 C 128.335938 509.675781 134.476562 525.796875 136.757812 542.34375 C 137.015625 544.214844 138.613281 545.566406 140.449219 545.566406 C 140.621094 545.566406 140.792969 545.554688 140.964844 545.53125 C 143.003906 545.25 144.433594 543.367188 144.152344 541.328125 C 141.753906 523.9375 135.457031 507.410156 129.367188 491.429688 Z M 129.367188 491.429688 " fill-opacity="1" fill-rule="nonzero"/><path fill="rgb(8.628845%, 12.939453%, 23.919678%)" d="M 98.320312 469.445312 C 97.277344 467.671875 94.996094 467.074219 93.214844 468.121094 C 91.4375 469.160156 90.84375 471.449219 91.886719 473.222656 C 96.914062 481.789062 102.9375 489.773438 109.789062 496.957031 C 110.523438 497.726562 111.507812 498.117188 112.488281 498.117188 C 113.414062 498.117188 114.339844 497.773438 115.0625 497.085938 C 116.554688 495.664062 116.613281 493.304688 115.191406 491.8125 C 108.734375 485.039062 103.058594 477.515625 98.320312 469.445312 Z M 98.320312 469.445312 " fill-opacity="1" fill-rule="nonzero"/><path fill="rgb(8.628845%, 12.939453%, 23.919678%)" d="M 204.722656 585.132812 C 216.265625 575.46875 229.089844 567.671875 244.796875 558.9375 L 245.367188 558.621094 C 252.351562 554.742188 259.570312 550.726562 265.15625 544.519531 C 266.535156 542.988281 266.410156 540.632812 264.878906 539.25 C 263.347656 537.875 260.984375 538 259.609375 539.53125 C 254.855469 544.8125 248.191406 548.515625 241.742188 552.101562 L 241.167969 552.417969 C 225.089844 561.359375 211.925781 569.371094 199.929688 579.414062 C 185.65625 591.363281 175.304688 604.59375 169.167969 618.742188 C 168.347656 620.632812 169.21875 622.832031 171.105469 623.648438 C 171.589844 623.859375 172.09375 623.957031 172.589844 623.957031 C 174.03125 623.957031 175.40625 623.117188 176.015625 621.710938 C 181.683594 608.636719 191.34375 596.332031 204.722656 585.132812 Z M 204.722656 585.132812 " fill-opacity="1" fill-rule="nonzero"/><path fill="rgb(8.628845%, 12.939453%, 23.919678%)" d="M 236.570312 595.742188 L 216.105469 597.800781 C 214.054688 598.007812 212.5625 599.835938 212.765625 601.886719 C 212.960938 603.808594 214.582031 605.242188 216.476562 605.242188 C 216.601562 605.242188 216.726562 605.234375 216.851562 605.222656 L 237.316406 603.164062 C 239.367188 602.957031 240.863281 601.128906 240.65625 599.078125 C 240.449219 597.03125 238.640625 595.539062 236.570312 595.742188 Z M 236.570312 595.742188 " fill-opacity="1" fill-rule="nonzero"/><path fill="rgb(8.628845%, 12.939453%, 23.919678%)" d="M 589.664062 556.359375 L 590.566406 553.121094 C 596.351562 532.363281 601.816406 511.226562 606.804688 490.296875 C 607.28125 488.292969 606.046875 486.277344 604.042969 485.804688 C 602.050781 485.324219 600.023438 486.558594 599.546875 488.566406 C 594.578125 509.40625 589.140625 530.453125 583.378906 551.117188 L 582.472656 554.359375 C 573.246094 587.484375 563.703125 621.738281 549.664062 653.355469 C 536.859375 682.199219 518.195312 706.988281 487.25 736.257812 C 485.753906 737.671875 485.6875 740.03125 487.105469 741.527344 C 487.839844 742.304688 488.828125 742.695312 489.816406 742.695312 C 490.734375 742.695312 491.660156 742.355469 492.378906 741.675781 C 513.4375 721.757812 539.753906 694.0625 556.484375 656.382812 C 570.746094 624.265625 580.363281 589.746094 589.664062 556.359375 Z M 589.664062 556.359375 " fill-opacity="1" fill-rule="nonzero"/><path fill="rgb(8.628845%, 12.939453%, 23.919678%)" d="M 631.386719 483.019531 C 629.402344 482.472656 627.347656 483.632812 626.796875 485.617188 C 623.699219 496.769531 617.414062 506.496094 610.761719 516.792969 C 605.90625 524.316406 600.882812 532.09375 597.191406 540.503906 C 596.367188 542.390625 597.226562 544.589844 599.113281 545.417969 C 599.597656 545.632812 600.109375 545.734375 600.609375 545.734375 C 602.042969 545.734375 603.414062 544.898438 604.027344 543.5 C 607.476562 535.636719 612.332031 528.113281 617.03125 520.839844 C 623.695312 510.523438 630.582031 499.859375 633.984375 487.613281 C 634.535156 485.628906 633.375 483.574219 631.386719 483.019531 Z M 631.386719 483.019531 " fill-opacity="1" fill-rule="nonzero"/><path fill="rgb(8.628845%, 12.939453%, 23.919678%)" d="M 598.355469 600.375 C 590.40625 608.4375 582.574219 616.816406 575.074219 625.285156 C 573.203125 627.398438 570.875 630.03125 569.644531 633.425781 C 568.941406 635.363281 569.941406 637.503906 571.878906 638.203125 C 572.296875 638.355469 572.726562 638.429688 573.152344 638.429688 C 574.675781 638.429688 576.109375 637.484375 576.660156 635.96875 C 577.40625 633.910156 579.136719 631.953125 580.664062 630.230469 C 588.070312 621.863281 595.8125 613.578125 603.667969 605.609375 C 605.117188 604.144531 605.097656 601.78125 603.632812 600.335938 C 602.164062 598.890625 599.800781 598.90625 598.355469 600.375 Z M 598.355469 600.375 " fill-opacity="1" fill-rule="nonzero"/><path fill="rgb(8.628845%, 12.939453%, 23.919678%)" d="M 534.355469 526.144531 C 534.078125 524.101562 532.210938 522.671875 530.15625 522.953125 C 528.113281 523.230469 526.683594 525.109375 526.964844 527.152344 C 529.636719 546.800781 534.964844 566.003906 542.789062 584.222656 C 543.398438 585.632812 544.773438 586.480469 546.21875 586.480469 C 546.710938 586.480469 547.210938 586.382812 547.691406 586.175781 C 549.582031 585.363281 550.457031 583.167969 549.644531 581.277344 C 542.085938 563.675781 536.941406 545.128906 534.355469 526.144531 Z M 534.355469 526.144531 " fill-opacity="1" fill-rule="nonzero"/><path fill="rgb(8.628845%, 12.939453%, 23.919678%)" d="M 499.253906 618.25 C 497.589844 619.464844 497.226562 621.800781 498.441406 623.460938 C 509.78125 639 518.625 656.128906 524.726562 674.371094 C 525.246094 675.933594 526.703125 676.917969 528.265625 676.917969 C 528.65625 676.917969 529.054688 676.859375 529.449219 676.726562 C 531.402344 676.070312 532.457031 673.957031 531.804688 672.003906 C 525.457031 653.035156 516.261719 635.222656 504.46875 619.066406 C 503.253906 617.402344 500.921875 617.035156 499.253906 618.25 Z M 499.253906 618.25 " fill-opacity="1" fill-rule="nonzero"/><path fill="rgb(8.628845%, 12.939453%, 23.919678%)" d="M 441.332031 711.914062 C 434.230469 704.261719 426.039062 697.707031 418.117188 691.367188 C 415.675781 689.414062 413.238281 687.460938 410.828125 685.476562 C 397.507812 674.507812 384.957031 662.390625 373.527344 649.46875 C 372.160156 647.925781 369.804688 647.777344 368.257812 649.144531 C 366.714844 650.507812 366.570312 652.867188 367.9375 654.410156 C 379.628906 667.628906 392.460938 680.019531 406.085938 691.234375 C 408.519531 693.242188 410.988281 695.214844 413.453125 697.191406 C 421.164062 703.359375 429.136719 709.738281 435.859375 716.988281 C 442.699219 724.363281 451.15625 736.046875 452.613281 749.816406 C 452.816406 751.734375 454.433594 753.15625 456.320312 753.15625 C 456.449219 753.15625 456.582031 753.148438 456.714844 753.132812 C 458.765625 752.917969 460.25 751.082031 460.035156 749.03125 C 458.710938 736.515625 452.242188 723.679688 441.332031 711.914062 Z M 441.332031 711.914062 " fill-opacity="1" fill-rule="nonzero"/><path fill="rgb(8.628845%, 12.939453%, 23.919678%)" d="M 428.765625 678.929688 C 428.828125 678.929688 428.890625 678.929688 428.957031 678.925781 C 431.011719 678.824219 432.597656 677.070312 432.496094 675.015625 C 431.675781 658.714844 433.320312 642.433594 437.375 626.625 C 437.886719 624.628906 436.683594 622.597656 434.6875 622.085938 C 432.679688 621.578125 430.65625 622.777344 430.144531 624.773438 C 425.902344 641.308594 424.1875 658.335938 425.042969 675.386719 C 425.140625 677.382812 426.789062 678.929688 428.765625 678.929688 Z M 428.765625 678.929688 " fill-opacity="1" fill-rule="nonzero"/><path fill="rgb(8.628845%, 12.939453%, 23.919678%)" d="M 341.15625 694.8125 C 340.007812 696.523438 340.464844 698.839844 342.175781 699.988281 C 352.742188 707.074219 365.5625 711.191406 378.28125 711.582031 C 378.324219 711.585938 378.359375 711.585938 378.398438 711.585938 C 380.40625 711.585938 382.066406 709.988281 382.125 707.96875 C 382.191406 705.910156 380.570312 704.1875 378.511719 704.125 C 367.175781 703.777344 355.75 700.109375 346.332031 693.792969 C 344.621094 692.644531 342.304688 693.101562 341.15625 694.8125 Z M 341.15625 694.8125 " fill-opacity="1" fill-rule="nonzero"/><path fill="rgb(8.628845%, 12.939453%, 23.919678%)" d="M 503.628906 285.355469 C 504.535156 287.289062 505.488281 289.207031 506.460938 291.121094 C 507.605469 293.363281 508.792969 295.582031 510.015625 297.78125 C 511.132812 299.785156 512.269531 301.773438 513.445312 303.726562 C 514.148438 304.886719 515.382812 305.53125 516.644531 305.53125 C 516.933594 305.53125 517.222656 305.484375 517.507812 305.414062 C 517.871094 305.328125 518.230469 305.199219 518.570312 304.992188 C 520.332031 303.929688 520.902344 301.636719 519.835938 299.871094 C 519.519531 299.347656 519.21875 298.8125 518.90625 298.28125 C 517.398438 295.730469 515.941406 293.140625 514.550781 290.511719 C 513.09375 287.765625 511.695312 284.984375 510.382812 282.183594 C 509.585938 280.480469 507.671875 279.683594 505.925781 280.214844 C 505.757812 280.265625 505.585938 280.3125 505.421875 280.390625 C 503.554688 281.269531 502.753906 283.488281 503.628906 285.355469 Z M 503.628906 285.355469 " fill-opacity="1" fill-rule="nonzero"/><path fill="rgb(8.628845%, 12.939453%, 23.919678%)" d="M 359.449219 254.675781 C 360.128906 255.90625 361.402344 256.601562 362.71875 256.601562 C 363.328125 256.601562 363.949219 256.453125 364.519531 256.136719 C 367.789062 254.328125 371.492188 253.289062 375.226562 253.132812 C 377.285156 253.042969 378.882812 251.304688 378.792969 249.246094 C 378.777344 248.917969 378.710938 248.601562 378.617188 248.300781 C 378.128906 246.71875 376.648438 245.585938 374.910156 245.675781 C 373.609375 245.730469 372.3125 245.875 371.027344 246.089844 C 367.492188 246.6875 364.046875 247.871094 360.910156 249.605469 C 359.105469 250.601562 358.453125 252.871094 359.449219 254.675781 Z M 359.449219 254.675781 " fill-opacity="1" fill-rule="nonzero"/><path fill="rgb(8.628845%, 12.939453%, 23.919678%)" d="M 207.789062 280.707031 C 208.003906 280.859375 208.238281 280.996094 208.492188 281.105469 C 216.277344 284.445312 224.519531 286.304688 232.988281 286.640625 C 233.035156 286.640625 233.085938 286.640625 233.132812 286.640625 C 235.128906 286.640625 236.78125 285.066406 236.859375 283.058594 C 236.941406 281 235.335938 279.265625 233.277344 279.183594 C 229.066406 279.019531 224.917969 278.414062 220.863281 277.40625 C 217.652344 276.609375 214.5 275.566406 211.429688 274.25 C 209.542969 273.441406 207.347656 274.316406 206.53125 276.210938 C 206.507812 276.265625 206.5 276.328125 206.476562 276.386719 C 206.34375 276.742188 206.269531 277.105469 206.25 277.46875 C 206.179688 278.726562 206.742188 279.957031 207.789062 280.707031 Z M 207.789062 280.707031 " fill-opacity="1" fill-rule="nonzero"/><path fill="rgb(8.628845%, 12.939453%, 23.919678%)" d="M 363.757812 472.480469 C 363.898438 468.910156 364.320312 465.367188 364.992188 461.875 C 366.492188 454.101562 369.28125 446.601562 373.175781 439.726562 C 376.761719 433.394531 381.28125 427.582031 386.632812 422.582031 C 388.136719 421.175781 388.21875 418.816406 386.8125 417.308594 C 386.054688 416.503906 385.027344 416.121094 384 416.144531 C 383.117188 416.164062 382.234375 416.480469 381.539062 417.132812 C 366.335938 431.332031 357.140625 451.398438 356.300781 472.179688 C 356.21875 474.238281 357.820312 475.972656 359.878906 476.054688 C 359.929688 476.058594 359.980469 476.058594 360.03125 476.058594 C 360.246094 476.058594 360.453125 476.035156 360.65625 475.996094 C 362.359375 475.707031 363.6875 474.273438 363.757812 472.480469 Z M 363.757812 472.480469 " fill-opacity="1" fill-rule="nonzero"/><path fill="rgb(8.628845%, 12.939453%, 23.919678%)" d="M 328.023438 401.199219 C 328.296875 401.027344 328.566406 400.863281 328.847656 400.707031 C 325.75 404.375 322.179688 407.648438 318.261719 410.382812 C 316.570312 411.558594 316.160156 413.886719 317.339844 415.574219 C 317.765625 416.191406 318.355469 416.613281 319.003906 416.875 C 319.449219 417.054688 319.921875 417.167969 320.402344 417.167969 C 321.136719 417.167969 321.882812 416.953125 322.535156 416.5 C 327.117188 413.300781 331.28125 409.453125 334.867188 405.136719 C 337.0625 402.488281 339.046875 399.667969 340.773438 396.707031 C 340.792969 396.675781 340.796875 396.636719 340.816406 396.601562 C 341.425781 395.480469 341.429688 394.125 340.804688 393.007812 C 340.160156 391.855469 338.953125 391.132812 337.632812 391.101562 C 332.816406 390.996094 328.035156 392.34375 324.015625 394.90625 C 322.882812 395.628906 322.285156 396.855469 322.300781 398.105469 C 322.308594 398.773438 322.488281 399.449219 322.875 400.054688 C 323.984375 401.796875 326.292969 402.304688 328.023438 401.199219 Z M 328.023438 401.199219 " fill-opacity="1" fill-rule="nonzero"/><path fill="rgb(8.628845%, 12.939453%, 23.919678%)" d="M 420.164062 346.769531 C 418.207031 346.105469 416.09375 347.152344 415.429688 349.105469 C 411.132812 361.769531 413.824219 376.648438 422.289062 387.007812 C 423.027344 387.910156 424.097656 388.378906 425.179688 388.378906 C 426.011719 388.378906 426.84375 388.101562 427.539062 387.535156 C 428.164062 387.023438 428.574219 386.347656 428.773438 385.621094 C 429.074219 384.5 428.859375 383.253906 428.066406 382.289062 C 421.191406 373.875 419.003906 361.789062 422.496094 351.503906 C 422.871094 350.40625 422.6875 349.269531 422.125 348.355469 C 421.683594 347.640625 421.019531 347.058594 420.164062 346.769531 Z M 420.164062 346.769531 " fill-opacity="1" fill-rule="nonzero"/></svg>