<svg xmlns="http://www.w3.org/2000/svg" xmlns:xlink="http://www.w3.org/1999/xlink" width="750" zoomAndPan="magnify" viewBox="0 0 750 1124.99995" height="1124.99995" preserveAspectRatio="xMidYMid meet" version="1.0"><path fill="rgb(92.939758%, 58.81958%, 16.859436%)" d="M 467.316406 269.890625 C 504.980469 256.726562 547.414062 270.191406 580.378906 292.667969 C 618.453125 318.632812 648.386719 357.070312 661.695312 401.1875 C 675 445.3125 670.992188 494.894531 648.464844 535.097656 C 637.804688 554.121094 623.390625 570.730469 609.054688 587.160156 C 590.835938 608.042969 571.675781 629.542969 546.171875 640.378906 C 528.792969 647.765625 509.65625 649.652344 490.859375 651.453125 C 441.972656 656.144531 393.089844 660.832031 344.203125 665.519531 C 329.171875 666.960938 314.007812 668.402344 299.011719 666.648438 C 283.109375 664.789062 267.84375 659.386719 253.046875 653.269531 C 235.367188 645.964844 218.144531 637.601562 200.933594 629.25 C 164.578125 611.59375 126.292969 592.238281 105.089844 557.832031 C 75.03125 509.058594 88.433594 445.652344 109.246094 392.277344 C 119.488281 366.007812 131.769531 339.675781 152.117188 320.160156 C 183.492188 290.066406 228.792969 280.71875 271.511719 272.652344 C 336.84375 260.320312 404.121094 249.230469 467.316406 269.890625 " fill-opacity="1" fill-rule="nonzero"/><path fill="rgb(94.898987%, 74.508667%, 54.119873%)" d="M 150.53125 602.625 C 132.40625 590.820312 116.25 576.769531 104.949219 558.429688 C 84.035156 524.496094 84.167969 483.46875 93.191406 443.675781 C 84.300781 483.285156 84.28125 524.066406 105.089844 557.832031 C 116.300781 576.027344 132.28125 590.007812 150.238281 601.757812 C 150.332031 602.046875 150.433594 602.335938 150.53125 602.625 " fill-opacity="1" fill-rule="nonzero"/><path fill="rgb(91.369629%, 53.729248%, 12.548828%)" d="M 150.238281 601.757812 C 132.28125 590.007812 116.300781 576.027344 105.089844 557.832031 C 84.28125 524.066406 84.300781 483.285156 93.191406 443.675781 C 94.785156 436.632812 96.660156 429.632812 98.746094 422.714844 C 103.320312 413.109375 107.867188 403.335938 113.117188 394.058594 C 115.917969 393.636719 118.542969 392.074219 119.820312 389.449219 C 121.691406 385.59375 123.796875 381.90625 126.109375 378.398438 C 126.121094 379.898438 126.246094 381.394531 126.507812 382.890625 C 127.140625 386.550781 129.378906 390.695312 133.089844 390.71875 C 133.101562 390.71875 133.113281 390.71875 133.125 390.71875 C 135.347656 390.71875 137.269531 389.175781 138.78125 387.546875 C 145.214844 380.636719 147.933594 371.09375 153.238281 363.285156 C 163.28125 348.507812 180.886719 341.847656 196.484375 332.675781 C 203.789062 331.253906 211.242188 330.527344 218.703125 330.527344 C 220.136719 330.527344 221.574219 330.550781 223.011719 330.609375 C 223.101562 330.613281 223.195312 330.613281 223.285156 330.617188 C 214.15625 333.175781 205.324219 336.988281 197.050781 341.621094 C 163.417969 360.441406 138.089844 406.320312 128.316406 443.597656 C 123.976562 460.152344 117.210938 522.4375 122.046875 540.191406 C 126.878906 557.953125 130.835938 582.078125 146.757812 591.316406 C 145.402344 587.929688 144.269531 584.148438 143.332031 580.105469 C 144.402344 583.847656 145.546875 587.585938 146.757812 591.316406 C 147.886719 594.804688 149.054688 598.285156 150.238281 601.757812 " fill-opacity="1" fill-rule="nonzero"/><path fill="rgb(91.369629%, 53.729248%, 12.548828%)" d="M 475.863281 311.046875 C 474.574219 306.902344 471.71875 303.117188 468.226562 300.421875 C 468.246094 300.402344 468.261719 300.382812 468.277344 300.363281 C 470.503906 300.320312 472.84375 299.640625 474.984375 298.941406 C 486.886719 295.050781 498.792969 291.15625 510.699219 287.265625 C 514.195312 286.125 518.335938 284.1875 518.523438 280.511719 C 518.722656 276.433594 513.921875 274.164062 509.933594 273.285156 C 503.34375 271.835938 496.59375 271.109375 489.84375 271.109375 C 487.761719 271.109375 485.679688 271.175781 483.597656 271.3125 C 484.046875 269.652344 484.421875 267.96875 484.726562 266.265625 C 489.335938 265.617188 493.976562 265.308594 498.636719 265.308594 C 527.191406 265.308594 556.230469 276.898438 580.238281 293.265625 C 585.914062 297.136719 591.398438 301.285156 596.683594 305.683594 C 591.644531 304.550781 586.566406 303.699219 581.457031 303.074219 C 569.371094 293.078125 553.65625 287.914062 537.984375 287.914062 C 526.390625 287.914062 514.820312 290.742188 504.753906 296.535156 C 501.945312 298.148438 499.027344 300.289062 498.382812 303.464844 C 498.167969 304.515625 497.761719 306.199219 497.910156 307.484375 C 490.558594 308.625 483.207031 309.832031 475.863281 311.046875 " fill-opacity="1" fill-rule="nonzero"/><path fill="rgb(91.369629%, 53.729248%, 12.548828%)" d="M 523.664062 574.597656 C 525.015625 569.625 526.195312 564.605469 527.230469 559.570312 C 527.417969 558.953125 527.617188 558.347656 527.792969 557.734375 C 526.726562 563.425781 525.355469 569.054688 523.664062 574.597656 " fill-opacity="1" fill-rule="nonzero"/><path fill="rgb(98.81897%, 76.469421%, 54.119873%)" d="M 529.480469 645.847656 C 535.171875 644.449219 540.757812 642.679688 546.171875 640.378906 C 551.707031 638.027344 556.945312 635.175781 561.941406 631.929688 C 561.695312 632.257812 561.445312 632.582031 561.199219 632.910156 C 556.382812 635.996094 551.347656 638.722656 546.03125 640.980469 C 542.015625 642.683594 537.90625 644.097656 533.730469 645.285156 C 533.738281 645.28125 533.746094 645.277344 533.757812 645.273438 C 532.472656 645.492188 531.03125 645.679688 529.480469 645.847656 " fill-opacity="1" fill-rule="nonzero"/><path fill="rgb(95.289612%, 56.079102%, 12.548828%)" d="M 323.429688 662.789062 C 312.691406 662.789062 302.480469 661.71875 291.28125 658.28125 C 290.484375 657.242188 289.691406 656.199219 288.90625 655.148438 C 299.792969 656.554688 310.765625 656.992188 321.75 656.992188 C 330.640625 656.992188 339.546875 656.703125 348.425781 656.414062 C 353.226562 656.257812 358.019531 656.097656 362.816406 655.941406 C 362.566406 656.21875 362.304688 656.46875 362.027344 656.699219 C 357.839844 660.195312 352.175781 661.316406 346.734375 661.703125 C 338.398438 662.289062 330.789062 662.789062 323.429688 662.789062 M 499.449219 648.125 C 500.378906 647.25 501.292969 646.355469 502.203125 645.457031 C 534.363281 636.78125 563.179688 618.105469 585.589844 593.484375 C 580.292969 604.324219 574.179688 614.765625 567.21875 624.691406 C 565.507812 627.132812 563.746094 629.546875 561.941406 631.929688 C 556.945312 635.175781 551.707031 638.027344 546.171875 640.378906 C 540.757812 642.679688 535.171875 644.449219 529.480469 645.847656 C 520.265625 646.824219 507.09375 647.003906 499.449219 648.125 M 380.675781 619.347656 C 380.484375 619.34375 380.292969 619.335938 380.105469 619.332031 C 380.183594 615.71875 380.316406 612.355469 380.429688 609.546875 C 380.496094 612.816406 380.578125 616.082031 380.675781 619.347656 M 368.328125 617.242188 C 357.136719 613.683594 346.828125 605.902344 340.191406 596.105469 C 328.042969 578.175781 325.605469 555.472656 325.53125 533.816406 C 325.488281 519.777344 325.933594 504.542969 317.660156 493.195312 C 311.507812 484.757812 301.703125 480.949219 291.4375 480.949219 C 278.304688 480.949219 264.421875 487.1875 256.488281 497.933594 C 242.351562 517.082031 243.597656 543.863281 251.417969 566.339844 C 254.566406 575.394531 258.460938 585.808594 257.179688 594.730469 C 253.40625 583.898438 250.3125 572.746094 247.816406 561.417969 C 239.277344 522.617188 238.601562 479.722656 250.886719 441.4375 C 252.046875 439.316406 253.253906 437.21875 254.5 435.144531 C 257.121094 430.78125 259.894531 426.507812 262.769531 422.304688 C 264.292969 420.082031 265.839844 417.878906 267.417969 415.691406 C 268.058594 414.808594 269.382812 413.007812 269.832031 412.398438 C 270.316406 413.003906 270.929688 413.476562 271.695312 413.722656 C 272.066406 413.839844 272.445312 413.894531 272.820312 413.894531 C 274.480469 413.894531 276.121094 412.839844 277.386719 411.664062 C 283.28125 406.191406 285.414062 397.988281 288.253906 390.304688 C 291.109375 387.046875 293.835938 384.042969 296.027344 381.828125 C 300.308594 377.503906 304.757812 373.339844 309.421875 369.4375 C 310.007812 368.945312 310.601562 368.457031 311.195312 367.976562 C 311.265625 367.921875 311.34375 367.863281 311.429688 367.792969 C 312.5 366.960938 313.574219 366.140625 314.667969 365.339844 C 316.976562 363.648438 319.339844 362.03125 321.773438 360.527344 C 322.929688 359.816406 324.097656 359.144531 325.28125 358.492188 C 338.855469 358.90625 354.605469 361.558594 362.628906 372.699219 C 364.527344 375.335938 368.453125 378.199219 371.394531 378.199219 C 371.628906 378.199219 371.863281 378.179688 372.089844 378.140625 C 371.121094 387.820312 369.882812 409.230469 369.699219 414.332031 C 366.503906 503.796875 366.890625 538.464844 368.328125 617.242188 M 547.933594 578.992188 C 557.03125 551.0625 561.152344 520.738281 558.519531 501.355469 C 555.054688 475.871094 550.90625 452.535156 540.710938 428.925781 C 536.125 418.296875 528.71875 405.496094 522.753906 395.566406 C 515.804688 384.003906 498.53125 374.027344 482.476562 365.476562 C 471.597656 357.832031 459.417969 352.027344 446.128906 348.507812 C 445.53125 348.347656 442.328125 347.863281 437.851562 347.472656 C 434.453125 346.625 430.9375 346.277344 427.394531 346.277344 C 422.886719 346.277344 418.328125 346.839844 413.898438 347.644531 C 409.890625 348.375 405.703125 349.460938 401.964844 351.179688 C 399.09375 351.984375 395.546875 352.824219 393.660156 354.453125 C 390.238281 357.40625 381.617188 364.707031 381.25 366.925781 C 381.269531 364.566406 379.675781 353.683594 377.480469 353.683594 C 376.769531 353.683594 375.988281 354.839844 375.179688 357.816406 C 362.871094 350.515625 352 350.089844 340.746094 345.09375 C 337.738281 343.757812 334.910156 342.664062 332.378906 341.808594 C 339.558594 343.414062 346.742188 345.019531 353.921875 346.625 C 361.109375 348.230469 368.589844 349.820312 375.894531 349.820312 C 380.371094 349.820312 384.78125 349.222656 389.015625 347.664062 C 395.140625 345.414062 400.40625 341.304688 405.882812 337.703125 C 409.925781 338.753906 414.769531 339.332031 419.972656 339.332031 C 428.023438 339.332031 436.953125 337.949219 445.183594 334.777344 C 447.273438 333.96875 450.125 333.40625 453.289062 333.019531 C 454.859375 332.972656 456.449219 332.824219 458.023438 332.574219 C 460.730469 332.382812 463.5 332.285156 466.117188 332.242188 C 463.40625 333.179688 460.800781 334.539062 459.257812 336.722656 L 459.136719 336.546875 C 459.152344 336.636719 459.171875 336.726562 459.191406 336.816406 C 458.847656 337.320312 458.550781 337.863281 458.328125 338.460938 C 457.179688 341.582031 473.929688 351.910156 482.855469 351.910156 C 483.90625 351.910156 484.847656 351.765625 485.636719 351.453125 C 489.65625 349.851562 493.035156 346.972656 496.941406 345.125 C 500.609375 343.386719 504.414062 342.644531 508.273438 342.644531 C 519.902344 342.644531 532.019531 349.378906 542.324219 355.953125 C 549.535156 360.554688 556.746094 365.15625 563.957031 369.757812 C 565.089844 367.714844 565.636719 365.453125 565.703125 363.144531 C 568.007812 365.027344 570.109375 366.808594 571.164062 367.777344 C 573.707031 370.121094 587.136719 388.339844 597.785156 416.460938 C 597.765625 416.457031 597.742188 416.457031 597.726562 416.457031 C 594.234375 416.457031 590.777344 417.183594 587.5625 418.78125 C 574.539062 425.25 570.902344 441.925781 569.859375 456.425781 C 567.988281 482.398438 569.539062 508.679688 565.050781 534.328125 C 562.296875 550.054688 556.824219 565.882812 547.933594 578.992188 M 379.945312 568.613281 C 379.054688 548.355469 377.6875 527.738281 377.84375 509.113281 C 378.894531 528.960938 379.679688 548.746094 379.945312 568.613281 M 546.945312 490.066406 C 546.625 487.835938 546.273438 485.605469 545.898438 483.378906 C 546.316406 485.320312 546.660156 487.585938 546.945312 490.066406 M 135.078125 340.84375 C 140.046875 333.625 145.621094 326.859375 151.976562 320.757812 C 175.085938 298.589844 205.75 287.6875 237.375 280.25 C 237.53125 280.410156 237.941406 280.574219 238.574219 280.746094 C 237.472656 280.945312 236.375 281.148438 235.277344 281.355469 C 228.875 285.292969 222.472656 289.230469 216.070312 293.167969 C 219.050781 298.097656 224.796875 300.113281 230.722656 300.113281 C 233.539062 300.113281 236.394531 299.65625 239.007812 298.84375 C 247.125 296.316406 254.34375 291.273438 262.613281 289.320312 C 267.285156 288.214844 272.460938 287.96875 277.449219 287.476562 C 281.125 288.371094 284.410156 289.371094 286.9375 290.488281 C 291.40625 292.464844 295.800781 294.671875 300.035156 297.140625 C 297.429688 296.859375 294.871094 296.644531 292.414062 296.644531 C 286.527344 296.644531 281.257812 297.882812 277.460938 302.410156 C 272.796875 307.96875 273.695312 315.574219 277.542969 321.867188 C 259.789062 310.785156 240.015625 304.332031 219.847656 304.332031 C 211.019531 304.332031 202.121094 305.566406 193.273438 308.191406 C 182.402344 311.414062 171.566406 317.109375 161.546875 324.429688 C 152.097656 328.847656 143.171875 334.351562 135.078125 340.84375 M 233.382812 281.714844 C 231.679688 282.042969 229.972656 282.382812 228.273438 282.734375 L 233.382812 281.714844 C 234.015625 281.59375 234.644531 281.472656 235.277344 281.355469 L 235.316406 281.328125 L 233.382812 281.714844 M 321.238281 339.554688 C 321.003906 339.40625 320.675781 339.253906 320.265625 339.097656 C 320.769531 339.210938 321.269531 339.320312 321.773438 339.433594 C 321.542969 339.457031 321.367188 339.496094 321.238281 339.554688 M 279.816406 325.03125 C 270.976562 322.273438 262.582031 319.988281 261.421875 319.539062 C 247.664062 314.210938 233.042969 311.683594 218.363281 311.683594 C 213.34375 311.683594 208.324219 311.980469 203.324219 312.5625 C 210.910156 310.769531 218.476562 309.925781 225.984375 309.925781 C 243.902344 309.925781 261.496094 314.738281 278.269531 322.992188 C 278.75 323.695312 279.269531 324.375 279.816406 325.03125 M 328.785156 294.6875 C 318.832031 285.804688 306.96875 278.765625 294.882812 273.570312 C 292.253906 272.4375 289.566406 271.367188 286.839844 270.363281 C 319.261719 264.402344 352.066406 259.90625 384.488281 259.90625 C 407.980469 259.90625 431.273438 262.265625 454.0625 268.144531 C 453.011719 276.539062 448.523438 284.257812 442.789062 290.511719 C 442.742188 290.5625 442.695312 290.609375 442.648438 290.664062 C 435.019531 288.710938 427.21875 287.082031 419.503906 287.082031 C 415.867188 287.082031 412.25 287.445312 408.671875 288.308594 C 403.910156 289.453125 399.34375 291.472656 394.484375 292.082031 C 393.367188 292.222656 392.257812 292.289062 391.148438 292.289062 C 382.53125 292.289062 374.164062 288.367188 365.902344 285.46875 C 361.039062 283.761719 355.664062 282.46875 350.519531 282.46875 C 345.796875 282.46875 341.265625 283.558594 337.503906 286.417969 C 336.640625 287.074219 335.847656 287.800781 335.082031 288.566406 C 334.777344 288.15625 334.472656 287.753906 334.160156 287.355469 C 326.515625 277.617188 314.914062 269.875 302.789062 269.875 C 301.214844 269.875 299.632812 270.007812 298.050781 270.277344 C 298.53125 271.386719 299.421875 272.269531 300.488281 272.828125 L 299.585938 272.765625 C 311.324219 276.742188 321.710938 284.511719 329.015625 294.515625 C 328.9375 294.578125 328.863281 294.632812 328.785156 294.6875 M 450.261719 292.683594 C 449.910156 292.589844 449.5625 292.492188 449.214844 292.398438 C 452.992188 288.347656 456.363281 283.890625 459.710938 279.464844 C 461.019531 277.730469 463.046875 272.777344 462.910156 270.613281 L 462.894531 270.605469 C 463.332031 270.738281 463.769531 270.871094 464.203125 271 C 463.363281 273.675781 463.371094 272.914062 462.085938 275.460938 C 459.195312 281.191406 455.617188 286.515625 451.421875 291.367188 C 451.039062 291.804688 450.652344 292.246094 450.261719 292.683594 " fill-opacity="1" fill-rule="nonzero"/><path fill="rgb(91.369629%, 53.729248%, 12.548828%)" d="M 441.542969 653.359375 C 441.371094 653.320312 441.191406 653.285156 441.015625 653.246094 C 441.246094 653.238281 441.480469 653.226562 441.710938 653.214844 C 441.652344 653.265625 441.597656 653.3125 441.542969 653.359375 M 490.59375 596.78125 C 488.996094 593.769531 488.261719 590.308594 487.84375 586.898438 C 485.238281 565.761719 493.386719 544.746094 493.585938 523.449219 C 493.777344 502.59375 480.855469 478.160156 460.347656 478.160156 C 459.914062 478.160156 459.472656 478.171875 459.03125 478.195312 C 439.027344 479.203125 427.824219 502.140625 425.8125 522.066406 C 424.066406 539.332031 425.910156 556.871094 423.265625 574.019531 C 422.894531 576.417969 422.414062 578.820312 421.816406 581.210938 C 424.308594 532.652344 423.199219 483.972656 416.699219 435.664062 C 414.121094 416.558594 411.824219 401.90625 408.039062 384.800781 C 409.089844 382.921875 409.78125 380.746094 410 378.695312 C 410.417969 374.738281 410.199219 370.402344 411.289062 366.683594 C 417.03125 364.78125 424.75 364.085938 425.683594 364.085938 C 425.691406 364.085938 425.699219 364.085938 425.710938 364.085938 C 425.714844 364.085938 425.71875 364.085938 425.730469 364.085938 C 425.734375 364.085938 425.742188 364.085938 425.746094 364.085938 C 426.574219 364.085938 440.246094 364.1875 455.65625 378.777344 C 487.652344 411.382812 501.035156 445.824219 502.003906 448.214844 C 505.414062 456.648438 513.074219 487.835938 513.523438 524.265625 C 513.660156 535.453125 506.632812 562.546875 505.722656 565.09375 C 504.511719 568.496094 497.039062 585.75 493.847656 591.714844 C 493.148438 593.027344 492.03125 594.75 490.59375 596.78125 " fill-opacity="1" fill-rule="nonzero"/><path fill="rgb(94.898987%, 74.508667%, 54.119873%)" d="M 639.144531 550.324219 C 639.171875 550.152344 639.203125 549.980469 639.234375 549.808594 C 642.53125 545.046875 645.628906 540.160156 648.464844 535.097656 C 655.875 521.871094 661.285156 507.625 664.730469 492.890625 C 661.292969 507.835938 655.839844 522.289062 648.324219 535.699219 C 645.503906 540.730469 642.417969 545.589844 639.144531 550.324219 " fill-opacity="1" fill-rule="nonzero"/><path fill="rgb(91.369629%, 53.729248%, 12.548828%)" d="M 639.234375 549.808594 C 639.839844 546.332031 640.375 542.847656 640.835938 539.355469 C 661.140625 489.621094 636.667969 398.773438 611.136719 365.089844 C 604.777344 356.703125 594.226562 349.355469 586.152344 342.601562 C 574.546875 332.898438 559.945312 325.179688 544.597656 320.886719 C 545.695312 320.824219 546.796875 320.773438 547.898438 320.726562 C 551.03125 320.589844 554.140625 320.519531 557.230469 320.519531 C 559.253906 320.519531 561.261719 320.546875 563.265625 320.609375 C 568.253906 323.175781 573.386719 325.238281 578.957031 325.808594 C 579.632812 325.875 580.324219 325.917969 581.011719 325.917969 C 582.765625 325.917969 584.5 325.640625 586.011719 324.785156 C 586.742188 324.371094 587.375 323.835938 587.910156 323.21875 C 601.988281 325.886719 615.5 330.703125 628.378906 338.378906 C 643.152344 357.332031 654.617188 378.785156 661.554688 401.789062 C 670.421875 431.195312 671.601562 463.023438 664.730469 492.890625 C 661.285156 507.625 655.875 521.871094 648.464844 535.097656 C 645.628906 540.160156 642.53125 545.046875 639.234375 549.808594 M 598.109375 368.765625 C 591.335938 360.707031 583.742188 353.300781 575.292969 346.722656 C 561.109375 335.6875 545.40625 327.558594 528.777344 322.105469 C 528.867188 322.101562 528.949219 322.089844 529.039062 322.082031 C 555.710938 328.378906 579.710938 346.699219 598.109375 368.765625 " fill-opacity="1" fill-rule="nonzero"/><path fill="rgb(94.898987%, 74.508667%, 54.119873%)" d="M 227.5 642.636719 C 218.554688 638.46875 209.671875 634.15625 200.796875 629.847656 C 196.964844 627.984375 193.117188 626.105469 189.269531 624.195312 C 189.054688 623.867188 188.84375 623.539062 188.632812 623.210938 C 192.742188 625.257812 196.851562 627.261719 200.933594 629.25 C 206.304688 631.855469 211.675781 634.464844 217.0625 637.039062 C 215.898438 636.703125 214.722656 636.363281 213.535156 636.011719 C 218.113281 637.972656 222.78125 640.25 227.5 642.636719 " fill-opacity="1" fill-rule="nonzero"/><path fill="rgb(91.369629%, 53.729248%, 12.548828%)" d="M 243.871094 644.367188 C 235.652344 642.207031 226.804688 639.855469 217.0625 637.039062 C 211.675781 634.464844 206.304688 631.855469 200.933594 629.25 C 196.851562 627.261719 192.742188 625.257812 188.632812 623.210938 C 188.136719 622.449219 187.644531 621.683594 187.167969 620.90625 C 182.722656 613.667969 178.847656 606.164062 175.519531 598.457031 C 181.210938 605.800781 187.882812 612.375 195.386719 617.882812 L 194.675781 613.441406 C 209.226562 625.824219 225.769531 635.832031 243.445312 643.082031 C 243.585938 643.511719 243.726562 643.9375 243.871094 644.367188 M 234.847656 609.882812 C 233.96875 609.730469 233.085938 609.53125 232.210938 609.292969 C 228.847656 595.597656 226.40625 580.820312 224.828125 565.882812 C 226.949219 577.375 229.539062 588.777344 232.472656 600.089844 C 233.3125 603.339844 234.09375 606.613281 234.847656 609.882812 M 197.03125 509.453125 C 195.492188 504.949219 193.152344 500.917969 189.277344 498.226562 C 186.429688 496.25 183.117188 495.367188 179.730469 495.367188 C 173.34375 495.367188 166.699219 498.507812 162.410156 503.433594 C 161.234375 504.785156 160.203125 506.230469 159.300781 507.753906 C 159.71875 489.21875 161.390625 464.886719 162.121094 459.976562 C 165.1875 439.375 173.796875 422.113281 196.621094 389.5625 C 196.945312 390.695312 197.441406 391.769531 198.136719 392.742188 C 199.269531 394.316406 201.078125 395.578125 202.972656 395.578125 C 203.214844 395.578125 203.460938 395.554688 203.707031 395.511719 C 205.257812 395.234375 206.503906 394.125 207.664062 393.058594 C 212.792969 388.339844 217.980469 383.550781 221.742188 377.6875 C 223.960938 374.234375 225.640625 370.46875 227.726562 366.941406 C 232.308594 359.1875 239.425781 352.316406 248.292969 350.742188 C 250.765625 350.300781 253.316406 350.285156 255.734375 349.613281 C 258.84375 348.75 261.714844 346.6875 263.039062 343.75 C 263.148438 343.503906 263.242188 343.257812 263.328125 343.003906 C 268.222656 342.378906 272.335938 342.1875 275.5625 342.1875 C 279.996094 342.1875 282.75 342.554688 283.519531 342.683594 C 283.625 342.703125 293.496094 349.777344 287.066406 355.996094 L 287.046875 356.011719 C 256.1875 367.550781 228.023438 401.367188 215.257812 431.730469 C 206.101562 453.496094 198.296875 476.253906 197.207031 499.839844 C 197.0625 502.914062 197.007812 506.128906 197.03125 509.453125 " fill-opacity="1" fill-rule="nonzero"/><path fill="rgb(86.669922%, 50.588989%, 12.159729%)" d="M 332.378906 341.808594 C 328.84375 341.015625 325.308594 340.226562 321.773438 339.433594 C 321.898438 339.425781 322.035156 339.417969 322.191406 339.417969 C 323.976562 339.417969 327.65625 340.203125 332.378906 341.808594 M 320.265625 339.097656 C 316.796875 338.320312 313.328125 337.546875 309.855469 336.769531 C 297.503906 336.089844 300.558594 336.800781 289.140625 332.050781 C 285.59375 330.574219 282.355469 328.066406 279.816406 325.03125 C 288.660156 327.792969 297.949219 331.03125 300.886719 333.375 C 303.691406 335.617188 316.101562 337.515625 320.265625 339.097656 M 405.882812 337.703125 C 388.675781 333.246094 385.863281 320.292969 430.398438 307.316406 C 430.488281 307.285156 430.578125 307.277344 430.652344 307.277344 C 430.78125 307.277344 430.886719 307.300781 430.976562 307.304688 C 431.078125 307.253906 431.203125 307.199219 431.386719 307.128906 C 431.820312 306.957031 433.449219 306.304688 433.589844 306.304688 C 433.605469 306.304688 433.597656 306.320312 433.546875 306.347656 C 435.53125 305.355469 437.425781 304.175781 439.234375 302.894531 C 442.863281 300.332031 446.757812 296.597656 450.261719 292.683594 C 453.984375 293.703125 457.722656 294.8125 461.230469 296.359375 C 461.734375 297.484375 462.527344 298.460938 463.65625 299.1875 C 464.984375 300.042969 466.484375 300.367188 468.039062 300.367188 C 468.078125 300.367188 468.113281 300.367188 468.152344 300.367188 C 468.175781 300.382812 468.203125 300.402344 468.226562 300.421875 C 467.15625 301.777344 466.054688 303.105469 464.929688 304.40625 C 462.058594 307.726562 458.75 311.226562 455.101562 314.429688 C 462.019531 313.335938 468.9375 312.191406 475.863281 311.046875 C 476.621094 313.484375 476.832031 316.046875 476.3125 318.582031 C 474.636719 326.722656 466.570312 331.199219 458.023438 332.574219 C 456.40625 332.6875 454.8125 332.832031 453.289062 333.019531 C 452.9375 333.027344 452.585938 333.035156 452.234375 333.035156 C 451.566406 333.035156 450.902344 333.015625 450.25 332.976562 C 442.496094 332.542969 434.648438 330.597656 426.980469 330.597656 C 423.945312 330.597656 420.9375 330.90625 417.976562 331.726562 C 413.605469 332.945312 409.691406 335.199219 405.882812 337.703125 M 329.984375 318.871094 C 327.644531 318.871094 325.339844 318.058594 323.765625 316.257812 C 317.007812 308.5625 308.863281 302.28125 300.035156 297.140625 C 301.207031 297.269531 302.390625 297.410156 303.574219 297.550781 C 307.390625 298.003906 311.238281 298.457031 314.929688 298.457031 C 319.976562 298.457031 324.730469 297.609375 328.695312 294.753906 C 328.726562 294.730469 328.753906 294.710938 328.785156 294.6875 C 329.117188 294.980469 329.445312 295.28125 329.773438 295.582031 C 331.726562 298.382812 333.441406 301.351562 334.878906 304.457031 C 335.402344 305.578125 335.921875 306.765625 336.890625 307.535156 C 337.402344 307.945312 338.085938 308.183594 338.734375 308.183594 C 338.980469 308.183594 339.222656 308.148438 339.449219 308.078125 C 339.953125 310.839844 339.269531 313.722656 337.039062 316.027344 C 335.285156 317.84375 332.613281 318.871094 329.984375 318.871094 " fill-opacity="1" fill-rule="nonzero"/><path fill="rgb(85.488892%, 47.44873%, 9.408569%)" d="M 455.101562 314.429688 C 458.75 311.226562 462.058594 307.726562 464.929688 304.40625 C 466.054688 303.105469 467.15625 301.777344 468.226562 300.421875 C 471.71875 303.117188 474.574219 306.902344 475.863281 311.046875 C 468.9375 312.191406 462.019531 313.335938 455.101562 314.429688 " fill-opacity="1" fill-rule="nonzero"/><path fill="rgb(88.238525%, 49.01886%, 9.408569%)" d="M 375.894531 349.820312 C 368.589844 349.820312 361.109375 348.230469 353.921875 346.625 C 346.742188 345.019531 339.558594 343.414062 332.378906 341.808594 C 327.65625 340.203125 323.976562 339.417969 322.191406 339.417969 C 322.035156 339.417969 321.898438 339.425781 321.773438 339.433594 C 321.269531 339.320312 320.769531 339.210938 320.265625 339.097656 C 316.101562 337.515625 303.691406 335.617188 300.886719 333.375 C 297.949219 331.03125 288.660156 327.792969 279.816406 325.03125 C 279.269531 324.375 278.75 323.695312 278.269531 322.992188 C 279.761719 323.726562 281.246094 324.484375 282.726562 325.273438 C 281.015625 324.09375 279.289062 322.957031 277.542969 321.867188 C 273.695312 315.574219 272.796875 307.96875 277.460938 302.410156 C 281.257812 297.882812 286.527344 296.644531 292.414062 296.644531 C 294.871094 296.644531 297.429688 296.859375 300.035156 297.140625 C 308.863281 302.28125 317.007812 308.5625 323.765625 316.257812 C 325.339844 318.058594 327.644531 318.871094 329.984375 318.871094 C 332.613281 318.871094 335.285156 317.84375 337.039062 316.027344 C 339.269531 313.722656 339.953125 310.839844 339.449219 308.078125 C 339.757812 307.980469 340.035156 307.808594 340.257812 307.558594 C 340.699219 307.066406 340.835938 306.378906 340.917969 305.722656 C 341.675781 299.578125 338.789062 293.601562 335.082031 288.566406 C 335.847656 287.800781 336.640625 287.074219 337.503906 286.417969 C 341.265625 283.558594 345.796875 282.46875 350.519531 282.46875 C 355.664062 282.46875 361.039062 283.761719 365.902344 285.46875 C 374.164062 288.367188 382.53125 292.289062 391.148438 292.289062 C 392.257812 292.289062 393.367188 292.222656 394.484375 292.082031 C 399.34375 291.472656 403.910156 289.453125 408.671875 288.308594 C 412.25 287.445312 415.867188 287.082031 419.503906 287.082031 C 427.21875 287.082031 435.019531 288.710938 442.648438 290.664062 C 436.707031 297.09375 429.476562 302.171875 422.308594 307.195312 C 430.316406 306.703125 437.796875 302.753906 443.890625 297.539062 C 445.769531 295.929688 447.53125 294.207031 449.214844 292.398438 C 449.5625 292.492188 449.910156 292.589844 450.261719 292.683594 C 446.757812 296.597656 442.863281 300.332031 439.234375 302.894531 C 437.425781 304.175781 435.53125 305.355469 433.546875 306.347656 C 433.597656 306.320312 433.605469 306.304688 433.589844 306.304688 C 433.449219 306.304688 431.820312 306.957031 431.386719 307.128906 C 431.203125 307.199219 431.078125 307.253906 430.976562 307.304688 C 430.886719 307.300781 430.78125 307.277344 430.652344 307.277344 C 430.578125 307.277344 430.488281 307.285156 430.398438 307.316406 C 385.863281 320.292969 388.675781 333.246094 405.882812 337.703125 C 400.40625 341.304688 395.140625 345.414062 389.015625 347.664062 C 384.78125 349.222656 380.371094 349.820312 375.894531 349.820312 M 453.289062 333.019531 C 454.8125 332.832031 456.40625 332.6875 458.023438 332.574219 C 456.449219 332.824219 454.859375 332.972656 453.289062 333.019531 M 329.773438 295.582031 C 329.445312 295.28125 329.117188 294.980469 328.785156 294.6875 C 328.863281 294.632812 328.9375 294.578125 329.015625 294.515625 C 329.269531 294.871094 329.523438 295.222656 329.773438 295.582031 " fill-opacity="1" fill-rule="nonzero"/><path fill="rgb(81.959534%, 63.139343%, 44.309998%)" d="M 374.488281 250.75 C 380.238281 242.808594 387.523438 234.859375 397.207031 233.34375 C 403.59375 232.339844 410.039062 234.332031 416.144531 236.460938 C 422.796875 238.78125 430.222656 242.175781 432.105469 248.964844 C 433.636719 254.480469 430.765625 260.363281 426.789062 264.480469 C 422.8125 268.597656 417.773438 271.523438 413.488281 275.320312 C 404.644531 283.160156 399.28125 294.945312 399.71875 306.753906 C 400.15625 318.566406 406.574219 330.117188 416.660156 336.28125 L 402.914062 343.191406 C 389.675781 348.183594 382.964844 350.050781 371.742188 349.722656 C 366.605469 349.570312 360.882812 348.851562 356.039062 347.136719 C 342.949219 342.515625 337.585938 340.277344 325.96875 340.480469 C 351.769531 316.980469 354.023438 279.015625 374.488281 250.75 " fill-opacity="1" fill-rule="nonzero"/><path fill="rgb(93.728638%, 86.268616%, 80.778503%)" d="M 402.679688 235.777344 C 409.71875 234.710938 428.953125 246.773438 428.953125 246.773438 C 430.402344 249.855469 429.367188 255.359375 424.714844 259.925781 C 422.046875 262.542969 419.5 265.363281 415.792969 265.832031 C 408.53125 266.753906 400.914062 262.421875 397.984375 255.714844 C 395.058594 249.003906 395.4375 236.871094 402.679688 235.777344 " fill-opacity="1" fill-rule="nonzero"/><path fill="rgb(55.688477%, 39.99939%, 26.269531%)" d="M 397.984375 255.714844 L 396.316406 249.496094 C 395.203125 250.265625 384.109375 266.023438 383.660156 267.296875 C 376.207031 288.523438 372.875 304.023438 364.933594 321.582031 C 362.710938 326.492188 362.613281 332.238281 364.980469 337.085938 C 366.839844 340.890625 376.714844 342.191406 380.945312 342.316406 C 385.175781 342.4375 391.171875 340.773438 394.738281 338.496094 C 398.78125 335.921875 401.730469 333.769531 402.90625 332.542969 C 406.113281 329.191406 399.28125 322.476562 398.847656 317.859375 C 397.199219 300.226562 394.882812 294.128906 403.417969 282.683594 C 406.066406 279.136719 418.78125 267.886719 420.484375 263.804688 C 412.265625 266.800781 401.316406 266.992188 397.984375 255.714844 " fill-opacity="1" fill-rule="nonzero"/><path fill="rgb(64.709473%, 29.019165%, 0%)" d="M 213.535156 636.011719 C 232.449219 644.121094 252.820312 657.519531 272.34375 662.230469 C 291.671875 666.894531 300.160156 672.5625 325.125 671.078125 C 334.378906 670.527344 348.082031 667.226562 357.238281 665.789062 C 369.753906 663.824219 382.425781 667.027344 395.058594 667.929688 C 405.839844 668.703125 416.667969 667.800781 427.4375 666.894531 C 434.734375 666.285156 442.035156 665.671875 449.335938 665.058594 C 470.132812 663.3125 491.1875 661.515625 510.882812 654.617188 C 516.636719 652.601562 523.539062 649.058594 533.757812 645.273438 C 524.859375 646.789062 508.378906 646.820312 499.449219 648.125 C 496.121094 648.613281 486.273438 648.023438 477.660156 648.820312 C 462.476562 650.226562 460.878906 656.300781 445.789062 654.136719 C 441.441406 653.511719 437.203125 652.199219 432.828125 651.800781 C 425.605469 651.136719 419.339844 652.652344 413.132812 654.167969 C 406.25 655.851562 399.445312 657.535156 391.507812 656.238281 C 389.679688 655.945312 388.355469 655.976562 387.359375 656.015625 C 384.523438 656.113281 384.261719 656.21875 382.15625 648.691406 C 379.304688 638.515625 380.003906 620.078125 380.429688 609.519531 C 381.695312 577.972656 377.578125 540.683594 377.84375 509.113281 C 378.191406 467.027344 380.898438 409.007812 381.25 366.925781 C 381.285156 362.980469 376.796875 335.15625 372.539062 374.429688 C 371.5625 380.296875 369.914062 408.386719 369.699219 414.332031 C 366.40625 506.488281 366.914062 540.507812 368.464844 624.488281 C 368.617188 632.859375 368.457031 651.328125 362.027344 656.699219 C 357.839844 660.195312 352.175781 661.316406 346.734375 661.703125 C 324.597656 663.257812 307.617188 664.222656 286.714844 656.761719 C 265.8125 649.300781 244.035156 644.984375 213.535156 636.011719 " fill-opacity="1" fill-rule="nonzero"/><path fill="rgb(77.249146%, 39.608765%, 3.529358%)" d="M 527.800781 599.222656 C 534.117188 584.882812 539.941406 571.089844 541.835938 564.601562 C 545.378906 552.472656 548.332031 540.019531 548.296875 527.378906 C 548.273438 518.109375 548.273438 501.726562 546.945312 490.066406 C 549.910156 510.71875 550.523438 531.550781 547.761719 552.398438 C 546.019531 565.558594 542.742188 578.597656 537.933594 591.035156 C 534.839844 594.0625 531.46875 596.808594 527.800781 599.222656 M 545.898438 483.378906 C 545.894531 483.351562 545.886719 483.320312 545.882812 483.289062 C 540.027344 456.355469 531.695312 439.914062 520.949219 414.535156 C 510.199219 389.15625 482.195312 368.8125 459.617188 353.007812 C 465.734375 356.773438 473.933594 360.921875 482.476562 365.476562 C 495.410156 374.554688 506.515625 386.234375 515.464844 399.773438 C 529.503906 421.019531 538.1875 445.761719 543.457031 470.546875 C 544.363281 474.816406 545.179688 479.09375 545.898438 483.378906 " fill-opacity="1" fill-rule="nonzero"/><path fill="rgb(77.648926%, 39.219666%, 2.349854%)" d="M 537.933594 591.035156 C 542.742188 578.597656 546.019531 565.558594 547.761719 552.398438 C 550.523438 531.550781 549.910156 510.71875 546.945312 490.066406 C 546.660156 487.585938 546.316406 485.320312 545.898438 483.378906 C 545.179688 479.09375 544.363281 474.816406 543.457031 470.546875 C 538.1875 445.761719 529.503906 421.019531 515.464844 399.773438 C 506.515625 386.234375 495.410156 374.554688 482.476562 365.476562 C 498.53125 374.027344 515.804688 384.003906 522.753906 395.566406 C 528.71875 405.496094 536.125 418.296875 540.710938 428.925781 C 550.90625 452.535156 555.054688 475.871094 558.519531 501.355469 C 561.152344 520.738281 557.03125 551.0625 547.933594 578.992188 C 544.984375 583.339844 541.660156 587.386719 537.933594 591.035156 " fill-opacity="1" fill-rule="nonzero"/><path fill="rgb(77.249146%, 39.608765%, 3.529358%)" d="M 496.925781 320.175781 C 498.066406 319.804688 499.207031 319.433594 500.351562 319.0625 L 499.113281 319.558594 C 498.378906 319.753906 497.648438 319.960938 496.925781 320.175781 " fill-opacity="1" fill-rule="nonzero"/><path fill="rgb(77.249146%, 39.608765%, 3.529358%)" d="M 640.828125 539.371094 C 647.335938 492.636719 624.425781 400.632812 598.660156 369.429688 C 598.476562 369.210938 598.292969 368.988281 598.109375 368.765625 C 627.960938 404.292969 641.832031 452.5 643.011719 498.410156 C 643.359375 512 642.636719 525.734375 640.835938 539.355469 C 640.832031 539.359375 640.832031 539.363281 640.828125 539.371094 M 529.039062 322.082031 C 522.582031 320.5625 515.976562 319.738281 509.253906 319.738281 C 504.890625 319.738281 500.472656 320.085938 496.019531 320.808594 L 499.113281 319.558594 C 505.351562 317.910156 511.855469 317.144531 518.457031 317.144531 C 527.140625 317.144531 535.988281 318.476562 544.597656 320.886719 C 539.382812 321.164062 534.199219 321.574219 529.039062 322.082031 " fill-opacity="1" fill-rule="nonzero"/><path fill="rgb(76.858521%, 38.819885%, 2.349854%)" d="M 640.835938 539.355469 C 642.636719 525.734375 643.359375 512 643.011719 498.410156 C 641.832031 452.5 627.960938 404.292969 598.109375 368.765625 C 579.710938 346.699219 555.710938 328.378906 529.039062 322.082031 C 534.199219 321.574219 539.382812 321.164062 544.597656 320.886719 C 559.945312 325.179688 574.546875 332.898438 586.152344 342.601562 C 594.226562 349.355469 604.777344 356.703125 611.136719 365.089844 C 636.667969 398.773438 661.140625 489.621094 640.835938 539.355469 " fill-opacity="1" fill-rule="nonzero"/><path fill="rgb(77.249146%, 39.608765%, 3.529358%)" d="M 224.828125 565.882812 C 224.78125 565.621094 224.734375 565.355469 224.6875 565.09375 C 217.269531 524.421875 213.925781 479.285156 230.539062 440.324219 C 231.578125 437.886719 244 407.503906 251.246094 395.875 C 260.109375 381.664062 271.113281 369.015625 283.792969 358.296875 C 285.179688 357.554688 286.253906 356.78125 287.066406 355.996094 L 289.289062 354.035156 C 260.285156 390.457031 230.757812 437.375 224.925781 483.566406 C 221.945312 507.164062 221.757812 536.832031 224.828125 565.882812 " fill-opacity="1" fill-rule="nonzero"/><path fill="rgb(76.858521%, 38.819885%, 2.349854%)" d="M 232.210938 609.292969 C 227.183594 607.902344 222.417969 605.070312 219.011719 601.210938 C 210.457031 591.511719 208.183594 577.957031 206.257812 565.167969 C 204.074219 550.644531 201.886719 536.121094 199.695312 521.601562 C 199.089844 517.574219 198.359375 513.339844 197.03125 509.453125 C 197.007812 506.128906 197.0625 502.914062 197.207031 499.839844 C 198.296875 476.253906 206.101562 453.496094 215.257812 431.730469 C 228.023438 401.367188 256.1875 367.550781 287.046875 356.011719 L 287.066406 355.996094 C 286.253906 356.78125 285.179688 357.554688 283.792969 358.296875 C 271.113281 369.015625 260.109375 381.664062 251.246094 395.875 C 244 407.503906 231.578125 437.886719 230.539062 440.324219 C 213.925781 479.285156 217.269531 524.421875 224.6875 565.09375 C 224.734375 565.355469 224.78125 565.621094 224.828125 565.882812 C 226.40625 580.820312 228.847656 595.597656 232.210938 609.292969 " fill-opacity="1" fill-rule="nonzero"/><path fill="rgb(77.249146%, 39.608765%, 3.529358%)" d="M 143.332031 580.105469 C 138.527344 563.335938 135.167969 546.402344 133.867188 528.851562 C 131.421875 495.832031 134.28125 462.839844 147.03125 432.042969 C 153.597656 416.1875 162.785156 401.992188 172.597656 387.988281 C 179.929688 377.535156 187.570312 367.097656 196.464844 357.886719 C 206.460938 346.824219 217.835938 337.359375 230.410156 331.1875 C 228.027344 330.917969 225.652344 330.714844 223.285156 330.617188 C 231.371094 328.355469 239.683594 327.070312 248.054688 327.070312 C 249.347656 327.070312 250.648438 327.101562 251.945312 327.164062 C 230.757812 333.941406 212.035156 345.617188 197.792969 362.707031 C 183.554688 379.800781 172.992188 399.636719 163.585938 419.796875 C 148.152344 452.882812 142.558594 488.808594 139.988281 525.230469 C 138.886719 540.800781 139.320312 562.8125 143.332031 580.105469 " fill-opacity="1" fill-rule="nonzero"/><path fill="rgb(76.858521%, 38.819885%, 2.349854%)" d="M 146.757812 591.316406 C 130.835938 582.078125 126.878906 557.953125 122.046875 540.191406 C 117.210938 522.4375 123.976562 460.152344 128.316406 443.597656 C 138.089844 406.320312 163.417969 360.441406 197.050781 341.621094 C 205.324219 336.988281 214.15625 333.175781 223.285156 330.617188 C 225.652344 330.714844 228.027344 330.917969 230.410156 331.1875 C 217.835938 337.359375 206.460938 346.824219 196.464844 357.886719 C 187.570312 367.097656 179.929688 377.535156 172.597656 387.988281 C 162.785156 401.992188 153.597656 416.1875 147.03125 432.042969 C 134.28125 462.839844 131.421875 495.832031 133.867188 528.851562 C 135.167969 546.402344 138.527344 563.335938 143.332031 580.105469 C 144.269531 584.148438 145.402344 587.929688 146.757812 591.316406 " fill-opacity="1" fill-rule="nonzero"/><path fill="rgb(77.249146%, 39.608765%, 3.529358%)" d="M 119.191406 376.671875 C 127.183594 357.210938 142.960938 338.015625 161.546875 324.429688 C 174.710938 318.277344 188.902344 314.234375 203.324219 312.5625 C 201.855469 312.910156 200.375 313.292969 198.902344 313.714844 C 181.296875 318.726562 164.984375 328.046875 151.523438 340.449219 C 145.746094 344.511719 140.246094 348.925781 135.722656 354.320312 C 131.683594 359.136719 128.496094 364.898438 127.015625 370.960938 C 124.628906 372.589844 120.480469 376.425781 119.191406 376.671875 M 184.992188 317.839844 C 180.425781 319.136719 176.164062 321.453125 172.726562 324.757812 L 184.992188 317.839844 M 189.109375 315.519531 L 184.992188 317.839844 C 185.324219 317.746094 185.65625 317.660156 185.992188 317.578125 C 187.03125 316.890625 188.066406 316.207031 189.109375 315.519531 " fill-opacity="1" fill-rule="nonzero"/><path fill="rgb(77.648926%, 39.219666%, 2.349854%)" d="M 161.546875 324.429688 C 171.566406 317.109375 182.402344 311.414062 193.273438 308.191406 C 202.121094 305.566406 211.019531 304.332031 219.847656 304.332031 C 240.015625 304.332031 259.789062 310.785156 277.542969 321.867188 C 277.773438 322.246094 278.019531 322.621094 278.269531 322.992188 C 261.496094 314.738281 243.902344 309.925781 225.984375 309.925781 C 218.476562 309.925781 210.910156 310.769531 203.324219 312.5625 C 188.902344 314.234375 174.710938 318.277344 161.546875 324.429688 " fill-opacity="1" fill-rule="nonzero"/><path fill="rgb(76.469421%, 37.649536%, 1.959229%)" d="M 282.726562 325.273438 C 281.246094 324.484375 279.761719 323.726562 278.269531 322.992188 C 278.019531 322.621094 277.773438 322.246094 277.542969 321.867188 C 279.289062 322.957031 281.015625 324.09375 282.726562 325.273438 " fill-opacity="1" fill-rule="nonzero"/><path fill="rgb(77.648926%, 39.219666%, 2.349854%)" d="M 329.015625 294.515625 C 321.710938 284.511719 311.324219 276.742188 299.585938 272.765625 L 300.488281 272.828125 C 299.421875 272.269531 298.53125 271.386719 298.050781 270.277344 C 299.632812 270.007812 301.214844 269.875 302.789062 269.875 C 314.914062 269.875 326.515625 277.617188 334.160156 287.355469 C 334.472656 287.753906 334.777344 288.15625 335.082031 288.566406 C 333.078125 290.570312 331.269531 292.8125 329.015625 294.515625 " fill-opacity="1" fill-rule="nonzero"/><path fill="rgb(76.078796%, 38.038635%, 2.349854%)" d="M 338.734375 308.183594 C 338.085938 308.183594 337.402344 307.945312 336.890625 307.535156 C 335.921875 306.765625 335.402344 305.578125 334.878906 304.457031 C 333.441406 301.351562 331.726562 298.382812 329.773438 295.582031 C 332.253906 297.851562 334.605469 300.242188 336.808594 302.753906 C 338.179688 304.316406 339.097656 306.167969 339.449219 308.078125 C 339.222656 308.148438 338.980469 308.183594 338.734375 308.183594 " fill-opacity="1" fill-rule="nonzero"/><path fill="rgb(76.469421%, 37.649536%, 1.959229%)" d="M 339.449219 308.078125 C 339.097656 306.167969 338.179688 304.316406 336.808594 302.753906 C 334.605469 300.242188 332.253906 297.851562 329.773438 295.582031 C 329.523438 295.222656 329.269531 294.871094 329.015625 294.515625 C 331.269531 292.8125 333.078125 290.570312 335.082031 288.566406 C 338.789062 293.601562 341.675781 299.578125 340.917969 305.722656 C 340.835938 306.378906 340.699219 307.066406 340.257812 307.558594 C 340.035156 307.808594 339.757812 307.980469 339.449219 308.078125 " fill-opacity="1" fill-rule="nonzero"/><path fill="rgb(77.249146%, 39.608765%, 3.529358%)" d="M 462.894531 270.605469 C 459.960938 269.722656 457.015625 268.902344 454.0625 268.144531 C 454.101562 267.804688 454.140625 267.464844 454.171875 267.128906 L 462.894531 270.605469 " fill-opacity="1" fill-rule="nonzero"/><path fill="rgb(77.648926%, 39.219666%, 2.349854%)" d="M 449.214844 292.398438 C 448.902344 292.316406 448.589844 292.230469 448.277344 292.148438 C 446.414062 291.644531 444.535156 291.144531 442.648438 290.664062 C 442.695312 290.609375 442.742188 290.5625 442.789062 290.511719 C 448.523438 284.257812 453.011719 276.539062 454.0625 268.144531 C 457.015625 268.902344 459.960938 269.722656 462.894531 270.605469 L 462.910156 270.613281 C 463.046875 272.777344 461.019531 277.730469 459.710938 279.464844 C 456.363281 283.890625 452.992188 288.347656 449.214844 292.398438 " fill-opacity="1" fill-rule="nonzero"/><path fill="rgb(76.469421%, 37.649536%, 1.959229%)" d="M 422.308594 307.195312 C 429.476562 302.171875 436.707031 297.09375 442.648438 290.664062 C 444.535156 291.144531 446.414062 291.644531 448.277344 292.148438 C 448.589844 292.230469 448.902344 292.316406 449.214844 292.398438 C 447.53125 294.207031 445.769531 295.929688 443.890625 297.539062 C 437.796875 302.753906 430.316406 306.703125 422.308594 307.195312 " fill-opacity="1" fill-rule="nonzero"/><path fill="rgb(89.408875%, 54.119873%, 14.118958%)" d="M 384.492188 655.21875 C 383.804688 654.320312 383.210938 652.464844 382.15625 648.691406 C 382.15625 648.6875 382.15625 648.6875 382.15625 648.6875 C 381.949219 645.964844 381.769531 643.246094 381.605469 640.523438 C 381.183594 633.46875 380.890625 626.40625 380.675781 619.347656 C 380.9375 619.351562 381.199219 619.355469 381.460938 619.355469 C 386.570312 619.355469 391.644531 618.347656 396.4375 616.144531 C 409.996094 609.902344 418.125 595.914062 421.816406 581.210938 C 420.574219 605.378906 418.441406 629.519531 415.632812 653.566406 C 414.800781 653.761719 413.964844 653.96875 413.132812 654.167969 C 413.007812 654.199219 412.882812 654.230469 412.761719 654.261719 C 403.335938 654.585938 393.914062 654.902344 384.492188 655.21875 M 288.90625 655.148438 C 288.367188 655.078125 287.832031 655.007812 287.292969 654.933594 C 282.757812 654.308594 278.25 653.503906 273.773438 652.53125 C 267.429688 650.617188 260.875 648.839844 253.902344 647.003906 C 250.378906 645.800781 246.886719 644.492188 243.445312 643.082031 C 243.292969 642.628906 243.144531 642.171875 243 641.722656 C 243 641.722656 243.003906 641.722656 243.007812 641.722656 C 243 641.699219 242.988281 641.675781 242.980469 641.65625 C 242.328125 639.632812 241.707031 637.601562 241.117188 635.554688 C 238.675781 627.085938 236.835938 618.46875 234.847656 609.882812 C 236.265625 610.125 237.679688 610.253906 239.082031 610.253906 C 244.4375 610.253906 249.523438 608.410156 253.035156 604.226562 C 255.417969 601.394531 256.683594 598.171875 257.179688 594.730469 C 261.648438 607.5625 267.0625 619.949219 273.546875 631.65625 C 278.039062 639.773438 283.273438 647.609375 288.90625 655.148438 M 441.710938 653.214844 C 448.980469 646.855469 479.460938 612.511719 490.59375 596.78125 C 490.917969 597.402344 491.285156 598 491.6875 598.582031 C 495.296875 603.714844 501.078125 605.804688 507.328125 605.804688 C 513.992188 605.804688 521.183594 603.433594 526.835938 599.851562 C 527.160156 599.644531 527.484375 599.433594 527.800781 599.222656 C 521.964844 612.488281 515.714844 626.226562 511.78125 635.101562 C 508.734375 638.695312 505.539062 642.148438 502.203125 645.457031 C 500.804688 645.835938 499.40625 646.191406 497.992188 646.53125 C 495.179688 647.207031 492.347656 647.816406 489.507812 648.363281 C 485.792969 648.378906 481.597656 648.457031 477.660156 648.820312 C 471.859375 649.355469 468.039062 650.574219 464.691406 651.757812 C 457.058594 652.449219 449.382812 652.886719 441.710938 653.214844 M 175.519531 598.457031 C 160.824219 579.5 152.632812 555.429688 153.457031 531.421875 C 153.742188 523.226562 155.171875 514.710938 159.300781 507.753906 C 159.222656 511.292969 159.191406 514.625 159.214844 517.5625 C 159.476562 545.390625 164.550781 573.050781 175.519531 598.457031 M 585.589844 593.484375 C 597.730469 568.632812 605.59375 541.683594 609.550781 514.023438 C 614.949219 476.257812 607.53125 442.210938 597.785156 416.460938 C 607.238281 416.480469 616.9375 421.816406 622.816406 429.550781 C 630.878906 440.167969 633.15625 454.054688 633.671875 467.378906 C 635.453125 513.660156 616.695312 559.304688 585.589844 593.484375 " fill-opacity="1" fill-rule="nonzero"/><path fill="rgb(91.369629%, 52.159119%, 10.978699%)" d="M 321.75 656.992188 C 310.765625 656.992188 299.792969 656.554688 288.90625 655.148438 C 283.273438 647.609375 278.039062 639.773438 273.546875 631.65625 C 267.0625 619.949219 261.648438 607.5625 257.179688 594.730469 C 258.460938 585.808594 254.566406 575.394531 251.417969 566.339844 C 243.597656 543.863281 242.351562 517.082031 256.488281 497.933594 C 264.421875 487.1875 278.304688 480.949219 291.4375 480.949219 C 301.703125 480.949219 311.507812 484.757812 317.660156 493.195312 C 325.933594 504.542969 325.488281 519.777344 325.53125 533.816406 C 325.605469 555.472656 328.042969 578.175781 340.191406 596.105469 C 346.828125 605.902344 357.136719 613.683594 368.328125 617.242188 C 368.371094 619.613281 368.417969 622.03125 368.464844 624.488281 C 368.613281 632.503906 368.46875 649.769531 362.816406 655.941406 C 358.019531 656.097656 353.226562 656.257812 348.425781 656.414062 C 339.546875 656.703125 330.640625 656.992188 321.75 656.992188 M 382.15625 648.6875 C 380.066406 641.222656 379.886719 629.3125 380.105469 619.332031 C 380.292969 619.335938 380.484375 619.34375 380.675781 619.347656 C 380.890625 626.40625 381.183594 633.46875 381.605469 640.523438 C 381.769531 643.246094 381.949219 645.964844 382.15625 648.6875 M 502.203125 645.457031 C 505.539062 642.148438 508.734375 638.695312 511.78125 635.101562 C 510.6875 637.570312 509.773438 639.660156 509.09375 641.261719 C 525.632812 630.855469 539.121094 606.046875 547.933594 578.992188 C 556.824219 565.882812 562.296875 550.054688 565.050781 534.328125 C 569.539062 508.679688 567.988281 482.398438 569.859375 456.425781 C 570.902344 441.925781 574.539062 425.25 587.5625 418.78125 C 590.777344 417.183594 594.234375 416.457031 597.726562 416.457031 C 597.742188 416.457031 597.765625 416.457031 597.785156 416.460938 C 607.53125 442.210938 614.949219 476.257812 609.550781 514.023438 C 605.59375 541.683594 597.730469 568.632812 585.589844 593.484375 C 563.179688 618.105469 534.363281 636.78125 502.203125 645.457031 " fill-opacity="1" fill-rule="nonzero"/><path fill="rgb(88.238525%, 50.19989%, 10.978699%)" d="M 415.632812 653.566406 C 418.441406 629.519531 420.574219 605.378906 421.816406 581.210938 C 422.414062 578.820312 422.894531 576.417969 423.265625 574.019531 C 425.910156 556.871094 424.066406 539.332031 425.8125 522.066406 C 427.824219 502.140625 439.027344 479.203125 459.03125 478.195312 C 459.472656 478.171875 459.914062 478.160156 460.347656 478.160156 C 480.855469 478.160156 493.777344 502.59375 493.585938 523.449219 C 493.386719 544.746094 485.238281 565.761719 487.84375 586.898438 C 488.261719 590.308594 488.996094 593.769531 490.59375 596.78125 C 479.460938 612.511719 448.980469 646.855469 441.710938 653.214844 C 441.480469 653.226562 441.246094 653.238281 441.015625 653.246094 C 438.296875 652.671875 435.589844 652.050781 432.828125 651.800781 C 431.628906 651.6875 430.453125 651.636719 429.308594 651.636719 C 424.457031 651.636719 420.003906 652.53125 415.632812 653.566406 " fill-opacity="1" fill-rule="nonzero"/><path fill="rgb(88.238525%, 50.19989%, 10.978699%)" d="M 243.445312 643.082031 C 225.769531 635.832031 209.226562 625.824219 194.675781 613.441406 L 195.386719 617.882812 C 187.882812 612.375 181.210938 605.800781 175.519531 598.457031 C 164.550781 573.050781 159.476562 545.390625 159.214844 517.5625 C 159.191406 514.625 159.222656 511.292969 159.300781 507.753906 C 160.203125 506.230469 161.234375 504.785156 162.410156 503.433594 C 166.699219 498.507812 173.34375 495.367188 179.730469 495.367188 C 183.117188 495.367188 186.429688 496.25 189.277344 498.226562 C 193.152344 500.917969 195.492188 504.949219 197.03125 509.453125 C 197.269531 541.042969 204.972656 582.910156 218.492188 615.921875 C 221.003906 622.0625 235.996094 641.726562 242.792969 641.726562 C 242.863281 641.726562 242.933594 641.722656 243 641.722656 C 243.144531 642.171875 243.292969 642.628906 243.445312 643.082031 M 242.980469 641.65625 C 238.679688 632.046875 235.105469 621.070312 232.210938 609.292969 C 233.085938 609.53125 233.96875 609.730469 234.847656 609.882812 C 236.835938 618.46875 238.675781 627.085938 241.117188 635.554688 C 241.707031 637.601562 242.328125 639.632812 242.980469 641.65625 " fill-opacity="1" fill-rule="nonzero"/><path fill="rgb(66.668701%, 30.198669%, 0.779724%)" d="M 362.816406 655.941406 C 368.46875 649.769531 368.613281 632.503906 368.464844 624.488281 C 368.417969 622.03125 368.371094 619.613281 368.328125 617.242188 C 372.1875 618.472656 376.152344 619.195312 380.105469 619.332031 C 379.886719 629.3125 380.066406 641.222656 382.15625 648.6875 C 382.15625 648.6875 382.15625 648.6875 382.15625 648.691406 C 383.210938 652.464844 383.804688 654.320312 384.492188 655.21875 C 377.265625 655.464844 370.039062 655.703125 362.816406 655.941406 M 412.761719 654.261719 C 412.882812 654.230469 413.007812 654.199219 413.132812 654.167969 C 413.964844 653.96875 414.800781 653.761719 415.632812 653.566406 C 420.003906 652.53125 424.457031 651.636719 429.308594 651.636719 C 430.453125 651.636719 431.628906 651.6875 432.828125 651.800781 C 435.589844 652.050781 438.296875 652.671875 441.015625 653.246094 C 436.496094 653.4375 431.976562 653.597656 427.464844 653.75 C 422.566406 653.921875 417.660156 654.089844 412.761719 654.261719 M 273.773438 652.53125 C 267.050781 651.066406 260.417969 649.21875 253.902344 647.003906 C 260.875 648.839844 267.429688 650.617188 273.773438 652.53125 M 464.691406 651.757812 C 468.039062 650.574219 471.859375 649.355469 477.660156 648.820312 C 481.597656 648.457031 485.792969 648.378906 489.507812 648.363281 C 481.3125 649.9375 473.023438 651.003906 464.691406 651.757812 " fill-opacity="1" fill-rule="nonzero"/><path fill="rgb(76.858521%, 38.819885%, 3.529358%)" d="M 511.78125 635.101562 C 515.714844 626.226562 521.964844 612.488281 527.800781 599.222656 C 531.46875 596.808594 534.839844 594.0625 537.933594 591.035156 C 533.464844 602.597656 527.671875 613.636719 520.550781 623.765625 C 517.789062 627.6875 514.863281 631.46875 511.78125 635.101562 " fill-opacity="1" fill-rule="nonzero"/><path fill="rgb(77.249146%, 38.42926%, 2.749634%)" d="M 509.09375 641.261719 C 509.773438 639.660156 510.6875 637.570312 511.78125 635.101562 C 514.863281 631.46875 517.789062 627.6875 520.550781 623.765625 C 527.671875 613.636719 533.464844 602.597656 537.933594 591.035156 C 541.660156 587.386719 544.984375 583.339844 547.933594 578.992188 C 539.121094 606.046875 525.632812 630.855469 509.09375 641.261719 " fill-opacity="1" fill-rule="nonzero"/><path fill="rgb(76.858521%, 38.819885%, 3.529358%)" d="M 243 641.722656 C 242.992188 641.699219 242.984375 641.675781 242.980469 641.65625 C 242.988281 641.675781 243 641.699219 243.007812 641.722656 C 243.003906 641.722656 243 641.722656 243 641.722656 " fill-opacity="1" fill-rule="nonzero"/><path fill="rgb(76.469421%, 38.038635%, 2.749634%)" d="M 242.792969 641.726562 C 235.996094 641.726562 221.003906 622.0625 218.492188 615.921875 C 204.972656 582.910156 197.269531 541.042969 197.03125 509.453125 C 198.359375 513.339844 199.089844 517.574219 199.695312 521.601562 C 201.886719 536.121094 204.074219 550.644531 206.257812 565.167969 C 208.183594 577.957031 210.457031 591.511719 219.011719 601.210938 C 222.417969 605.070312 227.183594 607.902344 232.210938 609.292969 C 235.105469 621.070312 238.679688 632.046875 242.980469 641.65625 C 242.984375 641.675781 242.992188 641.699219 243 641.722656 C 242.933594 641.722656 242.863281 641.726562 242.792969 641.726562 " fill-opacity="1" fill-rule="nonzero"/><path fill="rgb(83.139038%, 54.899597%, 27.839661%)" d="M 172.726562 324.757812 C 176.164062 321.453125 180.425781 319.136719 184.992188 317.839844 L 172.726562 324.757812 " fill-opacity="1" fill-rule="nonzero"/><path fill="rgb(83.139038%, 54.899597%, 27.839661%)" d="M 184.992188 317.839844 L 189.109375 315.519531 C 188.066406 316.207031 187.03125 316.890625 185.992188 317.578125 C 185.65625 317.660156 185.324219 317.746094 184.992188 317.839844 " fill-opacity="1" fill-rule="nonzero"/><path fill="rgb(94.898987%, 69.018555%, 37.649536%)" d="M 126.109375 378.398438 C 126.097656 375.898438 126.417969 373.40625 127.015625 370.960938 C 127.582031 370.574219 128.050781 370.3125 128.359375 370.257812 L 129.734375 367.507812 C 135.574219 357.449219 142.972656 348.324219 151.523438 340.449219 C 154.226562 338.546875 156.988281 336.722656 159.734375 334.90625 C 166.285156 330.582031 188.199219 316.292969 201.605469 316.292969 C 206.101562 316.292969 209.644531 317.902344 211.328125 322.03125 C 206.859375 326.148438 201.789062 329.558594 196.484375 332.675781 C 168.210938 338.175781 142.148438 354.066406 126.109375 378.398438 " fill-opacity="1" fill-rule="nonzero"/><path fill="rgb(93.728638%, 65.489197%, 34.509277%)" d="M 133.125 390.71875 C 133.113281 390.71875 133.101562 390.71875 133.089844 390.71875 C 129.378906 390.695312 127.140625 386.550781 126.507812 382.890625 C 126.246094 381.394531 126.121094 379.898438 126.109375 378.398438 C 142.148438 354.066406 168.210938 338.175781 196.484375 332.675781 C 180.886719 341.847656 163.28125 348.507812 153.238281 363.285156 C 147.933594 371.09375 145.214844 380.636719 138.78125 387.546875 C 137.269531 389.175781 135.347656 390.71875 133.125 390.71875 " fill-opacity="1" fill-rule="nonzero"/><path fill="rgb(83.139038%, 54.899597%, 27.839661%)" d="M 127.015625 370.960938 C 128.496094 364.898438 131.683594 359.136719 135.722656 354.320312 C 140.246094 348.925781 145.746094 344.511719 151.523438 340.449219 C 142.972656 348.324219 135.574219 357.449219 129.734375 367.507812 L 128.359375 370.257812 C 128.050781 370.3125 127.582031 370.574219 127.015625 370.960938 " fill-opacity="1" fill-rule="nonzero"/><path fill="rgb(94.898987%, 69.018555%, 37.649536%)" d="M 196.621094 389.5625 C 195.878906 386.960938 196.058594 384.050781 196.894531 381.441406 C 198.09375 377.699219 200.480469 374.460938 202.980469 371.429688 C 216.582031 354.960938 252.859375 335.414062 252.859375 335.414062 C 253.898438 334.03125 255.601562 333.347656 257.332031 333.347656 C 258.824219 333.347656 260.332031 333.855469 261.449219 334.847656 C 263.660156 336.816406 264.265625 340.1875 263.328125 343.003906 C 260.101562 343.414062 256.535156 344.007812 252.664062 344.859375 C 252.421875 344.910156 216.746094 363.96875 209.9375 370.996094 C 205.03125 377.71875 200.609375 383.875 196.621094 389.5625 " fill-opacity="1" fill-rule="nonzero"/><path fill="rgb(93.728638%, 65.489197%, 34.509277%)" d="M 202.972656 395.578125 C 201.078125 395.578125 199.269531 394.316406 198.136719 392.742188 C 197.441406 391.769531 196.945312 390.695312 196.621094 389.5625 C 200.609375 383.875 205.03125 377.71875 209.9375 370.996094 C 216.746094 363.96875 252.421875 344.910156 252.664062 344.859375 C 256.535156 344.007812 260.101562 343.414062 263.328125 343.003906 C 263.242188 343.257812 263.148438 343.503906 263.039062 343.75 C 261.714844 346.6875 258.84375 348.75 255.734375 349.613281 C 253.316406 350.285156 250.765625 350.300781 248.292969 350.742188 C 239.425781 352.316406 232.308594 359.1875 227.726562 366.941406 C 225.640625 370.46875 223.960938 374.234375 221.742188 377.6875 C 217.980469 383.550781 212.792969 388.339844 207.664062 393.058594 C 206.503906 394.125 205.257812 395.234375 203.707031 395.511719 C 203.460938 395.554688 203.214844 395.578125 202.972656 395.578125 " fill-opacity="1" fill-rule="nonzero"/><path fill="rgb(96.469116%, 67.059326%, 34.509277%)" d="M 228.273438 282.734375 C 229.972656 282.382812 231.679688 282.042969 233.382812 281.714844 L 228.273438 282.734375 M 233.382812 281.714844 L 235.316406 281.328125 L 235.277344 281.355469 C 234.644531 281.472656 234.015625 281.59375 233.382812 281.714844 " fill-opacity="1" fill-rule="nonzero"/><path fill="rgb(94.898987%, 69.018555%, 37.649536%)" d="M 277.449219 287.476562 C 263.429688 284.0625 243.71875 282.148438 238.574219 280.746094 C 252.09375 278.320312 265.734375 276.59375 279.429688 275.59375 C 280.96875 275.476562 282.558594 275.390625 284.144531 275.390625 C 288.796875 275.390625 293.425781 276.144531 296.742188 279.238281 C 292.484375 285.34375 285.191406 286.710938 277.449219 287.476562 " fill-opacity="1" fill-rule="nonzero"/><path fill="rgb(96.469116%, 67.059326%, 34.509277%)" d="M 230.722656 300.113281 C 224.796875 300.113281 219.050781 298.097656 216.070312 293.167969 C 222.472656 289.230469 228.875 285.292969 235.277344 281.355469 C 236.375 281.148438 237.472656 280.945312 238.574219 280.746094 C 243.71875 282.148438 263.429688 284.0625 277.449219 287.476562 C 272.460938 287.96875 267.285156 288.214844 262.613281 289.320312 C 254.34375 291.273438 247.125 296.316406 239.007812 298.84375 C 236.394531 299.65625 233.539062 300.113281 230.722656 300.113281 " fill-opacity="1" fill-rule="nonzero"/><path fill="rgb(94.898987%, 69.018555%, 37.649536%)" d="M 269.832031 412.398438 C 268.894531 411.222656 268.421875 409.550781 268.199219 408.011719 C 266.476562 396.1875 271.515625 384.171875 279.105469 374.9375 C 286.695312 365.703125 296.664062 358.773438 306.492188 351.976562 L 304.699219 351.804688 C 305.578125 351.085938 306.59375 350.765625 307.636719 350.765625 C 310.816406 350.765625 314.234375 353.710938 314.554688 357.148438 C 314.980469 361.714844 311.738281 365.851562 308.039062 368.5625 C 304.34375 371.277344 300.019531 373.128906 296.625 376.210938 C 292.515625 379.945312 290.214844 385.003906 288.253906 390.304688 C 279.929688 399.8125 270.5 411.507812 269.984375 412.191406 C 269.976562 412.203125 269.921875 412.273438 269.832031 412.398438 " fill-opacity="1" fill-rule="nonzero"/><path fill="rgb(96.469116%, 67.059326%, 34.509277%)" d="M 272.820312 413.894531 C 272.445312 413.894531 272.066406 413.839844 271.695312 413.722656 C 270.929688 413.476562 270.316406 413.003906 269.832031 412.398438 C 269.921875 412.273438 269.976562 412.203125 269.984375 412.191406 C 270.5 411.507812 279.929688 399.8125 288.253906 390.304688 C 285.414062 397.988281 283.28125 406.191406 277.386719 411.664062 C 276.121094 412.839844 274.480469 413.894531 272.820312 413.894531 " fill-opacity="1" fill-rule="nonzero"/><path fill="rgb(94.898987%, 69.018555%, 37.649536%)" d="M 468.152344 300.367188 C 468.074219 300.304688 467.992188 300.242188 467.914062 300.183594 C 465.839844 298.636719 463.589844 297.402344 461.230469 296.359375 C 459.546875 292.617188 461.046875 287.226562 463.992188 283.875 C 467.808594 279.53125 473.296875 276.773438 476.613281 272.042969 C 478.933594 271.710938 481.261719 271.46875 483.597656 271.3125 C 480.757812 281.921875 475.121094 291.699219 468.277344 300.363281 C 468.234375 300.367188 468.191406 300.367188 468.152344 300.367188 " fill-opacity="1" fill-rule="nonzero"/><path fill="rgb(93.728638%, 65.489197%, 34.509277%)" d="M 468.277344 300.363281 C 475.121094 291.699219 480.757812 281.921875 483.597656 271.3125 C 485.679688 271.175781 487.761719 271.109375 489.84375 271.109375 C 496.59375 271.109375 503.34375 271.835938 509.933594 273.285156 C 513.921875 274.164062 518.722656 276.433594 518.523438 280.511719 C 518.335938 284.1875 514.195312 286.125 510.699219 287.265625 C 498.792969 291.15625 486.886719 295.050781 474.984375 298.941406 C 472.84375 299.640625 470.503906 300.320312 468.277344 300.363281 " fill-opacity="1" fill-rule="nonzero"/><path fill="rgb(90.19928%, 63.139343%, 34.118652%)" d="M 468.039062 300.367188 C 466.484375 300.367188 464.984375 300.042969 463.65625 299.1875 C 462.527344 298.460938 461.734375 297.484375 461.230469 296.359375 C 463.589844 297.402344 465.839844 298.636719 467.914062 300.183594 C 467.992188 300.242188 468.074219 300.304688 468.152344 300.367188 C 468.113281 300.367188 468.078125 300.367188 468.039062 300.367188 " fill-opacity="1" fill-rule="nonzero"/><path fill="rgb(94.898987%, 69.018555%, 37.649536%)" d="M 476.578125 272.050781 L 476.65625 271.984375 L 476.613281 272.042969 L 476.578125 272.050781 " fill-opacity="1" fill-rule="nonzero"/><path fill="rgb(94.898987%, 69.018555%, 37.649536%)" d="M 587.910156 323.21875 C 579.875 321.699219 571.65625 320.871094 563.265625 320.609375 C 557.425781 317.609375 551.773438 313.925781 545.828125 311.160156 C 537.824219 307.441406 528.683594 305.753906 519.53125 305.753906 C 512.304688 305.753906 505.070312 306.804688 498.378906 308.75 C 498.109375 308.425781 497.96875 307.984375 497.910156 307.484375 C 500.859375 307.027344 503.808594 306.582031 506.757812 306.152344 C 523.648438 303.6875 540.941406 301.730469 558.140625 301.730469 C 565.945312 301.730469 573.734375 302.132812 581.457031 303.074219 C 581.699219 303.269531 581.9375 303.472656 582.171875 303.671875 C 585.378906 306.410156 588.433594 309.617188 589.644531 313.65625 C 590.613281 316.886719 590.054688 320.746094 587.910156 323.21875 M 499.601562 307.648438 C 499.382812 307.710938 499.160156 307.761719 498.945312 307.828125 L 499.972656 308.046875 C 499.839844 307.917969 499.71875 307.789062 499.601562 307.648438 " fill-opacity="1" fill-rule="nonzero"/><path fill="rgb(93.728638%, 65.489197%, 34.509277%)" d="M 497.910156 307.484375 C 497.761719 306.199219 498.167969 304.515625 498.382812 303.464844 C 499.027344 300.289062 501.945312 298.148438 504.753906 296.535156 C 514.820312 290.742188 526.390625 287.914062 537.984375 287.914062 C 553.65625 287.914062 569.371094 293.078125 581.457031 303.074219 C 573.734375 302.132812 565.945312 301.730469 558.140625 301.730469 C 540.941406 301.730469 523.648438 303.6875 506.757812 306.152344 C 503.808594 306.582031 500.859375 307.027344 497.910156 307.484375 " fill-opacity="1" fill-rule="nonzero"/><path fill="rgb(93.728638%, 65.489197%, 34.509277%)" d="M 581.011719 325.917969 C 580.324219 325.917969 579.632812 325.875 578.957031 325.808594 C 573.386719 325.238281 568.253906 323.175781 563.265625 320.609375 C 571.65625 320.871094 579.875 321.699219 587.910156 323.21875 C 587.375 323.835938 586.742188 324.371094 586.011719 324.785156 C 584.5 325.640625 582.765625 325.917969 581.011719 325.917969 " fill-opacity="1" fill-rule="nonzero"/><path fill="rgb(96.078491%, 76.858521%, 53.329468%)" d="M 499.972656 308.046875 L 498.945312 307.828125 C 499.160156 307.761719 499.382812 307.710938 499.601562 307.648438 C 499.71875 307.789062 499.839844 307.917969 499.972656 308.046875 " fill-opacity="1" fill-rule="nonzero"/><path fill="rgb(94.898987%, 69.018555%, 37.649536%)" d="M 401.089844 389.871094 C 400.5625 389.871094 400.023438 389.796875 399.46875 389.640625 C 397.484375 389.085938 395.929688 387.546875 394.6875 385.898438 C 389.519531 379.035156 391.757812 360.953125 391.4375 360.664062 C 393.59375 356.246094 397.460938 353.25 401.964844 351.179688 C 403.117188 350.855469 404.160156 350.535156 404.945312 350.171875 C 410.320312 347.675781 418.375 346.933594 425.945312 346.933594 C 430.269531 346.933594 434.433594 347.175781 437.851562 347.472656 C 439.28125 347.828125 440.691406 348.277344 442.070312 348.820312 C 450.929688 352.320312 458.355469 360.824219 458.046875 370.339844 C 456.652344 370.824219 455.25 371.035156 453.847656 371.035156 C 447.628906 371.035156 441.4375 366.847656 435.863281 363.390625 C 431.785156 360.859375 426.625 358.777344 421.976562 358.777344 C 418.835938 358.777344 415.933594 359.730469 413.753906 362.125 C 412.542969 363.457031 411.78125 365.007812 411.289062 366.683594 C 407.730469 367.863281 404.933594 369.503906 404.972656 371.730469 C 406.101562 376.300781 407.113281 380.621094 408.039062 384.800781 C 406.429688 387.679688 403.976562 389.871094 401.089844 389.871094 " fill-opacity="1" fill-rule="nonzero"/><path fill="rgb(96.469116%, 67.059326%, 34.509277%)" d="M 401.964844 351.179688 C 405.703125 349.460938 409.890625 348.375 413.898438 347.644531 C 418.328125 346.839844 422.886719 346.277344 427.394531 346.277344 C 430.9375 346.277344 434.453125 346.625 437.851562 347.472656 C 434.433594 347.175781 430.269531 346.933594 425.945312 346.933594 C 418.375 346.933594 410.320312 347.675781 404.945312 350.171875 C 404.160156 350.535156 403.117188 350.855469 401.964844 351.179688 " fill-opacity="1" fill-rule="nonzero"/><path fill="rgb(93.728638%, 65.489197%, 34.509277%)" d="M 408.039062 384.800781 C 407.113281 380.621094 406.101562 376.300781 404.972656 371.730469 C 404.933594 369.503906 407.730469 367.863281 411.289062 366.683594 C 410.199219 370.402344 410.417969 374.738281 410 378.695312 C 409.78125 380.746094 409.089844 382.921875 408.039062 384.800781 " fill-opacity="1" fill-rule="nonzero"/><path fill="rgb(94.898987%, 69.018555%, 37.649536%)" d="M 565.703125 363.144531 C 562.675781 360.671875 559.300781 358.011719 557.496094 356.773438 C 551.90625 352.933594 546.035156 349.503906 539.945312 346.519531 C 538.324219 345.726562 536.691406 344.960938 535.042969 344.230469 C 534.210938 343.863281 533.378906 343.503906 532.542969 343.148438 C 532.496094 343.132812 531.425781 342.703125 531.011719 342.535156 C 528.121094 341.414062 525.191406 340.382812 522.238281 339.449219 C 515.347656 337.277344 508.304688 335.609375 501.183594 334.414062 C 496.660156 333.65625 482.96875 332.503906 479.121094 332.394531 C 478.203125 332.371094 474.410156 332.214844 469.570312 332.214844 C 468.46875 332.214844 467.308594 332.222656 466.117188 332.242188 C 466.90625 331.96875 467.707031 331.726562 468.488281 331.515625 C 477.789062 328.992188 487.410156 327.75 497.042969 327.75 C 514.167969 327.75 531.308594 331.6875 546.617188 339.375 C 552.460938 342.3125 558.203125 345.914062 561.964844 351.261719 C 564.382812 354.699219 565.824219 358.996094 565.703125 363.144531 " fill-opacity="1" fill-rule="nonzero"/><path fill="rgb(96.469116%, 67.059326%, 34.509277%)" d="M 563.957031 369.757812 C 556.746094 365.15625 549.535156 360.554688 542.324219 355.953125 C 532.019531 349.378906 519.902344 342.644531 508.273438 342.644531 C 504.414062 342.644531 500.609375 343.386719 496.941406 345.125 C 493.035156 346.972656 489.65625 349.851562 485.636719 351.453125 C 484.847656 351.765625 483.90625 351.910156 482.855469 351.910156 C 473.929688 351.910156 457.179688 341.582031 458.328125 338.460938 C 458.550781 337.863281 458.847656 337.320312 459.191406 336.816406 C 459.171875 336.726562 459.152344 336.636719 459.136719 336.546875 L 459.257812 336.722656 C 460.800781 334.539062 463.40625 333.179688 466.117188 332.242188 C 467.308594 332.222656 468.46875 332.214844 469.570312 332.214844 C 474.410156 332.214844 478.203125 332.371094 479.121094 332.394531 C 482.96875 332.503906 496.660156 333.65625 501.183594 334.414062 C 508.304688 335.609375 515.347656 337.277344 522.238281 339.449219 C 525.191406 340.382812 528.121094 341.414062 531.011719 342.535156 C 531.425781 342.703125 532.496094 343.132812 532.542969 343.148438 C 533.378906 343.503906 534.210938 343.863281 535.042969 344.230469 C 536.691406 344.960938 538.324219 345.726562 539.945312 346.519531 C 546.035156 349.503906 551.90625 352.933594 557.496094 356.773438 C 559.300781 358.011719 562.675781 360.671875 565.703125 363.144531 C 565.636719 365.453125 565.089844 367.714844 563.957031 369.757812 " fill-opacity="1" fill-rule="nonzero"/></svg>