<svg xmlns="http://www.w3.org/2000/svg" xmlns:xlink="http://www.w3.org/1999/xlink" width="750" zoomAndPan="magnify" viewBox="0 0 750 1124.99995" height="1124.99995" preserveAspectRatio="xMidYMid meet" version="1.0"><defs><filter x="0%" y="0%" width="100%" xlink:type="simple" xlink:actuate="onLoad" height="100%" id="id1" xlink:show="other"><feColorMatrix values="0 0 0 0 1 0 0 0 0 1 0 0 0 0 1 0 0 0 1 0" color-interpolation-filters="sRGB"/></filter><clipPath id="id2"><path d="M 83 293 L 665 293 L 665 912 L 83 912 Z M 83 293 " clip-rule="nonzero"/></clipPath><clipPath id="id3"><path d="M 80.742188 452.910156 L 416.480469 268.089844 L 668.9375 726.695312 L 333.199219 911.515625 Z M 80.742188 452.910156 " clip-rule="nonzero"/></clipPath><clipPath id="id4"><path d="M 80.742188 452.910156 L 416.480469 268.089844 L 668.9375 726.695312 L 333.199219 911.515625 Z M 80.742188 452.910156 " clip-rule="nonzero"/></clipPath><clipPath id="id5"><path d="M 80.742188 452.910156 L 416.480469 268.089844 L 668.9375 726.695312 L 333.199219 911.515625 Z M 80.742188 452.910156 " clip-rule="nonzero"/></clipPath><mask id="id6"><g filter="url(#id1)"><rect x="-75" width="900" fill="rgb(0%, 0%, 0%)" y="-112.499995" height="1349.99994" fill-opacity="0.6471"/></g></mask><clipPath id="id7"><path d="M 190 55 L 406 55 L 406 553 L 190 553 Z M 190 55 " clip-rule="nonzero"/></clipPath><clipPath id="id8"><path d="M -2.257812 159.910156 L 333.480469 -24.910156 L 585.9375 433.695312 L 250.199219 618.515625 Z M -2.257812 159.910156 " clip-rule="nonzero"/></clipPath><clipPath id="id9"><path d="M -2.257812 159.910156 L 333.480469 -24.910156 L 585.9375 433.695312 L 250.199219 618.515625 Z M -2.257812 159.910156 " clip-rule="nonzero"/></clipPath><clipPath id="id10"><path d="M -2.257812 159.910156 L 333.480469 -24.910156 L 585.9375 433.695312 L 250.199219 618.515625 Z M -2.257812 159.910156 " clip-rule="nonzero"/></clipPath><clipPath id="id11"><path d="M 249.402344 615.058594 L 567.402344 440.003906 L 328.621094 6.238281 L 10.617188 181.292969 Z M 249.402344 615.058594 " clip-rule="nonzero"/></clipPath><clipPath id="id12"><rect x="0" width="582" y="0" height="619"/></clipPath><clipPath id="id13"><path d="M 280 542 L 488 542 L 488 612 L 280 612 Z M 280 542 " clip-rule="nonzero"/></clipPath><clipPath id="id14"><path d="M 80.742188 452.910156 L 416.480469 268.089844 L 668.9375 726.695312 L 333.199219 911.515625 Z M 80.742188 452.910156 " clip-rule="nonzero"/></clipPath><clipPath id="id15"><path d="M 80.742188 452.910156 L 416.480469 268.089844 L 668.9375 726.695312 L 333.199219 911.515625 Z M 80.742188 452.910156 " clip-rule="nonzero"/></clipPath><clipPath id="id16"><path d="M 80.742188 452.910156 L 416.480469 268.089844 L 668.9375 726.695312 L 333.199219 911.515625 Z M 80.742188 452.910156 " clip-rule="nonzero"/></clipPath><clipPath id="id17"><path d="M 280 542 L 487 542 L 487 819 L 280 819 Z M 280 542 " clip-rule="nonzero"/></clipPath><clipPath id="id18"><path d="M 80.742188 452.910156 L 416.480469 268.089844 L 668.9375 726.695312 L 333.199219 911.515625 Z M 80.742188 452.910156 " clip-rule="nonzero"/></clipPath><clipPath id="id19"><path d="M 80.742188 452.910156 L 416.480469 268.089844 L 668.9375 726.695312 L 333.199219 911.515625 Z M 80.742188 452.910156 " clip-rule="nonzero"/></clipPath><clipPath id="id20"><path d="M 80.742188 452.910156 L 416.480469 268.089844 L 668.9375 726.695312 L 333.199219 911.515625 Z M 80.742188 452.910156 " clip-rule="nonzero"/></clipPath><clipPath id="id21"><path d="M 415.648438 557.328125 C 431.5 557.050781 440.039062 556.808594 441.25 556.582031 C 449.234375 555.75 456.582031 554.148438 463.285156 551.792969 C 472.90625 548.285156 480.375 545.28125 485.679688 542.804688 C 487.089844 682.648438 487.046875 758.09375 485.5625 769.132812 C 485.167969 772.460938 484.722656 776.5 484.222656 781.234375 C 483.34375 785.28125 480.933594 790.597656 477.007812 797.207031 C 471.488281 807.359375 461.613281 813.238281 447.382812 814.863281 C 367.5625 820.089844 319.1875 820.234375 302.253906 815.328125 C 292.011719 812.058594 285.453125 804.992188 282.578125 794.121094 L 280.175781 557.160156 Z M 415.648438 557.328125 " clip-rule="evenodd"/></clipPath><radialGradient gradientTransform="matrix(0.426135, 0.905121, 0.904411, -0.425683, 375.86783, 314.995636)" gradientUnits="userSpaceOnUse" xlink:type="simple" r="274.957322" xlink:actuate="onLoad" cx="186.492196" id="id22" cy="-162.330266" xlink:show="other" fx="186.492196" fy="-162.330266"><stop stop-opacity="1" stop-color="rgb(99.891663%, 99.891663%, 99.891663%)" offset="0"/><stop stop-opacity="1" stop-color="rgb(99.594116%, 99.594116%, 99.594116%)" offset="0.125"/><stop stop-opacity="1" stop-color="rgb(99.333191%, 99.333191%, 99.333191%)" offset="0.34375"/><stop stop-opacity="1" stop-color="rgb(99.232483%, 99.232483%, 99.232483%)" offset="0.425781"/><stop stop-opacity="1" stop-color="rgb(99.099731%, 99.099731%, 99.099731%)" offset="0.460938"/><stop stop-opacity="1" stop-color="rgb(98.878479%, 98.878479%, 98.878479%)" offset="0.476562"/><stop stop-opacity="1" stop-color="rgb(98.643494%, 98.643494%, 98.643494%)" offset="0.492188"/><stop stop-opacity="1" stop-color="rgb(98.439026%, 98.439026%, 98.439026%)" offset="0.507812"/><stop stop-opacity="1" stop-color="rgb(98.262024%, 98.262024%, 98.262024%)" offset="0.519531"/><stop stop-opacity="1" stop-color="rgb(98.086548%, 98.086548%, 98.086548%)" offset="0.53125"/><stop stop-opacity="1" stop-color="rgb(97.911072%, 97.911072%, 97.911072%)" offset="0.542969"/><stop stop-opacity="1" stop-color="rgb(97.735596%, 97.735596%, 97.735596%)" offset="0.554688"/><stop stop-opacity="1" stop-color="rgb(97.471619%, 97.471619%, 97.471619%)" offset="0.566406"/><stop stop-opacity="1" stop-color="rgb(97.120667%, 97.120667%, 97.120667%)" offset="0.589844"/><stop stop-opacity="1" stop-color="rgb(96.768188%, 96.768188%, 96.768188%)" offset="0.613281"/><stop stop-opacity="1" stop-color="rgb(96.517944%, 96.517944%, 96.517944%)" offset="0.636719"/><stop stop-opacity="1" stop-color="rgb(96.30127%, 96.30127%, 96.30127%)" offset="0.644531"/><stop stop-opacity="1" stop-color="rgb(96.01593%, 96.01593%, 96.01593%)" offset="0.652344"/><stop stop-opacity="1" stop-color="rgb(95.732117%, 95.732117%, 95.732117%)" offset="0.660156"/><stop stop-opacity="1" stop-color="rgb(95.446777%, 95.446777%, 95.446777%)" offset="0.667969"/><stop stop-opacity="1" stop-color="rgb(95.161438%, 95.161438%, 95.161438%)" offset="0.675781"/><stop stop-opacity="1" stop-color="rgb(94.877625%, 94.877625%, 94.877625%)" offset="0.683594"/><stop stop-opacity="1" stop-color="rgb(94.592285%, 94.592285%, 94.592285%)" offset="0.691406"/><stop stop-opacity="1" stop-color="rgb(94.308472%, 94.308472%, 94.308472%)" offset="0.699219"/><stop stop-opacity="1" stop-color="rgb(94.023132%, 94.023132%, 94.023132%)" offset="0.707031"/><stop stop-opacity="1" stop-color="rgb(93.739319%, 93.739319%, 93.739319%)" offset="0.714844"/><stop stop-opacity="1" stop-color="rgb(93.453979%, 93.453979%, 93.453979%)" offset="0.722656"/><stop stop-opacity="1" stop-color="rgb(93.170166%, 93.170166%, 93.170166%)" offset="0.730469"/><stop stop-opacity="1" stop-color="rgb(92.884827%, 92.884827%, 92.884827%)" offset="0.738281"/><stop stop-opacity="1" stop-color="rgb(92.601013%, 92.601013%, 92.601013%)" offset="0.746094"/><stop stop-opacity="1" stop-color="rgb(92.38739%, 92.38739%, 92.38739%)" offset="0.753906"/><stop stop-opacity="1" stop-color="rgb(92.243958%, 92.243958%, 92.243958%)" offset="0.757812"/><stop stop-opacity="1" stop-color="rgb(92.102051%, 92.102051%, 92.102051%)" offset="0.761719"/><stop stop-opacity="1" stop-color="rgb(91.960144%, 91.960144%, 91.960144%)" offset="0.765625"/><stop stop-opacity="1" stop-color="rgb(91.799927%, 91.799927%, 91.799927%)" offset="0.769531"/><stop stop-opacity="1" stop-color="rgb(91.592407%, 91.592407%, 91.592407%)" offset="0.773438"/><stop stop-opacity="1" stop-color="rgb(91.35437%, 91.35437%, 91.35437%)" offset="0.777344"/><stop stop-opacity="1" stop-color="rgb(91.116333%, 91.116333%, 91.116333%)" offset="0.78125"/><stop stop-opacity="1" stop-color="rgb(90.878296%, 90.878296%, 90.878296%)" offset="0.785156"/><stop stop-opacity="1" stop-color="rgb(90.640259%, 90.640259%, 90.640259%)" offset="0.789062"/><stop stop-opacity="1" stop-color="rgb(90.403748%, 90.403748%, 90.403748%)" offset="0.792969"/><stop stop-opacity="1" stop-color="rgb(90.16571%, 90.16571%, 90.16571%)" offset="0.796875"/><stop stop-opacity="1" stop-color="rgb(89.927673%, 89.927673%, 89.927673%)" offset="0.800781"/><stop stop-opacity="1" stop-color="rgb(89.689636%, 89.689636%, 89.689636%)" offset="0.804688"/><stop stop-opacity="1" stop-color="rgb(89.451599%, 89.451599%, 89.451599%)" offset="0.808594"/><stop stop-opacity="1" stop-color="rgb(89.213562%, 89.213562%, 89.213562%)" offset="0.8125"/><stop stop-opacity="1" stop-color="rgb(88.975525%, 88.975525%, 88.975525%)" offset="0.816406"/><stop stop-opacity="1" stop-color="rgb(88.737488%, 88.737488%, 88.737488%)" offset="0.820312"/><stop stop-opacity="1" stop-color="rgb(88.499451%, 88.499451%, 88.499451%)" offset="0.824219"/><stop stop-opacity="1" stop-color="rgb(88.261414%, 88.261414%, 88.261414%)" offset="0.828125"/><stop stop-opacity="1" stop-color="rgb(88.023376%, 88.023376%, 88.023376%)" offset="0.832031"/><stop stop-opacity="1" stop-color="rgb(87.785339%, 87.785339%, 87.785339%)" offset="0.835938"/><stop stop-opacity="1" stop-color="rgb(87.547302%, 87.547302%, 87.547302%)" offset="0.839844"/><stop stop-opacity="1" stop-color="rgb(87.309265%, 87.309265%, 87.309265%)" offset="0.84375"/><stop stop-opacity="1" stop-color="rgb(87.072754%, 87.072754%, 87.072754%)" offset="0.847656"/><stop stop-opacity="1" stop-color="rgb(86.834717%, 86.834717%, 86.834717%)" offset="0.851562"/><stop stop-opacity="1" stop-color="rgb(86.59668%, 86.59668%, 86.59668%)" offset="0.855469"/><stop stop-opacity="1" stop-color="rgb(86.358643%, 86.358643%, 86.358643%)" offset="0.859375"/><stop stop-opacity="1" stop-color="rgb(86.120605%, 86.120605%, 86.120605%)" offset="0.863281"/><stop stop-opacity="1" stop-color="rgb(85.882568%, 85.882568%, 85.882568%)" offset="0.867188"/><stop stop-opacity="1" stop-color="rgb(85.644531%, 85.644531%, 85.644531%)" offset="0.871094"/><stop stop-opacity="1" stop-color="rgb(85.406494%, 85.406494%, 85.406494%)" offset="0.875"/><stop stop-opacity="1" stop-color="rgb(85.154724%, 85.154724%, 85.154724%)" offset="0.878906"/><stop stop-opacity="1" stop-color="rgb(84.837341%, 84.837341%, 84.837341%)" offset="0.882812"/><stop stop-opacity="1" stop-color="rgb(84.468079%, 84.468079%, 84.468079%)" offset="0.886719"/><stop stop-opacity="1" stop-color="rgb(84.098816%, 84.098816%, 84.098816%)" offset="0.890625"/><stop stop-opacity="1" stop-color="rgb(83.731079%, 83.731079%, 83.731079%)" offset="0.894531"/><stop stop-opacity="1" stop-color="rgb(83.361816%, 83.361816%, 83.361816%)" offset="0.898438"/><stop stop-opacity="1" stop-color="rgb(82.992554%, 82.992554%, 82.992554%)" offset="0.902344"/><stop stop-opacity="1" stop-color="rgb(82.623291%, 82.623291%, 82.623291%)" offset="0.90625"/><stop stop-opacity="1" stop-color="rgb(82.254028%, 82.254028%, 82.254028%)" offset="0.910156"/><stop stop-opacity="1" stop-color="rgb(81.884766%, 81.884766%, 81.884766%)" offset="0.914062"/><stop stop-opacity="1" stop-color="rgb(81.515503%, 81.515503%, 81.515503%)" offset="0.917969"/><stop stop-opacity="1" stop-color="rgb(81.14624%, 81.14624%, 81.14624%)" offset="0.921875"/><stop stop-opacity="1" stop-color="rgb(80.776978%, 80.776978%, 80.776978%)" offset="0.925781"/><stop stop-opacity="1" stop-color="rgb(80.407715%, 80.407715%, 80.407715%)" offset="0.929688"/><stop stop-opacity="1" stop-color="rgb(80.038452%, 80.038452%, 80.038452%)" offset="0.933594"/><stop stop-opacity="1" stop-color="rgb(79.669189%, 79.669189%, 79.669189%)" offset="0.9375"/><stop stop-opacity="1" stop-color="rgb(79.299927%, 79.299927%, 79.299927%)" offset="0.941406"/><stop stop-opacity="1" stop-color="rgb(78.930664%, 78.930664%, 78.930664%)" offset="0.945312"/><stop stop-opacity="1" stop-color="rgb(78.561401%, 78.561401%, 78.561401%)" offset="0.949219"/><stop stop-opacity="1" stop-color="rgb(78.193665%, 78.193665%, 78.193665%)" offset="0.953125"/><stop stop-opacity="1" stop-color="rgb(77.824402%, 77.824402%, 77.824402%)" offset="0.957031"/><stop stop-opacity="1" stop-color="rgb(77.455139%, 77.455139%, 77.455139%)" offset="0.960938"/><stop stop-opacity="1" stop-color="rgb(77.085876%, 77.085876%, 77.085876%)" offset="0.964844"/><stop stop-opacity="1" stop-color="rgb(76.716614%, 76.716614%, 76.716614%)" offset="0.96875"/><stop stop-opacity="1" stop-color="rgb(76.277161%, 76.277161%, 76.277161%)" offset="0.972656"/><stop stop-opacity="1" stop-color="rgb(75.762939%, 75.762939%, 75.762939%)" offset="0.976562"/><stop stop-opacity="1" stop-color="rgb(75.242615%, 75.242615%, 75.242615%)" offset="0.980469"/><stop stop-opacity="1" stop-color="rgb(74.72229%, 74.72229%, 74.72229%)" offset="0.984375"/><stop stop-opacity="1" stop-color="rgb(74.200439%, 74.200439%, 74.200439%)" offset="0.988281"/><stop stop-opacity="1" stop-color="rgb(73.680115%, 73.680115%, 73.680115%)" offset="0.992188"/><stop stop-opacity="1" stop-color="rgb(73.15979%, 73.15979%, 73.15979%)" offset="0.996094"/><stop stop-opacity="1" stop-color="rgb(72.898865%, 72.898865%, 72.898865%)" offset="1"/></radialGradient><clipPath id="id23"><path d="M 83 293 L 665 293 L 665 912 L 83 912 Z M 83 293 " clip-rule="nonzero"/></clipPath><clipPath id="id24"><path d="M 80.742188 452.910156 L 416.480469 268.089844 L 668.9375 726.695312 L 333.199219 911.515625 Z M 80.742188 452.910156 " clip-rule="nonzero"/></clipPath><clipPath id="id25"><path d="M 80.742188 452.910156 L 416.480469 268.089844 L 668.9375 726.695312 L 333.199219 911.515625 Z M 80.742188 452.910156 " clip-rule="nonzero"/></clipPath><clipPath id="id26"><path d="M 80.742188 452.910156 L 416.480469 268.089844 L 668.9375 726.695312 L 333.199219 911.515625 Z M 80.742188 452.910156 " clip-rule="nonzero"/></clipPath><mask id="id27"><g filter="url(#id1)"><rect x="-75" width="900" fill="rgb(0%, 0%, 0%)" y="-112.499995" height="1349.99994" fill-opacity="0.4471"/></g></mask><clipPath id="id28"><path d="M 190 55 L 406 55 L 406 553 L 190 553 Z M 190 55 " clip-rule="nonzero"/></clipPath><clipPath id="id29"><path d="M -2.257812 159.910156 L 333.480469 -24.910156 L 585.9375 433.695312 L 250.199219 618.515625 Z M -2.257812 159.910156 " clip-rule="nonzero"/></clipPath><clipPath id="id30"><path d="M -2.257812 159.910156 L 333.480469 -24.910156 L 585.9375 433.695312 L 250.199219 618.515625 Z M -2.257812 159.910156 " clip-rule="nonzero"/></clipPath><clipPath id="id31"><path d="M -2.257812 159.910156 L 333.480469 -24.910156 L 585.9375 433.695312 L 250.199219 618.515625 Z M -2.257812 159.910156 " clip-rule="nonzero"/></clipPath><clipPath id="id32"><path d="M 249.402344 615.058594 L 567.402344 440.003906 L 328.621094 6.238281 L 10.617188 181.292969 Z M 249.402344 615.058594 " clip-rule="nonzero"/></clipPath><clipPath id="id33"><rect x="0" width="582" y="0" height="619"/></clipPath><clipPath id="id34"><path d="M 202 330 L 659 330 L 659 860 L 202 860 Z M 202 330 " clip-rule="nonzero"/></clipPath><clipPath id="id35"><path d="M 80.742188 452.910156 L 416.480469 268.089844 L 668.9375 726.695312 L 333.199219 911.515625 Z M 80.742188 452.910156 " clip-rule="nonzero"/></clipPath><clipPath id="id36"><path d="M 80.742188 452.910156 L 416.480469 268.089844 L 668.9375 726.695312 L 333.199219 911.515625 Z M 80.742188 452.910156 " clip-rule="nonzero"/></clipPath><clipPath id="id37"><path d="M 80.742188 452.910156 L 416.480469 268.089844 L 668.9375 726.695312 L 333.199219 911.515625 Z M 80.742188 452.910156 " clip-rule="nonzero"/></clipPath><mask id="id38"><g filter="url(#id1)"><rect x="-75" width="900" fill="rgb(0%, 0%, 0%)" y="-112.499995" height="1349.99994" fill-opacity="0.1882"/></g></mask><clipPath id="id39"><path d="M 201 18 L 287 18 L 287 511 L 201 511 Z M 201 18 " clip-rule="nonzero"/></clipPath><clipPath id="id40"><path d="M -121.257812 122.910156 L 214.480469 -61.910156 L 466.9375 396.695312 L 131.199219 581.515625 Z M -121.257812 122.910156 " clip-rule="nonzero"/></clipPath><clipPath id="id41"><path d="M -121.257812 122.910156 L 214.480469 -61.910156 L 466.9375 396.695312 L 131.199219 581.515625 Z M -121.257812 122.910156 " clip-rule="nonzero"/></clipPath><clipPath id="id42"><path d="M -121.257812 122.910156 L 214.480469 -61.910156 L 466.9375 396.695312 L 131.199219 581.515625 Z M -121.257812 122.910156 " clip-rule="nonzero"/></clipPath><clipPath id="id43"><path d="M 220.140625 528.660156 L 447.890625 403.285156 L 228.28125 4.351562 L 0.53125 129.722656 Z M 220.140625 528.660156 " clip-rule="nonzero"/></clipPath><clipPath id="id44"><rect x="0" width="457" y="0" height="530"/></clipPath><clipPath id="id45"><path d="M 87 327 L 573 327 L 573 860 L 87 860 Z M 87 327 " clip-rule="nonzero"/></clipPath><clipPath id="id46"><path d="M 80.742188 452.910156 L 416.480469 268.089844 L 668.9375 726.695312 L 333.199219 911.515625 Z M 80.742188 452.910156 " clip-rule="nonzero"/></clipPath><clipPath id="id47"><path d="M 80.742188 452.910156 L 416.480469 268.089844 L 668.9375 726.695312 L 333.199219 911.515625 Z M 80.742188 452.910156 " clip-rule="nonzero"/></clipPath><clipPath id="id48"><path d="M 80.742188 452.910156 L 416.480469 268.089844 L 668.9375 726.695312 L 333.199219 911.515625 Z M 80.742188 452.910156 " clip-rule="nonzero"/></clipPath><mask id="id49"><g filter="url(#id1)"><rect x="-75" width="900" fill="rgb(0%, 0%, 0%)" y="-112.499995" height="1349.99994" fill-opacity="0.3176"/></g></mask><clipPath id="id50"><path d="M 190 18 L 281 18 L 281 497 L 190 497 Z M 190 18 " clip-rule="nonzero"/></clipPath><clipPath id="id51"><path d="M -6.257812 125.910156 L 329.480469 -58.910156 L 581.9375 399.695312 L 246.199219 584.515625 Z M -6.257812 125.910156 " clip-rule="nonzero"/></clipPath><clipPath id="id52"><path d="M -6.257812 125.910156 L 329.480469 -58.910156 L 581.9375 399.695312 L 246.199219 584.515625 Z M -6.257812 125.910156 " clip-rule="nonzero"/></clipPath><clipPath id="id53"><path d="M -6.257812 125.910156 L 329.480469 -58.910156 L 581.9375 399.695312 L 246.199219 584.515625 Z M -6.257812 125.910156 " clip-rule="nonzero"/></clipPath><clipPath id="id54"><path d="M 218.238281 524.128906 L 479.296875 380.417969 L 272.007812 3.867188 L 10.949219 147.578125 Z M 218.238281 524.128906 " clip-rule="nonzero"/></clipPath><clipPath id="id55"><rect x="0" width="486" y="0" height="533"/></clipPath><clipPath id="id56"><path d="M 273 348 L 489 348 L 489 846 L 273 846 Z M 273 348 " clip-rule="nonzero"/></clipPath><clipPath id="id57"><path d="M 80.742188 452.910156 L 416.480469 268.089844 L 668.9375 726.695312 L 333.199219 911.515625 Z M 80.742188 452.910156 " clip-rule="nonzero"/></clipPath><clipPath id="id58"><path d="M 80.742188 452.910156 L 416.480469 268.089844 L 668.9375 726.695312 L 333.199219 911.515625 Z M 80.742188 452.910156 " clip-rule="nonzero"/></clipPath><clipPath id="id59"><path d="M 80.742188 452.910156 L 416.480469 268.089844 L 668.9375 726.695312 L 333.199219 911.515625 Z M 80.742188 452.910156 " clip-rule="nonzero"/></clipPath><clipPath id="id60"><path d="M 420 344 L 484 344 L 484 465 L 420 465 Z M 420 344 " clip-rule="nonzero"/></clipPath><clipPath id="id61"><path d="M 80.742188 452.910156 L 416.480469 268.089844 L 668.9375 726.695312 L 333.199219 911.515625 Z M 80.742188 452.910156 " clip-rule="nonzero"/></clipPath><clipPath id="id62"><path d="M 80.742188 452.910156 L 416.480469 268.089844 L 668.9375 726.695312 L 333.199219 911.515625 Z M 80.742188 452.910156 " clip-rule="nonzero"/></clipPath><clipPath id="id63"><path d="M 80.742188 452.910156 L 416.480469 268.089844 L 668.9375 726.695312 L 333.199219 911.515625 Z M 80.742188 452.910156 " clip-rule="nonzero"/></clipPath><clipPath id="id64"><path d="M 303 287 L 456 287 L 456 422 L 303 422 Z M 303 287 " clip-rule="nonzero"/></clipPath><clipPath id="id65"><path d="M 80.742188 452.910156 L 416.480469 268.089844 L 668.9375 726.695312 L 333.199219 911.515625 Z M 80.742188 452.910156 " clip-rule="nonzero"/></clipPath><clipPath id="id66"><path d="M 80.742188 452.910156 L 416.480469 268.089844 L 668.9375 726.695312 L 333.199219 911.515625 Z M 80.742188 452.910156 " clip-rule="nonzero"/></clipPath><clipPath id="id67"><path d="M 80.742188 452.910156 L 416.480469 268.089844 L 668.9375 726.695312 L 333.199219 911.515625 Z M 80.742188 452.910156 " clip-rule="nonzero"/></clipPath><mask id="id68"><g filter="url(#id1)"><rect x="-75" width="900" fill="rgb(0%, 0%, 0%)" y="-112.499995" height="1349.99994" fill-opacity="0.3176"/></g></mask><clipPath id="id69"><path d="M 19 56 L 136 56 L 136 76 L 19 76 Z M 19 56 " clip-rule="nonzero"/></clipPath><clipPath id="id70"><path d="M -222.257812 165.910156 L 113.480469 -18.910156 L 365.9375 439.695312 L 30.199219 624.515625 Z M -222.257812 165.910156 " clip-rule="nonzero"/></clipPath><clipPath id="id71"><path d="M -222.257812 165.910156 L 113.480469 -18.910156 L 365.9375 439.695312 L 30.199219 624.515625 Z M -222.257812 165.910156 " clip-rule="nonzero"/></clipPath><clipPath id="id72"><path d="M -222.257812 165.910156 L 113.480469 -18.910156 L 365.9375 439.695312 L 30.199219 624.515625 Z M -222.257812 165.910156 " clip-rule="nonzero"/></clipPath><clipPath id="id73"><path d="M 45.183594 119.910156 L 139.355469 68.070312 L 110.289062 15.269531 L 16.117188 67.109375 Z M 45.183594 119.910156 " clip-rule="nonzero"/></clipPath><clipPath id="id74"><rect x="0" width="153" y="0" height="135"/></clipPath><clipPath id="id75"><path d="M 304 324 L 454 324 L 454 356 L 304 356 Z M 304 324 " clip-rule="nonzero"/></clipPath><clipPath id="id76"><path d="M 80.742188 452.910156 L 416.480469 268.089844 L 668.9375 726.695312 L 333.199219 911.515625 Z M 80.742188 452.910156 " clip-rule="nonzero"/></clipPath><clipPath id="id77"><path d="M 80.742188 452.910156 L 416.480469 268.089844 L 668.9375 726.695312 L 333.199219 911.515625 Z M 80.742188 452.910156 " clip-rule="nonzero"/></clipPath><clipPath id="id78"><path d="M 80.742188 452.910156 L 416.480469 268.089844 L 668.9375 726.695312 L 333.199219 911.515625 Z M 80.742188 452.910156 " clip-rule="nonzero"/></clipPath><clipPath id="id79"><path d="M 316 367 L 346 367 L 346 439 L 316 439 Z M 316 367 " clip-rule="nonzero"/></clipPath><clipPath id="id80"><path d="M 80.742188 452.910156 L 416.480469 268.089844 L 668.9375 726.695312 L 333.199219 911.515625 Z M 80.742188 452.910156 " clip-rule="nonzero"/></clipPath><clipPath id="id81"><path d="M 80.742188 452.910156 L 416.480469 268.089844 L 668.9375 726.695312 L 333.199219 911.515625 Z M 80.742188 452.910156 " clip-rule="nonzero"/></clipPath><clipPath id="id82"><path d="M 80.742188 452.910156 L 416.480469 268.089844 L 668.9375 726.695312 L 333.199219 911.515625 Z M 80.742188 452.910156 " clip-rule="nonzero"/></clipPath><clipPath id="id83"><path d="M 374 361 L 387 361 L 387 389 L 374 389 Z M 374 361 " clip-rule="nonzero"/></clipPath><clipPath id="id84"><path d="M 80.742188 452.910156 L 416.480469 268.089844 L 668.9375 726.695312 L 333.199219 911.515625 Z M 80.742188 452.910156 " clip-rule="nonzero"/></clipPath><clipPath id="id85"><path d="M 80.742188 452.910156 L 416.480469 268.089844 L 668.9375 726.695312 L 333.199219 911.515625 Z M 80.742188 452.910156 " clip-rule="nonzero"/></clipPath><clipPath id="id86"><path d="M 80.742188 452.910156 L 416.480469 268.089844 L 668.9375 726.695312 L 333.199219 911.515625 Z M 80.742188 452.910156 " clip-rule="nonzero"/></clipPath><clipPath id="id87"><path d="M 390 362 L 399 362 L 399 386 L 390 386 Z M 390 362 " clip-rule="nonzero"/></clipPath><clipPath id="id88"><path d="M 80.742188 452.910156 L 416.480469 268.089844 L 668.9375 726.695312 L 333.199219 911.515625 Z M 80.742188 452.910156 " clip-rule="nonzero"/></clipPath><clipPath id="id89"><path d="M 80.742188 452.910156 L 416.480469 268.089844 L 668.9375 726.695312 L 333.199219 911.515625 Z M 80.742188 452.910156 " clip-rule="nonzero"/></clipPath><clipPath id="id90"><path d="M 80.742188 452.910156 L 416.480469 268.089844 L 668.9375 726.695312 L 333.199219 911.515625 Z M 80.742188 452.910156 " clip-rule="nonzero"/></clipPath><clipPath id="id91"><path d="M 418 403 L 435 403 L 435 426 L 418 426 Z M 418 403 " clip-rule="nonzero"/></clipPath><clipPath id="id92"><path d="M 80.742188 452.910156 L 416.480469 268.089844 L 668.9375 726.695312 L 333.199219 911.515625 Z M 80.742188 452.910156 " clip-rule="nonzero"/></clipPath><clipPath id="id93"><path d="M 80.742188 452.910156 L 416.480469 268.089844 L 668.9375 726.695312 L 333.199219 911.515625 Z M 80.742188 452.910156 " clip-rule="nonzero"/></clipPath><clipPath id="id94"><path d="M 80.742188 452.910156 L 416.480469 268.089844 L 668.9375 726.695312 L 333.199219 911.515625 Z M 80.742188 452.910156 " clip-rule="nonzero"/></clipPath><clipPath id="id95"><path d="M 286 446 L 430 446 L 430 491 L 286 491 Z M 286 446 " clip-rule="nonzero"/></clipPath><clipPath id="id96"><path d="M 80.742188 452.910156 L 416.480469 268.089844 L 668.9375 726.695312 L 333.199219 911.515625 Z M 80.742188 452.910156 " clip-rule="nonzero"/></clipPath><clipPath id="id97"><path d="M 80.742188 452.910156 L 416.480469 268.089844 L 668.9375 726.695312 L 333.199219 911.515625 Z M 80.742188 452.910156 " clip-rule="nonzero"/></clipPath><clipPath id="id98"><path d="M 80.742188 452.910156 L 416.480469 268.089844 L 668.9375 726.695312 L 333.199219 911.515625 Z M 80.742188 452.910156 " clip-rule="nonzero"/></clipPath><clipPath id="id99"><path d="M 302 825 L 439 825 L 439 839 L 302 839 Z M 302 825 " clip-rule="nonzero"/></clipPath><clipPath id="id100"><path d="M 80.742188 452.910156 L 416.480469 268.089844 L 668.9375 726.695312 L 333.199219 911.515625 Z M 80.742188 452.910156 " clip-rule="nonzero"/></clipPath><clipPath id="id101"><path d="M 80.742188 452.910156 L 416.480469 268.089844 L 668.9375 726.695312 L 333.199219 911.515625 Z M 80.742188 452.910156 " clip-rule="nonzero"/></clipPath><clipPath id="id102"><path d="M 80.742188 452.910156 L 416.480469 268.089844 L 668.9375 726.695312 L 333.199219 911.515625 Z M 80.742188 452.910156 " clip-rule="nonzero"/></clipPath><clipPath id="id103"><path d="M 280 542 L 486 542 L 486 560 L 280 560 Z M 280 542 " clip-rule="nonzero"/></clipPath><clipPath id="id104"><path d="M 80.742188 452.910156 L 416.480469 268.089844 L 668.9375 726.695312 L 333.199219 911.515625 Z M 80.742188 452.910156 " clip-rule="nonzero"/></clipPath><clipPath id="id105"><path d="M 80.742188 452.910156 L 416.480469 268.089844 L 668.9375 726.695312 L 333.199219 911.515625 Z M 80.742188 452.910156 " clip-rule="nonzero"/></clipPath><clipPath id="id106"><path d="M 80.742188 452.910156 L 416.480469 268.089844 L 668.9375 726.695312 L 333.199219 911.515625 Z M 80.742188 452.910156 " clip-rule="nonzero"/></clipPath><clipPath id="id107"><path d="M 295 522 L 328 522 L 328 554 L 295 554 Z M 295 522 " clip-rule="nonzero"/></clipPath><clipPath id="id108"><path d="M 80.742188 452.910156 L 416.480469 268.089844 L 668.9375 726.695312 L 333.199219 911.515625 Z M 80.742188 452.910156 " clip-rule="nonzero"/></clipPath><clipPath id="id109"><path d="M 80.742188 452.910156 L 416.480469 268.089844 L 668.9375 726.695312 L 333.199219 911.515625 Z M 80.742188 452.910156 " clip-rule="nonzero"/></clipPath><clipPath id="id110"><path d="M 80.742188 452.910156 L 416.480469 268.089844 L 668.9375 726.695312 L 333.199219 911.515625 Z M 80.742188 452.910156 " clip-rule="nonzero"/></clipPath><clipPath id="id111"><path d="M 410 531 L 434 531 L 434 555 L 410 555 Z M 410 531 " clip-rule="nonzero"/></clipPath><clipPath id="id112"><path d="M 80.742188 452.910156 L 416.480469 268.089844 L 668.9375 726.695312 L 333.199219 911.515625 Z M 80.742188 452.910156 " clip-rule="nonzero"/></clipPath><clipPath id="id113"><path d="M 80.742188 452.910156 L 416.480469 268.089844 L 668.9375 726.695312 L 333.199219 911.515625 Z M 80.742188 452.910156 " clip-rule="nonzero"/></clipPath><clipPath id="id114"><path d="M 80.742188 452.910156 L 416.480469 268.089844 L 668.9375 726.695312 L 333.199219 911.515625 Z M 80.742188 452.910156 " clip-rule="nonzero"/></clipPath><clipPath id="id115"><path d="M 323 531 L 349 531 L 349 557 L 323 557 Z M 323 531 " clip-rule="nonzero"/></clipPath><clipPath id="id116"><path d="M 80.742188 452.910156 L 416.480469 268.089844 L 668.9375 726.695312 L 333.199219 911.515625 Z M 80.742188 452.910156 " clip-rule="nonzero"/></clipPath><clipPath id="id117"><path d="M 80.742188 452.910156 L 416.480469 268.089844 L 668.9375 726.695312 L 333.199219 911.515625 Z M 80.742188 452.910156 " clip-rule="nonzero"/></clipPath><clipPath id="id118"><path d="M 80.742188 452.910156 L 416.480469 268.089844 L 668.9375 726.695312 L 333.199219 911.515625 Z M 80.742188 452.910156 " clip-rule="nonzero"/></clipPath><clipPath id="id119"><path d="M 286 466 L 305 466 L 305 797 L 286 797 Z M 286 466 " clip-rule="nonzero"/></clipPath><clipPath id="id120"><path d="M 80.742188 452.910156 L 416.480469 268.089844 L 668.9375 726.695312 L 333.199219 911.515625 Z M 80.742188 452.910156 " clip-rule="nonzero"/></clipPath><clipPath id="id121"><path d="M 80.742188 452.910156 L 416.480469 268.089844 L 668.9375 726.695312 L 333.199219 911.515625 Z M 80.742188 452.910156 " clip-rule="nonzero"/></clipPath><clipPath id="id122"><path d="M 80.742188 452.910156 L 416.480469 268.089844 L 668.9375 726.695312 L 333.199219 911.515625 Z M 80.742188 452.910156 " clip-rule="nonzero"/></clipPath><clipPath id="id123"><path d="M 359 619 L 436 619 L 436 805 L 359 805 Z M 359 619 " clip-rule="nonzero"/></clipPath><clipPath id="id124"><path d="M 80.742188 452.910156 L 416.480469 268.089844 L 668.9375 726.695312 L 333.199219 911.515625 Z M 80.742188 452.910156 " clip-rule="nonzero"/></clipPath><clipPath id="id125"><path d="M 80.742188 452.910156 L 416.480469 268.089844 L 668.9375 726.695312 L 333.199219 911.515625 Z M 80.742188 452.910156 " clip-rule="nonzero"/></clipPath><clipPath id="id126"><path d="M 80.742188 452.910156 L 416.480469 268.089844 L 668.9375 726.695312 L 333.199219 911.515625 Z M 80.742188 452.910156 " clip-rule="nonzero"/></clipPath><clipPath id="id127"><path d="M 312 325 L 355 325 L 355 353 L 312 353 Z M 312 325 " clip-rule="nonzero"/></clipPath><clipPath id="id128"><path d="M 80.742188 452.910156 L 416.480469 268.089844 L 668.9375 726.695312 L 333.199219 911.515625 Z M 80.742188 452.910156 " clip-rule="nonzero"/></clipPath><clipPath id="id129"><path d="M 80.742188 452.910156 L 416.480469 268.089844 L 668.9375 726.695312 L 333.199219 911.515625 Z M 80.742188 452.910156 " clip-rule="nonzero"/></clipPath><clipPath id="id130"><path d="M 80.742188 452.910156 L 416.480469 268.089844 L 668.9375 726.695312 L 333.199219 911.515625 Z M 80.742188 452.910156 " clip-rule="nonzero"/></clipPath><clipPath id="id131"><path d="M 382 326 L 431 326 L 431 332 L 382 332 Z M 382 326 " clip-rule="nonzero"/></clipPath><clipPath id="id132"><path d="M 80.742188 452.910156 L 416.480469 268.089844 L 668.9375 726.695312 L 333.199219 911.515625 Z M 80.742188 452.910156 " clip-rule="nonzero"/></clipPath><clipPath id="id133"><path d="M 80.742188 452.910156 L 416.480469 268.089844 L 668.9375 726.695312 L 333.199219 911.515625 Z M 80.742188 452.910156 " clip-rule="nonzero"/></clipPath><clipPath id="id134"><path d="M 80.742188 452.910156 L 416.480469 268.089844 L 668.9375 726.695312 L 333.199219 911.515625 Z M 80.742188 452.910156 " clip-rule="nonzero"/></clipPath><clipPath id="id135"><path d="M 435 327 L 447 327 L 447 341 L 435 341 Z M 435 327 " clip-rule="nonzero"/></clipPath><clipPath id="id136"><path d="M 80.742188 452.910156 L 416.480469 268.089844 L 668.9375 726.695312 L 333.199219 911.515625 Z M 80.742188 452.910156 " clip-rule="nonzero"/></clipPath><clipPath id="id137"><path d="M 80.742188 452.910156 L 416.480469 268.089844 L 668.9375 726.695312 L 333.199219 911.515625 Z M 80.742188 452.910156 " clip-rule="nonzero"/></clipPath><clipPath id="id138"><path d="M 80.742188 452.910156 L 416.480469 268.089844 L 668.9375 726.695312 L 333.199219 911.515625 Z M 80.742188 452.910156 " clip-rule="nonzero"/></clipPath><clipPath id="id139"><path d="M 392 349 L 420 349 L 420 353 L 392 353 Z M 392 349 " clip-rule="nonzero"/></clipPath><clipPath id="id140"><path d="M 80.742188 452.910156 L 416.480469 268.089844 L 668.9375 726.695312 L 333.199219 911.515625 Z M 80.742188 452.910156 " clip-rule="nonzero"/></clipPath><clipPath id="id141"><path d="M 80.742188 452.910156 L 416.480469 268.089844 L 668.9375 726.695312 L 333.199219 911.515625 Z M 80.742188 452.910156 " clip-rule="nonzero"/></clipPath><clipPath id="id142"><path d="M 80.742188 452.910156 L 416.480469 268.089844 L 668.9375 726.695312 L 333.199219 911.515625 Z M 80.742188 452.910156 " clip-rule="nonzero"/></clipPath></defs><g clip-path="url(#id2)"><g clip-path="url(#id3)"><g clip-path="url(#id4)"><g clip-path="url(#id5)"><g mask="url(#id6)"><g transform="matrix(1, 0, 0, 1, 83, 293)"><g clip-path="url(#id12)"><g clip-path="url(#id7)"><g clip-path="url(#id8)"><g clip-path="url(#id9)"><g clip-path="url(#id10)"><g clip-path="url(#id11)"><path fill="rgb(42.749023%, 75.689697%, 81.959534%)" d="M 239.566406 55.257812 L 355.691406 55.410156 C 355.066406 61.546875 355.078125 68.429688 355.730469 76.078125 C 357.21875 91.71875 361.441406 103.414062 368.378906 111.167969 C 390.339844 137.347656 402.066406 164.707031 403.5625 193.253906 C 405.652344 219.679688 405.980469 323.636719 404.503906 505.101562 C 404.253906 511.914062 400.746094 520.078125 393.976562 529.585938 C 385.382812 541.429688 375.769531 547.390625 365.136719 547.464844 C 342.242188 550.285156 324.863281 551.839844 313.019531 552.125 L 312.789062 552.921875 L 284.011719 552.742188 L 284.242188 551.949219 C 277.957031 551.84375 268.699219 551.160156 256.441406 549.898438 C 244.34375 548.109375 236.285156 547.207031 232.269531 547.183594 C 221.640625 547.257812 211.992188 541.433594 203.332031 529.742188 C 196.519531 520.597656 192.882812 512.363281 192.40625 505.054688 C 190.390625 323.722656 190.351562 219.847656 192.257812 193.4375 C 194.097656 165.28125 205.894531 137.871094 227.679688 111.195312 C 234.511719 103.429688 238.496094 91.664062 239.609375 75.929688 C 240.359375 68.398438 240.339844 61.507812 239.566406 55.257812 Z M 239.566406 55.257812 " fill-opacity="1" fill-rule="evenodd"/></g></g></g></g></g></g></g></g></g></g></g></g><g clip-path="url(#id13)"><g clip-path="url(#id14)"><g clip-path="url(#id15)"><g clip-path="url(#id16)"><path fill="rgb(55.688477%, 69.018555%, 72.158813%)" d="M 307.167969 611.035156 C 303.171875 607 297.535156 596.757812 290.25 580.300781 L 280.171875 557.148438 L 339.351562 545.929688 C 349.046875 544.15625 361.296875 542.980469 376.074219 542.402344 L 477.28125 542.085938 C 486.511719 541.890625 489.605469 545.085938 486.558594 551.664062 C 483.507812 558.242188 423.714844 578.035156 307.167969 611.035156 Z M 307.167969 611.035156 " fill-opacity="1" fill-rule="evenodd"/></g></g></g></g><g clip-path="url(#id17)"><g clip-path="url(#id18)"><g clip-path="url(#id19)"><g clip-path="url(#id20)"><g clip-path="url(#id21)"><path fill="url(#id22)" d="M 173.253906 593.128906 L 449.554688 463.082031 L 594.011719 769.910156 L 317.710938 899.957031 Z M 173.253906 593.128906 " fill-rule="nonzero"/></g></g></g></g></g><g clip-path="url(#id23)"><g clip-path="url(#id24)"><g clip-path="url(#id25)"><g clip-path="url(#id26)"><g mask="url(#id27)"><g transform="matrix(1, 0, 0, 1, 83, 293)"><g clip-path="url(#id33)"><g clip-path="url(#id28)"><g clip-path="url(#id29)"><g clip-path="url(#id30)"><g clip-path="url(#id31)"><g clip-path="url(#id32)"><path fill="rgb(85.488892%, 90.979004%, 92.158508%)" d="M 239.566406 55.257812 L 355.691406 55.410156 C 355.066406 61.546875 355.078125 68.429688 355.730469 76.078125 C 357.21875 91.71875 361.441406 103.414062 368.378906 111.167969 C 390.339844 137.347656 402.066406 164.707031 403.5625 193.253906 C 405.652344 219.679688 405.980469 323.636719 404.503906 505.101562 C 404.253906 511.914062 400.746094 520.078125 393.976562 529.585938 C 385.382812 541.429688 375.769531 547.390625 365.136719 547.464844 C 342.242188 550.285156 324.863281 551.839844 313.019531 552.125 L 312.789062 552.921875 L 284.011719 552.742188 L 284.242188 551.949219 C 277.957031 551.84375 268.699219 551.160156 256.441406 549.898438 C 244.34375 548.109375 236.285156 547.207031 232.269531 547.183594 C 221.640625 547.257812 211.992188 541.433594 203.332031 529.742188 C 196.519531 520.597656 192.882812 512.363281 192.40625 505.054688 C 190.390625 323.722656 190.351562 219.847656 192.257812 193.4375 C 194.097656 165.28125 205.894531 137.871094 227.679688 111.195312 C 234.511719 103.429688 238.496094 91.664062 239.609375 75.929688 C 240.359375 68.398438 240.339844 61.507812 239.566406 55.257812 Z M 239.566406 55.257812 " fill-opacity="1" fill-rule="evenodd"/></g></g></g></g></g></g></g></g></g></g></g></g><g clip-path="url(#id34)"><g clip-path="url(#id35)"><g clip-path="url(#id36)"><g clip-path="url(#id37)"><g mask="url(#id38)"><g transform="matrix(1, 0, 0, 1, 202, 330)"><g clip-path="url(#id44)"><g clip-path="url(#id39)"><g clip-path="url(#id40)"><g clip-path="url(#id41)"><g clip-path="url(#id42)"><g clip-path="url(#id43)"><path fill="rgb(0%, 0%, 0%)" d="M 236.460938 19.203125 C 235.199219 44.367188 239.5 62.691406 249.378906 74.167969 C 271.339844 100.347656 283.066406 127.707031 284.5625 156.253906 C 286.652344 182.679688 286.980469 286.636719 285.503906 468.101562 C 285.253906 474.914062 281.746094 483.078125 274.976562 492.585938 C 266.382812 504.429688 256.769531 510.390625 246.136719 510.464844 L 210.324219 510.824219 C 211.652344 509.195312 213.960938 508.152344 217.257812 507.671875 C 227.097656 505.367188 234.070312 498.644531 238.160156 487.492188 L 240.9375 471.945312 C 241.1875 421.519531 241.433594 370.671875 241.644531 319.375 C 241.710938 216.109375 241.351562 161.351562 240.578125 155.101562 C 236.746094 124.730469 227.796875 101.183594 213.699219 84.464844 C 204.921875 74.167969 200.914062 52.347656 201.667969 19 L 229.367188 18.4375 Z M 236.460938 19.203125 " fill-opacity="1" fill-rule="evenodd"/></g></g></g></g></g></g></g></g></g></g></g></g><g clip-path="url(#id45)"><g clip-path="url(#id46)"><g clip-path="url(#id47)"><g clip-path="url(#id48)"><g mask="url(#id49)"><g transform="matrix(1, 0, 0, 1, 87, 327)"><g clip-path="url(#id55)"><g clip-path="url(#id50)"><g clip-path="url(#id51)"><g clip-path="url(#id52)"><g clip-path="url(#id53)"><g clip-path="url(#id54)"><path fill="rgb(100%, 100%, 100%)" d="M 280.1875 18.722656 C 281.121094 55.144531 278.183594 82.125 271.386719 99.65625 C 265.394531 115.421875 261.242188 129.269531 258.925781 141.222656 C 255.191406 157.070312 253.253906 176.15625 253.105469 198.492188 C 252.648438 230.78125 252.679688 318.867188 253.195312 462.753906 L 255.867188 477.300781 C 259.046875 487.125 263.023438 492.71875 267.785156 494.101562 C 274.664062 496.109375 267.796875 496.550781 247.175781 495.4375 C 226.746094 494.667969 213.605469 493.011719 207.75 490.441406 C 201.171875 487.386719 196.683594 484.078125 194.277344 480.503906 C 191.304688 475.90625 189.902344 469.335938 190.089844 460.785156 L 190.785156 150.703125 L 193.617188 136.460938 C 196.832031 125.347656 201.3125 115.3125 207.058594 106.367188 C 211.660156 99.390625 218.28125 90.40625 226.90625 79.421875 C 233.523438 70.441406 237.453125 61.828125 238.6875 53.582031 C 240.398438 39.730469 241.277344 28.796875 241.300781 20.773438 Z M 280.1875 18.722656 " fill-opacity="1" fill-rule="evenodd"/></g></g></g></g></g></g></g></g></g></g></g></g><g clip-path="url(#id56)"><g clip-path="url(#id57)"><g clip-path="url(#id58)"><g clip-path="url(#id59)"><path fill="rgb(74.119568%, 87.449646%, 90.19928%)" d="M 322.609375 368.929688 C 323.347656 361.40625 323.339844 354.507812 322.566406 348.257812 L 333.585938 348.867188 C 335.777344 377.925781 332.707031 396.96875 324.351562 406.011719 C 311.9375 418.1875 302.921875 428.046875 297.285156 435.597656 C 287.328125 448.207031 281.722656 460.625 280.46875 472.886719 C 279.554688 484.964844 279.277344 541.398438 279.644531 642.207031 C 279.917969 692.78125 280.40625 742.132812 281.109375 790.242188 L 291.386719 805.277344 C 304.144531 814.714844 325.246094 819.128906 354.679688 818.492188 C 398.761719 817.8125 424.890625 817.230469 433.070312 816.734375 C 450.449219 815.175781 462.242188 811.570312 468.464844 805.914062 C 481.601562 794.234375 487.417969 776.136719 485.910156 751.589844 C 485.21875 743.066406 484.941406 698.953125 485.058594 619.234375 C 485.167969 547.542969 485.339844 499.394531 485.570312 474.785156 L 486.5625 486.253906 C 488.65625 512.691406 488.980469 616.636719 487.503906 798.101562 C 487.253906 804.914062 483.746094 813.078125 476.976562 822.585938 C 468.382812 834.429688 458.765625 840.390625 448.132812 840.453125 C 425.234375 843.273438 407.859375 844.828125 396.011719 845.117188 L 395.789062 845.921875 L 367.011719 845.742188 L 367.242188 844.949219 C 360.957031 844.84375 351.703125 844.171875 339.441406 842.898438 C 327.34375 841.109375 319.285156 840.207031 315.269531 840.183594 C 304.640625 840.257812 294.992188 834.433594 286.332031 822.742188 C 279.519531 813.597656 275.882812 805.363281 275.40625 798.054688 C 273.390625 616.722656 273.351562 512.847656 275.257812 486.433594 C 277.09375 458.273438 288.894531 430.871094 310.679688 404.195312 C 317.511719 396.429688 321.496094 384.664062 322.609375 368.929688 Z M 322.609375 368.929688 " fill-opacity="1" fill-rule="evenodd"/></g></g></g></g><g clip-path="url(#id60)"><g clip-path="url(#id61)"><g clip-path="url(#id62)"><g clip-path="url(#id63)"><path fill="rgb(90.979004%, 98.429871%, 100%)" d="M 420.996094 344.132812 L 438.679688 348.417969 L 438.730469 369.078125 C 440.226562 384.714844 444.441406 396.414062 451.378906 404.167969 C 467.664062 423.234375 478.210938 443.246094 483.050781 464.15625 C 473.3125 438.371094 462.664062 420.648438 451.125 410.980469 C 442.816406 403.980469 436.476562 395.683594 432.085938 386.085938 C 428.222656 376.640625 424.523438 362.65625 420.996094 344.132812 Z M 420.996094 344.132812 " fill-opacity="1" fill-rule="evenodd"/></g></g></g></g><g clip-path="url(#id64)"><g clip-path="url(#id65)"><g clip-path="url(#id66)"><g clip-path="url(#id67)"><g mask="url(#id68)"><g transform="matrix(1, 0, 0, 1, 303, 287)"><g clip-path="url(#id74)"><g clip-path="url(#id69)"><g clip-path="url(#id70)"><g clip-path="url(#id71)"><g clip-path="url(#id72)"><g clip-path="url(#id73)"><path fill="rgb(0%, 0%, 0%)" d="M 19.523438 73.296875 L 20.234375 64.894531 C 29.949219 59.109375 38.898438 56.398438 47.109375 56.777344 L 135.691406 61.410156 L 135.773438 70.042969 C 132.515625 71.394531 128.460938 72.503906 123.617188 73.398438 L 99.886719 75.113281 C 92.574219 75.574219 81.933594 75.210938 67.933594 74.011719 C 54.277344 72.628906 38.140625 72.394531 19.523438 73.296875 Z M 19.523438 73.296875 " fill-opacity="1" fill-rule="evenodd"/></g></g></g></g></g></g></g></g></g></g></g></g><g clip-path="url(#id75)"><g clip-path="url(#id76)"><g clip-path="url(#id77)"><g clip-path="url(#id78)"><path fill="rgb(73.728943%, 89.019775%, 92.158508%)" d="M 453.761719 339.445312 C 453.941406 343.792969 452.421875 347.527344 449.238281 350.613281 C 446.394531 353.515625 442.785156 355.046875 438.4375 355.222656 L 320.5 355.40625 C 316.136719 355.574219 312.589844 353.976562 309.835938 350.59375 C 306.742188 347.398438 305.117188 343.621094 304.949219 339.269531 C 304.769531 334.921875 306.375 331.371094 309.753906 328.613281 C 312.597656 325.714844 316.199219 324.1875 320.550781 324.003906 L 437.980469 324.105469 C 442.332031 323.941406 446.054688 325.441406 449.144531 328.636719 C 452.046875 331.484375 453.59375 335.09375 453.761719 339.445312 Z M 453.761719 339.445312 " fill-opacity="1" fill-rule="evenodd"/></g></g></g></g><g clip-path="url(#id79)"><g clip-path="url(#id80)"><g clip-path="url(#id81)"><g clip-path="url(#id82)"><path fill="rgb(100%, 100%, 100%)" d="M 345.3125 367.773438 C 344.730469 383.675781 342.554688 399.101562 338.792969 414.082031 C 335.886719 424.132812 331.640625 431.371094 326.0625 435.773438 C 320.644531 439.648438 317.40625 439.433594 316.359375 435.109375 C 315.660156 430.59375 321.761719 419.894531 334.691406 402.992188 C 339.488281 396.34375 343.03125 384.609375 345.3125 367.773438 Z M 345.3125 367.773438 " fill-opacity="1" fill-rule="evenodd"/></g></g></g></g><g clip-path="url(#id83)"><g clip-path="url(#id84)"><g clip-path="url(#id85)"><g clip-path="url(#id86)"><path fill="rgb(100%, 100%, 100%)" d="M 384.042969 361.804688 C 383.730469 362.859375 383.449219 364.363281 383.175781 366.289062 C 382.78125 369.617188 383.273438 373.347656 384.660156 377.488281 C 386.496094 384.042969 386.816406 387.875 385.648438 388.953125 L 380.125 375.308594 C 379.242188 370.457031 377.605469 366.683594 375.238281 363.984375 C 373.949219 362.464844 375.054688 361.640625 378.539062 361.5 C 380.289062 361.429688 382.117188 361.53125 384.042969 361.804688 Z M 384.042969 361.804688 " fill-opacity="1" fill-rule="evenodd"/></g></g></g></g><g clip-path="url(#id87)"><g clip-path="url(#id88)"><g clip-path="url(#id89)"><g clip-path="url(#id90)"><path fill="rgb(100%, 100%, 100%)" d="M 390.339844 362.34375 L 397.152344 362.601562 L 398.464844 375.894531 C 399.058594 377.796875 398.71875 379.984375 397.410156 382.480469 C 396.871094 383.777344 396.660156 384.777344 396.746094 385.515625 C 396.046875 383.832031 395.351562 381.546875 394.644531 378.664062 Z M 390.339844 362.34375 " fill-opacity="1" fill-rule="evenodd"/></g></g></g></g><g clip-path="url(#id91)"><g clip-path="url(#id92)"><g clip-path="url(#id93)"><g clip-path="url(#id94)"><path fill="rgb(100%, 100%, 100%)" d="M 427.082031 404.859375 L 433.589844 410.621094 C 434.53125 412.332031 434.992188 417.191406 434.957031 425.21875 L 430.6875 416.226562 C 429.710938 413.652344 427.332031 410.957031 423.5625 408.132812 L 418.976562 404.648438 L 421.535156 403.238281 C 423.421875 402.644531 425.269531 403.1875 427.082031 404.859375 Z M 427.082031 404.859375 " fill-opacity="1" fill-rule="evenodd"/></g></g></g></g><g clip-path="url(#id95)"><g clip-path="url(#id96)"><g clip-path="url(#id97)"><g clip-path="url(#id98)"><path fill="rgb(100%, 100%, 100%)" d="M 428.71875 472.039062 C 429.78125 481.238281 429.535156 486.046875 427.988281 486.457031 C 428.496094 481.734375 427.699219 477.046875 425.597656 472.421875 C 421.003906 462.484375 412.066406 456.738281 398.753906 455.160156 C 370.871094 451.367188 352.140625 449.226562 342.53125 448.734375 C 320.351562 448.035156 305.425781 451.59375 297.714844 459.390625 C 294.867188 462.289062 292.238281 468.410156 289.816406 477.753906 C 288.773438 482.332031 287.8125 486.640625 286.933594 490.6875 C 286.199219 485.308594 286.136719 479.550781 286.765625 473.425781 C 287.679688 461.347656 290.960938 453.976562 296.605469 451.320312 C 308.203125 444.9375 348.121094 444.761719 416.363281 450.808594 C 423.535156 455.765625 427.65625 462.839844 428.71875 472.039062 Z M 428.71875 472.039062 " fill-opacity="1" fill-rule="evenodd"/></g></g></g></g><g clip-path="url(#id99)"><g clip-path="url(#id100)"><g clip-path="url(#id101)"><g clip-path="url(#id102)"><path fill="rgb(70.979309%, 76.858521%, 78.039551%)" d="M 303.511719 827.300781 C 305.558594 826.175781 308.421875 825.707031 312.085938 825.917969 C 312.425781 825.734375 319.59375 826.230469 333.59375 827.429688 C 367.152344 829.417969 393.761719 830.125 413.433594 829.519531 C 419.191406 829.460938 425.640625 829.472656 432.792969 829.554688 C 437.140625 829.378906 439.183594 830.253906 438.910156 832.179688 C 438.640625 834.117188 430.859375 835.730469 415.566406 837.023438 C 399.9375 838.511719 384.605469 838.929688 369.589844 838.304688 C 318.21875 835.4375 296.199219 831.78125 303.511719 827.300781 Z M 303.511719 827.300781 " fill-opacity="1" fill-rule="evenodd"/></g></g></g></g><g clip-path="url(#id103)"><g clip-path="url(#id104)"><g clip-path="url(#id105)"><g clip-path="url(#id106)"><path fill="rgb(100%, 100%, 100%)" d="M 280.171875 557.148438 L 372.460938 556.40625 C 384.492188 556.457031 399.496094 556.648438 417.464844 556.992188 C 430.707031 556.820312 440.800781 556.160156 447.734375 555.015625 C 458.988281 552.824219 471.632812 548.761719 485.683594 542.789062 C 473.09375 550.613281 463.261719 555.359375 456.183594 557.039062 C 449.972656 558.667969 445.820312 559.632812 443.742188 559.882812 C 439.199219 559.714844 433.355469 559.59375 426.207031 559.523438 Z M 280.171875 557.148438 " fill-opacity="1" fill-rule="evenodd"/></g></g></g></g><g clip-path="url(#id107)"><g clip-path="url(#id108)"><g clip-path="url(#id109)"><g clip-path="url(#id110)"><path fill="rgb(100%, 100%, 100%)" d="M 300.425781 527.3125 C 303.269531 524.410156 306.878906 522.878906 311.226562 522.703125 C 315.761719 522.875 319.578125 524.550781 322.671875 527.746094 C 325.574219 530.59375 327.109375 534.207031 327.289062 538.554688 C 327.457031 542.90625 325.949219 546.632812 322.765625 549.722656 C 319.734375 552.285156 316.035156 553.652344 311.683594 553.820312 C 307.332031 553.984375 303.613281 552.484375 300.519531 549.285156 C 297.617188 546.4375 296.082031 542.824219 295.902344 538.476562 C 295.734375 534.125 297.234375 530.402344 300.425781 527.3125 Z M 316.707031 529.027344 C 314.707031 527.019531 312.40625 526.054688 309.792969 526.160156 C 303.363281 526.589844 300.261719 529.84375 300.507812 535.941406 C 300.273438 538.742188 301.152344 541.15625 303.152344 543.164062 C 304.953125 544.84375 307.171875 545.625 309.78125 545.519531 C 316.253906 545.964844 319.609375 542.78125 319.863281 535.96875 C 319.757812 533.355469 318.707031 531.035156 316.707031 529.027344 Z M 316.707031 529.027344 " fill-opacity="1" fill-rule="evenodd"/></g></g></g></g><g clip-path="url(#id111)"><g clip-path="url(#id112)"><g clip-path="url(#id113)"><g clip-path="url(#id114)"><path fill="rgb(100%, 100%, 100%)" d="M 413.71875 541.703125 C 413.792969 543.4375 414.457031 545.085938 415.742188 546.59375 C 417.359375 547.933594 419.039062 548.558594 420.789062 548.492188 C 422.714844 548.765625 424.519531 548 426.1875 546.183594 C 427.699219 544.910156 428.335938 543.226562 428.078125 541.140625 C 427.71875 536.4375 425.367188 534.179688 421.007812 534.351562 C 416.285156 533.84375 413.855469 536.285156 413.71875 541.703125 Z M 413.851562 551.640625 C 411.671875 549.277344 410.597656 546.53125 410.65625 543.386719 C 410.703125 540.25 411.808594 537.414062 413.976562 534.886719 C 415.992188 532.894531 418.734375 531.824219 422.21875 531.683594 C 425.355469 531.734375 428.191406 532.839844 430.722656 535.011719 C 432.710938 537.027344 433.78125 539.773438 433.925781 543.257812 C 434.042969 550.765625 430.199219 554.65625 422.355469 554.96875 C 419.207031 554.925781 416.382812 553.8125 413.851562 551.640625 Z M 413.851562 551.640625 " fill-opacity="1" fill-rule="evenodd"/></g></g></g></g><g clip-path="url(#id115)"><g clip-path="url(#id116)"><g clip-path="url(#id117)"><g clip-path="url(#id118)"><path fill="rgb(100%, 100%, 100%)" d="M 336.167969 531.664062 C 339.839844 531.871094 342.769531 533.144531 344.949219 535.507812 C 347.664062 538.015625 348.996094 540.847656 348.949219 543.984375 C 349.09375 547.46875 347.816406 550.402344 345.117188 552.769531 C 342.949219 555.296875 340.128906 556.621094 336.644531 556.765625 C 333.164062 556.90625 330.066406 555.714844 327.351562 553.203125 C 325.160156 550.847656 324.007812 547.929688 323.863281 544.445312 C 324.066406 540.769531 325.246094 537.675781 327.414062 535.148438 C 330.105469 532.769531 333.03125 531.617188 336.167969 531.664062 Z M 340.292969 536.734375 C 338.828125 534.871094 337.050781 534.074219 334.964844 534.328125 C 329.558594 534.195312 326.953125 536.734375 327.164062 541.960938 C 327.035156 547.371094 329.574219 549.976562 334.796875 549.773438 C 340.207031 549.90625 342.808594 547.363281 342.601562 542.140625 C 342.875 540.214844 342.105469 538.40625 340.292969 536.734375 Z M 340.292969 536.734375 " fill-opacity="1" fill-rule="evenodd"/></g></g></g></g><g clip-path="url(#id119)"><g clip-path="url(#id120)"><g clip-path="url(#id121)"><g clip-path="url(#id122)"><path fill="rgb(100%, 100%, 100%)" d="M 286.507812 466.894531 C 290.265625 482.617188 293.648438 501.675781 296.632812 524.058594 C 303.128906 568.980469 305.476562 607.964844 303.65625 641.003906 C 300.371094 693.980469 296.6875 745.851562 292.609375 796.59375 Z M 286.507812 466.894531 " fill-opacity="1" fill-rule="evenodd"/></g></g></g></g><g clip-path="url(#id123)"><g clip-path="url(#id124)"><g clip-path="url(#id125)"><g clip-path="url(#id126)"><path fill="rgb(100%, 100%, 100%)" d="M 433.023438 619.179688 C 436.777344 735.027344 435.410156 794.742188 428.929688 798.308594 C 414.449219 806.71875 391.179688 806.847656 359.113281 798.683594 L 395.617188 795.941406 C 404.480469 795.082031 411.101562 792.984375 415.511719 789.675781 C 421.769531 784.882812 425.300781 777.171875 426.09375 766.496094 Z M 433.023438 619.179688 " fill-opacity="1" fill-rule="evenodd"/></g></g></g></g><g clip-path="url(#id127)"><g clip-path="url(#id128)"><g clip-path="url(#id129)"><g clip-path="url(#id130)"><path fill="rgb(100%, 100%, 100%)" d="M 331.820312 331.148438 L 328.1875 331.816406 C 325.238281 332.105469 324.242188 335.550781 325.199219 342.136719 C 325.273438 343.871094 326.496094 346.09375 328.863281 348.796875 C 330.144531 350.320312 331.234375 351.5 332.15625 352.324219 L 323.246094 351.890625 C 318.511719 351.386719 315.339844 348.460938 313.730469 343.109375 C 312.335938 338.980469 312.546875 335.3125 314.335938 332.097656 C 316.320312 329.230469 318.6875 327.472656 321.449219 326.847656 C 325.085938 326.183594 336.21875 325.832031 354.882812 325.796875 C 351.585938 326.277344 348.648438 327 346.078125 327.972656 C 343.347656 329.480469 341.203125 330.429688 339.644531 330.847656 L 334.996094 332.070312 C 335.519531 332.222656 335.371094 332.75 334.527344 333.664062 C 333.363281 334.746094 332.664062 337.136719 332.46875 340.804688 L 332.449219 346.824219 C 331.046875 346.703125 330.179688 344.738281 329.859375 340.910156 C 329.527344 337.085938 330.1875 333.824219 331.820312 331.148438 Z M 331.820312 331.148438 " fill-opacity="1" fill-rule="evenodd"/></g></g></g></g><g clip-path="url(#id131)"><g clip-path="url(#id132)"><g clip-path="url(#id133)"><g clip-path="url(#id134)"><path fill="rgb(100%, 100%, 100%)" d="M 382.636719 326.539062 L 430.765625 326.742188 C 424.4375 329.785156 418.832031 331.308594 413.957031 331.324219 Z M 382.636719 326.539062 " fill-opacity="1" fill-rule="evenodd"/></g></g></g></g><g clip-path="url(#id135)"><g clip-path="url(#id136)"><g clip-path="url(#id137)"><g clip-path="url(#id138)"><path fill="rgb(100%, 100%, 100%)" d="M 443.640625 328.332031 C 447.382812 330.277344 447.199219 334.382812 443.085938 340.648438 C 442.234375 336.675781 440.191406 333.792969 436.976562 332 C 434.828125 330.515625 434.773438 329.207031 436.820312 328.082031 C 438.867188 326.953125 441.140625 327.035156 443.640625 328.332031 Z M 443.640625 328.332031 " fill-opacity="1" fill-rule="evenodd"/></g></g></g></g><g clip-path="url(#id139)"><g clip-path="url(#id140)"><g clip-path="url(#id141)"><g clip-path="url(#id142)"><path fill="rgb(100%, 100%, 100%)" d="M 392.816406 352.304688 L 411.554688 350 C 414.503906 349.710938 417.234375 350.648438 419.773438 352.816406 Z M 392.816406 352.304688 " fill-opacity="1" fill-rule="evenodd"/></g></g></g></g></svg>