<svg xmlns="http://www.w3.org/2000/svg" xmlns:xlink="http://www.w3.org/1999/xlink" width="750" zoomAndPan="magnify" viewBox="0 0 750 1124.99995" height="1124.99995" preserveAspectRatio="xMidYMid meet" version="1.0"><defs><clipPath id="id1"><path d="M 493 289.441406 L 589 289.441406 L 589 431 L 493 431 Z M 493 289.441406 " clip-rule="nonzero"/></clipPath></defs><g clip-path="url(#id1)"><path fill="rgb(74.508667%, 87.838745%, 34.509277%)" d="M 502.5 430.023438 C 530.269531 399.652344 560.902344 356.183594 588.753906 296.914062 L 561.824219 289.945312 C 543.144531 335.234375 521.753906 373.570312 493.996094 409.386719 C 497.257812 416.058594 500.070312 423.085938 502.5 430.023438 " fill-opacity="1" fill-rule="nonzero"/></g><path fill="rgb(47.839355%, 72.158813%, 0%)" d="M 501.722656 427.804688 C 527.253906 396.492188 555.988281 352.808594 584.945312 295.925781 L 572.085938 292.59375 C 550.238281 340.765625 527.382812 382.585938 497.945312 418.085938 C 499.265625 421.335938 500.550781 424.5625 501.722656 427.804688 " fill-opacity="1" fill-rule="nonzero"/><path fill="rgb(74.508667%, 87.838745%, 34.509277%)" d="M 503.886719 453.933594 C 557.855469 435.523438 611.488281 430.640625 674.949219 435.511719 L 672.738281 398.5 C 595.671875 397.789062 535.972656 412.550781 493.097656 431.53125 C 497.3125 438.066406 500.933594 445.859375 503.886719 453.933594 " fill-opacity="1" fill-rule="nonzero"/><path fill="rgb(47.839355%, 72.158813%, 0%)" d="M 499.925781 444.222656 C 551.96875 424.1875 608.867188 419.832031 674.050781 420.605469 L 672.992188 402.519531 C 597.378906 405.765625 537.710938 418.046875 494.398438 433.679688 C 496.382812 436.941406 498.226562 440.484375 499.925781 444.222656 " fill-opacity="1" fill-rule="nonzero"/><path fill="rgb(74.508667%, 87.838745%, 34.509277%)" d="M 502.09375 431.160156 C 502.828125 434.417969 503.328125 437.3125 503.667969 440.15625 C 540.871094 414.585938 584.152344 373.425781 624.777344 311.078125 L 596.804688 294.25 C 567.691406 345.53125 535.96875 385.464844 494.046875 420.15625 C 497.882812 422.699219 501.066406 426.710938 502.09375 431.160156 " fill-opacity="1" fill-rule="nonzero"/><path fill="rgb(47.839355%, 72.158813%, 0%)" d="M 502.09375 431.160156 C 502.652344 433.640625 503.054688 435.859375 503.339844 438.09375 C 538.058594 410.625 578.953125 368.359375 621.375 309 L 607.808594 300.878906 C 575.035156 352.0625 542.414062 394.804688 500.46875 427.1875 C 501.179688 428.472656 501.785156 429.757812 502.09375 431.160156 " fill-opacity="1" fill-rule="nonzero"/><path fill="rgb(74.508667%, 87.838745%, 34.509277%)" d="M 492.964844 440.542969 C 493.933594 442.070312 495.375 443.960938 496.179688 445.457031 C 497.679688 448.066406 498.820312 450.753906 499.632812 453.558594 C 550.023438 417.035156 602.75 395.78125 669.347656 381.417969 L 656.039062 349.808594 C 579.898438 371.777344 525.46875 403.789062 489.4375 434.253906 C 490.523438 436.425781 491.65625 438.519531 492.964844 440.542969 " fill-opacity="1" fill-rule="nonzero"/><path fill="rgb(47.839355%, 72.158813%, 0%)" d="M 492.964844 440.542969 C 493.847656 441.933594 495.042969 443.5625 495.859375 444.972656 C 542.363281 408.316406 598.035156 387.382812 663.914062 368.492188 L 657.429688 353.074219 C 583.042969 378.597656 527.625 408.273438 490.300781 435.769531 C 491.152344 437.382812 491.980469 439 492.964844 440.542969 " fill-opacity="1" fill-rule="nonzero"/><path fill="rgb(74.508667%, 87.838745%, 34.509277%)" d="M 507.890625 445.261719 C 508.742188 444.972656 509.628906 444.578125 510.507812 444.023438 C 553.589844 416.058594 603.855469 378.777344 659.128906 330.675781 L 640.230469 309.125 C 594.742188 351.671875 547.933594 390.003906 496.382812 426.554688 C 502.453125 430.519531 504.925781 438.535156 507.890625 445.261719 " fill-opacity="1" fill-rule="nonzero"/><path fill="rgb(47.839355%, 72.158813%, 0%)" d="M 507.3125 443.972656 C 507.980469 443.574219 508.632812 443.15625 509.34375 442.714844 C 551.140625 413.226562 600.273438 374.636719 655.359375 326.386719 L 647.445312 317.375 C 600.230469 360.976562 552.945312 399.8125 502.703125 433.71875 C 504.511719 436.964844 505.875 440.5625 507.3125 443.972656 " fill-opacity="1" fill-rule="nonzero"/><path fill="rgb(90.589905%, 94.898987%, 68.629456%)" d="M 503.296875 622.515625 C 457.980469 656.628906 390.953125 644.234375 342.078125 623.683594 C 287.894531 600.894531 304.269531 605.5625 251.839844 616.144531 C 175.886719 631.449219 126.066406 618.964844 100.402344 606.488281 C 80.3125 596.722656 75.019531 586.957031 83.566406 590.503906 C 97.058594 596.164062 109.804688 600.035156 121.878906 602.53125 C 123.113281 602.824219 124.355469 603.113281 125.59375 603.269531 C 172.703125 611.964844 209.945312 599.730469 242.296875 586.40625 C 268.773438 575.464844 278.601562 578.308594 272.175781 519.789062 C 266.507812 468.46875 278.609375 406.898438 320.867188 375.089844 C 322.550781 373.832031 324.230469 372.570312 326.050781 371.46875 C 329.261719 369.203125 332.515625 367.144531 335.914062 365.273438 C 398.085938 329.644531 479.328125 346.289062 526.523438 406.117188 C 527.625 407.472656 528.664062 408.863281 529.699219 410.273438 C 577.496094 475.101562 569.332031 563.925781 512.914062 614.589844 C 511.214844 616.132812 509.445312 617.597656 507.6875 619.058594 C 506.285156 620.25 504.835938 621.355469 503.296875 622.515625 " fill-opacity="1" fill-rule="nonzero"/><path fill="rgb(90.589905%, 83.918762%, 69.018555%)" d="M 514.738281 612.800781 C 506.164062 589.484375 495.078125 565.382812 481.59375 541.171875 C 484.640625 538.347656 487.570312 535.378906 490.371094 532.289062 C 503.21875 557.328125 513.171875 582.621094 520.167969 607.445312 C 518.449219 609.308594 516.601562 611.058594 514.738281 612.800781 M 523.515625 603.855469 C 523.703125 603.648438 523.894531 603.433594 524.082031 603.226562 C 524.480469 602.785156 524.867188 602.339844 525.253906 601.898438 C 524.679688 602.550781 524.101562 603.207031 523.515625 603.855469 M 529.691406 410.3125 C 528.679688 408.9375 527.652344 407.59375 526.605469 406.265625 C 527.652344 407.59375 528.679688 408.9375 529.691406 410.3125 " fill-opacity="1" fill-rule="nonzero"/><path fill="rgb(98.039246%, 87.838745%, 94.119263%)" d="M 335.839844 365.320312 C 335.863281 365.304688 335.882812 365.289062 335.914062 365.273438 C 336.746094 364.785156 337.601562 364.304688 338.464844 363.851562 C 337.613281 364.316406 336.757812 364.789062 335.914062 365.273438 C 335.882812 365.292969 335.863281 365.304688 335.839844 365.320312 " fill-opacity="1" fill-rule="nonzero"/><path fill="rgb(90.19928%, 61.569214%, 69.40918%)" d="M 520.167969 607.445312 C 521.304688 606.265625 522.421875 605.070312 523.515625 603.855469 C 522.425781 605.070312 521.324219 606.265625 520.167969 607.445312 " fill-opacity="1" fill-rule="nonzero"/><path fill="rgb(90.19928%, 57.249451%, 69.40918%)" d="M 520.167969 607.445312 C 513.171875 582.621094 503.21875 557.328125 490.371094 532.289062 C 493.097656 529.28125 495.703125 526.15625 498.175781 522.921875 C 498.183594 522.929688 498.183594 522.941406 498.191406 522.949219 C 498.203125 522.933594 498.214844 522.917969 498.222656 522.902344 C 510.433594 549.230469 519.035156 576.273438 524.082031 603.226562 C 523.894531 603.433594 523.703125 603.648438 523.515625 603.855469 C 522.421875 605.070312 521.304688 606.265625 520.167969 607.445312 " fill-opacity="1" fill-rule="nonzero"/><path fill="rgb(90.19928%, 39.219666%, 69.799805%)" d="M 524.082031 603.226562 C 514.929688 554.378906 494.121094 505.199219 461.261719 460.617188 C 428.871094 416.707031 388.902344 382.800781 345.96875 360.050781 C 408.109375 330.890625 485.484375 350.367188 529.691406 410.3125 C 574.078125 470.507812 570.207031 551.535156 524.082031 603.226562 " fill-opacity="1" fill-rule="nonzero"/><path fill="rgb(96.859741%, 98.429871%, 89.408875%)" d="M 157.050781 606.191406 C 147.0625 606.191406 136.597656 605.296875 125.59375 603.269531 C 124.355469 603.113281 123.113281 602.824219 121.878906 602.53125 C 110.402344 600.160156 98.324219 596.546875 85.574219 591.339844 C 85.367188 591.207031 85.160156 591.082031 84.945312 590.957031 C 111.613281 601.300781 135.9375 605.09375 157.617188 605.09375 C 193.445312 605.09375 222.078125 594.734375 242.234375 586.429688 C 217.457031 596.632812 189.804688 606.191406 157.050781 606.191406 " fill-opacity="1" fill-rule="nonzero"/><path fill="rgb(92.158508%, 96.078491%, 73.728943%)" d="M 165.039062 615.042969 C 140.386719 615.042969 114.421875 608.941406 85.574219 591.339844 C 98.324219 596.546875 110.402344 600.160156 121.878906 602.53125 C 123.113281 602.824219 124.355469 603.113281 125.59375 603.269531 C 136.597656 605.296875 147.0625 606.191406 157.050781 606.191406 C 189.804688 606.191406 217.457031 596.632812 242.234375 586.429688 C 242.253906 586.421875 242.273438 586.417969 242.296875 586.40625 C 263.554688 577.621094 274.082031 577.722656 274.074219 547.832031 C 274.074219 540.488281 273.441406 531.332031 272.175781 519.789062 C 271.3125 512.019531 270.867188 504.015625 270.867188 495.914062 C 270.867188 450.511719 285.011719 402.082031 320.867188 375.089844 C 322.550781 373.832031 324.230469 372.570312 326.050781 371.46875 C 329.234375 369.222656 332.472656 367.175781 335.839844 365.320312 C 334.988281 365.816406 334.183594 366.289062 333.347656 366.785156 C 334.964844 368.019531 336.582031 369.265625 338.195312 370.53125 C 327.644531 375.839844 317.613281 383.027344 308.820312 392.117188 C 270.851562 431.34375 265.144531 518.804688 300.101562 538.308594 C 307.414062 542.386719 320.390625 544.753906 335.882812 544.753906 C 368.121094 544.753906 411.246094 534.492188 436.890625 507.996094 C 442.148438 502.558594 446.46875 496.753906 449.9375 490.691406 C 461.605469 507.421875 472.164062 524.332031 481.542969 541.203125 C 481.558594 541.191406 481.570312 541.179688 481.589844 541.160156 C 481.589844 541.167969 481.589844 541.171875 481.59375 541.171875 C 458.691406 562.398438 429.054688 575.773438 396.140625 575.773438 C 385.136719 575.773438 373.773438 574.28125 362.171875 571.089844 C 347.863281 567.148438 337.351562 565.511719 329.035156 565.511719 C 300.628906 565.511719 297.859375 584.605469 256.941406 596.238281 C 226.292969 604.929688 196.761719 615.042969 165.039062 615.042969 M 525.957031 405.40625 C 525.921875 405.363281 525.890625 405.324219 525.859375 405.289062 C 525.566406 404.921875 525.277344 404.5625 524.988281 404.207031 C 525.308594 404.601562 525.636719 405.003906 525.957031 405.40625 M 517.917969 396.085938 C 517.722656 395.882812 517.527344 395.679688 517.332031 395.480469 C 516.980469 395.109375 516.640625 394.75 516.289062 394.382812 C 512.203125 390.105469 507.910156 386.101562 503.441406 382.378906 C 501.621094 380.867188 499.78125 379.402344 497.917969 377.980469 C 497.351562 377.542969 496.78125 377.117188 496.207031 376.6875 C 503.90625 382.378906 511.183594 388.84375 517.917969 396.085938 M 478.460938 365.34375 C 478.246094 365.230469 478.039062 365.117188 477.832031 365.003906 C 476.777344 364.4375 475.734375 363.882812 474.675781 363.347656 C 474.476562 363.242188 474.28125 363.140625 474.085938 363.039062 C 475.550781 363.78125 477.011719 364.550781 478.460938 365.34375 M 338.464844 363.851562 C 338.949219 363.585938 339.421875 363.328125 339.90625 363.070312 C 339.671875 363.203125 339.433594 363.335938 339.199219 363.46875 C 338.957031 363.59375 338.710938 363.71875 338.464844 363.851562 M 473.277344 362.636719 C 472.894531 362.441406 472.503906 362.246094 472.113281 362.058594 C 472.503906 362.246094 472.894531 362.441406 473.277344 362.636719 M 350.578125 357.980469 C 353.605469 356.6875 356.675781 355.503906 359.761719 354.441406 C 359.378906 354.578125 358.988281 354.71875 358.609375 354.855469 C 356.203125 355.707031 353.824219 356.625 351.464844 357.613281 C 351.167969 357.734375 350.871094 357.851562 350.578125 357.980469 M 364.539062 352.878906 C 365.15625 352.691406 365.78125 352.507812 366.402344 352.324219 C 366.367188 352.339844 366.328125 352.351562 366.289062 352.363281 C 366.070312 352.425781 365.84375 352.496094 365.617188 352.566406 C 365.257812 352.664062 364.898438 352.773438 364.539062 352.878906 M 444.863281 351.828125 C 444.3125 351.683594 443.761719 351.539062 443.207031 351.398438 C 443.03125 351.347656 442.859375 351.304688 442.683594 351.261719 C 443.414062 351.445312 444.136719 351.632812 444.863281 351.828125 M 429.496094 348.535156 C 428.984375 348.460938 428.480469 348.378906 427.972656 348.300781 C 427.933594 348.296875 427.902344 348.289062 427.863281 348.285156 C 428.40625 348.367188 428.953125 348.449219 429.496094 348.535156 M 419.523438 347.289062 C 419.226562 347.265625 418.929688 347.238281 418.640625 347.21875 C 417.773438 347.144531 416.902344 347.082031 416.035156 347.023438 C 415.582031 346.992188 415.128906 346.960938 414.683594 346.941406 C 411.925781 346.777344 409.160156 346.703125 406.398438 346.699219 C 406.03125 346.699219 405.671875 346.699219 405.308594 346.699219 C 404.886719 346.699219 404.464844 346.699219 404.042969 346.703125 C 404.773438 346.691406 405.515625 346.683594 406.246094 346.683594 C 410.671875 346.683594 415.105469 346.886719 419.523438 347.289062 " fill-opacity="1" fill-rule="nonzero"/><path fill="rgb(92.158508%, 90.589905%, 74.119568%)" d="M 481.59375 541.171875 C 481.589844 541.171875 481.589844 541.167969 481.589844 541.160156 C 484.636719 538.332031 487.570312 535.375 490.371094 532.285156 C 490.371094 532.285156 490.371094 532.285156 490.371094 532.289062 C 487.570312 535.378906 484.640625 538.347656 481.59375 541.171875 M 517.332031 395.480469 C 517.316406 395.460938 517.296875 395.441406 517.277344 395.421875 C 517.164062 395.304688 517.054688 395.191406 516.941406 395.070312 C 516.730469 394.84375 516.507812 394.609375 516.289062 394.382812 C 516.640625 394.75 516.980469 395.109375 517.332031 395.480469 M 503.441406 382.378906 C 502.722656 381.789062 502 381.195312 501.273438 380.609375 C 500.425781 379.929688 499.574219 379.257812 498.710938 378.597656 C 498.449219 378.386719 498.183594 378.1875 497.917969 377.980469 C 499.78125 379.402344 501.621094 380.867188 503.441406 382.378906 M 338.195312 370.53125 C 336.582031 369.265625 334.964844 368.019531 333.347656 366.785156 C 334.183594 366.289062 334.988281 365.816406 335.839844 365.320312 C 335.863281 365.304688 335.882812 365.292969 335.914062 365.273438 C 336.757812 364.789062 337.613281 364.316406 338.464844 363.851562 C 338.710938 363.71875 338.957031 363.59375 339.199219 363.46875 C 338.105469 364.078125 337.042969 364.65625 335.914062 365.273438 C 335.039062 365.792969 334.246094 366.25 333.371094 366.78125 C 334.988281 368.007812 336.601562 369.257812 338.210938 370.523438 C 338.207031 370.523438 338.199219 370.53125 338.195312 370.53125 M 477.832031 365.003906 C 476.765625 364.445312 475.722656 363.890625 474.675781 363.347656 C 475.734375 363.882812 476.777344 364.4375 477.832031 365.003906 " fill-opacity="1" fill-rule="nonzero"/><path fill="rgb(92.158508%, 77.249146%, 74.119568%)" d="M 490.371094 532.289062 C 490.371094 532.285156 490.371094 532.285156 490.371094 532.285156 C 493.046875 529.332031 495.613281 526.253906 498.050781 523.078125 C 498.09375 523.023438 498.132812 522.972656 498.175781 522.917969 C 498.175781 522.917969 498.175781 522.921875 498.175781 522.921875 C 495.703125 526.15625 493.097656 529.28125 490.371094 532.289062 " fill-opacity="1" fill-rule="nonzero"/><path fill="rgb(92.158508%, 68.238831%, 74.508667%)" d="M 517.277344 395.421875 C 517.269531 395.417969 517.257812 395.402344 517.246094 395.398438 C 517.152344 395.289062 517.042969 395.175781 516.941406 395.070312 C 517.054688 395.191406 517.164062 395.304688 517.277344 395.421875 M 501.273438 380.609375 C 500.625 380.09375 499.976562 379.585938 499.324219 379.074219 C 499.121094 378.917969 498.914062 378.753906 498.710938 378.597656 C 499.574219 379.257812 500.425781 379.929688 501.273438 380.609375 M 351.464844 357.613281 C 353.824219 356.625 356.203125 355.707031 358.609375 354.855469 C 357.011719 355.433594 355.417969 356.015625 353.875 356.664062 C 353.351562 356.851562 352.824219 357.058594 352.300781 357.273438 C 352.019531 357.386719 351.742188 357.5 351.464844 357.613281 " fill-opacity="1" fill-rule="nonzero"/><path fill="rgb(93.728638%, 87.838745%, 75.289917%)" d="M 481.542969 541.203125 C 472.164062 524.332031 461.605469 507.421875 449.9375 490.691406 C 449.941406 490.675781 449.953125 490.660156 449.960938 490.644531 C 461.640625 507.386719 472.195312 524.300781 481.589844 541.160156 C 481.570312 541.179688 481.558594 541.191406 481.542969 541.203125 " fill-opacity="1" fill-rule="nonzero"/><path fill="rgb(93.728638%, 83.139038%, 75.689697%)" d="M 481.589844 541.160156 C 472.195312 524.300781 461.640625 507.386719 449.960938 490.644531 C 452.59375 486.039062 454.734375 481.292969 456.414062 476.457031 C 456.414062 476.457031 456.414062 476.460938 456.421875 476.460938 C 456.421875 476.457031 456.421875 476.457031 456.421875 476.457031 C 469.371094 494.714844 480.695312 513.429688 490.371094 532.285156 C 487.570312 535.375 484.636719 538.332031 481.589844 541.160156 " fill-opacity="1" fill-rule="nonzero"/><path fill="rgb(93.728638%, 72.549438%, 75.689697%)" d="M 490.371094 532.285156 C 480.695312 513.429688 469.371094 494.714844 456.421875 476.457031 C 456.421875 476.449219 456.425781 476.445312 456.425781 476.4375 C 469.332031 494.636719 480.699219 513.386719 490.378906 532.238281 C 493.050781 529.300781 495.613281 526.238281 498.050781 523.078125 C 495.613281 526.253906 493.046875 529.332031 490.371094 532.285156 " fill-opacity="1" fill-rule="nonzero"/><path fill="rgb(79.60968%, 81.17981%, 43.919373%)" d="M 526.582031 406.1875 C 526.5625 406.167969 526.542969 406.144531 526.523438 406.117188 C 526.335938 405.878906 526.148438 405.648438 525.957031 405.40625 C 526.164062 405.652344 526.375 405.910156 526.582031 406.1875 " fill-opacity="1" fill-rule="nonzero"/><path fill="rgb(92.549133%, 86.669922%, 70.979309%)" d="M 526.601562 406.214844 C 526.574219 406.183594 526.550781 406.148438 526.523438 406.117188 C 526.335938 405.878906 526.148438 405.648438 525.957031 405.40625 C 526.148438 405.648438 526.335938 405.878906 526.523438 406.117188 C 526.542969 406.144531 526.5625 406.167969 526.582031 406.1875 C 526.585938 406.195312 526.59375 406.207031 526.601562 406.214844 " fill-opacity="1" fill-rule="nonzero"/><path fill="rgb(93.728638%, 87.838745%, 75.289917%)" d="M 526.523438 406.117188 C 526.296875 405.84375 526.078125 405.566406 525.859375 405.289062 C 525.890625 405.324219 525.921875 405.363281 525.957031 405.40625 C 526.148438 405.648438 526.335938 405.878906 526.523438 406.117188 " fill-opacity="1" fill-rule="nonzero"/><path fill="rgb(58.428955%, 68.629456%, 16.079712%)" d="M 519.226562 397.5 C 519.210938 397.488281 519.191406 397.460938 519.171875 397.445312 C 518.761719 396.992188 518.335938 396.539062 517.917969 396.085938 C 518.359375 396.550781 518.800781 397.023438 519.226562 397.5 " fill-opacity="1" fill-rule="nonzero"/><path fill="rgb(79.60968%, 81.17981%, 43.919373%)" d="M 519.390625 397.683594 C 519.335938 397.621094 519.277344 397.5625 519.226562 397.5 C 519.285156 397.5625 519.335938 397.621094 519.390625 397.683594 " fill-opacity="1" fill-rule="nonzero"/><path fill="rgb(93.728638%, 87.838745%, 75.289917%)" d="M 519.171875 397.445312 C 518.699219 396.933594 518.222656 396.425781 517.742188 395.914062 C 517.609375 395.777344 517.464844 395.625 517.332031 395.480469 C 517.527344 395.679688 517.722656 395.882812 517.917969 396.085938 C 518.335938 396.539062 518.761719 396.992188 519.171875 397.445312 " fill-opacity="1" fill-rule="nonzero"/><path fill="rgb(93.728638%, 83.139038%, 75.689697%)" d="M 517.742188 395.914062 C 517.648438 395.820312 517.558594 395.726562 517.464844 395.632812 C 517.410156 395.5625 517.339844 395.492188 517.277344 395.421875 C 517.296875 395.441406 517.316406 395.460938 517.332031 395.480469 C 517.464844 395.625 517.609375 395.777344 517.742188 395.914062 " fill-opacity="1" fill-rule="nonzero"/><path fill="rgb(93.728638%, 65.489197%, 75.689697%)" d="M 517.464844 395.632812 C 517.398438 395.550781 517.320312 395.472656 517.246094 395.398438 C 517.257812 395.402344 517.269531 395.417969 517.277344 395.421875 C 517.339844 395.492188 517.410156 395.5625 517.464844 395.632812 " fill-opacity="1" fill-rule="nonzero"/><path fill="rgb(100%, 90.979004%, 96.469116%)" d="M 496.207031 376.6875 C 494.476562 375.410156 492.726562 374.164062 490.949219 372.96875 C 490.863281 372.90625 490.773438 372.847656 490.683594 372.785156 C 492.550781 374.03125 494.394531 375.335938 496.207031 376.6875 " fill-opacity="1" fill-rule="nonzero"/><path fill="rgb(93.728638%, 87.838745%, 75.289917%)" d="M 497.917969 377.980469 C 496.464844 376.878906 494.992188 375.792969 493.511719 374.75 C 492.664062 374.144531 491.804688 373.554688 490.949219 372.96875 C 492.726562 374.164062 494.476562 375.410156 496.207031 376.6875 C 496.78125 377.117188 497.351562 377.542969 497.917969 377.980469 " fill-opacity="1" fill-rule="nonzero"/><path fill="rgb(93.728638%, 83.139038%, 75.689697%)" d="M 498.710938 378.597656 C 497.960938 378.023438 497.214844 377.449219 496.457031 376.890625 L 496.433594 376.871094 C 495.464844 376.152344 494.488281 375.441406 493.511719 374.75 C 494.992188 375.792969 496.464844 376.878906 497.917969 377.980469 C 498.183594 378.1875 498.449219 378.386719 498.710938 378.597656 " fill-opacity="1" fill-rule="nonzero"/><path fill="rgb(93.728638%, 65.489197%, 75.689697%)" d="M 499.324219 379.074219 C 498.453125 378.402344 497.578125 377.738281 496.703125 377.089844 L 496.457031 376.890625 C 497.214844 377.449219 497.960938 378.023438 498.710938 378.597656 C 498.914062 378.753906 499.121094 378.917969 499.324219 379.074219 " fill-opacity="1" fill-rule="nonzero"/><path fill="rgb(100%, 90.979004%, 96.469116%)" d="M 339.90625 363.070312 C 339.925781 363.066406 339.9375 363.058594 339.949219 363.046875 C 343.445312 361.15625 346.964844 359.484375 350.578125 357.980469 C 349.078125 358.613281 347.59375 359.28125 346.113281 359.972656 C 346.050781 360 345.992188 360.03125 345.929688 360.054688 C 345.597656 360.214844 345.269531 360.371094 344.941406 360.527344 C 344.4375 360.773438 343.933594 361.019531 343.4375 361.265625 C 342.261719 361.84375 341.101562 362.429688 339.949219 363.046875 C 339.9375 363.058594 339.925781 363.066406 339.90625 363.070312 " fill-opacity="1" fill-rule="nonzero"/><path fill="rgb(93.728638%, 87.838745%, 75.289917%)" d="M 339.199219 363.46875 C 339.433594 363.335938 339.671875 363.203125 339.90625 363.070312 C 339.925781 363.066406 339.9375 363.058594 339.957031 363.046875 C 339.96875 363.058594 339.980469 363.066406 339.996094 363.070312 C 339.730469 363.203125 339.464844 363.335938 339.199219 363.46875 M 343.4375 361.265625 C 343.933594 361.019531 344.4375 360.773438 344.941406 360.527344 C 344.4375 360.773438 343.933594 361.019531 343.4375 361.265625 M 346.113281 359.972656 C 347.59375 359.28125 349.078125 358.613281 350.578125 357.980469 C 350.871094 357.851562 351.167969 357.734375 351.464844 357.613281 C 349.734375 358.335938 348.015625 359.09375 346.308594 359.890625 C 346.246094 359.917969 346.175781 359.949219 346.113281 359.972656 " fill-opacity="1" fill-rule="nonzero"/><path fill="rgb(93.728638%, 83.139038%, 75.689697%)" d="M 338.210938 370.523438 C 336.601562 369.257812 334.988281 368.007812 333.371094 366.78125 C 334.246094 366.25 335.039062 365.792969 335.914062 365.273438 C 337.042969 364.65625 338.105469 364.078125 339.199219 363.46875 C 339.464844 363.335938 339.730469 363.203125 339.996094 363.070312 C 340.605469 363.46875 341.222656 363.871094 341.832031 364.265625 C 343.203125 365.167969 344.578125 366.074219 345.941406 366.992188 C 345.9375 367 345.9375 367 345.929688 367 C 345.9375 367.007812 345.941406 367.007812 345.941406 367.011719 C 344.175781 367.730469 342.410156 368.511719 340.660156 369.328125 C 339.84375 369.71875 339.023438 370.117188 338.210938 370.523438 " fill-opacity="1" fill-rule="nonzero"/><path fill="rgb(93.728638%, 72.549438%, 75.689697%)" d="M 341.832031 364.265625 C 341.222656 363.871094 340.605469 363.46875 339.996094 363.070312 C 340.605469 363.46875 341.222656 363.871094 341.832031 364.265625 " fill-opacity="1" fill-rule="nonzero"/><path fill="rgb(93.728638%, 65.489197%, 75.689697%)" d="M 346.308594 359.890625 C 348.015625 359.09375 349.734375 358.335938 351.464844 357.613281 C 351.742188 357.5 352.019531 357.386719 352.300781 357.273438 C 351.042969 357.789062 349.796875 358.351562 348.574219 358.871094 C 347.851562 359.199219 347.0625 359.558594 346.308594 359.890625 " fill-opacity="1" fill-rule="nonzero"/><path fill="rgb(100%, 90.979004%, 96.469116%)" d="M 359.761719 354.441406 C 359.84375 354.410156 359.929688 354.378906 360.019531 354.347656 C 360.710938 354.101562 361.40625 353.867188 362.101562 353.648438 C 361.796875 353.75 361.492188 353.847656 361.183594 353.949219 C 360.710938 354.113281 360.234375 354.269531 359.761719 354.441406 " fill-opacity="1" fill-rule="nonzero"/><path fill="rgb(93.728638%, 87.838745%, 75.289917%)" d="M 358.609375 354.855469 C 358.988281 354.71875 359.378906 354.578125 359.761719 354.441406 C 360.234375 354.269531 360.710938 354.113281 361.183594 353.949219 C 360.902344 354.050781 360.617188 354.152344 360.328125 354.257812 C 359.753906 354.453125 359.183594 354.65625 358.609375 354.855469 " fill-opacity="1" fill-rule="nonzero"/><path fill="rgb(93.728638%, 65.489197%, 75.689697%)" d="M 353.875 356.664062 C 355.417969 356.015625 357.011719 355.433594 358.609375 354.855469 C 359.183594 354.65625 359.753906 354.453125 360.328125 354.257812 C 360.082031 354.347656 359.832031 354.441406 359.585938 354.527344 C 357.679688 355.164062 355.738281 355.925781 353.875 356.664062 " fill-opacity="1" fill-rule="nonzero"/><path fill="rgb(100%, 90.979004%, 96.469116%)" d="M 448.046875 352.714844 C 447.570312 352.578125 447.097656 352.445312 446.617188 352.304688 C 447.097656 352.4375 447.570312 352.570312 448.046875 352.714844 M 366.402344 352.324219 C 368.84375 351.558594 371.292969 350.921875 373.804688 350.378906 C 375.304688 350.039062 376.839844 349.648438 378.394531 349.390625 C 377.257812 349.617188 376.125 349.859375 374.988281 350.121094 C 373.441406 350.460938 371.898438 350.839844 370.363281 351.234375 C 369.898438 351.355469 369.429688 351.480469 368.964844 351.609375 C 368.109375 351.839844 367.253906 352.078125 366.402344 352.324219 " fill-opacity="1" fill-rule="nonzero"/><path fill="rgb(93.728638%, 87.838745%, 75.289917%)" d="M 365.617188 352.566406 C 365.84375 352.496094 366.070312 352.425781 366.289062 352.363281 C 366.328125 352.351562 366.367188 352.339844 366.402344 352.324219 C 367.253906 352.078125 368.109375 351.839844 368.964844 351.609375 C 368.457031 351.746094 367.945312 351.890625 367.421875 352.042969 C 366.820312 352.21875 366.214844 352.386719 365.617188 352.566406 M 370.363281 351.234375 C 371.898438 350.839844 373.441406 350.460938 374.988281 350.121094 C 373.988281 350.347656 372.996094 350.585938 372 350.839844 C 371.949219 350.851562 371.898438 350.863281 371.84375 350.878906 C 371.339844 350.992188 370.847656 351.109375 370.363281 351.234375 " fill-opacity="1" fill-rule="nonzero"/><path fill="rgb(93.728638%, 65.489197%, 75.689697%)" d="M 371.84375 350.878906 C 371.898438 350.863281 371.949219 350.851562 372 350.839844 C 371.960938 350.851562 371.925781 350.859375 371.886719 350.871094 C 371.875 350.871094 371.859375 350.878906 371.84375 350.878906 " fill-opacity="1" fill-rule="nonzero"/><path fill="rgb(100%, 90.979004%, 96.469116%)" d="M 381.5625 348.804688 C 382.105469 348.707031 382.652344 348.609375 383.191406 348.535156 C 383.003906 348.566406 382.816406 348.597656 382.632812 348.628906 C 382.273438 348.6875 381.914062 348.742188 381.5625 348.804688 M 383.519531 348.480469 C 385.164062 348.175781 386.863281 347.949219 388.542969 347.742188 C 393.71875 347.117188 398.867188 346.753906 404.042969 346.703125 C 397.710938 346.796875 391.390625 347.308594 385.117188 348.238281 C 384.585938 348.316406 384.050781 348.398438 383.519531 348.480469 " fill-opacity="1" fill-rule="nonzero"/><path fill="rgb(93.728638%, 87.838745%, 75.289917%)" d="M 385.117188 348.238281 C 391.390625 347.308594 397.710938 346.796875 404.042969 346.703125 C 404.464844 346.699219 404.886719 346.699219 405.308594 346.699219 C 405.671875 346.699219 406.03125 346.699219 406.398438 346.699219 C 406.378906 346.699219 406.367188 346.699219 406.347656 346.699219 C 404.050781 346.699219 401.746094 346.753906 399.453125 346.867188 C 398.703125 346.898438 397.957031 346.941406 397.210938 346.988281 C 393.832031 347.199219 390.453125 347.535156 387.089844 347.980469 C 386.433594 348.0625 385.773438 348.144531 385.117188 348.238281 " fill-opacity="1" fill-rule="nonzero"/><path fill="rgb(93.728638%, 83.139038%, 75.689697%)" d="M 397.210938 346.988281 C 397.957031 346.941406 398.703125 346.898438 399.453125 346.867188 C 399.238281 346.875 399.03125 346.886719 398.824219 346.898438 C 398.28125 346.925781 397.753906 346.957031 397.210938 346.988281 " fill-opacity="1" fill-rule="nonzero"/><path fill="rgb(93.728638%, 65.489197%, 75.689697%)" d="M 387.089844 347.980469 C 390.988281 347.460938 394.902344 347.101562 398.824219 346.898438 C 395.34375 347.082031 391.867188 347.390625 388.410156 347.832031 C 387.972656 347.878906 387.535156 347.929688 387.089844 347.980469 " fill-opacity="1" fill-rule="nonzero"/><path fill="rgb(100%, 90.979004%, 96.469116%)" d="M 427.863281 348.285156 C 425.09375 347.875 422.304688 347.539062 419.523438 347.289062 C 421.4375 347.445312 423.414062 347.652344 425.265625 347.878906 C 426.160156 348.011719 427.015625 348.144531 427.863281 348.285156 " fill-opacity="1" fill-rule="nonzero"/><path fill="rgb(93.728638%, 87.838745%, 75.289917%)" d="M 427.972656 348.300781 C 424.867188 347.84375 421.757812 347.484375 418.640625 347.21875 C 418.929688 347.238281 419.226562 347.265625 419.523438 347.289062 C 422.304688 347.539062 425.09375 347.875 427.863281 348.285156 C 427.902344 348.289062 427.933594 348.296875 427.972656 348.300781 M 416.035156 347.023438 C 415.582031 346.992188 415.136719 346.96875 414.683594 346.941406 C 415.128906 346.960938 415.582031 346.992188 416.035156 347.023438 " fill-opacity="1" fill-rule="nonzero"/><path fill="rgb(96.078491%, 65.489197%, 77.648926%)" d="M 498.050781 523.078125 C 498.09375 523.023438 498.132812 522.972656 498.175781 522.917969 C 498.132812 522.972656 498.09375 523.023438 498.050781 523.078125 " fill-opacity="1" fill-rule="nonzero"/><path fill="rgb(96.859741%, 63.139343%, 78.42865%)" d="M 490.378906 532.238281 C 480.699219 513.386719 469.332031 494.636719 456.425781 476.4375 C 457.195312 474.222656 457.867188 471.988281 458.445312 469.738281 C 459.316406 466.378906 459.984375 462.976562 460.457031 459.578125 C 460.707031 459.917969 460.964844 460.265625 461.21875 460.609375 C 476.003906 480.648438 488.292969 501.480469 498.175781 522.917969 C 498.132812 522.972656 498.09375 523.023438 498.050781 523.078125 C 495.613281 526.238281 493.050781 529.300781 490.378906 532.238281 " fill-opacity="1" fill-rule="nonzero"/><path fill="rgb(100%, 72.549438%, 88.62915%)" d="M 339.949219 363.046875 C 341.101562 362.429688 342.261719 361.84375 343.4375 361.265625 C 342.265625 361.84375 341.109375 362.4375 339.957031 363.046875 M 344.941406 360.527344 C 345.269531 360.371094 345.597656 360.214844 345.929688 360.054688 C 345.992188 360.03125 346.050781 360 346.113281 359.972656 C 346.050781 360 345.992188 360.03125 345.929688 360.054688 C 345.929688 360.054688 345.9375 360.054688 345.9375 360.054688 C 345.601562 360.214844 345.277344 360.371094 344.941406 360.527344 " fill-opacity="1" fill-rule="nonzero"/><path fill="rgb(96.859741%, 70.979309%, 78.42865%)" d="M 339.996094 363.070312 C 339.980469 363.066406 339.96875 363.058594 339.949219 363.046875 C 341.109375 362.4375 342.265625 361.84375 343.4375 361.265625 C 343.933594 361.019531 344.4375 360.773438 344.941406 360.527344 C 345.277344 360.371094 345.601562 360.214844 345.9375 360.054688 C 345.9375 360.054688 345.941406 360.054688 345.941406 360.0625 C 343.921875 361.027344 341.945312 362.027344 339.996094 363.070312 " fill-opacity="1" fill-rule="nonzero"/><path fill="rgb(96.859741%, 68.629456%, 78.42865%)" d="M 345.941406 366.992188 C 344.578125 366.074219 343.203125 365.167969 341.832031 364.265625 C 343.203125 365.167969 344.578125 366.074219 345.941406 366.992188 " fill-opacity="1" fill-rule="nonzero"/><path fill="rgb(96.859741%, 63.919067%, 78.42865%)" d="M 339.996094 363.070312 C 341.945312 362.027344 343.921875 361.027344 345.941406 360.0625 C 345.957031 360.070312 345.96875 360.074219 345.980469 360.082031 C 343.964844 361.027344 341.972656 362.027344 339.996094 363.070312 " fill-opacity="1" fill-rule="nonzero"/><path fill="rgb(96.859741%, 63.139343%, 78.42865%)" d="M 345.941406 366.992188 C 344.578125 366.074219 343.203125 365.167969 341.832031 364.265625 C 341.222656 363.871094 340.605469 363.46875 339.996094 363.070312 C 341.972656 362.027344 343.964844 361.027344 345.980469 360.082031 C 348.519531 361.421875 351.042969 362.808594 353.5625 364.222656 C 351.003906 365.046875 348.46875 365.96875 345.941406 366.992188 " fill-opacity="1" fill-rule="nonzero"/><path fill="rgb(95.289612%, 46.669006%, 75.689697%)" d="M 518.492188 487.246094 C 521.507812 479.722656 523.925781 471.941406 525.695312 463.984375 C 523.929688 471.941406 521.507812 479.722656 518.492188 487.246094 " fill-opacity="1" fill-rule="nonzero"/><path fill="rgb(100%, 54.119873%, 81.17981%)" d="M 498.191406 522.949219 C 488.304688 501.503906 476.011719 480.660156 461.21875 460.609375 C 428.847656 416.707031 388.972656 382.828125 345.929688 360.054688 C 346.800781 359.683594 347.726562 359.25 348.574219 358.871094 C 350.300781 358.136719 352.09375 357.316406 353.875 356.664062 C 355.738281 355.925781 357.679688 355.164062 359.585938 354.527344 C 362.167969 353.554688 364.792969 352.792969 367.421875 352.042969 C 368.914062 351.609375 370.335938 351.222656 371.886719 350.871094 C 375.429688 349.964844 378.980469 349.214844 382.632812 348.628906 C 384.539062 348.296875 386.503906 348.03125 388.410156 347.832031 C 404.515625 345.777344 420.882812 346.546875 436.878906 349.894531 C 439.011719 350.34375 441.085938 350.828125 443.207031 351.398438 C 451.605469 353.527344 459.863281 356.4375 467.890625 360.054688 C 469.941406 360.980469 471.898438 361.949219 473.859375 362.921875 C 475.898438 363.984375 477.929688 365.054688 480.035156 366.1875 C 485.636719 369.324219 491.152344 372.949219 496.433594 376.871094 L 496.703125 377.089844 C 503.992188 382.492188 510.878906 388.605469 517.246094 395.398438 C 518.832031 397.066406 520.394531 398.742188 521.910156 400.472656 C 523.539062 402.378906 525.027344 404.25 526.601562 406.214844 C 534.785156 447.996094 522.804688 490.804688 498.191406 522.949219 " fill-opacity="1" fill-rule="nonzero"/><path fill="rgb(96.469116%, 99.21875%, 83.529663%)" d="M 335.882812 544.753906 C 320.390625 544.753906 307.414062 542.386719 300.101562 538.308594 C 265.144531 518.804688 270.851562 431.34375 308.820312 392.117188 C 317.613281 383.027344 327.644531 375.839844 338.195312 370.53125 C 338.167969 370.550781 338.136719 370.5625 338.113281 370.574219 C 362.046875 389.285156 385.875 411.859375 408.59375 437.808594 C 419.503906 450.273438 430.15625 463.507812 440.4375 477.457031 C 440.632812 477.714844 440.828125 477.980469 441.015625 478.238281 C 444.050781 482.367188 447.015625 486.535156 449.847656 490.691406 C 449.859375 490.664062 449.871094 490.640625 449.886719 490.621094 C 449.90625 490.640625 449.921875 490.664062 449.9375 490.691406 C 446.46875 496.753906 442.148438 502.558594 436.890625 507.996094 C 411.246094 534.492188 368.121094 544.753906 335.882812 544.753906 " fill-opacity="1" fill-rule="nonzero"/><path fill="rgb(96.469116%, 98.039246%, 83.529663%)" d="M 338.195312 370.53125 C 338.199219 370.53125 338.207031 370.523438 338.210938 370.523438 C 338.207031 370.53125 338.199219 370.53125 338.195312 370.53125 " fill-opacity="1" fill-rule="nonzero"/><path fill="rgb(96.859741%, 97.648621%, 83.918762%)" d="M 449.9375 490.691406 C 449.921875 490.664062 449.90625 490.640625 449.886719 490.621094 C 449.890625 490.601562 449.90625 490.589844 449.910156 490.570312 C 449.929688 490.597656 449.941406 490.621094 449.960938 490.644531 C 449.953125 490.660156 449.941406 490.675781 449.9375 490.691406 " fill-opacity="1" fill-rule="nonzero"/><path fill="rgb(96.859741%, 96.469116%, 83.918762%)" d="M 449.960938 490.644531 C 449.941406 490.621094 449.929688 490.597656 449.910156 490.570312 C 452.546875 485.976562 454.6875 481.226562 456.375 476.40625 C 456.386719 476.417969 456.402344 476.4375 456.414062 476.457031 C 454.734375 481.292969 452.59375 486.039062 449.960938 490.644531 " fill-opacity="1" fill-rule="nonzero"/><path fill="rgb(96.859741%, 97.648621%, 83.918762%)" d="M 441.015625 478.238281 C 440.828125 477.980469 440.632812 477.714844 440.4375 477.457031 C 440.632812 477.714844 440.828125 477.980469 441.015625 478.238281 M 440.4375 477.457031 C 430.15625 463.507812 419.503906 450.273438 408.59375 437.808594 C 419.503906 450.269531 430.15625 463.5 440.4375 477.457031 " fill-opacity="1" fill-rule="nonzero"/><path fill="rgb(96.859741%, 96.469116%, 83.918762%)" d="M 338.210938 370.523438 C 339.023438 370.117188 339.84375 369.71875 340.660156 369.328125 C 339.84375 369.71875 339.023438 370.117188 338.210938 370.523438 " fill-opacity="1" fill-rule="nonzero"/><path fill="rgb(97.648621%, 92.549133%, 84.309387%)" d="M 458.445312 469.738281 C 459.316406 466.371094 459.976562 462.976562 460.449219 459.574219 L 460.457031 459.578125 C 459.984375 462.976562 459.316406 466.378906 458.445312 469.738281 " fill-opacity="1" fill-rule="nonzero"/><path fill="rgb(98.039246%, 90.979004%, 85.099792%)" d="M 460.457031 459.578125 L 460.449219 459.574219 C 460.882812 456.445312 461.152344 453.300781 461.265625 450.167969 C 461.285156 449.523438 461.304688 448.875 461.316406 448.226562 C 461.253906 452.011719 460.976562 455.800781 460.457031 459.578125 " fill-opacity="1" fill-rule="nonzero"/><path fill="rgb(100%, 56.079102%, 81.959534%)" d="M 461.316406 448.226562 C 461.335938 446.886719 461.332031 445.539062 461.300781 444.199219 C 460.972656 431.34375 458.121094 418.726562 453.390625 407.328125 C 458.625 419.929688 461.5625 434 461.316406 448.226562 M 434.726562 378.3125 C 431.925781 375.472656 428.828125 372.957031 425.484375 370.75 C 414.003906 363.132812 399.574219 359.300781 384.25 359.300781 C 381.046875 359.300781 377.796875 359.46875 374.53125 359.804688 C 369.519531 360.3125 364.457031 361.226562 359.414062 362.53125 C 367.738281 360.363281 376.109375 359.289062 384.226562 359.289062 C 403.984375 359.289062 422.242188 365.664062 434.726562 378.3125 " fill-opacity="1" fill-rule="nonzero"/><path fill="rgb(94.898987%, 79.219055%, 77.648926%)" d="M 340.660156 369.328125 C 342.410156 368.511719 344.175781 367.730469 345.941406 367.011719 C 345.949219 367.011719 345.941406 367.011719 345.949219 367.011719 C 344.175781 367.734375 342.410156 368.511719 340.660156 369.328125 " fill-opacity="1" fill-rule="nonzero"/><path fill="rgb(97.24884%, 92.158508%, 83.918762%)" d="M 449.847656 490.691406 C 447.015625 486.535156 444.050781 482.367188 441.015625 478.238281 C 444.042969 482.355469 446.996094 486.480469 449.886719 490.621094 C 449.871094 490.640625 449.859375 490.664062 449.847656 490.691406 M 408.59375 437.808594 C 385.875 411.859375 362.046875 389.285156 338.113281 370.574219 C 338.136719 370.5625 338.167969 370.550781 338.195312 370.53125 C 343.769531 374.898438 349.34375 379.484375 354.894531 384.269531 C 373.125 399.992188 391.1875 417.921875 408.59375 437.808594 " fill-opacity="1" fill-rule="nonzero"/><path fill="rgb(97.24884%, 90.979004%, 83.918762%)" d="M 354.894531 384.269531 C 349.34375 379.484375 343.769531 374.898438 338.195312 370.53125 C 338.199219 370.53125 338.207031 370.53125 338.210938 370.523438 C 343.785156 374.898438 349.34375 379.484375 354.894531 384.269531 " fill-opacity="1" fill-rule="nonzero"/><path fill="rgb(97.648621%, 90.589905%, 84.309387%)" d="M 449.886719 490.621094 C 446.996094 486.480469 444.042969 482.355469 441.015625 478.238281 C 440.828125 477.980469 440.632812 477.714844 440.4375 477.457031 C 430.15625 463.5 419.503906 450.269531 408.59375 437.808594 C 391.1875 417.921875 373.125 399.992188 354.894531 384.269531 C 384.570312 409.832031 413.800781 441.234375 440.492188 477.445312 C 443.710938 481.800781 446.851562 486.183594 449.910156 490.570312 C 449.90625 490.589844 449.890625 490.601562 449.886719 490.621094 " fill-opacity="1" fill-rule="nonzero"/><path fill="rgb(97.648621%, 89.7995%, 84.309387%)" d="M 449.910156 490.570312 C 446.851562 486.183594 443.710938 481.800781 440.492188 477.445312 C 413.800781 441.234375 384.570312 409.832031 354.894531 384.269531 C 349.34375 379.484375 343.785156 374.898438 338.210938 370.523438 C 339.023438 370.117188 339.84375 369.71875 340.660156 369.328125 C 342.410156 368.511719 344.175781 367.734375 345.949219 367.011719 C 371.085938 383.929688 395.671875 404.953125 418.535156 429.675781 C 429.917969 441.988281 440.875 455.230469 451.277344 469.335938 C 452.886719 471.519531 454.476562 473.71875 456.042969 475.921875 C 456.15625 476.078125 456.269531 476.242188 456.375 476.40625 C 454.6875 481.226562 452.546875 485.976562 449.910156 490.570312 " fill-opacity="1" fill-rule="nonzero"/><path fill="rgb(97.648621%, 88.238525%, 84.309387%)" d="M 456.042969 475.921875 C 454.476562 473.71875 452.886719 471.519531 451.277344 469.335938 C 440.875 455.230469 429.917969 441.988281 418.535156 429.675781 C 419.761719 431.003906 420.988281 432.34375 422.203125 433.699219 C 432.285156 444.859375 442.003906 456.746094 451.277344 469.316406 C 451.703125 469.902344 452.132812 470.488281 452.5625 471.074219 C 453.449219 472.28125 454.324219 473.496094 455.199219 474.710938 C 455.480469 475.117188 455.765625 475.519531 456.042969 475.921875 " fill-opacity="1" fill-rule="nonzero"/><path fill="rgb(98.039246%, 86.669922%, 84.309387%)" d="M 455.199219 474.710938 C 454.324219 473.496094 453.449219 472.28125 452.5625 471.074219 C 453.449219 472.28125 454.328125 473.492188 455.199219 474.710938 M 451.277344 469.316406 C 442.003906 456.746094 432.285156 444.859375 422.203125 433.699219 C 432.277344 444.855469 442.003906 456.738281 451.277344 469.316406 " fill-opacity="1" fill-rule="nonzero"/><path fill="rgb(98.429871%, 85.488892%, 85.099792%)" d="M 461.265625 450.167969 C 461.335938 448.179688 461.347656 446.1875 461.300781 444.199219 C 461.332031 445.539062 461.335938 446.886719 461.316406 448.226562 C 461.304688 448.875 461.285156 449.523438 461.265625 450.167969 M 425.484375 370.75 C 413.957031 363.140625 399.515625 359.3125 384.179688 359.3125 C 380.996094 359.3125 377.773438 359.476562 374.53125 359.804688 C 377.796875 359.46875 381.046875 359.300781 384.25 359.300781 C 399.574219 359.300781 414.003906 363.132812 425.484375 370.75 " fill-opacity="1" fill-rule="nonzero"/><path fill="rgb(96.859741%, 72.938538%, 80.389404%)" d="M 456.421875 476.460938 C 456.414062 476.460938 456.414062 476.457031 456.414062 476.457031 C 456.414062 476.449219 456.414062 476.449219 456.414062 476.445312 C 456.421875 476.449219 456.421875 476.449219 456.421875 476.457031 C 456.421875 476.457031 456.421875 476.457031 456.421875 476.460938 " fill-opacity="1" fill-rule="nonzero"/><path fill="rgb(96.859741%, 67.83905%, 80.389404%)" d="M 456.421875 476.457031 C 456.421875 476.449219 456.421875 476.449219 456.414062 476.445312 C 456.421875 476.4375 456.421875 476.4375 456.421875 476.429688 C 456.421875 476.429688 456.425781 476.4375 456.425781 476.4375 C 456.425781 476.445312 456.421875 476.449219 456.421875 476.457031 " fill-opacity="1" fill-rule="nonzero"/><path fill="rgb(98.429871%, 63.139343%, 81.959534%)" d="M 456.425781 476.4375 C 456.425781 476.4375 456.421875 476.429688 456.421875 476.429688 C 457.195312 474.214844 457.867188 471.988281 458.445312 469.738281 C 457.867188 471.988281 457.195312 474.222656 456.425781 476.4375 " fill-opacity="1" fill-rule="nonzero"/><path fill="rgb(100%, 58.81958%, 83.139038%)" d="M 453.390625 407.328125 C 448.984375 396.738281 442.953125 387.1875 435.816406 379.453125 C 442.953125 387.171875 448.984375 396.726562 453.390625 407.328125 M 435.816406 379.453125 C 435.457031 379.066406 435.089844 378.691406 434.726562 378.3125 C 435.089844 378.691406 435.457031 379.066406 435.816406 379.453125 " fill-opacity="1" fill-rule="nonzero"/><path fill="rgb(96.859741%, 72.938538%, 80.389404%)" d="M 345.941406 367.011719 C 345.941406 367.007812 345.9375 367.007812 345.929688 367 C 345.9375 367 345.9375 367 345.941406 366.992188 C 345.949219 367 345.949219 367 345.957031 367.007812 C 345.949219 367.007812 345.949219 367.007812 345.941406 367.011719 " fill-opacity="1" fill-rule="nonzero"/><path fill="rgb(98.429871%, 65.879822%, 81.959534%)" d="M 345.957031 367.007812 C 345.949219 367 345.949219 367 345.941406 366.992188 C 345.949219 367 345.957031 367 345.960938 367.007812 C 345.957031 367.007812 345.960938 367.007812 345.957031 367.007812 " fill-opacity="1" fill-rule="nonzero"/><path fill="rgb(98.429871%, 63.139343%, 81.959534%)" d="M 345.960938 367.007812 C 345.957031 367 345.949219 367 345.941406 366.992188 C 348.46875 365.96875 351.003906 365.046875 353.5625 364.222656 C 353.5625 364.222656 353.5625 364.230469 353.566406 364.230469 C 351.015625 365.054688 348.480469 365.972656 345.960938 367.007812 " fill-opacity="1" fill-rule="nonzero"/><path fill="rgb(100%, 58.81958%, 83.139038%)" d="M 353.566406 364.230469 C 353.5625 364.230469 353.5625 364.222656 353.5625 364.222656 C 355.507812 363.601562 357.457031 363.035156 359.414062 362.53125 C 357.464844 363.035156 355.511719 363.601562 353.566406 364.230469 " fill-opacity="1" fill-rule="nonzero"/><path fill="rgb(98.429871%, 79.60968%, 84.709167%)" d="M 456.414062 476.457031 C 456.402344 476.4375 456.386719 476.417969 456.375 476.40625 C 456.382812 476.398438 456.375 476.398438 456.382812 476.394531 C 456.394531 476.414062 456.40625 476.429688 456.414062 476.445312 C 456.414062 476.449219 456.414062 476.449219 456.414062 476.457031 " fill-opacity="1" fill-rule="nonzero"/><path fill="rgb(98.429871%, 78.819275%, 84.709167%)" d="M 456.414062 476.445312 C 456.40625 476.429688 456.394531 476.414062 456.382812 476.394531 C 456.382812 476.394531 456.382812 476.386719 456.382812 476.382812 C 456.394531 476.398438 456.40625 476.417969 456.421875 476.429688 C 456.421875 476.4375 456.421875 476.4375 456.414062 476.445312 " fill-opacity="1" fill-rule="nonzero"/><path fill="rgb(98.81897%, 77.648926%, 84.709167%)" d="M 456.421875 476.429688 C 456.40625 476.417969 456.394531 476.398438 456.382812 476.382812 C 458.316406 470.859375 459.644531 465.226562 460.4375 459.558594 C 460.441406 459.558594 460.441406 459.566406 460.449219 459.574219 C 459.976562 462.976562 459.316406 466.371094 458.445312 469.738281 C 457.867188 471.988281 457.195312 474.214844 456.421875 476.429688 " fill-opacity="1" fill-rule="nonzero"/><path fill="rgb(99.21875%, 76.858521%, 85.099792%)" d="M 460.449219 459.574219 C 460.441406 459.566406 460.441406 459.558594 460.4375 459.558594 C 460.878906 456.429688 461.148438 453.296875 461.265625 450.167969 C 461.152344 453.300781 460.882812 456.445312 460.449219 459.574219 " fill-opacity="1" fill-rule="nonzero"/><path fill="rgb(100%, 59.609985%, 83.529663%)" d="M 461.300781 444.199219 C 460.652344 419.410156 450.597656 395.480469 435.777344 379.464844 C 432.707031 376.152344 429.253906 373.246094 425.484375 370.75 C 428.828125 372.957031 431.925781 375.472656 434.726562 378.3125 C 435.089844 378.691406 435.457031 379.066406 435.816406 379.453125 C 442.953125 387.1875 448.984375 396.738281 453.390625 407.328125 C 458.121094 418.726562 460.972656 431.34375 461.300781 444.199219 " fill-opacity="1" fill-rule="nonzero"/><path fill="rgb(97.648621%, 70.979309%, 81.568909%)" d="M 345.949219 367.011719 C 345.941406 367.011719 345.949219 367.011719 345.941406 367.011719 C 345.949219 367.007812 345.949219 367.007812 345.957031 367.007812 L 345.960938 367.007812 C 345.957031 367.011719 345.957031 367.011719 345.949219 367.011719 " fill-opacity="1" fill-rule="nonzero"/><path fill="rgb(98.81897%, 63.139343%, 82.348633%)" d="M 345.960938 367.007812 C 348.480469 365.972656 351.015625 365.054688 353.566406 364.230469 C 353.566406 364.230469 353.574219 364.230469 353.574219 364.234375 C 351.023438 365.054688 348.480469 365.980469 345.960938 367.007812 " fill-opacity="1" fill-rule="nonzero"/><path fill="rgb(100%, 59.609985%, 83.529663%)" d="M 353.574219 364.234375 C 353.574219 364.230469 353.566406 364.230469 353.566406 364.230469 C 355.511719 363.601562 357.464844 363.035156 359.414062 362.53125 C 364.457031 361.226562 369.519531 360.3125 374.53125 359.804688 C 367.582031 360.523438 360.535156 361.996094 353.574219 364.234375 " fill-opacity="1" fill-rule="nonzero"/><path fill="rgb(98.81897%, 76.469421%, 84.709167%)" d="M 456.375 476.40625 C 456.269531 476.242188 456.15625 476.078125 456.042969 475.921875 C 456.15625 476.078125 456.269531 476.234375 456.382812 476.394531 C 456.375 476.398438 456.382812 476.398438 456.375 476.40625 " fill-opacity="1" fill-rule="nonzero"/><path fill="rgb(98.81897%, 75.689697%, 84.709167%)" d="M 456.382812 476.394531 C 456.269531 476.234375 456.15625 476.078125 456.042969 475.921875 C 455.765625 475.519531 455.480469 475.117188 455.199219 474.710938 C 455.59375 475.273438 455.992188 475.828125 456.382812 476.382812 C 456.382812 476.386719 456.382812 476.394531 456.382812 476.394531 M 452.5625 471.074219 C 452.132812 470.488281 451.703125 469.902344 451.277344 469.316406 C 451.703125 469.902344 452.132812 470.488281 452.5625 471.074219 " fill-opacity="1" fill-rule="nonzero"/><path fill="rgb(98.81897%, 76.469421%, 84.709167%)" d="M 418.535156 429.675781 C 395.671875 404.953125 371.085938 383.929688 345.949219 367.011719 C 345.957031 367.011719 345.957031 367.011719 345.960938 367.007812 C 370.734375 383.683594 394.921875 404.3125 417.453125 428.511719 C 417.8125 428.894531 418.167969 429.285156 418.535156 429.675781 " fill-opacity="1" fill-rule="nonzero"/><path fill="rgb(98.81897%, 75.689697%, 84.709167%)" d="M 422.203125 433.699219 C 420.988281 432.34375 419.761719 431.003906 418.535156 429.675781 C 418.167969 429.285156 417.8125 428.894531 417.453125 428.511719 C 419.042969 430.21875 420.632812 431.949219 422.203125 433.699219 " fill-opacity="1" fill-rule="nonzero"/><path fill="rgb(99.21875%, 75.289917%, 84.709167%)" d="M 417.453125 428.511719 C 394.921875 404.3125 370.734375 383.683594 345.960938 367.007812 C 370.753906 383.667969 394.921875 404.300781 417.453125 428.511719 " fill-opacity="1" fill-rule="nonzero"/><path fill="rgb(99.21875%, 74.899292%, 84.709167%)" d="M 456.382812 476.382812 C 455.992188 475.828125 455.59375 475.273438 455.199219 474.710938 C 454.328125 473.492188 453.449219 472.28125 452.5625 471.074219 C 452.132812 470.488281 451.703125 469.902344 451.277344 469.316406 C 442.003906 456.738281 432.277344 444.855469 422.203125 433.699219 C 420.632812 431.949219 419.042969 430.21875 417.453125 428.511719 C 394.921875 404.300781 370.753906 383.667969 345.960938 367.007812 C 348.480469 365.980469 351.023438 365.054688 353.574219 364.234375 C 393.347656 386.699219 430.144531 418.765625 460.4375 459.558594 C 459.644531 465.226562 458.316406 470.859375 456.382812 476.382812 " fill-opacity="1" fill-rule="nonzero"/><path fill="rgb(99.21875%, 74.119568%, 85.099792%)" d="M 460.4375 459.558594 C 430.144531 418.765625 393.347656 386.699219 353.574219 364.234375 C 360.535156 361.996094 367.582031 360.523438 374.53125 359.804688 C 377.773438 359.476562 380.996094 359.3125 384.179688 359.3125 C 399.515625 359.3125 413.957031 363.140625 425.484375 370.75 C 429.253906 373.246094 432.707031 376.152344 435.777344 379.464844 C 450.597656 395.480469 460.652344 419.410156 461.300781 444.199219 C 461.347656 446.1875 461.335938 448.179688 461.265625 450.167969 C 461.148438 453.296875 460.878906 456.429688 460.4375 459.558594 " fill-opacity="1" fill-rule="nonzero"/><path fill="rgb(100%, 63.139343%, 85.099792%)" d="M 460.488281 459.636719 C 430.1875 418.835938 393.347656 386.753906 353.554688 364.25 C 384.535156 354.289062 417.175781 359.40625 435.816406 379.453125 C 453.726562 398.792969 464.597656 429.582031 460.488281 459.636719 " fill-opacity="1" fill-rule="nonzero"/><path fill="rgb(100%, 100%, 100%)" d="M 350.425781 461.449219 C 340.265625 480.011719 322.140625 487.953125 309.945312 479.175781 C 297.765625 470.386719 296.097656 448.253906 306.257812 429.65625 C 316.417969 411.09375 334.523438 403.152344 346.71875 411.929688 C 358.917969 420.707031 360.574219 442.878906 350.425781 461.449219 " fill-opacity="1" fill-rule="nonzero"/><path fill="rgb(100%, 100%, 100%)" d="M 388.636719 399.453125 C 379.125 404.023438 368.613281 402.488281 365.148438 396.066406 C 361.707031 389.632812 366.617188 380.75 376.148438 376.195312 C 385.667969 371.652344 396.160156 373.175781 399.625 379.601562 C 403.085938 386.011719 398.167969 394.914062 388.636719 399.453125 " fill-opacity="1" fill-rule="nonzero"/></svg>