<svg xmlns="http://www.w3.org/2000/svg" xmlns:xlink="http://www.w3.org/1999/xlink" width="750" zoomAndPan="magnify" viewBox="0 0 750 1124.99995" height="1124.99995" preserveAspectRatio="xMidYMid meet" version="1.0"><defs><clipPath id="id1"><path d="M 80 331.875 L 550 331.875 L 550 640 L 80 640 Z M 80 331.875 " clip-rule="nonzero"/></clipPath><clipPath id="id2"><path d="M 370 489.074219 L 673.648438 489.074219 L 673.648438 768.96875 L 370 768.96875 Z M 370 489.074219 " clip-rule="nonzero"/></clipPath><clipPath id="id3"><path d="M 337.425781 622 L 596 622 L 596 793.007812 L 337.425781 793.007812 Z M 337.425781 622 " clip-rule="nonzero"/></clipPath></defs><g clip-path="url(#id1)"><path fill="rgb(73.329163%, 51.759338%, 25.489807%)" d="M 188.597656 606.019531 C 254.121094 670.03125 316.5625 624.171875 347.878906 613.238281 C 375.4375 603.605469 512.464844 522.085938 549.652344 451.226562 C 539.945312 429.929688 525.433594 410.25 506.441406 393.789062 C 479.902344 370.800781 419.664062 331.875 362.273438 331.875 C 343.804688 331.875 327.105469 335.992188 312.609375 344.140625 C 282.519531 361.035156 260.800781 380.355469 243.339844 395.886719 C 223.914062 413.171875 208.5625 426.816406 191.515625 428.464844 C 167.222656 430.8125 118.878906 467.207031 95.273438 508.875 C 79.621094 536.507812 76.449219 563.03125 85.6875 585.992188 C 103.902344 572.304688 150.164062 568.453125 188.597656 606.019531 " fill-opacity="1" fill-rule="nonzero"/></g><path fill="rgb(64.309692%, 45.098877%, 22.349548%)" d="M 298.304688 687.554688 L 298.320312 687.554688 C 332.917969 687.554688 369.957031 683.375 408.417969 675.167969 C 488.199219 658.09375 543.105469 612.789062 559.042969 550.855469 C 567.640625 517.382812 563.894531 482.53125 549.652344 451.226562 C 485.953125 468.75 335.089844 686.054688 185.617188 584.421875 C 141.179688 554.195312 103.902344 572.304688 85.6875 585.992188 C 86.226562 587.339844 86.648438 588.734375 87.277344 590.066406 C 115.882812 650.183594 196.730469 687.554688 298.304688 687.554688 " fill-opacity="1" fill-rule="nonzero"/><path fill="rgb(46.269226%, 33.729553%, 15.289307%)" d="M 116.570312 629.1875 C 116.570312 629.1875 117.46875 630.027344 119.28125 631.433594 C 121.019531 632.902344 123.835938 634.789062 127.28125 637.273438 C 130.816406 639.65625 135.144531 642.457031 140.339844 645.304688 C 142.871094 646.84375 145.703125 648.238281 148.683594 649.675781 C 151.691406 651.070312 154.671875 652.894531 158.058594 654.230469 C 164.707031 657.148438 171.925781 660.25 179.804688 662.902344 C 187.519531 666 196.117188 667.902344 204.726562 670.613281 C 213.5625 672.621094 222.65625 674.839844 232.03125 676.410156 C 241.453125 677.742188 250.917969 679.734375 260.59375 680.214844 C 270.222656 681.097656 279.835938 682.222656 289.394531 682.148438 C 298.917969 682.238281 308.308594 683.03125 317.402344 682.386719 C 326.476562 681.953125 335.3125 682.027344 343.640625 681.457031 C 351.96875 680.753906 359.859375 680.078125 367.125 679.449219 C 374.433594 678.988281 381.097656 678.191406 386.984375 677.339844 C 392.886719 676.574219 398.039062 675.902344 402.277344 675.347656 C 410.796875 674.34375 415.679688 673.757812 415.679688 673.757812 C 415.679688 673.757812 410.917969 674.957031 402.605469 677.054688 C 398.425781 678.042969 393.351562 679.242188 387.539062 680.617188 C 384.617188 681.324219 381.503906 682.058594 378.238281 682.820312 C 374.941406 683.507812 371.4375 683.929688 367.800781 684.542969 C 360.503906 685.652344 352.597656 686.835938 344.238281 688.109375 C 335.835938 689.125 326.894531 689.589844 317.671875 690.25 C 308.460938 691.132812 298.875 690.863281 289.152344 690.773438 C 279.417969 690.9375 269.5625 689.921875 259.695312 689.097656 C 249.808594 688.496094 240.089844 686.355469 230.457031 684.886719 C 225.621094 684.257812 220.960938 682.851562 216.304688 681.726562 C 211.691406 680.515625 207.078125 679.496094 202.617188 678.179688 C 193.808594 675.183594 185.167969 672.679688 177.410156 669.101562 C 173.515625 667.378906 169.621094 665.972656 166.054688 664.128906 C 162.492188 662.285156 159.0625 660.503906 155.75 658.796875 C 149.28125 655.171875 143.441406 651.652344 138.585938 648.105469 C 133.617188 644.6875 129.542969 641.410156 126.230469 638.636719 C 119.703125 632.992188 116.570312 629.1875 116.570312 629.1875 " fill-opacity="1" fill-rule="nonzero"/><g clip-path="url(#id2)"><path fill="rgb(83.139038%, 63.919067%, 33.329773%)" d="M 386.65625 667.8125 C 364.023438 717.613281 426.855469 747.476562 475.996094 759.382812 C 516.207031 769.121094 596.292969 776.339844 655.078125 750.488281 C 669.171875 734.328125 675.339844 713.914062 673.257812 689.664062 C 665.320312 597.496094 619.625 489.871094 516.925781 489.871094 C 453.273438 489.871094 400.957031 518.175781 370.058594 565.023438 C 393.589844 568.980469 419.125 596.3125 386.65625 667.8125 " fill-opacity="1" fill-rule="nonzero"/></g><path fill="rgb(82.749939%, 56.469727%, 32.548523%)" d="M 365.507812 730.6875 C 392.976562 763.292969 441.515625 784.589844 498.699219 789.144531 C 509.753906 790.027344 520.597656 790.460938 530.929688 790.460938 C 588.234375 790.460938 630.722656 777.148438 653.847656 751.957031 C 654.296875 751.476562 654.65625 750.96875 655.078125 750.488281 C 596.292969 776.339844 516.207031 769.121094 475.996094 759.382812 C 426.855469 747.476562 364.023438 717.613281 386.65625 667.8125 C 419.125 596.3125 393.589844 568.980469 370.058594 565.023438 C 354.066406 589.289062 343.671875 618.433594 340.675781 651.398438 C 337.980469 680.8125 346.578125 708.238281 365.507812 730.6875 " fill-opacity="1" fill-rule="nonzero"/><g clip-path="url(#id3)"><path fill="rgb(61.569214%, 42.749023%, 19.999695%)" d="M 345.125 622.402344 C 345.125 622.402344 343.671875 627.871094 342.457031 637.589844 C 341.230469 647.28125 340.601562 661.402344 343.597656 677.625 C 345.226562 685.695312 347.953125 694.1875 352.28125 702.410156 C 356.761719 710.617188 363.1875 717.71875 370.480469 725.492188 C 377.503906 733.054688 385.605469 740.109375 394.007812 746.863281 C 402.621094 753.394531 411.800781 759.445312 421.640625 764.28125 C 426.417969 766.992188 431.617188 768.835938 436.558594 771.15625 C 441.667969 773.089844 446.847656 774.8125 451.972656 776.5625 C 457.210938 777.941406 462.425781 779.289062 467.5625 780.636719 C 472.804688 781.625 477.984375 782.597656 483.0625 783.542969 C 493.382812 784.726562 503.34375 786.207031 512.914062 786.449219 C 522.46875 787.210938 531.542969 786.835938 539.917969 786.761719 C 548.320312 786.746094 555.972656 785.847656 562.800781 785.625 C 569.648438 785.382812 575.5625 784.53125 580.445312 784.023438 C 590.253906 783.035156 595.855469 782.464844 595.855469 782.464844 C 595.855469 782.464844 590.34375 783.664062 580.699219 785.742188 C 575.863281 786.6875 570.019531 788.082031 563.191406 788.933594 C 556.363281 789.804688 548.695312 791.40625 540.203125 791.78125 C 531.722656 792.335938 522.527344 793.203125 512.75 792.964844 C 502.96875 793.246094 492.648438 792.394531 481.984375 791.34375 C 476.683594 790.492188 471.304688 789.652344 465.855469 788.785156 C 460.449219 787.585938 455.011719 786.207031 449.515625 784.832031 C 444.152344 783.0625 438.699219 781.3125 433.339844 779.320312 C 428.113281 776.953125 422.628906 775.050781 417.582031 772.25 C 407.277344 767.039062 397.648438 760.582031 388.691406 753.632812 C 379.871094 746.503906 371.84375 738.820312 364.667969 730.746094 C 357.660156 723.066406 350.816406 714.453125 346.5 705.363281 C 342.277344 696.195312 339.910156 686.984375 338.652344 678.449219 C 337.378906 669.867188 337.636719 661.941406 338.113281 655.023438 C 338.699219 648.105469 339.730469 642.144531 340.75 637.304688 C 342.90625 627.613281 345.125 622.402344 345.125 622.402344 " fill-opacity="1" fill-rule="nonzero"/></g><path fill="rgb(61.569214%, 42.749023%, 19.999695%)" d="M 505.558594 700.089844 C 505.558594 700.089844 505.632812 701.152344 505.453125 702.679688 C 505.273438 704.222656 504.855469 706.261719 503.972656 708.417969 C 503.539062 709.496094 503.027344 710.632812 502.203125 711.695312 C 501.410156 712.761719 500.121094 713.644531 498.894531 714.664062 C 496.289062 716.609375 495.148438 719.679688 495.328125 723.035156 C 495.390625 724.710938 495.554688 726.34375 495.34375 727.8125 C 495.226562 729.296875 495.121094 730.734375 495.015625 732.140625 C 494.894531 734.898438 494.148438 737.261719 493.488281 739.433594 C 492.859375 741.5625 492.09375 743.464844 491.601562 744.871094 C 491.03125 746.277344 490.566406 747.191406 490.566406 747.191406 L 489.699219 747.359375 C 489.699219 747.359375 489.007812 746.699219 488.066406 745.335938 C 487.046875 743.988281 486.148438 741.890625 485.519531 739.226562 C 485.039062 736.605469 484.832031 733.398438 485.910156 730.285156 C 486.359375 728.710938 487.09375 727.199219 487.765625 725.640625 C 488.457031 724.097656 489.636719 722.703125 490.730469 721.355469 C 491.945312 720.039062 492.902344 718.675781 493.578125 717.238281 C 494.328125 715.816406 494.507812 714.183594 494.65625 712.535156 C 494.746094 710.859375 494.835938 709.210938 495.375 707.878906 C 495.855469 706.5 496.753906 705.453125 497.488281 704.460938 C 499.148438 702.546875 500.917969 701.242188 502.367188 700.507812 C 503.777344 699.746094 504.839844 699.550781 504.839844 699.550781 L 505.558594 700.089844 " fill-opacity="1" fill-rule="nonzero"/><path fill="rgb(61.569214%, 42.749023%, 19.999695%)" d="M 374.671875 718.707031 C 374.671875 718.707031 373.550781 714.453125 374.210938 708.445312 C 374.507812 705.453125 375.199219 701.992188 376.546875 698.5 C 378.011719 695.042969 380.199219 691.628906 382.328125 688.226562 C 384.410156 684.8125 386.820312 681.546875 389.246094 678.65625 C 391.671875 675.75 394.355469 673.398438 396.765625 671.585938 C 397.964844 670.675781 399.234375 670.03125 400.253906 669.371094 C 401.257812 668.683594 402.292969 668.335938 403.101562 668.007812 C 404.703125 667.378906 405.632812 667.019531 405.632812 667.019531 L 405.992188 667.84375 C 405.992188 667.84375 405.226562 668.398438 403.878906 669.386719 C 402.484375 670.253906 400.808594 671.949219 398.90625 673.9375 C 397.09375 676.082031 395.238281 678.71875 393.441406 681.683594 C 391.703125 684.707031 390.039062 688.019531 388.675781 691.492188 C 387.210938 694.90625 386.429688 698.621094 385.21875 701.871094 C 383.929688 705.105469 382.445312 708.042969 381.039062 710.558594 C 378.28125 715.605469 375.542969 718.902344 375.542969 718.902344 L 374.671875 718.707031 " fill-opacity="1" fill-rule="nonzero"/><path fill="rgb(61.569214%, 42.749023%, 19.999695%)" d="M 359.15625 683.136719 C 359.15625 683.136719 358.664062 681.890625 358.46875 679.808594 C 358.226562 677.730469 358.257812 674.808594 358.933594 671.453125 C 359.292969 669.777344 359.785156 667.992188 360.625 666.226562 C 361.507812 664.472656 362.929688 662.8125 364.355469 661.148438 C 367.410156 657.867188 369.117188 653.886719 370.390625 649.347656 C 371.003906 647.070312 371.828125 644.808594 373.027344 642.816406 C 374.074219 640.75 375.632812 638.953125 376.964844 637.140625 C 378.371094 635.34375 380.183594 633.949219 381.847656 632.664062 C 383.675781 631.539062 385.59375 630.746094 387.269531 629.980469 C 389.113281 629.472656 390.832031 629.15625 392.332031 628.949219 C 393.769531 628.617188 395.191406 628.976562 396.253906 629.082031 C 398.425781 629.410156 399.566406 629.785156 399.566406 629.785156 L 399.640625 630.671875 C 399.640625 630.671875 398.621094 631.480469 397.003906 632.570312 C 396.226562 633.203125 395.222656 633.546875 394.277344 634.472656 C 393.304688 635.34375 392.183594 636.09375 391.058594 636.992188 C 389.964844 638.039062 388.8125 639.085938 387.554688 640.121094 C 386.429688 641.378906 385.039062 642.414062 383.613281 643.609375 C 382.296875 644.945312 380.664062 646.050781 379.316406 647.609375 C 377.9375 649.09375 376.125 650.363281 374.554688 651.921875 C 372.859375 653.359375 371.453125 655.066406 370.464844 656.96875 C 369.339844 658.78125 368.996094 660.96875 368.710938 663.035156 C 368.519531 665.148438 368.472656 667.214844 367.980469 668.980469 C 367.589844 670.777344 366.765625 672.320312 366.152344 673.820312 C 364.789062 676.726562 363.320312 679.105469 362.136719 680.753906 C 360.96875 682.386719 360.027344 683.316406 360.027344 683.316406 L 359.15625 683.136719 " fill-opacity="1" fill-rule="nonzero"/><path fill="rgb(87.838745%, 64.709473%, 33.729553%)" d="M 463.324219 522.625 C 463.324219 522.625 509.484375 496.5625 544.453125 512.949219 C 579.472656 529.335938 636.039062 573.261719 635.308594 612.726562 C 634.542969 652.191406 417.117188 569.90625 463.324219 522.625 " fill-opacity="1" fill-rule="nonzero"/><path fill="rgb(61.569214%, 42.749023%, 19.999695%)" d="M 513.378906 612.441406 C 513.378906 612.441406 514.457031 607.859375 518.050781 602.378906 C 519.832031 599.609375 522.214844 596.613281 525.210938 593.839844 C 528.324219 591.191406 532.082031 588.882812 535.828125 586.621094 C 539.527344 584.300781 543.496094 582.355469 547.316406 580.8125 C 551.148438 579.238281 554.96875 578.398438 558.25 577.996094 C 559.882812 577.769531 561.4375 577.90625 562.757812 577.859375 C 564.074219 577.753906 565.242188 578.039062 566.171875 578.21875 C 568.027344 578.578125 569.09375 578.789062 569.09375 578.789062 L 568.941406 579.65625 C 568.941406 579.65625 567.894531 579.71875 566.082031 579.808594 C 565.183594 579.851562 564.121094 579.808594 562.90625 580.152344 C 561.695312 580.464844 560.332031 580.601562 558.894531 581.125 C 556.015625 582.097656 552.828125 583.550781 549.578125 585.46875 C 546.355469 587.414062 543.046875 589.738281 540.007812 592.433594 C 536.863281 594.980469 534.242188 598.167969 531.46875 600.746094 C 528.640625 603.292969 525.808594 605.464844 523.261719 607.289062 C 518.214844 610.976562 514.082031 613.011719 514.082031 612.996094 L 513.378906 612.441406 " fill-opacity="1" fill-rule="nonzero"/><path fill="rgb(61.569214%, 42.749023%, 19.999695%)" d="M 557.90625 622.042969 C 557.90625 622.042969 560.046875 619.675781 563.761719 616.636719 C 567.414062 613.492188 572.808594 609.941406 578.78125 607.082031 C 581.777344 605.671875 584.910156 604.175781 588.082031 603.515625 C 591.320312 603.050781 594.480469 603.410156 597.039062 604.144531 C 599.632812 605.089844 601.609375 606.03125 602.777344 607.261719 C 603.988281 608.25 604.542969 608.96875 604.542969 608.96875 L 604.214844 609.792969 C 604.214844 609.792969 603.285156 610.046875 601.878906 610.269531 C 601.160156 610.464844 600.394531 610.449219 599.464844 610.71875 C 598.550781 610.914062 597.550781 611.15625 596.53125 611.273438 C 595.480469 611.558594 594.359375 611.828125 593.222656 611.992188 C 592.050781 612.308594 590.839844 612.578125 589.566406 612.699219 C 586.992188 613.101562 584.054688 613.070312 581.164062 613.820312 C 575.382812 615.125 569.722656 617.503906 565.453125 619.332031 C 561.214844 621.25 558.457031 622.746094 558.457031 622.746094 L 557.90625 622.042969 " fill-opacity="1" fill-rule="nonzero"/><path fill="rgb(80.778503%, 55.688477%, 29.40979%)" d="M 425.355469 363.613281 C 406.457031 343.558594 332.136719 346.792969 315.09375 363.613281 C 298.050781 380.417969 288.71875 393.820312 257.085938 413.921875 C 225.457031 434.035156 180.777344 431.59375 195.304688 451.226562 C 209.820312 470.878906 280.183594 485.390625 300.28125 479.820312 C 320.382812 474.234375 422 445.582031 425.355469 418.59375 C 428.695312 391.589844 434.777344 373.617188 425.355469 363.613281 " fill-opacity="1" fill-rule="nonzero"/><path fill="rgb(46.269226%, 33.729553%, 15.289307%)" d="M 256.039062 550.273438 C 256.039062 550.273438 255.875 553.074219 256.308594 557.148438 C 256.429688 559.183594 257.027344 561.535156 257.34375 563.976562 C 258.105469 566.371094 258.421875 569.007812 259.605469 571.375 C 260.144531 572.542969 260.683594 573.710938 261.222656 574.878906 C 261.683594 576.035156 262.539062 576.992188 263.035156 578.054688 C 264.097656 580.152344 264.304688 582.503906 265.101562 584.285156 C 266.375 588 266.464844 591.578125 266.464844 591.578125 L 265.789062 592.164062 C 265.789062 592.164062 262.644531 591.191406 259.0625 588.121094 C 258.136719 587.371094 257.207031 586.503906 256.546875 585.378906 C 255.785156 584.300781 255.109375 583.085938 254.511719 581.785156 C 253.988281 580.453125 253.359375 579.089844 253.285156 577.546875 C 253.074219 576.078125 252.863281 574.566406 252.652344 573.066406 C 252.023438 570.132812 252.339844 567.09375 252.175781 564.382812 C 252.398438 561.625 252.609375 559.09375 253.132812 556.96875 C 253.925781 552.699219 255.171875 550.078125 255.171875 550.078125 L 256.039062 550.273438 " fill-opacity="1" fill-rule="nonzero"/><path fill="rgb(46.269226%, 33.729553%, 15.289307%)" d="M 274.625 550.019531 C 274.625 550.019531 275.703125 550.828125 277.113281 552.429688 C 278.550781 554 280.273438 556.351562 281.980469 559.347656 C 282.773438 560.863281 283.640625 562.480469 284.195312 564.367188 C 284.824219 566.222656 285.003906 568.394531 285.273438 570.613281 C 285.542969 572.8125 285.976562 575.042969 287.070312 577.023438 C 288.03125 579.042969 289.421875 580.914062 290.964844 582.683594 C 292.464844 584.496094 294.140625 586.171875 295.371094 588.03125 C 296.640625 589.855469 297.886719 591.667969 299.007812 593.453125 C 300.148438 595.234375 301.285156 596.867188 302.109375 598.605469 C 302.976562 600.3125 303.652344 602.019531 304.296875 603.589844 C 304.835938 605.253906 305.597656 606.511719 306.046875 607.859375 C 306.558594 609.164062 306.945312 610.347656 307.214844 611.378906 C 307.816406 613.417969 308.054688 614.71875 308.054688 614.71875 L 307.382812 615.304688 C 307.382812 615.289062 306.242188 614.765625 304.445312 613.597656 C 303.515625 613.011719 302.46875 612.261719 301.300781 611.320312 C 300.160156 610.375 298.769531 609.296875 297.628906 607.949219 C 295.355469 605.238281 292.644531 602.003906 290.890625 597.945312 C 290.023438 595.9375 289.183594 593.828125 288.359375 591.667969 C 287.476562 589.542969 286.996094 587.191406 286.578125 584.839844 C 285.828125 580.078125 283.925781 575.929688 280.929688 572.542969 C 279.464844 570.820312 277.964844 569.203125 276.992188 567.453125 C 276.019531 565.714844 275.480469 563.902344 274.957031 562.238281 C 273.964844 558.914062 273.636719 555.917969 273.578125 553.792969 C 273.515625 551.652344 273.800781 550.332031 273.800781 550.332031 L 274.625 550.019531 " fill-opacity="1" fill-rule="nonzero"/><path fill="rgb(46.269226%, 33.729553%, 15.289307%)" d="M 307.753906 383.710938 C 307.753906 383.710938 308.699219 383.203125 310.617188 382.992188 C 312.636719 382.527344 315.242188 382.796875 318.523438 383.230469 C 321.535156 384.144531 325.414062 385.089844 328.558594 387.589844 C 330.144531 388.804688 331.792969 390.078125 333.230469 391.574219 C 334.550781 393.160156 335.898438 394.777344 337.246094 396.398438 C 338.5625 398 340.0625 399.453125 341.003906 401.265625 C 342.039062 402.988281 343.070312 404.679688 344.074219 406.3125 C 345.019531 407.960938 346.082031 409.472656 346.816406 411.03125 C 347.445312 412.648438 348.027344 414.191406 348.566406 415.597656 C 350.769531 421.214844 352.058594 424.914062 352.058594 424.914062 L 351.234375 425.273438 C 351.234375 425.273438 349.0625 422.007812 345.78125 417.125 C 344.988281 415.910156 344.121094 414.609375 343.207031 413.230469 C 342.144531 411.972656 341.003906 410.65625 339.835938 409.292969 C 338.683594 407.960938 337.46875 406.566406 336.257812 405.160156 C 335.132812 403.660156 333.53125 402.613281 332.136719 401.398438 C 330.683594 400.246094 329.246094 399.109375 327.824219 397.96875 C 326.28125 397.027344 324.695312 396.261719 323.332031 395.304688 C 321.984375 394.316406 320.726562 393.25 319.421875 392.472656 C 318.132812 391.632812 316.953125 390.75 315.859375 389.867188 C 313.550781 388.488281 311.558594 386.992188 310.136719 386.105469 C 308.699219 385.132812 307.679688 384.59375 307.679688 384.59375 L 307.753906 383.710938 " fill-opacity="1" fill-rule="nonzero"/><path fill="rgb(46.269226%, 33.729553%, 15.289307%)" d="M 375.183594 424.660156 C 375.183594 424.660156 375.871094 424.015625 377.101562 423.582031 C 378.328125 423.101562 380.125 422.742188 382.058594 422.964844 C 383.015625 423.117188 384.09375 423.191406 385.039062 423.851562 C 385.996094 424.417969 386.820312 425.527344 387.644531 426.5625 C 388.511719 427.519531 389.304688 428.613281 390.445312 429.0625 C 391.507812 429.644531 392.839844 429.78125 394.25 429.902344 C 395.597656 430.125 397.0625 430.335938 398.246094 430.917969 C 399.460938 431.488281 400.734375 431.953125 401.691406 432.820312 C 402.742188 433.601562 403.609375 434.5 404.3125 435.457031 C 404.988281 436.445312 405.644531 437.328125 405.914062 438.421875 C 407.128906 442.707031 406.230469 445.761719 406.230469 445.761719 L 405.40625 446.121094 C 405.40625 446.121094 402.007812 445.058594 399.492188 443.171875 C 398.980469 442.585938 397.992188 442.285156 397.320312 441.71875 C 396.585938 441.195312 395.957031 440.535156 395.433594 439.679688 C 394.953125 438.796875 394.171875 438.09375 393.5 437.222656 C 392.765625 436.429688 392.273438 435.234375 391.671875 434.050781 C 390.382812 431.816406 388.289062 430.441406 385.742188 430.902344 C 384.484375 431.113281 383.269531 431.398438 382.328125 431.203125 C 381.367188 431.023438 380.542969 430.632812 379.796875 430.214844 C 378.296875 429.300781 377.160156 428.238281 376.351562 427.292969 C 375.511719 426.335938 375.019531 425.527344 375.019531 425.527344 L 375.183594 424.660156 " fill-opacity="1" fill-rule="nonzero"/><path fill="rgb(46.269226%, 33.729553%, 15.289307%)" d="M 135.441406 536.761719 C 135.441406 536.761719 137.523438 542.214844 139.90625 550.046875 C 140.59375 551.980469 141.132812 554.105469 141.851562 556.324219 C 142.601562 558.523438 143.1875 560.863281 143.917969 563.257812 C 144.535156 565.683594 145.179688 568.199219 145.820312 570.746094 C 146.390625 573.335938 147.453125 575.777344 148.261719 578.355469 C 149.339844 580.78125 150.34375 583.265625 151.558594 585.605469 C 152.921875 587.820312 153.953125 590.277344 155.496094 592.238281 C 156.996094 594.230469 158.253906 596.355469 159.886719 597.988281 C 161.472656 599.652344 162.746094 601.523438 164.347656 602.753906 C 165.90625 604.070312 167.3125 605.296875 168.570312 606.378906 C 169.921875 607.335938 171.191406 608.054688 172.183594 608.730469 C 174.21875 610.046875 175.386719 610.808594 175.386719 610.808594 L 175.027344 611.632812 C 175.027344 611.632812 173.722656 611.078125 171.449219 610.136719 C 170.308594 609.640625 168.886719 609.117188 167.34375 608.324219 C 165.859375 607.394531 164.183594 606.363281 162.371094 605.238281 C 160.453125 604.191406 158.851562 602.484375 156.875 600.957031 C 154.839844 599.457031 153.28125 597.347656 151.394531 595.382812 C 149.460938 593.4375 148.039062 591.027344 146.285156 588.765625 C 144.667969 586.414062 143.261719 583.867188 141.777344 581.363281 C 139.1875 576.214844 136.429688 571 134.964844 565.773438 C 133.4375 560.546875 132.988281 555.46875 132.851562 551.171875 C 132.65625 542.484375 134.542969 536.777344 134.542969 536.777344 L 135.441406 536.761719 " fill-opacity="1" fill-rule="nonzero"/><path fill="rgb(46.269226%, 33.729553%, 15.289307%)" d="M 175.625 435.636719 C 175.625 435.636719 174.683594 440.339844 174.488281 447.4375 C 174.351562 450.972656 174.546875 455.09375 174.890625 459.421875 C 175.355469 463.75 176.105469 468.316406 177.453125 472.675781 C 178.683594 477.0625 180.734375 481.121094 182.589844 484.808594 C 183.355469 486.753906 184.3125 488.492188 185.09375 490.257812 C 185.824219 492.042969 186.621094 493.6875 187.457031 495.171875 C 188.222656 496.730469 188.925781 498.167969 189.539062 499.441406 C 190.257812 500.667969 190.859375 501.792969 191.324219 502.78125 C 192.296875 504.667969 192.773438 505.910156 192.773438 505.910156 L 192.175781 506.570312 C 192.175781 506.570312 190.992188 506.089844 189.0625 504.964844 C 187.023438 503.976562 184.375 502.164062 181.691406 499.394531 C 181.003906 498.722656 180.285156 498.003906 179.550781 497.269531 C 178.9375 496.429688 178.308594 495.5625 177.664062 494.675781 C 176.316406 492.894531 175.042969 490.917969 174.128906 488.6875 C 173.140625 486.46875 172.332031 484.117188 171.867188 481.632812 C 171.238281 479.175781 170.789062 476.691406 170.460938 474.171875 C 169.679688 469.1875 169.5625 464.183594 169.726562 459.539062 C 169.921875 454.914062 170.550781 450.644531 171.328125 447.050781 C 172.78125 439.859375 174.773438 435.382812 174.773438 435.382812 L 175.625 435.636719 " fill-opacity="1" fill-rule="nonzero"/></svg>