<svg xmlns="http://www.w3.org/2000/svg" xmlns:xlink="http://www.w3.org/1999/xlink" width="750" zoomAndPan="magnify" viewBox="0 0 750 1124.99995" height="1124.99995" preserveAspectRatio="xMidYMid meet" version="1.0"><path fill="rgb(63.529968%, 44.309998%, 11.759949%)" d="M 417.859375 803.839844 C 372.496094 847.921875 214.296875 843.285156 164.851562 803.839844 C 96.425781 749.261719 87.003906 462.5 87.003906 462.5 L 494.214844 462.5 C 494.214844 462.5 480.574219 742.902344 417.859375 803.839844 " fill-opacity="1" fill-rule="nonzero"/><path fill="rgb(56.079102%, 38.038635%, 11.369324%)" d="M 511.578125 457.820312 C 511.578125 465.289062 471.511719 484.5625 292.945312 486.6875 C 134.765625 488.570312 80.449219 465.289062 80.449219 457.820312 C 80.449219 450.347656 175.847656 436.800781 295.496094 436.800781 C 415.144531 436.800781 511.578125 450.347656 511.578125 457.820312 " fill-opacity="1" fill-rule="nonzero"/><path fill="rgb(56.079102%, 38.038635%, 11.369324%)" d="M 244.945312 550.082031 L 275.636719 835.78125 L 301.085938 551.578125 Z M 244.945312 550.082031 " fill-opacity="1" fill-rule="nonzero"/><path fill="rgb(50.588989%, 9.01947%, 11.759949%)" d="M 223.777344 312.515625 C 220.21875 314.257812 216.523438 317.480469 212.839844 321.113281 C 212.085938 323.324219 211.570312 325.605469 211.457031 327.988281 C 214.761719 322.964844 219.628906 314.738281 226.617188 314.539062 C 222.382812 318.765625 218.65625 324.023438 216.445312 329.773438 C 221.03125 325.773438 227.570312 323.109375 234.085938 323.660156 C 231.269531 324.359375 228.511719 325.601562 226.265625 327.460938 C 224.085938 329.269531 218.554688 333.304688 217.832031 336.15625 C 216.925781 339.710938 223.722656 342.015625 226.527344 343.316406 C 223.101562 343.277344 219.953125 344.042969 216.585938 344.808594 C 212.882812 345.652344 208.207031 345.558594 205.164062 347.886719 C 198.980469 352.609375 198.75 361.5 195.828125 367.777344 C 194.972656 365.246094 193.097656 363.070312 192.046875 360.570312 C 190.996094 358.070312 191.085938 355.632812 190.558594 353.070312 C 184.421875 353.523438 177.664062 358.984375 175 364.382812 C 174.644531 358.410156 180.414062 350.488281 184.523438 346.558594 C 186.980469 344.214844 189.730469 342.082031 192.175781 339.917969 C 180.953125 348.316406 170.136719 361.496094 164.464844 372.621094 C 156.066406 389.074219 165.554688 417.164062 180.660156 426.9375 C 196.425781 437.136719 220.808594 463.066406 266.273438 438.972656 C 271.992188 435.941406 305.730469 424.335938 300.492188 381.515625 C 298.246094 363.152344 277.609375 286.167969 223.777344 312.515625 " fill-opacity="1" fill-rule="nonzero"/><path fill="rgb(66.268921%, 10.978699%, 14.509583%)" d="M 173.800781 366.757812 C 178.25 361.714844 183.679688 354.007812 189.816406 353.558594 C 190.347656 356.128906 190.476562 359.269531 191.523438 361.765625 C 192.578125 364.269531 195.320312 366.339844 196.175781 368.867188 C 199.097656 362.589844 199.628906 353.144531 205.8125 348.417969 C 208.855469 346.09375 213.023438 346.289062 216.730469 345.445312 C 220.089844 344.683594 224.992188 343.84375 228.417969 343.878906 C 225.613281 342.574219 218.808594 339.882812 219.714844 336.335938 C 220.4375 333.484375 224.683594 329.503906 226.859375 327.699219 C 229.109375 325.835938 233.417969 324.054688 236.234375 323.351562 C 229.71875 322.800781 221.722656 323.320312 216.445312 329.773438 C 218.65625 324.023438 224.136719 318.128906 228.367188 313.894531 C 219.09375 314.300781 214.921875 322.046875 211.617188 327.074219 C 211.734375 324.695312 212.980469 322.492188 213.734375 320.285156 C 207.726562 326.207031 200.84375 334.054688 195.496094 337.570312 C 194.390625 338.296875 193.28125 339.09375 192.175781 339.917969 C 189.730469 342.082031 186.980469 344.214844 184.523438 346.558594 C 180.414062 350.488281 173.015625 359.367188 173.800781 366.757812 " fill-opacity="1" fill-rule="nonzero"/><path fill="rgb(76.858521%, 89.7995%, 45.489502%)" d="M 195.167969 361.253906 C 194.976562 360.964844 194.820312 360.683594 194.707031 360.429688 C 194.171875 359.144531 193.914062 357.382812 193.667969 355.683594 C 193.53125 354.753906 193.390625 353.792969 193.207031 352.867188 L 192.59375 349.898438 L 189.566406 350.117188 C 189.15625 350.148438 188.746094 350.199219 188.339844 350.273438 C 186.964844 350.519531 185.65625 351.011719 184.402344 351.667969 C 185.226562 350.738281 186.070312 349.863281 186.910156 349.058594 C 188.351562 347.6875 189.953125 346.339844 191.5 345.039062 C 192.472656 344.21875 193.433594 343.414062 194.355469 342.601562 C 195.515625 341.738281 196.480469 341.050781 197.394531 340.453125 C 200.652344 338.316406 204.308594 334.824219 207.96875 331.105469 L 207.570312 339.53125 L 214.359375 329.195312 L 212.886719 338.121094 L 218.371094 331.527344 C 217.441406 332.820312 216.695312 334.175781 216.363281 335.480469 C 215.734375 337.957031 216.597656 339.976562 218.109375 341.621094 C 217.351562 341.773438 216.628906 341.925781 215.960938 342.078125 C 215.6875 342.140625 215.40625 342.199219 215.125 342.25 C 214.394531 342.378906 213.660156 342.480469 212.921875 342.589844 C 212.089844 342.707031 211.265625 342.824219 210.445312 342.972656 C 208.496094 343.324219 205.964844 343.960938 203.714844 345.675781 C 198.617188 349.570312 196.804688 355.710938 195.207031 361.132812 C 195.191406 361.167969 195.175781 361.210938 195.167969 361.253906 " fill-opacity="1" fill-rule="nonzero"/><path fill="rgb(38.819885%, 15.689087%, 13.328552%)" d="M 204.242188 345.199219 C 204.242188 345.199219 206.535156 303.726562 212.640625 302.609375 C 218.746094 301.496094 205.648438 296 205.648438 296 C 205.648438 296 203.015625 295.957031 201.824219 312.46875 C 200.632812 328.980469 199.824219 349.820312 199.824219 349.820312 L 204.242188 345.199219 " fill-opacity="1" fill-rule="nonzero"/><path fill="rgb(80.778503%, 33.729553%, 43.919373%)" d="M 245.792969 343.1875 C 238.269531 345.75 237.304688 332.964844 241.789062 329.367188 C 243.839844 327.722656 248.214844 328.082031 249.710938 325.976562 C 251.402344 323.597656 248.566406 321.933594 247.492188 320.265625 C 243.722656 314.390625 253.324219 314.566406 256.898438 315.769531 C 261.804688 317.414062 265.878906 319.746094 269.667969 323.355469 C 277.472656 330.796875 283.242188 340.28125 287.019531 350.246094 C 288.886719 355.175781 299.730469 390.945312 291.644531 399.234375 C 287.53125 403.453125 285.269531 383.230469 284.328125 379.511719 C 272.21875 331.855469 245.792969 343.1875 245.792969 343.1875 " fill-opacity="1" fill-rule="nonzero"/><path fill="rgb(56.079102%, 38.038635%, 11.369324%)" d="M 426.847656 524.882812 L 364.964844 828.292969 L 401.890625 541.84375 Z M 426.847656 524.882812 " fill-opacity="1" fill-rule="nonzero"/><path fill="rgb(50.588989%, 9.01947%, 11.759949%)" d="M 460.988281 383.023438 C 457.027344 382.84375 452.246094 383.90625 447.265625 385.332031 C 445.550781 386.914062 444.003906 388.675781 442.765625 390.710938 C 448.070312 387.878906 456.285156 382.984375 462.511719 386.152344 C 456.773438 387.839844 450.988281 390.675781 446.292969 394.664062 C 452.230469 393.347656 459.25 394.136719 464.707031 397.738281 C 461.902344 397.007812 458.886719 396.78125 456.019531 397.339844 C 453.242188 397.878906 446.453125 398.777344 444.453125 400.933594 C 441.960938 403.617188 446.820312 408.894531 448.660156 411.382812 C 445.667969 409.710938 442.539062 408.871094 439.21875 407.9375 C 435.5625 406.902344 431.5 404.585938 427.71875 405.167969 C 420.027344 406.355469 415.574219 414.054688 410.003906 418.164062 C 410.460938 415.535156 409.855469 412.726562 410.128906 410.027344 C 410.40625 407.332031 411.648438 405.238281 412.414062 402.730469 C 406.804688 400.1875 398.257812 401.75 393.339844 405.214844 C 395.882812 399.804688 404.742188 395.605469 410.230469 394.128906 C 413.503906 393.246094 416.941406 392.6875 420.128906 391.960938 C 406.253906 393.960938 390.449219 400.359375 380.144531 407.410156 C 364.894531 417.839844 359.785156 447.046875 368.367188 462.847656 C 377.332031 479.355469 386.328125 513.789062 437.785156 514.390625 C 444.253906 514.472656 479.429688 520.421875 495.320312 480.320312 C 502.136719 463.117188 520.863281 385.652344 460.988281 383.023438 " fill-opacity="1" fill-rule="nonzero"/><path fill="rgb(66.268921%, 10.978699%, 14.509583%)" d="M 391.148438 406.730469 C 397.46875 404.425781 405.925781 400.265625 411.527344 402.808594 C 410.761719 405.3125 409.371094 408.132812 409.097656 410.832031 C 408.824219 413.527344 410.242188 416.660156 409.785156 419.289062 C 415.355469 415.179688 420.339844 407.140625 428.03125 405.949219 C 431.820312 405.363281 435.378906 407.53125 439.042969 408.5625 C 442.359375 409.496094 447.0625 411.109375 450.054688 412.78125 C 448.214844 410.292969 443.523438 404.675781 446.019531 401.988281 C 448.023438 399.832031 453.652344 398.367188 456.429688 397.828125 C 459.296875 397.269531 463.933594 397.765625 466.738281 398.5 C 461.28125 394.898438 454.015625 391.523438 446.292969 394.664062 C 450.988281 390.675781 458.621094 388.121094 464.355469 386.429688 C 456.023438 382.347656 448.652344 387.152344 443.347656 389.984375 C 444.585938 387.949219 446.734375 386.613281 448.449219 385.039062 C 440.34375 387.367188 430.542969 390.957031 424.167969 391.480469 C 422.847656 391.59375 421.496094 391.761719 420.128906 391.960938 C 416.941406 392.6875 413.503906 393.246094 410.230469 394.128906 C 404.742188 395.605469 394 399.863281 391.148438 406.730469 " fill-opacity="1" fill-rule="nonzero"/><path fill="rgb(76.858521%, 89.7995%, 45.489502%)" d="M 412.542969 412.121094 C 412.511719 411.777344 412.507812 411.453125 412.535156 411.175781 C 412.675781 409.785156 413.292969 408.121094 413.890625 406.515625 C 414.214844 405.632812 414.558594 404.71875 414.832031 403.816406 L 415.722656 400.917969 L 412.957031 399.664062 C 412.582031 399.492188 412.195312 399.34375 411.800781 399.210938 C 410.472656 398.773438 409.09375 398.574219 407.683594 398.554688 C 408.847656 398.128906 410.007812 397.765625 411.125 397.464844 C 413.050781 396.945312 415.097656 396.53125 417.082031 396.132812 C 418.328125 395.878906 419.5625 395.628906 420.757812 395.359375 C 422.191406 395.152344 423.363281 395.011719 424.449219 394.925781 C 428.335938 394.609375 433.210938 393.292969 438.210938 391.777344 L 433.828125 398.988281 L 444.738281 393.160156 L 439.171875 400.292969 L 447.144531 397.125 C 445.707031 397.820312 444.40625 398.648438 443.488281 399.636719 C 441.75 401.507812 441.542969 403.695312 442.085938 405.867188 C 441.34375 405.632812 440.636719 405.425781 439.980469 405.238281 C 439.703125 405.160156 439.433594 405.074219 439.160156 404.984375 C 438.460938 404.753906 437.765625 404.492188 437.066406 404.230469 C 436.277344 403.9375 435.496094 403.644531 434.707031 403.382812 C 432.824219 402.757812 430.300781 402.101562 427.503906 402.535156 C 421.164062 403.511719 416.628906 408.039062 412.632812 412.03125 C 412.597656 412.058594 412.570312 412.09375 412.542969 412.121094 " fill-opacity="1" fill-rule="nonzero"/><path fill="rgb(38.819885%, 15.689087%, 13.328552%)" d="M 428.199219 402.367188 C 428.199219 402.367188 450.054688 367.050781 455.949219 368.996094 C 461.839844 370.9375 452.976562 359.847656 452.976562 359.847656 C 452.976562 359.847656 450.683594 358.546875 441.734375 372.476562 C 432.789062 386.402344 422.101562 404.316406 422.101562 404.316406 L 428.199219 402.367188 " fill-opacity="1" fill-rule="nonzero"/><path fill="rgb(80.778503%, 33.729553%, 43.919373%)" d="M 465.636719 420.488281 C 457.808594 419.140625 463.078125 407.453125 468.738281 406.441406 C 471.328125 405.980469 474.996094 408.382812 477.316406 407.25 C 479.941406 405.972656 478.246094 403.15625 478.105469 401.175781 C 477.605469 394.210938 485.949219 398.964844 488.515625 401.730469 C 492.035156 405.527344 494.5 409.519531 496.09375 414.503906 C 499.386719 424.773438 499.910156 435.859375 498.460938 446.417969 C 497.742188 451.640625 490.148438 488.238281 479.074219 491.644531 C 473.445312 493.378906 481.136719 474.546875 482.089844 470.824219 C 494.265625 423.183594 465.636719 420.488281 465.636719 420.488281 " fill-opacity="1" fill-rule="nonzero"/><path fill="rgb(72.938538%, 11.759949%, 14.118958%)" d="M 375.320312 303.261719 C 371.492188 302.246094 366.589844 302.257812 361.425781 302.59375 C 359.410156 303.769531 357.523438 305.15625 355.878906 306.882812 C 361.667969 305.246094 370.734375 302.226562 376.140625 306.648438 C 370.175781 307.074219 363.917969 308.601562 358.480469 311.5 C 364.566406 311.480469 371.253906 313.75 375.816406 318.433594 C 373.230469 317.121094 370.332031 316.253906 367.414062 316.1875 C 364.585938 316.125 357.757812 315.550781 355.34375 317.226562 C 352.332031 319.320312 355.957031 325.515625 357.226562 328.339844 C 354.65625 326.0625 351.777344 324.578125 348.738281 322.957031 C 345.382812 321.160156 341.910156 318.035156 338.089844 317.796875 C 330.320312 317.3125 324.328125 323.882812 318.007812 326.710938 C 319.015625 324.242188 319.023438 321.367188 319.867188 318.789062 C 320.710938 316.207031 322.375 314.425781 323.65625 312.144531 C 318.726562 308.460938 310.042969 308.164062 304.496094 310.5 C 308.136719 305.753906 317.6875 303.546875 323.363281 303.273438 C 326.75 303.113281 330.226562 303.296875 333.5 303.269531 C 319.515625 302.261719 302.710938 305.132812 291.136719 309.824219 C 274.015625 316.757812 262.78125 344.195312 267.792969 361.46875 C 273.023438 379.507812 274.464844 415.074219 324.597656 426.648438 C 330.902344 428.105469 363.996094 441.429688 388.085938 405.648438 C 398.417969 390.300781 433.253906 318.617188 375.320312 303.261719 " fill-opacity="1" fill-rule="nonzero"/><path fill="rgb(66.268921%, 10.978699%, 14.509583%)" d="M 302.027344 311.507812 C 308.699219 310.609375 317.847656 308.351562 322.78125 312.03125 C 321.496094 314.316406 319.539062 316.769531 318.695312 319.347656 C 317.847656 321.925781 318.5625 325.289062 317.558594 327.761719 C 323.875 324.929688 330.464844 318.140625 338.230469 318.625 C 342.054688 318.859375 345.070312 321.738281 348.425781 323.527344 C 351.46875 325.148438 355.71875 327.726562 358.285156 330 C 357.019531 327.175781 353.640625 320.6875 356.648438 318.59375 C 359.066406 316.914062 364.878906 316.6875 367.707031 316.753906 C 370.625 316.816406 375.050781 318.296875 377.636719 319.609375 C 373.074219 314.925781 366.695312 310.078125 358.480469 311.5 C 363.917969 308.601562 371.917969 307.734375 377.882812 307.3125 C 370.613281 301.542969 362.390625 304.664062 356.601562 306.300781 C 358.246094 304.574219 360.628906 303.730469 362.644531 302.558594 C 354.222656 303.09375 343.882812 304.519531 337.546875 303.667969 C 336.230469 303.488281 334.875 303.367188 333.5 303.269531 C 330.226562 303.296875 326.75 303.113281 323.363281 303.273438 C 317.6875 303.546875 306.285156 305.410156 302.027344 311.507812 " fill-opacity="1" fill-rule="nonzero"/><path fill="rgb(76.858521%, 89.7995%, 45.489502%)" d="M 321.777344 321.34375 C 321.824219 321.003906 321.886719 320.691406 321.976562 320.421875 C 322.410156 319.097656 323.367188 317.601562 324.296875 316.15625 C 324.804688 315.363281 325.324219 314.546875 325.792969 313.722656 L 327.277344 311.078125 L 324.847656 309.261719 C 324.515625 309.015625 324.171875 308.789062 323.816406 308.574219 C 322.613281 307.867188 321.304688 307.375 319.929688 307.054688 C 321.15625 306.890625 322.371094 306.78125 323.53125 306.722656 C 325.515625 306.628906 327.609375 306.664062 329.632812 306.695312 C 330.898438 306.714844 332.15625 306.734375 333.386719 306.722656 C 334.828125 306.832031 336.007812 306.945312 337.082031 307.089844 C 340.953125 307.609375 345.996094 307.363281 351.199219 306.957031 L 345.378906 313.058594 L 357.28125 309.695312 L 350.324219 315.476562 L 358.785156 314.082031 C 357.234375 314.453125 355.785156 314.984375 354.675781 315.761719 C 352.582031 317.214844 351.914062 319.304688 351.972656 321.542969 C 351.300781 321.160156 350.65625 320.800781 350.054688 320.480469 C 349.800781 320.34375 349.554688 320.207031 349.308594 320.058594 C 348.675781 319.683594 348.050781 319.277344 347.425781 318.871094 C 346.722656 318.417969 346.011719 317.964844 345.300781 317.539062 C 343.59375 316.535156 341.269531 315.351562 338.445312 315.175781 C 332.042969 314.777344 326.648438 318.230469 321.886719 321.277344 C 321.847656 321.300781 321.816406 321.324219 321.777344 321.34375 " fill-opacity="1" fill-rule="nonzero"/><path fill="rgb(38.819885%, 15.689087%, 13.328552%)" d="M 339.15625 315.160156 C 339.15625 315.160156 368.054688 285.328125 373.398438 288.484375 C 378.738281 291.636719 372.445312 278.910156 372.445312 278.910156 C 372.445312 278.910156 370.484375 277.148438 358.769531 288.847656 C 347.050781 300.542969 332.78125 315.761719 332.78125 315.761719 L 339.15625 315.160156 " fill-opacity="1" fill-rule="nonzero"/><path fill="rgb(80.778503%, 33.729553%, 43.919373%)" d="M 371.867188 340.855469 C 364.503906 337.867188 372.148438 327.574219 377.894531 327.796875 C 380.523438 327.894531 383.589844 331.03125 386.101562 330.421875 C 388.9375 329.730469 387.882812 326.617188 388.164062 324.652344 C 389.167969 317.742188 396.300781 324.167969 398.21875 327.414062 C 400.851562 331.875 402.402344 336.300781 402.898438 341.511719 C 403.921875 352.25 402.066406 363.191406 398.394531 373.199219 C 396.578125 378.148438 381.339844 412.28125 369.800781 413.246094 C 363.925781 413.738281 375.464844 396.980469 377.191406 393.546875 C 399.257812 349.609375 371.867188 340.855469 371.867188 340.855469 " fill-opacity="1" fill-rule="nonzero"/><path fill="rgb(65.489197%, 10.978699%, 14.118958%)" d="M 362.914062 404.738281 C 358.953125 404.566406 354.167969 405.628906 349.195312 407.054688 C 347.476562 408.628906 345.933594 410.398438 344.6875 412.433594 C 349.996094 409.601562 358.207031 404.707031 364.441406 407.875 C 358.703125 409.5625 352.914062 412.394531 348.222656 416.386719 C 354.160156 415.066406 361.175781 415.859375 366.632812 419.460938 C 363.828125 418.726562 360.8125 418.496094 357.949219 419.054688 C 355.171875 419.597656 348.378906 420.496094 346.375 422.652344 C 343.886719 425.335938 348.75 430.613281 350.589844 433.101562 C 347.597656 431.429688 344.464844 430.589844 341.152344 429.652344 C 337.488281 428.617188 333.429688 426.300781 329.644531 426.890625 C 321.953125 428.078125 317.5 435.773438 311.933594 439.886719 C 312.390625 437.257812 311.78125 434.449219 312.058594 431.746094 C 312.332031 429.050781 313.578125 426.953125 314.339844 424.453125 C 308.734375 421.90625 300.191406 423.46875 295.265625 426.929688 C 297.8125 421.527344 306.671875 417.328125 312.15625 415.84375 C 315.433594 414.964844 318.867188 414.40625 322.054688 413.675781 C 308.179688 415.679688 292.378906 422.074219 282.074219 429.125 C 266.824219 439.554688 261.710938 468.761719 270.296875 484.570312 C 279.257812 501.074219 288.257812 535.511719 339.710938 536.113281 C 346.179688 536.1875 381.355469 542.144531 397.25 502.035156 C 404.066406 484.839844 422.792969 407.367188 362.914062 404.738281 " fill-opacity="1" fill-rule="nonzero"/><path fill="rgb(66.268921%, 10.978699%, 14.509583%)" d="M 293.078125 428.449219 C 299.394531 426.148438 307.855469 421.980469 313.457031 424.527344 C 312.691406 427.03125 311.296875 429.847656 311.027344 432.546875 C 310.753906 435.25 312.167969 438.382812 311.714844 441.011719 C 317.28125 436.894531 322.269531 428.855469 329.957031 427.667969 C 333.746094 427.082031 337.308594 429.246094 340.964844 430.28125 C 344.285156 431.21875 348.992188 432.828125 351.984375 434.5 C 350.140625 432.011719 345.453125 426.390625 347.945312 423.707031 C 349.949219 421.550781 355.582031 420.085938 358.359375 419.546875 C 361.21875 418.984375 365.859375 419.484375 368.667969 420.214844 C 363.210938 416.617188 355.945312 413.246094 348.222656 416.386719 C 352.914062 412.394531 360.546875 409.835938 366.285156 408.152344 C 357.953125 404.066406 350.578125 408.871094 345.277344 411.703125 C 346.511719 409.667969 348.660156 408.335938 350.378906 406.757812 C 342.269531 409.082031 332.46875 412.679688 326.09375 413.203125 C 324.777344 413.308594 323.417969 413.480469 322.054688 413.675781 C 318.867188 414.40625 315.433594 414.964844 312.15625 415.84375 C 306.671875 417.328125 295.929688 421.582031 293.078125 428.449219 " fill-opacity="1" fill-rule="nonzero"/><path fill="rgb(76.858521%, 89.7995%, 45.489502%)" d="M 314.472656 433.839844 C 314.4375 433.492188 314.433594 433.175781 314.460938 432.898438 C 314.605469 431.507812 315.222656 429.84375 315.820312 428.230469 C 316.144531 427.351562 316.484375 426.441406 316.761719 425.539062 L 317.644531 422.632812 L 314.886719 421.382812 C 314.507812 421.207031 314.121094 421.058594 313.730469 420.933594 C 312.402344 420.496094 311.023438 420.296875 309.605469 420.273438 C 310.773438 419.851562 311.9375 419.484375 313.054688 419.179688 C 314.976562 418.664062 317.027344 418.25 319.011719 417.847656 C 320.253906 417.597656 321.484375 417.351562 322.6875 417.074219 C 324.117188 416.871094 325.292969 416.734375 326.378906 416.644531 C 330.265625 416.324219 335.140625 415.011719 340.140625 413.5 L 335.753906 420.707031 L 346.664062 414.878906 L 341.101562 422.011719 L 349.074219 418.847656 C 347.632812 419.535156 346.335938 420.371094 345.417969 421.359375 C 343.679688 423.226562 343.46875 425.417969 344.007812 427.585938 C 343.273438 427.351562 342.5625 427.140625 341.90625 426.953125 C 341.632812 426.878906 341.363281 426.796875 341.085938 426.703125 C 340.386719 426.476562 339.6875 426.214844 338.996094 425.949219 C 338.207031 425.65625 337.425781 425.359375 336.636719 425.101562 C 334.75 424.480469 332.226562 423.824219 329.429688 424.25 C 323.09375 425.234375 318.558594 429.761719 314.558594 433.75 C 314.527344 433.78125 314.5 433.808594 314.472656 433.839844 " fill-opacity="1" fill-rule="nonzero"/><path fill="rgb(38.819885%, 15.689087%, 13.328552%)" d="M 330.125 424.089844 C 330.125 424.089844 351.984375 388.773438 357.878906 390.710938 C 363.769531 392.65625 354.90625 381.566406 354.90625 381.566406 C 354.90625 381.566406 352.613281 380.269531 343.664062 394.191406 C 334.714844 408.121094 324.027344 426.03125 324.027344 426.03125 L 330.125 424.089844 " fill-opacity="1" fill-rule="nonzero"/><path fill="rgb(80.778503%, 33.729553%, 43.919373%)" d="M 367.566406 442.207031 C 359.738281 440.855469 365.003906 429.167969 370.664062 428.15625 C 373.257812 427.695312 376.925781 430.105469 379.246094 428.972656 C 381.871094 427.695312 380.171875 424.875 380.03125 422.894531 C 379.535156 415.929688 387.875 420.683594 390.441406 423.449219 C 393.960938 427.242188 396.429688 431.238281 398.023438 436.21875 C 401.316406 446.492188 401.839844 457.578125 400.390625 468.136719 C 399.671875 473.359375 392.070312 509.960938 381.003906 513.367188 C 375.371094 515.101562 383.066406 496.261719 384.019531 492.542969 C 396.195312 444.90625 367.566406 442.207031 367.566406 442.207031 " fill-opacity="1" fill-rule="nonzero"/><path fill="rgb(56.079102%, 38.038635%, 11.369324%)" d="M 135.90625 514.402344 L 197.785156 817.816406 L 160.859375 531.367188 Z M 135.90625 514.402344 " fill-opacity="1" fill-rule="nonzero"/><path fill="rgb(60.389709%, 39.99939%, 11.369324%)" d="M 253.929688 544.089844 L 275.421875 829.792969 L 293.25 545.585938 Z M 253.929688 544.089844 " fill-opacity="1" fill-rule="nonzero"/><path fill="rgb(65.489197%, 10.978699%, 14.118958%)" d="M 144.640625 398.546875 C 148.601562 398.375 153.382812 399.4375 158.355469 400.863281 C 160.074219 402.4375 161.625 404.203125 162.863281 406.234375 C 157.558594 403.40625 149.34375 398.511719 143.117188 401.675781 C 148.855469 403.367188 154.640625 406.203125 159.335938 410.191406 C 153.398438 408.871094 146.378906 409.664062 140.921875 413.265625 C 143.726562 412.535156 146.742188 412.304688 149.609375 412.863281 C 152.386719 413.402344 159.175781 414.300781 161.175781 416.460938 C 163.667969 419.144531 158.808594 424.417969 156.96875 426.910156 C 159.960938 425.234375 163.089844 424.394531 166.40625 423.460938 C 170.066406 422.429688 174.125 420.109375 177.910156 420.695312 C 185.601562 421.882812 190.054688 429.582031 195.625 433.695312 C 195.167969 431.066406 195.773438 428.253906 195.5 425.558594 C 195.222656 422.859375 193.980469 420.761719 193.214844 418.257812 C 198.816406 415.714844 207.363281 417.273438 212.289062 420.738281 C 209.746094 415.332031 200.886719 411.132812 195.394531 409.65625 C 192.125 408.769531 188.683594 408.210938 185.496094 407.484375 C 199.371094 409.488281 215.179688 415.882812 225.484375 422.933594 C 240.730469 433.367188 245.84375 462.570312 237.261719 478.375 C 228.292969 494.878906 219.300781 529.320312 167.84375 529.917969 C 161.375 529.996094 126.199219 535.949219 110.308594 495.847656 C 103.492188 478.648438 84.765625 401.175781 144.640625 398.546875 " fill-opacity="1" fill-rule="nonzero"/><path fill="rgb(66.268921%, 10.978699%, 14.509583%)" d="M 214.480469 422.257812 C 208.160156 419.953125 199.703125 415.789062 194.101562 418.332031 C 194.863281 420.839844 196.257812 423.65625 196.527344 426.355469 C 196.804688 429.050781 195.386719 432.1875 195.84375 434.816406 C 190.273438 430.703125 185.289062 422.664062 177.597656 421.472656 C 173.808594 420.890625 170.25 423.054688 166.585938 424.089844 C 163.269531 425.027344 158.566406 426.632812 155.574219 428.304688 C 157.414062 425.816406 162.101562 420.199219 159.609375 417.511719 C 157.605469 415.355469 151.976562 413.890625 149.199219 413.351562 C 146.335938 412.792969 141.695312 413.289062 138.890625 414.027344 C 144.347656 410.425781 151.613281 407.050781 159.335938 410.191406 C 154.640625 406.203125 147.007812 403.644531 141.273438 401.957031 C 149.605469 397.875 156.976562 402.679688 162.28125 405.507812 C 161.039062 403.476562 158.890625 402.144531 157.175781 400.5625 C 165.285156 402.890625 175.085938 406.488281 181.460938 407.007812 C 182.78125 407.117188 184.136719 407.289062 185.496094 407.484375 C 188.683594 408.210938 192.125 408.769531 195.394531 409.65625 C 200.886719 411.132812 211.628906 415.386719 214.480469 422.257812 " fill-opacity="1" fill-rule="nonzero"/><path fill="rgb(76.858521%, 89.7995%, 45.489502%)" d="M 193.085938 427.644531 C 193.117188 427.300781 193.121094 426.984375 193.09375 426.703125 C 192.949219 425.3125 192.335938 423.652344 191.738281 422.039062 C 191.40625 421.15625 191.070312 420.25 190.796875 419.34375 L 189.90625 416.441406 L 192.671875 415.1875 C 193.046875 415.019531 193.433594 414.867188 193.824219 414.738281 C 195.152344 414.300781 196.535156 414.101562 197.945312 414.078125 C 196.78125 413.660156 195.621094 413.289062 194.496094 412.988281 C 192.578125 412.46875 190.53125 412.054688 188.546875 411.65625 C 187.300781 411.402344 186.066406 411.15625 184.867188 410.882812 C 183.4375 410.675781 182.257812 410.542969 181.175781 410.453125 C 177.292969 410.132812 172.417969 408.816406 167.414062 407.308594 L 171.800781 414.511719 L 160.890625 408.6875 L 166.457031 415.816406 L 158.480469 412.652344 C 159.921875 413.34375 161.222656 414.175781 162.140625 415.164062 C 163.878906 417.03125 164.089844 419.222656 163.542969 421.390625 C 164.285156 421.15625 164.992188 420.949219 165.648438 420.761719 C 165.925781 420.6875 166.195312 420.601562 166.46875 420.507812 C 167.167969 420.28125 167.863281 420.019531 168.5625 419.753906 C 169.34375 419.460938 170.132812 419.167969 170.921875 418.90625 C 172.804688 418.285156 175.328125 417.628906 178.125 418.0625 C 184.464844 419.042969 188.996094 423.566406 192.996094 427.554688 C 193.027344 427.589844 193.058594 427.617188 193.085938 427.644531 " fill-opacity="1" fill-rule="nonzero"/><path fill="rgb(38.819885%, 15.689087%, 13.328552%)" d="M 177.429688 417.894531 C 177.429688 417.894531 155.570312 382.574219 149.679688 384.519531 C 143.789062 386.460938 152.652344 375.375 152.652344 375.375 C 152.652344 375.375 154.945312 374.074219 163.894531 388 C 172.839844 401.929688 183.527344 419.84375 183.527344 419.84375 L 177.429688 417.894531 " fill-opacity="1" fill-rule="nonzero"/><path fill="rgb(80.778503%, 33.729553%, 43.919373%)" d="M 139.988281 436.015625 C 147.820312 434.664062 142.546875 422.980469 136.886719 421.964844 C 134.300781 421.503906 130.632812 423.910156 128.3125 422.777344 C 125.6875 421.496094 127.382812 418.683594 127.523438 416.703125 C 128.023438 409.734375 119.679688 414.488281 117.113281 417.257812 C 113.59375 421.050781 111.128906 425.042969 109.535156 430.03125 C 106.238281 440.296875 105.71875 451.382812 107.167969 461.945312 C 107.886719 467.167969 115.480469 503.761719 126.554688 507.171875 C 132.183594 508.90625 124.488281 490.070312 123.539062 486.351562 C 111.363281 438.710938 139.988281 436.015625 139.988281 436.015625 " fill-opacity="1" fill-rule="nonzero"/><path fill="rgb(72.938538%, 11.759949%, 14.118958%)" d="M 269.570312 414.730469 C 265.738281 413.714844 260.835938 413.730469 255.671875 414.058594 C 253.660156 415.234375 251.773438 416.628906 250.121094 418.351562 C 255.914062 416.714844 264.980469 413.691406 270.390625 418.117188 C 264.425781 418.542969 258.167969 420.070312 252.726562 422.96875 C 258.808594 422.953125 265.5 425.222656 270.0625 429.90625 C 267.476562 428.589844 264.578125 427.722656 261.660156 427.652344 C 258.832031 427.59375 252.003906 427.019531 249.589844 428.699219 C 246.582031 430.789062 250.207031 436.984375 251.472656 439.808594 C 248.90625 437.535156 246.027344 436.046875 242.988281 434.421875 C 239.632812 432.632812 236.160156 429.5 232.339844 429.261719 C 224.570312 428.78125 218.578125 435.351562 212.257812 438.179688 C 213.265625 435.707031 213.273438 432.832031 214.117188 430.253906 C 214.960938 427.675781 216.625 425.898438 217.90625 423.613281 C 212.976562 419.933594 204.292969 419.632812 198.742188 421.964844 C 202.386719 417.222656 211.929688 415.015625 217.613281 414.746094 C 221 414.582031 224.476562 414.769531 227.742188 414.734375 C 213.761719 413.734375 196.957031 416.605469 185.386719 421.292969 C 168.265625 428.226562 157.03125 455.664062 162.042969 472.9375 C 167.277344 490.976562 168.710938 526.539062 218.847656 538.117188 C 225.152344 539.570312 258.246094 552.898438 282.335938 517.117188 C 292.667969 501.769531 327.503906 430.085938 269.570312 414.730469 " fill-opacity="1" fill-rule="nonzero"/><path fill="rgb(66.268921%, 10.978699%, 14.509583%)" d="M 196.277344 422.980469 C 202.941406 422.082031 212.09375 419.820312 217.03125 423.5 C 215.742188 425.785156 213.78125 428.242188 212.9375 430.816406 C 212.09375 433.394531 212.8125 436.761719 211.804688 439.230469 C 218.125 436.402344 224.710938 429.609375 232.476562 430.089844 C 236.300781 430.328125 239.320312 433.203125 242.675781 435 C 245.71875 436.621094 249.96875 439.199219 252.535156 441.472656 C 251.269531 438.648438 247.890625 432.15625 250.894531 430.0625 C 253.316406 428.386719 259.125 428.15625 261.953125 428.222656 C 264.871094 428.289062 269.300781 429.765625 271.886719 431.078125 C 267.324219 426.394531 260.945312 421.550781 252.726562 422.96875 C 258.167969 420.070312 266.167969 419.203125 272.132812 418.78125 C 264.867188 413.011719 256.636719 416.132812 250.847656 417.765625 C 252.496094 416.039062 254.875 415.195312 256.894531 414.027344 C 248.472656 414.5625 238.132812 415.984375 231.792969 415.136719 C 230.480469 414.960938 229.121094 414.839844 227.742188 414.734375 C 224.476562 414.769531 221 414.582031 217.613281 414.746094 C 211.929688 415.015625 200.53125 416.878906 196.277344 422.980469 " fill-opacity="1" fill-rule="nonzero"/><path fill="rgb(76.858521%, 89.7995%, 45.489502%)" d="M 216.03125 432.8125 C 216.074219 432.472656 216.132812 432.15625 216.222656 431.890625 C 216.65625 430.5625 217.617188 429.070312 218.542969 427.625 C 219.050781 426.832031 219.578125 426.019531 220.039062 425.191406 L 221.527344 422.546875 L 219.09375 420.734375 C 218.761719 420.488281 218.417969 420.257812 218.0625 420.042969 C 216.855469 419.335938 215.550781 418.847656 214.175781 418.519531 C 215.402344 418.359375 216.613281 418.25 217.78125 418.195312 C 219.765625 418.101562 221.859375 418.132812 223.875 418.160156 C 225.148438 418.183594 226.40625 418.203125 227.636719 418.195312 C 229.078125 418.300781 230.253906 418.417969 231.332031 418.5625 C 235.199219 419.078125 240.242188 418.832031 245.449219 418.421875 L 239.628906 424.527344 L 251.53125 421.167969 L 244.570312 426.945312 L 253.035156 425.550781 C 251.484375 425.925781 250.035156 426.457031 248.925781 427.226562 C 246.832031 428.683594 246.160156 430.777344 246.226562 433.011719 C 245.550781 432.625 244.902344 432.273438 244.300781 431.945312 C 244.050781 431.816406 243.804688 431.675781 243.554688 431.527344 C 242.921875 431.152344 242.296875 430.75 241.667969 430.34375 C 240.964844 429.886719 240.261719 429.433594 239.546875 429.011719 C 237.835938 428.003906 235.515625 426.820312 232.691406 426.648438 C 226.289062 426.246094 220.894531 429.699219 216.132812 432.746094 C 216.097656 432.769531 216.066406 432.789062 216.03125 432.8125 " fill-opacity="1" fill-rule="nonzero"/><path fill="rgb(38.819885%, 15.689087%, 13.328552%)" d="M 233.40625 426.628906 C 233.40625 426.628906 262.300781 396.792969 267.644531 399.953125 C 272.984375 403.109375 266.695312 390.378906 266.695312 390.378906 C 266.695312 390.378906 264.726562 388.621094 253.015625 400.316406 C 241.300781 412.015625 227.035156 427.230469 227.035156 427.230469 L 233.40625 426.628906 " fill-opacity="1" fill-rule="nonzero"/><path fill="rgb(80.778503%, 33.729553%, 43.919373%)" d="M 266.117188 452.324219 C 258.753906 449.339844 266.394531 439.042969 272.140625 439.261719 C 274.769531 439.367188 277.835938 442.5 280.347656 441.890625 C 283.183594 441.203125 282.128906 438.089844 282.414062 436.121094 C 283.414062 429.210938 290.550781 435.636719 292.464844 438.886719 C 295.097656 443.34375 296.652344 447.773438 297.144531 452.984375 C 298.171875 463.71875 296.316406 474.664062 292.644531 484.667969 C 290.824219 489.617188 275.585938 523.746094 264.042969 524.714844 C 258.175781 525.203125 269.714844 508.445312 271.4375 505.015625 C 293.503906 461.078125 266.117188 452.324219 266.117188 452.324219 " fill-opacity="1" fill-rule="nonzero"/><path fill="rgb(60.389709%, 39.99939%, 11.369324%)" d="M 140.394531 497.929688 L 194.292969 794.859375 L 160.316406 514.898438 Z M 140.394531 497.929688 " fill-opacity="1" fill-rule="nonzero"/><path fill="rgb(60.389709%, 39.99939%, 11.369324%)" d="M 417.363281 521.886719 L 366.460938 825.300781 L 396.839844 538.855469 Z M 417.363281 521.886719 " fill-opacity="1" fill-rule="nonzero"/><path fill="rgb(68.629456%, 50.19989%, 11.369324%)" d="M 477.746094 634.667969 C 473.039062 641.570312 416.828125 659.902344 279.636719 661.535156 C 156.839844 662.996094 108.214844 646.109375 102.773438 638.9375 C 102.773438 638.9375 106.9375 686 113.199219 702.039062 C 113.824219 703.628906 175.523438 718.03125 274.367188 717.023438 C 426.171875 715.464844 460.359375 699.402344 462.027344 699.042969 C 470.472656 697.230469 477.746094 634.667969 477.746094 634.667969 " fill-opacity="1" fill-rule="nonzero"/><path fill="rgb(68.629456%, 50.19989%, 11.369324%)" d="M 510.941406 527.378906 L 514.175781 459.007812 C 508.480469 467.363281 458.949219 481.714844 292.945312 483.691406 C 144.355469 485.460938 84.234375 466.683594 77.644531 458.007812 L 78.925781 527.378906 C 78.546875 527.46875 78.289062 527.5625 78.289062 527.65625 C 78.289062 529.71875 166.964844 552.0625 286.566406 550.835938 C 470.257812 548.953125 511.578125 529.71875 511.578125 527.65625 C 511.578125 527.5625 511.320312 527.46875 510.941406 527.378906 " fill-opacity="1" fill-rule="nonzero"/><path fill="rgb(72.549438%, 71.759033%, 71.369934%)" d="M 137.152344 676.960938 C 137.152344 681.714844 133.296875 685.570312 128.542969 685.570312 C 123.789062 685.570312 119.9375 681.714844 119.9375 676.960938 C 119.9375 672.207031 123.789062 668.355469 128.542969 668.355469 C 133.296875 668.355469 137.152344 672.207031 137.152344 676.960938 " fill-opacity="1" fill-rule="nonzero"/><path fill="rgb(50.588989%, 49.01886%, 49.409485%)" d="M 129.316406 677.03125 C 129.316406 680.507812 128.941406 683.328125 128.472656 683.328125 C 128.011719 683.328125 127.636719 680.507812 127.636719 677.03125 C 127.636719 673.550781 128.011719 670.730469 128.472656 670.730469 C 128.941406 670.730469 129.316406 673.550781 129.316406 677.03125 " fill-opacity="1" fill-rule="nonzero"/><path fill="rgb(50.588989%, 49.01886%, 49.409485%)" d="M 128.464844 676.191406 C 131.945312 676.15625 134.769531 676.5 134.773438 676.960938 C 134.78125 677.429688 131.964844 677.832031 128.484375 677.871094 C 125.007812 677.90625 122.183594 677.5625 122.179688 677.097656 C 122.171875 676.636719 124.988281 676.230469 128.464844 676.191406 " fill-opacity="1" fill-rule="nonzero"/><path fill="rgb(72.549438%, 71.759033%, 71.369934%)" d="M 215.449219 689.242188 C 215.449219 693.996094 211.59375 697.847656 206.84375 697.847656 C 202.082031 697.847656 198.230469 693.996094 198.230469 689.242188 C 198.230469 684.488281 202.082031 680.632812 206.84375 680.632812 C 211.59375 680.632812 215.449219 684.488281 215.449219 689.242188 " fill-opacity="1" fill-rule="nonzero"/><path fill="rgb(50.588989%, 49.01886%, 49.409485%)" d="M 207.609375 689.3125 C 207.609375 692.792969 207.234375 695.613281 206.765625 695.613281 C 206.304688 695.613281 205.929688 692.792969 205.929688 689.3125 C 205.929688 685.835938 206.304688 683.015625 206.765625 683.015625 C 207.234375 683.015625 207.609375 685.835938 207.609375 689.3125 " fill-opacity="1" fill-rule="nonzero"/><path fill="rgb(50.588989%, 49.01886%, 49.409485%)" d="M 206.757812 688.472656 C 210.238281 688.433594 213.0625 688.78125 213.066406 689.246094 C 213.074219 689.707031 210.257812 690.113281 206.777344 690.152344 C 203.300781 690.1875 200.476562 689.84375 200.472656 689.382812 C 200.464844 688.914062 203.28125 688.511719 206.757812 688.472656 " fill-opacity="1" fill-rule="nonzero"/><path fill="rgb(72.549438%, 71.759033%, 71.369934%)" d="M 307.519531 694.792969 C 307.519531 699.546875 303.664062 703.398438 298.910156 703.398438 C 294.15625 703.398438 290.304688 699.546875 290.304688 694.792969 C 290.304688 690.039062 294.15625 686.183594 298.910156 686.183594 C 303.664062 686.183594 307.519531 690.039062 307.519531 694.792969 " fill-opacity="1" fill-rule="nonzero"/><path fill="rgb(50.588989%, 49.01886%, 49.409485%)" d="M 299.679688 694.863281 C 299.679688 698.339844 299.308594 701.164062 298.839844 701.164062 C 298.378906 701.164062 298.003906 698.339844 298.003906 694.863281 C 298.003906 691.386719 298.378906 688.5625 298.839844 688.5625 C 299.308594 688.5625 299.679688 691.386719 299.679688 694.863281 " fill-opacity="1" fill-rule="nonzero"/><path fill="rgb(50.588989%, 49.01886%, 49.409485%)" d="M 298.832031 694.023438 C 302.308594 693.984375 305.136719 694.332031 305.140625 694.796875 C 305.148438 695.257812 302.332031 695.664062 298.851562 695.699219 C 295.375 695.738281 292.550781 695.394531 292.546875 694.933594 C 292.539062 694.464844 295.355469 694.058594 298.832031 694.023438 " fill-opacity="1" fill-rule="nonzero"/><path fill="rgb(72.549438%, 71.759033%, 71.369934%)" d="M 392.109375 688.492188 C 392.109375 693.25 388.253906 697.105469 383.496094 697.105469 C 378.742188 697.105469 374.886719 693.25 374.886719 688.492188 C 374.886719 683.738281 378.742188 679.882812 383.496094 679.882812 C 388.253906 679.882812 392.109375 683.738281 392.109375 688.492188 " fill-opacity="1" fill-rule="nonzero"/><path fill="rgb(50.588989%, 49.01886%, 49.409485%)" d="M 384.269531 688.5625 C 384.269531 692.042969 383.890625 694.863281 383.425781 694.863281 C 382.964844 694.863281 382.585938 692.042969 382.585938 688.5625 C 382.585938 685.085938 382.964844 682.265625 383.425781 682.265625 C 383.890625 682.265625 384.269531 685.085938 384.269531 688.5625 " fill-opacity="1" fill-rule="nonzero"/><path fill="rgb(50.588989%, 49.01886%, 49.409485%)" d="M 383.421875 687.722656 C 386.898438 687.683594 389.722656 688.03125 389.726562 688.496094 C 389.730469 688.957031 386.917969 689.367188 383.433594 689.40625 C 379.957031 689.441406 377.132812 689.09375 377.128906 688.632812 C 377.125 688.167969 379.941406 687.757812 383.421875 687.722656 " fill-opacity="1" fill-rule="nonzero"/><path fill="rgb(72.549438%, 71.759033%, 71.369934%)" d="M 469.277344 670.082031 C 469.277344 674.835938 465.425781 678.691406 460.671875 678.691406 C 455.917969 678.691406 452.0625 674.835938 452.0625 670.082031 C 452.0625 665.328125 455.917969 661.476562 460.671875 661.476562 C 465.425781 661.476562 469.277344 665.328125 469.277344 670.082031 " fill-opacity="1" fill-rule="nonzero"/><path fill="rgb(50.588989%, 49.01886%, 49.409485%)" d="M 461.4375 670.152344 C 461.4375 673.632812 461.0625 676.453125 460.601562 676.453125 C 460.132812 676.453125 459.761719 673.632812 459.761719 670.152344 C 459.761719 666.675781 460.132812 663.851562 460.601562 663.851562 C 461.0625 663.851562 461.4375 666.675781 461.4375 670.152344 " fill-opacity="1" fill-rule="nonzero"/><path fill="rgb(50.588989%, 49.01886%, 49.409485%)" d="M 460.589844 669.3125 C 464.066406 669.277344 466.890625 669.621094 466.898438 670.085938 C 466.902344 670.550781 464.085938 670.953125 460.609375 670.992188 C 457.128906 671.027344 454.304688 670.683594 454.300781 670.222656 C 454.296875 669.757812 457.109375 669.351562 460.589844 669.3125 " fill-opacity="1" fill-rule="nonzero"/><path fill="rgb(72.549438%, 71.759033%, 71.369934%)" d="M 107.65625 498.359375 C 107.65625 503.113281 103.800781 506.96875 99.050781 506.96875 C 94.296875 506.96875 90.4375 503.113281 90.4375 498.359375 C 90.4375 493.605469 94.296875 489.753906 99.050781 489.753906 C 103.800781 489.753906 107.65625 493.605469 107.65625 498.359375 " fill-opacity="1" fill-rule="nonzero"/><path fill="rgb(50.588989%, 49.01886%, 49.409485%)" d="M 99.816406 498.429688 C 99.816406 501.910156 99.441406 504.730469 98.980469 504.730469 C 98.511719 504.730469 98.136719 501.910156 98.136719 498.429688 C 98.136719 494.953125 98.511719 492.132812 98.980469 492.132812 C 99.441406 492.132812 99.816406 494.953125 99.816406 498.429688 " fill-opacity="1" fill-rule="nonzero"/><path fill="rgb(50.588989%, 49.01886%, 49.409485%)" d="M 98.96875 497.589844 C 102.445312 497.554688 105.269531 497.898438 105.273438 498.363281 C 105.28125 498.824219 102.464844 499.230469 98.988281 499.269531 C 95.507812 499.304688 92.683594 498.960938 92.679688 498.5 C 92.671875 498.035156 95.488281 497.628906 98.96875 497.589844 " fill-opacity="1" fill-rule="nonzero"/><path fill="rgb(72.549438%, 71.759033%, 71.369934%)" d="M 179.519531 512.582031 C 179.519531 517.335938 175.664062 521.191406 170.910156 521.191406 C 166.152344 521.191406 162.296875 517.335938 162.296875 512.582031 C 162.296875 507.828125 166.152344 503.976562 170.910156 503.976562 C 175.664062 503.976562 179.519531 507.828125 179.519531 512.582031 " fill-opacity="1" fill-rule="nonzero"/><path fill="rgb(50.588989%, 49.01886%, 49.409485%)" d="M 171.679688 512.652344 C 171.679688 516.132812 171.300781 518.949219 170.835938 518.949219 C 170.375 518.949219 169.996094 516.132812 169.996094 512.652344 C 169.996094 509.175781 170.375 506.351562 170.835938 506.351562 C 171.300781 506.351562 171.679688 509.175781 171.679688 512.652344 " fill-opacity="1" fill-rule="nonzero"/><path fill="rgb(50.588989%, 49.01886%, 49.409485%)" d="M 170.828125 511.8125 C 174.308594 511.777344 177.132812 512.121094 177.136719 512.582031 C 177.140625 513.050781 174.328125 513.453125 170.851562 513.492188 C 167.371094 513.53125 164.546875 513.183594 164.539062 512.722656 C 164.535156 512.257812 167.351562 511.851562 170.828125 511.8125 " fill-opacity="1" fill-rule="nonzero"/><path fill="rgb(72.549438%, 71.759033%, 71.369934%)" d="M 300.035156 520.816406 C 300.035156 525.570312 296.179688 529.425781 291.425781 529.425781 C 286.671875 529.425781 282.820312 525.570312 282.820312 520.816406 C 282.820312 516.066406 286.671875 512.210938 291.425781 512.210938 C 296.179688 512.210938 300.035156 516.066406 300.035156 520.816406 " fill-opacity="1" fill-rule="nonzero"/><path fill="rgb(50.588989%, 49.01886%, 49.409485%)" d="M 292.195312 520.886719 C 292.195312 524.363281 291.816406 527.183594 291.355469 527.183594 C 290.890625 527.183594 290.519531 524.363281 290.519531 520.886719 C 290.519531 517.40625 290.890625 514.585938 291.355469 514.585938 C 291.816406 514.585938 292.195312 517.40625 292.195312 520.886719 " fill-opacity="1" fill-rule="nonzero"/><path fill="rgb(50.588989%, 49.01886%, 49.409485%)" d="M 291.347656 520.050781 C 294.824219 520.011719 297.648438 520.355469 297.652344 520.816406 C 297.664062 521.285156 294.84375 521.691406 291.367188 521.726562 C 287.886719 521.765625 285.0625 521.417969 285.054688 520.953125 C 285.050781 520.492188 287.871094 520.085938 291.347656 520.050781 " fill-opacity="1" fill-rule="nonzero"/><path fill="rgb(72.549438%, 71.759033%, 71.369934%)" d="M 416.808594 516.324219 C 416.808594 521.078125 412.953125 524.933594 408.199219 524.933594 C 403.445312 524.933594 399.59375 521.078125 399.59375 516.324219 C 399.59375 511.570312 403.445312 507.71875 408.199219 507.71875 C 412.953125 507.71875 416.808594 511.570312 416.808594 516.324219 " fill-opacity="1" fill-rule="nonzero"/><path fill="rgb(50.588989%, 49.01886%, 49.409485%)" d="M 408.96875 516.394531 C 408.96875 519.875 408.597656 522.695312 408.128906 522.695312 C 407.667969 522.695312 407.292969 519.875 407.292969 516.394531 C 407.292969 512.917969 407.667969 510.09375 408.128906 510.09375 C 408.597656 510.09375 408.96875 512.917969 408.96875 516.394531 " fill-opacity="1" fill-rule="nonzero"/><path fill="rgb(50.588989%, 49.01886%, 49.409485%)" d="M 408.121094 515.558594 C 411.601562 515.519531 414.425781 515.863281 414.429688 516.332031 C 414.433594 516.792969 411.617188 517.195312 408.140625 517.234375 C 404.664062 517.273438 401.839844 516.925781 401.835938 516.464844 C 401.824219 516 404.644531 515.59375 408.121094 515.558594 " fill-opacity="1" fill-rule="nonzero"/><path fill="rgb(72.549438%, 71.759033%, 71.369934%)" d="M 502.132812 496.769531 C 502.132812 501.523438 498.285156 505.378906 493.527344 505.378906 C 488.773438 505.378906 484.917969 501.523438 484.917969 496.769531 C 484.917969 492.015625 488.773438 488.164062 493.527344 488.164062 C 498.285156 488.164062 502.132812 492.015625 502.132812 496.769531 " fill-opacity="1" fill-rule="nonzero"/><path fill="rgb(50.588989%, 49.01886%, 49.409485%)" d="M 494.292969 496.839844 C 494.292969 500.320312 493.921875 503.140625 493.457031 503.140625 C 492.996094 503.140625 492.617188 500.320312 492.617188 496.839844 C 492.617188 493.363281 492.996094 490.542969 493.457031 490.542969 C 493.921875 490.542969 494.292969 493.363281 494.292969 496.839844 " fill-opacity="1" fill-rule="nonzero"/><path fill="rgb(50.588989%, 49.01886%, 49.409485%)" d="M 493.445312 496.003906 C 496.925781 495.964844 499.75 496.308594 499.757812 496.777344 C 499.761719 497.238281 496.945312 497.648438 493.464844 497.683594 C 489.988281 497.71875 487.164062 497.371094 487.160156 496.910156 C 487.15625 496.445312 489.96875 496.039062 493.445312 496.003906 " fill-opacity="1" fill-rule="nonzero"/><path fill="rgb(78.819275%, 57.649231%, 19.219971%)" d="M 513.675781 457.445312 C 512.773438 455.699219 502.832031 451.925781 487.316406 448.648438 C 484.636719 450.410156 481.832031 451.976562 478.84375 453.214844 C 477.738281 453.675781 476.582031 454.113281 475.414062 454.539062 C 475.210938 454.65625 475.003906 454.773438 474.800781 454.890625 C 481.601562 455.988281 487.410156 457.148438 491.03125 458.382812 C 500.097656 461.472656 491.703125 464.773438 490.691406 465.058594 C 462.910156 472.910156 404.789062 481.238281 293.007812 482.570312 C 203.144531 483.636719 146.109375 476.585938 113.601562 468.929688 C 110.246094 468.136719 104.414062 464.71875 106.351562 461.015625 C 104.453125 458.121094 102.929688 453.160156 101.226562 450.148438 C 100.839844 449.46875 80.078125 453.914062 78.992188 455.230469 C 75.828125 459.0625 78.015625 463.996094 88.3125 472.792969 C 104.3125 486.46875 191.179688 500.746094 283.183594 499.804688 C 466.875 497.921875 498.613281 476.578125 502.449219 474.847656 C 511.988281 470.546875 515.964844 461.871094 513.675781 457.445312 " fill-opacity="1" fill-rule="nonzero"/><path fill="rgb(72.938538%, 11.759949%, 14.118958%)" d="M 557.808594 680.144531 C 555.101562 683.039062 552.796875 687.363281 550.648438 692.070312 C 550.726562 694.402344 551.058594 696.722656 551.796875 698.992188 C 553.097656 693.113281 554.726562 683.695312 561.179688 681.027344 C 558.734375 686.476562 557.121094 692.71875 557.097656 698.878906 C 559.957031 693.511719 565.121094 688.691406 571.410156 686.886719 C 569.027344 688.542969 566.894531 690.6875 565.453125 693.226562 C 564.058594 695.691406 560.328125 701.433594 560.660156 704.355469 C 561.082031 707.996094 568.25 707.734375 571.339844 707.953125 C 568.125 709.136719 565.449219 710.96875 562.582031 712.878906 C 559.414062 714.988281 555.015625 716.566406 552.996094 719.824219 C 548.898438 726.4375 551.847656 734.824219 551.351562 741.730469 C 549.65625 739.675781 547.125 738.304688 545.25 736.34375 C 543.382812 734.382812 542.597656 732.074219 541.191406 729.859375 C 535.617188 732.464844 531.246094 739.972656 530.671875 745.96875 C 528.222656 740.515625 530.792969 731.058594 533.234375 725.925781 C 534.699219 722.859375 536.507812 719.894531 538.027344 716.992188 C 530.523438 728.839844 525.109375 745.003906 523.761719 757.417969 C 521.773438 775.785156 540.632812 798.660156 558.21875 802.417969 C 576.585938 806.339844 608.601562 821.902344 642.519531 783.203125 C 646.785156 778.335938 674.179688 755.488281 654.050781 717.335938 C 645.417969 700.972656 598.742188 636.367188 557.808594 680.144531 " fill-opacity="1" fill-rule="nonzero"/><path fill="rgb(66.268921%, 10.978699%, 14.509583%)" d="M 530.402344 748.617188 C 532.761719 742.324219 535.101562 733.1875 540.679688 730.582031 C 542.082031 732.792969 543.316406 735.683594 545.191406 737.648438 C 547.0625 739.609375 550.363281 740.570312 552.0625 742.625 C 552.5625 735.722656 549.695312 726.707031 553.792969 720.089844 C 555.8125 716.832031 559.777344 715.535156 562.941406 713.429688 C 565.808594 711.511719 570.089844 708.988281 573.304688 707.804688 C 570.21875 707.585938 562.902344 707.488281 562.484375 703.847656 C 562.148438 700.925781 564.699219 695.695312 566.089844 693.234375 C 567.53125 690.695312 570.929688 687.492188 573.304688 685.839844 C 567.023438 687.644531 559.734375 690.972656 557.097656 698.878906 C 557.121094 692.71875 560.140625 685.257812 562.585938 679.800781 C 554.066406 683.476562 552.925781 692.199219 551.625 698.074219 C 550.882812 695.808594 551.273438 693.308594 551.1875 690.976562 C 547.683594 698.652344 544.042969 708.433594 540.292969 713.621094 C 539.511719 714.691406 538.761719 715.828125 538.027344 716.992188 C 536.507812 719.894531 534.699219 722.859375 533.234375 725.925781 C 530.792969 731.058594 527.039062 741.988281 530.402344 748.617188 " fill-opacity="1" fill-rule="nonzero"/><path fill="rgb(76.858521%, 89.7995%, 45.489502%)" d="M 548.410156 735.867188 C 548.128906 735.667969 547.882812 735.46875 547.6875 735.261719 C 546.726562 734.25 545.867188 732.699219 545.027344 731.199219 C 544.570312 730.378906 544.097656 729.53125 543.589844 728.734375 L 541.964844 726.171875 L 539.214844 727.453125 C 538.84375 727.628906 538.480469 727.824219 538.125 728.039062 C 536.925781 728.761719 535.878906 729.679688 534.941406 730.742188 C 535.378906 729.582031 535.855469 728.464844 536.355469 727.410156 C 537.210938 725.617188 538.230469 723.789062 539.214844 722.023438 C 539.835938 720.914062 540.445312 719.8125 541.019531 718.726562 C 541.796875 717.507812 542.453125 716.523438 543.09375 715.640625 C 545.375 712.484375 547.546875 707.921875 549.648438 703.144531 L 552.273438 711.160156 L 554.945312 699.078125 L 556.742188 707.949219 L 559.519531 699.828125 C 559.109375 701.371094 558.894531 702.90625 559.050781 704.242188 C 559.34375 706.777344 560.871094 708.363281 562.871094 709.359375 C 562.214844 709.769531 561.589844 710.171875 561.027344 710.554688 C 560.789062 710.707031 560.546875 710.859375 560.296875 711.011719 C 559.667969 711.390625 559.015625 711.75 558.363281 712.109375 C 557.628906 712.515625 556.898438 712.921875 556.183594 713.347656 C 554.488281 714.375 552.347656 715.867188 550.855469 718.269531 C 547.476562 723.722656 547.96875 730.109375 548.402344 735.746094 C 548.40625 735.785156 548.40625 735.828125 548.410156 735.867188 " fill-opacity="1" fill-rule="nonzero"/><path fill="rgb(38.819885%, 15.689087%, 13.328552%)" d="M 551.183594 717.636719 C 551.183594 717.636719 538.566406 678.0625 543.875 674.851562 C 549.183594 671.636719 534.992188 671.160156 534.992188 671.160156 C 534.992188 671.160156 532.515625 672.054688 537.277344 687.910156 C 542.039062 703.761719 548.695312 723.53125 548.695312 723.53125 L 551.183594 717.636719 " fill-opacity="1" fill-rule="nonzero"/><path fill="rgb(80.778503%, 33.729553%, 43.919373%)" d="M 589.296875 700.972656 C 583.179688 706.046875 577.726562 694.441406 580.640625 689.484375 C 581.96875 687.214844 586.1875 686 586.835938 683.496094 C 587.570312 680.671875 584.328125 680.125 582.730469 678.945312 C 577.113281 674.800781 586.148438 671.550781 589.917969 671.398438 C 595.097656 671.191406 599.730469 671.917969 604.554688 673.945312 C 614.496094 678.121094 623.257812 684.9375 630.339844 692.90625 C 633.839844 696.847656 656.695312 726.417969 652.09375 737.042969 C 649.742188 742.449219 640.441406 724.351562 638.234375 721.210938 C 609.964844 680.984375 589.296875 700.972656 589.296875 700.972656 " fill-opacity="1" fill-rule="nonzero"/></svg>